<svg width="47" height="45" viewBox="0 0 47 45" fill="none" xmlns="http://www.w3.org/2000/svg">
<path d="M0.484 40.9771L3.19 33.8931H4.532L7.216 40.9771H5.984L5.28 39.1511H2.431L1.727 40.9771H0.484ZM2.618 38.2271H5.082L3.85 34.9821L2.618 38.2271ZM10.057 41.0871C9.58767 41.0871 9.17334 41.0064 8.81401 40.8451C8.45467 40.6837 8.17601 40.4161 7.97801 40.0421C7.78001 39.6681 7.68101 39.1657 7.68101 38.5351C7.68101 37.9117 7.78734 37.3874 8.00001 36.9621C8.21267 36.5294 8.50601 36.2031 8.88001 35.9831C9.26134 35.7631 9.69034 35.6531 10.167 35.6531C10.4823 35.6531 10.761 35.6897 11.003 35.7631C11.2523 35.8364 11.4907 35.9501 11.718 36.1041V33.5631H12.917V40.9771H11.894L11.817 40.4601C11.5823 40.6727 11.3257 40.8304 11.047 40.9331C10.7683 41.0357 10.4383 41.0871 10.057 41.0871ZM10.376 40.1851C10.9113 40.1851 11.3587 40.0017 11.718 39.6351V37.0281C11.3733 36.7201 10.9407 36.5661 10.42 36.5661C9.91401 36.5661 9.53267 36.7347 9.27601 37.0721C9.01934 37.4094 8.89101 37.9007 8.89101 38.5461C8.89101 39.1694 9.00834 39.5984 9.24301 39.8331C9.48501 40.0677 9.86267 40.1851 10.376 40.1851ZM16.3519 41.0871C15.8826 41.0871 15.4683 41.0064 15.1089 40.8451C14.7496 40.6837 14.4709 40.4161 14.2729 40.0421C14.0749 39.6681 13.9759 39.1657 13.9759 38.5351C13.9759 37.9117 14.0823 37.3874 14.2949 36.9621C14.5076 36.5294 14.8009 36.2031 15.1749 35.9831C15.5563 35.7631 15.9853 35.6531 16.4619 35.6531C16.7773 35.6531 17.0559 35.6897 17.2979 35.7631C17.5473 35.8364 17.7856 35.9501 18.0129 36.1041V33.5631H19.2119V40.9771H18.1889L18.1119 40.4601C17.8773 40.6727 17.6206 40.8304 17.3419 40.9331C17.0633 41.0357 16.7333 41.0871 16.3519 41.0871ZM16.6709 40.1851C17.2063 40.1851 17.6536 40.0017 18.0129 39.6351V37.0281C17.6683 36.7201 17.2356 36.5661 16.7149 36.5661C16.2089 36.5661 15.8276 36.7347 15.5709 37.0721C15.3143 37.4094 15.1859 37.9007 15.1859 38.5461C15.1859 39.1694 15.3033 39.5984 15.5379 39.8331C15.7799 40.0677 16.1576 40.1851 16.6709 40.1851ZM24.9704 40.9771V34.8281H22.7044V33.8931H28.4244V34.8281H26.1694V40.9771H24.9704ZM29.9714 41.0871C29.6414 41.0871 29.3334 41.0284 29.0474 40.9111C28.7687 40.7937 28.5451 40.6177 28.3764 40.3831C28.2077 40.1411 28.1234 39.8441 28.1234 39.4921C28.1234 38.9934 28.2921 38.5937 28.6294 38.2931C28.9741 37.9851 29.5021 37.8311 30.2134 37.8311H31.8854V37.6001C31.8854 37.3507 31.8451 37.1527 31.7644 37.0061C31.6911 36.8594 31.5517 36.7531 31.3464 36.6871C31.1484 36.6211 30.8551 36.5881 30.4664 36.5881C29.8504 36.5881 29.2747 36.6797 28.7394 36.8631V35.9721C28.9741 35.8767 29.2601 35.7997 29.5974 35.7411C29.9347 35.6824 30.2977 35.6531 30.6864 35.6531C31.4491 35.6531 32.0284 35.8071 32.4244 36.1151C32.8277 36.4231 33.0294 36.9254 33.0294 37.6221V40.9771H32.0064L31.9294 40.4491C31.7167 40.6544 31.4527 40.8121 31.1374 40.9221C30.8294 41.0321 30.4407 41.0871 29.9714 41.0871ZM30.2904 40.2291C30.6497 40.2291 30.9614 40.1704 31.2254 40.0531C31.4967 39.9284 31.7167 39.7634 31.8854 39.5581V38.6451H30.2354C29.8834 38.6451 29.6267 38.7147 29.4654 38.8541C29.3114 38.9861 29.2344 39.1914 29.2344 39.4701C29.2344 39.7414 29.3261 39.9357 29.5094 40.0531C29.6927 40.1704 29.9531 40.2291 30.2904 40.2291ZM36.471 42.9131C36.0823 42.9131 35.6937 42.8874 35.305 42.8361C34.9163 42.7921 34.5863 42.7224 34.315 42.6271V41.7031C34.6083 41.7984 34.9457 41.8717 35.327 41.9231C35.7083 41.9744 36.0713 42.0001 36.416 42.0001C36.944 42.0001 37.329 41.9707 37.571 41.9121C37.813 41.8534 37.934 41.7214 37.934 41.5161C37.934 41.3621 37.8753 41.2521 37.758 41.1861C37.6407 41.1274 37.417 41.0981 37.087 41.0981H35.679C34.733 41.0981 34.26 40.7644 34.26 40.0971C34.26 39.8844 34.3223 39.6864 34.447 39.5031C34.5717 39.3197 34.7697 39.1804 35.041 39.0851C34.7403 38.9384 34.5167 38.7367 34.37 38.4801C34.2307 38.2234 34.161 37.9154 34.161 37.5561C34.161 36.8887 34.359 36.4047 34.755 36.1041C35.1583 35.8034 35.7597 35.6531 36.559 35.6531C36.7277 35.6531 36.9037 35.6677 37.087 35.6971C37.2703 35.7191 37.4133 35.7411 37.516 35.7631H39.43L39.397 36.5441H38.517C38.6563 36.6614 38.759 36.8081 38.825 36.9841C38.891 37.1601 38.924 37.3507 38.924 37.5561C38.924 38.1134 38.7553 38.5534 38.418 38.8761C38.0807 39.1914 37.571 39.3491 36.889 39.3491C36.7717 39.3491 36.6617 39.3454 36.559 39.3381C36.4637 39.3234 36.3573 39.3087 36.24 39.2941C36.02 39.3161 35.822 39.3747 35.646 39.4701C35.47 39.5654 35.382 39.6937 35.382 39.8551C35.382 39.9651 35.426 40.0457 35.514 40.0971C35.602 40.1411 35.7487 40.1631 35.954 40.1631H37.417C37.9377 40.1631 38.3373 40.2767 38.616 40.5041C38.902 40.7241 39.045 41.0467 39.045 41.4721C39.045 41.9854 38.8213 42.3521 38.374 42.5721C37.934 42.7994 37.2997 42.9131 36.471 42.9131ZM36.559 38.5901C37.0357 38.5901 37.3657 38.5094 37.549 38.3481C37.7397 38.1867 37.835 37.9117 37.835 37.5231C37.835 37.1344 37.7397 36.8521 37.549 36.6761C37.3657 36.5001 37.0357 36.4121 36.559 36.4121C36.1117 36.4121 35.7853 36.4964 35.58 36.6651C35.3747 36.8337 35.272 37.1197 35.272 37.5231C35.272 37.8971 35.3673 38.1684 35.558 38.3371C35.756 38.5057 36.0897 38.5901 36.559 38.5901Z" fill="#646466"/>
<rect width="29.9091" height="29.9091" transform="translate(6.40918 0.13623)" fill="white"/>
<path d="M14.5076 13.8621L14.0448 17.5646H11.8528C11.248 17.5646 10.6679 17.8048 10.2402 18.2325C9.81249 18.6602 9.57222 19.2403 9.57222 19.8452C9.57222 20.45 9.81249 21.0301 10.2402 21.4578C10.6679 21.8855 11.248 22.1258 11.8528 22.1258H13.475L13.1331 24.8747C13.1331 24.8748 13.133 24.8749 13.133 24.875C13.0581 25.4751 13.2246 26.0804 13.5959 26.5578L13.9838 26.2561L13.5959 26.5578C13.9673 27.0352 14.5132 27.3456 15.1134 27.4206C15.7136 27.4956 16.319 27.3291 16.7964 26.9577C17.2739 26.5863 17.5842 26.0405 17.6592 25.4403L17.6592 25.4403L18.0733 22.1258H21.7384L21.3956 24.8747C21.3206 25.4749 21.4871 26.0804 21.8584 26.5578C22.2298 27.0352 22.7756 27.3456 23.3759 27.4206C23.9761 27.4956 24.5815 27.3291 25.0589 26.9577C25.5364 26.5863 25.8467 26.0405 25.9217 25.4403L25.9217 25.4403L26.3358 22.1258H29.5607C30.1655 22.1258 30.7456 21.8855 31.1733 21.4578C31.601 21.0301 31.8413 20.45 31.8413 19.8452C31.8413 19.2403 31.601 18.6602 31.1733 18.2325C30.7456 17.8048 30.1655 17.5646 29.5607 17.5646H26.9059L27.3687 13.8621H30.1509C30.7558 13.8621 31.3359 13.6218 31.7636 13.1941C32.1913 12.7664 32.4315 12.1863 32.4315 11.5815C32.4315 10.9766 32.1913 10.3966 31.7636 9.96887C31.3359 9.54117 30.7558 9.3009 30.1509 9.3009H27.9389L28.2828 6.552L28.2828 6.55193C28.3578 5.95172 28.1913 5.3463 27.8199 4.86886C27.4485 4.39141 26.9027 4.08105 26.3025 4.00605C25.7023 3.93105 25.0969 4.09755 24.6194 4.46893C24.142 4.84031 23.8316 5.38614 23.7566 5.98635L23.3415 9.3009H19.6753L20.0191 6.552L20.0191 6.55177C20.0562 6.25457 20.0343 5.95299 19.9548 5.66424C19.8753 5.37549 19.7397 5.10523 19.5557 4.86889C19.3718 4.63255 19.143 4.43476 18.8826 4.28681C18.7557 4.2147 18.6225 4.15512 18.4848 4.10869V4.0599L18.038 4.00425C17.7407 3.96722 17.439 3.98914 17.1502 4.06875C16.8613 4.14836 16.591 4.2841 16.3547 4.46821C16.1183 4.65233 15.9205 4.88122 15.7727 5.14179L16.2161 5.39341L15.7727 5.14179C15.6249 5.40218 15.5299 5.68911 15.493 5.98621C15.493 5.98622 15.4929 5.98624 15.4929 5.98625C15.4929 5.98645 15.4929 5.98665 15.4929 5.98685L15.0778 9.3009H12.4431C11.8382 9.3009 11.2581 9.54117 10.8305 9.96887L11.1909 10.3294L10.8305 9.96887C10.4028 10.3966 10.1625 10.9766 10.1625 11.5815C10.1625 12.1863 10.4028 12.7664 10.8305 13.1941C11.2581 13.6218 11.8382 13.8621 12.4431 13.8621H14.5076ZM18.6434 17.5646L19.1062 13.8621H22.7736L22.3108 17.5646H18.6434Z" fill="white" stroke="#646466" stroke-width="1.01963"/>
</svg>
