<svg width="52" height="45" viewBox="0 0 52 45" fill="none" xmlns="http://www.w3.org/2000/svg">
<path d="M0.484 42L3.19 34.916H4.532L7.216 42H5.984L5.28 40.174H2.431L1.727 42H0.484ZM2.618 39.25H5.082L3.85 36.005L2.618 39.25ZM10.057 42.11C9.58767 42.11 9.17334 42.0293 8.81401 41.868C8.45467 41.7067 8.17601 41.439 7.97801 41.065C7.78001 40.691 7.68101 40.1887 7.68101 39.558C7.68101 38.9347 7.78734 38.4103 8.00001 37.985C8.21267 37.5523 8.50601 37.226 8.88001 37.006C9.26134 36.786 9.69034 36.676 10.167 36.676C10.4823 36.676 10.761 36.7127 11.003 36.786C11.2523 36.8593 11.4907 36.973 11.718 37.127V34.586H12.917V42H11.894L11.817 41.483C11.5823 41.6957 11.3257 41.8533 11.047 41.956C10.7683 42.0587 10.4383 42.11 10.057 42.11ZM10.376 41.208C10.9113 41.208 11.3587 41.0247 11.718 40.658V38.051C11.3733 37.743 10.9407 37.589 10.42 37.589C9.91401 37.589 9.53267 37.7577 9.27601 38.095C9.01934 38.4323 8.89101 38.9237 8.89101 39.569C8.89101 40.1923 9.00834 40.6213 9.24301 40.856C9.48501 41.0907 9.86267 41.208 10.376 41.208ZM16.3519 42.11C15.8826 42.11 15.4683 42.0293 15.1089 41.868C14.7496 41.7067 14.4709 41.439 14.2729 41.065C14.0749 40.691 13.9759 40.1887 13.9759 39.558C13.9759 38.9347 14.0823 38.4103 14.2949 37.985C14.5076 37.5523 14.8009 37.226 15.1749 37.006C15.5563 36.786 15.9853 36.676 16.4619 36.676C16.7773 36.676 17.0559 36.7127 17.2979 36.786C17.5473 36.8593 17.7856 36.973 18.0129 37.127V34.586H19.2119V42H18.1889L18.1119 41.483C17.8773 41.6957 17.6206 41.8533 17.3419 41.956C17.0633 42.0587 16.7333 42.11 16.3519 42.11ZM16.6709 41.208C17.2063 41.208 17.6536 41.0247 18.0129 40.658V38.051C17.6683 37.743 17.2356 37.589 16.7149 37.589C16.2089 37.589 15.8276 37.7577 15.5709 38.095C15.3143 38.4323 15.1859 38.9237 15.1859 39.569C15.1859 40.1923 15.3033 40.6213 15.5379 40.856C15.7799 41.0907 16.1576 41.208 16.6709 41.208ZM23.1334 42V34.916H26.2904C26.8331 34.916 27.2804 35.0187 27.6324 35.224C27.9844 35.4293 28.2448 35.7117 28.4134 36.071C28.5821 36.423 28.6664 36.8263 28.6664 37.281C28.6664 37.985 28.4464 38.5497 28.0064 38.975C27.5738 39.4003 26.9871 39.613 26.2464 39.613H24.3324V42H23.1334ZM24.3324 38.667H26.0264C26.5031 38.667 26.8624 38.5423 27.1044 38.293C27.3464 38.0437 27.4674 37.7063 27.4674 37.281C27.4674 36.8263 27.3501 36.4743 27.1154 36.225C26.8881 35.9757 26.5434 35.851 26.0814 35.851H24.3324V38.667ZM29.6217 42V34.586H30.8207V37.292C31.048 37.1087 31.3194 36.962 31.6347 36.852C31.95 36.7347 32.3057 36.676 32.7017 36.676C33.3617 36.676 33.8494 36.8337 34.1647 37.149C34.48 37.4643 34.6377 37.9557 34.6377 38.623V42H33.4497V38.678C33.4497 38.2747 33.3617 37.9923 33.1857 37.831C33.017 37.6697 32.72 37.589 32.2947 37.589C32.0307 37.589 31.763 37.6477 31.4917 37.765C31.2204 37.875 30.9967 38.0217 30.8207 38.205V42H29.6217ZM38.3707 42.11C37.432 42.11 36.7427 41.8753 36.3027 41.406C35.87 40.9367 35.6537 40.2657 35.6537 39.393C35.6537 38.5203 35.8737 37.8493 36.3137 37.38C36.7537 36.9107 37.4393 36.676 38.3707 36.676C39.3093 36.676 39.9987 36.9107 40.4387 37.38C40.8787 37.8493 41.0987 38.5203 41.0987 39.393C41.0987 40.2657 40.8787 40.9367 40.4387 41.406C40.006 41.8753 39.3167 42.11 38.3707 42.11ZM38.3707 41.098C38.9207 41.098 39.3093 40.966 39.5367 40.702C39.7713 40.4307 39.8887 39.9943 39.8887 39.393C39.8887 38.7917 39.7713 38.359 39.5367 38.095C39.3093 37.831 38.9207 37.699 38.3707 37.699C37.828 37.699 37.4393 37.831 37.2047 38.095C36.9773 38.359 36.8637 38.7917 36.8637 39.393C36.8637 39.9943 36.9773 40.4307 37.2047 40.702C37.4393 40.966 37.828 41.098 38.3707 41.098ZM44.2563 42.11C43.6989 42.11 43.2809 41.9633 43.0023 41.67C42.7309 41.3693 42.5953 40.9623 42.5953 40.449V37.721H41.8253V36.786H42.5953V35.587L43.7833 35.224V36.786H45.1693L45.0923 37.721H43.7833V40.383C43.7833 40.6837 43.8529 40.8963 43.9923 41.021C44.1316 41.1383 44.3589 41.197 44.6743 41.197C44.8723 41.197 45.0813 41.1603 45.3013 41.087V41.934C45.0153 42.0513 44.6669 42.11 44.2563 42.11ZM48.7154 42.11C47.7767 42.11 47.0874 41.8753 46.6474 41.406C46.2147 40.9367 45.9984 40.2657 45.9984 39.393C45.9984 38.5203 46.2184 37.8493 46.6584 37.38C47.0984 36.9107 47.7841 36.676 48.7154 36.676C49.6541 36.676 50.3434 36.9107 50.7834 37.38C51.2234 37.8493 51.4434 38.5203 51.4434 39.393C51.4434 40.2657 51.2234 40.9367 50.7834 41.406C50.3507 41.8753 49.6614 42.11 48.7154 42.11ZM48.7154 41.098C49.2654 41.098 49.6541 40.966 49.8814 40.702C50.1161 40.4307 50.2334 39.9943 50.2334 39.393C50.2334 38.7917 50.1161 38.359 49.8814 38.095C49.6541 37.831 49.2654 37.699 48.7154 37.699C48.1727 37.699 47.7841 37.831 47.5494 38.095C47.3221 38.359 47.2084 38.7917 47.2084 39.393C47.2084 39.9943 47.3221 40.4307 47.5494 40.702C47.7841 40.966 48.1727 41.098 48.7154 41.098Z" fill="#646466"/>
<path d="M15.6745 27.4284H36.325C38.818 27.4284 40.0888 26.1817 40.0888 23.7127V11.1636C40.0888 8.69464 38.818 7.46014 36.325 7.46014H33.5205C32.5857 7.46014 32.2983 7.26837 31.7588 6.66902L30.7877 5.58998C30.2006 4.93131 29.5895 4.57129 28.3427 4.57129H23.5724C22.3379 4.57129 21.7263 4.93131 21.1275 5.58998L20.1563 6.66902C19.6291 7.25609 19.3294 7.46014 18.3946 7.46014H15.674C13.181 7.46014 11.9102 8.69464 11.9102 11.1636V23.7127C11.9102 26.1817 13.1815 27.4284 15.6745 27.4284ZM25.9939 23.593C22.3737 23.593 19.4614 20.6801 19.4614 17.037C19.4614 13.3928 22.3737 10.4809 25.9934 10.4809C29.637 10.4809 32.5376 13.3928 32.5376 17.037C32.5376 20.6801 29.6253 23.593 25.9934 23.593M34.6108 14.1118C33.7957 14.1118 33.1247 13.4531 33.1247 12.638C33.1247 12.2438 33.2813 11.8658 33.56 11.5871C33.8387 11.3084 34.2167 11.1519 34.6108 11.1519C35.005 11.1519 35.3829 11.3084 35.6616 11.5871C35.9403 11.8658 36.0969 12.2438 36.0969 12.638C36.0969 13.4531 35.426 14.1118 34.6108 14.1118ZM25.9939 21.7714C26.6158 21.7722 27.2318 21.6502 27.8065 21.4125C28.3813 21.1749 28.9035 20.8262 29.3433 20.3864C29.7831 19.9466 30.1318 19.4244 30.3694 18.8496C30.6071 18.2749 30.7291 17.6589 30.7283 17.037C30.729 16.4151 30.607 15.7991 30.3693 15.2244C30.1316 14.6498 29.7829 14.1276 29.3431 13.6879C28.9033 13.2481 28.3811 12.8995 27.8064 12.6618C27.2317 12.4242 26.6158 12.3023 25.9939 12.303C23.3807 12.303 21.2717 14.4125 21.2717 17.037C21.2717 19.6619 23.3929 21.7714 25.9939 21.7714Z" fill="white"/>
<path d="M25.9939 23.593C22.3737 23.593 19.4614 20.6801 19.4614 17.037C19.4614 13.3928 22.3737 10.4809 25.9934 10.4809C29.637 10.4809 32.5376 13.3928 32.5376 17.037C32.5376 20.6801 29.6253 23.593 25.9934 23.593M15.6745 27.4284H36.325C38.818 27.4284 40.0888 26.1817 40.0888 23.7127V11.1636C40.0888 8.69464 38.818 7.46014 36.325 7.46014H33.5205C32.5857 7.46014 32.2983 7.26837 31.7588 6.66902L30.7877 5.58998C30.2006 4.93131 29.5895 4.57129 28.3427 4.57129H23.5724C22.3379 4.57129 21.7263 4.93131 21.1275 5.58998L20.1563 6.66902C19.6291 7.25609 19.3294 7.46014 18.3946 7.46014H15.674C13.181 7.46014 11.9102 8.69464 11.9102 11.1636V23.7127C11.9102 26.1817 13.1815 27.4284 15.6745 27.4284ZM34.6108 14.1118C33.7957 14.1118 33.1247 13.4531 33.1247 12.638C33.1247 12.2438 33.2813 11.8658 33.56 11.5871C33.8387 11.3084 34.2167 11.1519 34.6108 11.1519C35.005 11.1519 35.3829 11.3084 35.6616 11.5871C35.9403 11.8658 36.0969 12.2438 36.0969 12.638C36.0969 13.4531 35.426 14.1118 34.6108 14.1118ZM25.9939 21.7714C26.6158 21.7722 27.2318 21.6502 27.8065 21.4125C28.3813 21.1749 28.9035 20.8262 29.3433 20.3864C29.7831 19.9466 30.1318 19.4244 30.3694 18.8496C30.6071 18.2749 30.7291 17.6589 30.7283 17.037C30.729 16.4151 30.607 15.7991 30.3693 15.2244C30.1316 14.6498 29.7829 14.1276 29.3431 13.6879C28.9033 13.2481 28.3811 12.8995 27.8064 12.6618C27.2317 12.4242 26.6158 12.3023 25.9939 12.303C23.3807 12.303 21.2717 14.4125 21.2717 17.037C21.2717 19.6619 23.3929 21.7714 25.9939 21.7714Z" stroke="#646466" stroke-width="1.06667"/>
</svg>
