<svg width="64" height="41" viewBox="0 0 64 41" fill="none" xmlns="http://www.w3.org/2000/svg">
<path d="M0.484 38L3.19 30.916H4.532L7.216 38H5.984L5.28 36.174H2.431L1.727 38H0.484ZM2.618 35.25H5.082L3.85 32.005L2.618 35.25ZM10.1331 38.11C9.77382 38.11 9.42915 38.0843 9.09915 38.033C8.77648 37.9817 8.50882 37.9193 8.29615 37.846V36.834C8.54548 36.9293 8.82048 37.0027 9.12115 37.054C9.42182 37.1053 9.70782 37.131 9.97915 37.131C10.3898 37.131 10.6831 37.0943 10.8591 37.021C11.0351 36.9477 11.1231 36.8047 11.1231 36.592C11.1231 36.438 11.0681 36.317 10.9581 36.229C10.8555 36.141 10.6978 36.0603 10.4851 35.987C10.2798 35.9137 10.0158 35.8257 9.69315 35.723C9.38515 35.6203 9.11748 35.5103 8.89015 35.393C8.66282 35.2683 8.48682 35.1107 8.36215 34.92C8.23748 34.7293 8.17515 34.48 8.17515 34.172C8.17515 33.6953 8.34748 33.3287 8.69215 33.072C9.03682 32.808 9.59048 32.676 10.3531 32.676C10.6538 32.676 10.9398 32.698 11.2111 32.742C11.4825 32.786 11.7135 32.841 11.9041 32.907V33.908C11.6988 33.8273 11.4715 33.765 11.2221 33.721C10.9801 33.677 10.7528 33.655 10.5401 33.655C10.1588 33.655 9.86915 33.688 9.67115 33.754C9.48048 33.82 9.38515 33.952 9.38515 34.15C9.38515 34.3553 9.48415 34.502 9.68215 34.59C9.88748 34.6707 10.2138 34.7843 10.6611 34.931C11.0718 35.0557 11.3981 35.1877 11.6401 35.327C11.8821 35.4663 12.0545 35.635 12.1571 35.833C12.2671 36.0237 12.3221 36.273 12.3221 36.581C12.3221 37.0943 12.1351 37.4793 11.7611 37.736C11.3871 37.9853 10.8445 38.11 10.1331 38.11ZM13.4977 38V30.586H14.6967V34.876L16.8857 32.786H18.2607L16.1377 34.887L18.3817 38H17.1167L15.3897 35.525L14.6967 36.185V38H13.4977ZM23.778 38V31.851H21.512V30.916H27.232V31.851H24.977V38H23.778ZM29.648 38.11C28.7093 38.11 28.02 37.8753 27.58 37.406C27.1473 36.9367 26.931 36.2657 26.931 35.393C26.931 34.5203 27.151 33.8493 27.591 33.38C28.031 32.9107 28.7167 32.676 29.648 32.676C30.5867 32.676 31.276 32.9107 31.716 33.38C32.156 33.8493 32.376 34.5203 32.376 35.393C32.376 36.2657 32.156 36.9367 31.716 37.406C31.2833 37.8753 30.594 38.11 29.648 38.11ZM29.648 37.098C30.198 37.098 30.5867 36.966 30.814 36.702C31.0487 36.4307 31.166 35.9943 31.166 35.393C31.166 34.7917 31.0487 34.359 30.814 34.095C30.5867 33.831 30.198 33.699 29.648 33.699C29.1053 33.699 28.7167 33.831 28.482 34.095C28.2547 34.359 28.141 34.7917 28.141 35.393C28.141 35.9943 28.2547 36.4307 28.482 36.702C28.7167 36.966 29.1053 37.098 29.648 37.098ZM36.0778 38V30.916H40.8958V31.851H37.2768V33.996H40.4888V34.92H37.2768V38H36.0778ZM42.1252 31.697V30.707H43.4342V31.697H42.1252ZM42.2242 38V33.699H41.4322L41.5422 32.786H43.4232V38H42.2242ZM46.1199 38.11C45.6946 38.11 45.3719 38.0073 45.1519 37.802C44.9319 37.5893 44.8219 37.241 44.8219 36.757V30.586H46.0209V36.647C46.0209 36.8523 46.0576 36.9917 46.1309 37.065C46.2042 37.1383 46.3142 37.175 46.4609 37.175C46.6369 37.175 46.8056 37.153 46.9669 37.109V37.978C46.8276 38.0293 46.6919 38.0623 46.5599 38.077C46.4352 38.099 46.2886 38.11 46.1199 38.11ZM50.7649 38.11C50.3836 38.11 50.0536 38.0587 49.7749 37.956C49.4962 37.8533 49.2396 37.6957 49.0049 37.483L48.9389 38H47.9049V30.586H49.1039V33.127C49.5586 32.8263 50.1049 32.676 50.7429 32.676C51.4836 32.676 52.0666 32.8887 52.4919 33.314C52.9246 33.732 53.1409 34.4103 53.1409 35.349C53.1409 36.295 52.9282 36.9917 52.5029 37.439C52.0776 37.8863 51.4982 38.11 50.7649 38.11ZM50.4459 37.208C50.9886 37.208 51.3699 37.054 51.5899 36.746C51.8172 36.438 51.9309 35.9723 51.9309 35.349C51.9309 34.7037 51.8099 34.249 51.5679 33.985C51.3259 33.721 50.9446 33.589 50.4239 33.589C49.8812 33.589 49.4412 33.7393 49.1039 34.04V36.658C49.4486 37.0247 49.8959 37.208 50.4459 37.208ZM56.8043 38.11C55.8656 38.11 55.1763 37.8753 54.7363 37.406C54.3036 36.9367 54.0873 36.2657 54.0873 35.393C54.0873 34.5203 54.3073 33.8493 54.7473 33.38C55.1873 32.9107 55.8729 32.676 56.8043 32.676C57.7429 32.676 58.4323 32.9107 58.8723 33.38C59.3123 33.8493 59.5323 34.5203 59.5323 35.393C59.5323 36.2657 59.3123 36.9367 58.8723 37.406C58.4396 37.8753 57.7503 38.11 56.8043 38.11ZM56.8043 37.098C57.3543 37.098 57.7429 36.966 57.9703 36.702C58.2049 36.4307 58.3223 35.9943 58.3223 35.393C58.3223 34.7917 58.2049 34.359 57.9703 34.095C57.7429 33.831 57.3543 33.699 56.8043 33.699C56.2616 33.699 55.8729 33.831 55.6383 34.095C55.4109 34.359 55.2973 34.7917 55.2973 35.393C55.2973 35.9943 55.4109 36.4307 55.6383 36.702C55.8729 36.966 56.2616 37.098 56.8043 37.098ZM62.6899 38.11C62.1325 38.11 61.7145 37.9633 61.4359 37.67C61.1645 37.3693 61.0289 36.9623 61.0289 36.449V33.721H60.2589V32.786H61.0289V31.587L62.2169 31.224V32.786H63.6029L63.5259 33.721H62.2169V36.383C62.2169 36.6837 62.2865 36.8963 62.4259 37.021C62.5652 37.1383 62.7925 37.197 63.1079 37.197C63.3059 37.197 63.5149 37.1603 63.7349 37.087V37.934C63.4489 38.0513 63.1005 38.11 62.6899 38.11Z" fill="#646466"/>
<mask id="path-2-outside-1_1282_5291" maskUnits="userSpaceOnUse" x="12" y="0" width="35" height="25" fill="black">
<rect fill="white" x="12" width="35" height="25"/>
<path d="M14.1865 18.478C14.4854 18.6187 14.7842 18.7593 15.083 18.8999C15.3906 19.0317 15.729 19.1636 16.0981 19.2954C16.1597 19.1284 16.1904 18.8647 16.1904 18.5044C16.1904 18.2583 16.186 18.0693 16.1772 17.9375C16.1421 17.2607 16.0718 16.2324 15.9663 14.8525C15.8608 13.4111 15.7817 12.2378 15.729 11.3325C15.6763 10.4272 15.6499 9.57031 15.6499 8.76172C15.6499 8.51562 15.6587 8.17285 15.6763 7.7334L15.7158 7.11377L13.7515 6.83691C13.6372 6.51172 13.5493 6.15576 13.4878 5.76904C13.4263 5.37354 13.3955 4.99121 13.3955 4.62207C13.3955 4.34082 13.4175 4.0332 13.4614 3.69922C14.5161 3.29492 15.8433 3.00488 17.4429 2.8291C19.0425 2.65332 20.6948 2.56543 22.3999 2.56543C24.1226 2.56543 25.3091 2.64014 25.9595 2.78955L25.9727 2.77637C26.4473 3.05762 26.8604 3.35205 27.2119 3.65967C27.5723 3.9585 27.915 4.32324 28.2402 4.75391C28.2402 5.36035 28.1655 6.05908 28.0161 6.8501C27.8755 7.63232 27.6909 8.35303 27.4624 9.01221C27.2427 9.67139 27.0142 10.1372 26.7769 10.4097C26.5659 10.5063 26.3374 10.5811 26.0913 10.6338C25.8452 10.6777 25.5464 10.6997 25.1948 10.6997C24.8257 10.6997 24.5444 10.6733 24.3511 10.6206C24.1665 10.5679 23.9644 10.48 23.7446 10.3569L23.2964 7.04785C23.0063 6.98633 22.6548 6.95557 22.2417 6.95557C21.8726 6.95557 21.4814 6.97754 21.0684 7.02148C21.042 7.43457 21.0112 8.11572 20.9761 9.06494C20.9585 9.75928 20.9321 10.4316 20.897 11.082L20.7915 13.376C22.936 13.1123 24.7246 12.8354 26.1572 12.5454C26.5088 13.064 26.6846 13.7319 26.6846 14.5493C26.6846 15.0854 26.6143 15.5996 26.4736 16.0918C26.333 16.584 26.1792 16.9224 26.0122 17.1069C25.7397 17.1509 25.3794 17.1729 24.9312 17.1729C24.2632 17.1729 23.5469 17.1113 22.7822 16.9883C22.0264 16.8564 21.3057 16.6763 20.6201 16.4478C20.5674 17.23 20.5015 17.9858 20.4224 18.7153C20.3433 19.4097 20.2334 20.0161 20.0928 20.5347C19.9609 21.0444 19.7544 21.4883 19.4731 21.8662C19.1128 22.3408 18.6514 22.6924 18.0889 22.9209C17.5352 23.1494 16.9375 23.2637 16.2959 23.2637C15.707 23.2637 15.127 23.1274 14.5557 22.855C13.9932 22.5825 13.5317 22.1211 13.1714 21.4707C13.1802 20.8994 13.2505 20.3853 13.3823 19.9282C13.5229 19.4712 13.791 18.9878 14.1865 18.478ZM28.9653 4.08154C28.9653 3.30811 29.2158 2.67969 29.7168 2.19629C30.2266 1.71289 31.0352 1.47119 32.1426 1.47119C33.25 1.47119 34.0542 1.71289 34.5552 2.19629C35.0649 2.67969 35.3198 3.30811 35.3198 4.08154C35.3198 4.521 35.166 4.92529 34.8584 5.29443C34.5596 5.66357 34.1641 5.95801 33.6719 6.17773C33.1797 6.38867 32.6699 6.49414 32.1426 6.49414C31.5713 6.49414 31.0396 6.37109 30.5474 6.125C30.064 5.87012 29.6772 5.55371 29.3872 5.17578C29.106 4.79785 28.9653 4.43311 28.9653 4.08154ZM28.3193 11.6226C28.2051 11.1919 28.126 10.8008 28.082 10.4492C28.0381 10.0889 28.0161 9.71533 28.0161 9.32861L28.0293 8.95947C28.2139 8.72217 28.4995 8.48486 28.8862 8.24756C29.2817 8.00146 29.7388 7.79492 30.2573 7.62793C30.7847 7.46094 31.3296 7.37744 31.8921 7.37744C33.1226 7.37744 33.9971 7.6543 34.5156 8.20801C35.0342 8.76172 35.2935 9.62305 35.2935 10.792C35.2935 11.4951 35.1924 12.4136 34.9902 13.5474C34.7969 14.6812 34.5596 15.7842 34.2783 16.8564C34.0059 17.9199 33.7686 18.6802 33.5664 19.1372L33.5928 19.1636L35.5439 18.4517C35.8955 18.7505 36.1592 19.0801 36.335 19.4404C36.5195 19.8008 36.6382 20.2183 36.6909 20.6929C36.6909 20.7544 36.4976 21.0093 36.1108 21.4575C35.7241 21.897 35.21 22.3101 34.5684 22.6968C33.9355 23.0747 33.2017 23.2637 32.3667 23.2637C31.5229 23.2637 30.8374 23.0352 30.3101 22.5781C29.7915 22.1211 29.5322 21.3389 29.5322 20.2314C29.5322 18.9395 29.5674 17.5684 29.6377 16.1182C29.708 14.668 29.8179 13.2617 29.9673 11.8994L28.3193 11.6226ZM37.4556 5.75586C37.3237 5.21973 37.2358 4.77588 37.1919 4.42432C37.1479 4.06396 37.1304 3.65088 37.1392 3.18506C37.3237 2.94775 37.6094 2.71045 37.9961 2.47314C38.3916 2.22705 38.8486 2.02051 39.3672 1.85352C39.8945 1.68652 40.4395 1.60303 41.002 1.60303C42.1006 1.60303 42.9443 1.87988 43.5332 2.43359C44.1221 2.9873 44.4165 3.80469 44.4165 4.88574C44.4165 5.65918 44.3506 6.90283 44.2188 8.6167C44.0869 10.3306 43.8979 12.1543 43.6519 14.0879C43.4058 16.0127 43.1245 17.6958 42.8081 19.1372L42.8345 19.1636L44.7856 18.3462C45.4712 18.9351 45.8711 19.7173 45.9854 20.6929C45.9854 20.7544 45.7876 21.0093 45.3921 21.4575C44.9966 21.897 44.4736 22.3101 43.8232 22.6968C43.1816 23.0747 42.4434 23.2637 41.6084 23.2637C40.7383 23.2637 40.0308 23.022 39.4858 22.5386C38.9497 22.0552 38.6948 21.229 38.7212 20.0601L38.7476 17.687C38.7563 15.437 38.7783 13.4111 38.8135 11.6094C38.8574 9.80762 38.9453 7.94873 39.0771 6.03271L37.4556 5.75586Z"/>
</mask>
<path d="M14.1865 18.478C14.4854 18.6187 14.7842 18.7593 15.083 18.8999C15.3906 19.0317 15.729 19.1636 16.0981 19.2954C16.1597 19.1284 16.1904 18.8647 16.1904 18.5044C16.1904 18.2583 16.186 18.0693 16.1772 17.9375C16.1421 17.2607 16.0718 16.2324 15.9663 14.8525C15.8608 13.4111 15.7817 12.2378 15.729 11.3325C15.6763 10.4272 15.6499 9.57031 15.6499 8.76172C15.6499 8.51562 15.6587 8.17285 15.6763 7.7334L15.7158 7.11377L13.7515 6.83691C13.6372 6.51172 13.5493 6.15576 13.4878 5.76904C13.4263 5.37354 13.3955 4.99121 13.3955 4.62207C13.3955 4.34082 13.4175 4.0332 13.4614 3.69922C14.5161 3.29492 15.8433 3.00488 17.4429 2.8291C19.0425 2.65332 20.6948 2.56543 22.3999 2.56543C24.1226 2.56543 25.3091 2.64014 25.9595 2.78955L25.9727 2.77637C26.4473 3.05762 26.8604 3.35205 27.2119 3.65967C27.5723 3.9585 27.915 4.32324 28.2402 4.75391C28.2402 5.36035 28.1655 6.05908 28.0161 6.8501C27.8755 7.63232 27.6909 8.35303 27.4624 9.01221C27.2427 9.67139 27.0142 10.1372 26.7769 10.4097C26.5659 10.5063 26.3374 10.5811 26.0913 10.6338C25.8452 10.6777 25.5464 10.6997 25.1948 10.6997C24.8257 10.6997 24.5444 10.6733 24.3511 10.6206C24.1665 10.5679 23.9644 10.48 23.7446 10.3569L23.2964 7.04785C23.0063 6.98633 22.6548 6.95557 22.2417 6.95557C21.8726 6.95557 21.4814 6.97754 21.0684 7.02148C21.042 7.43457 21.0112 8.11572 20.9761 9.06494C20.9585 9.75928 20.9321 10.4316 20.897 11.082L20.7915 13.376C22.936 13.1123 24.7246 12.8354 26.1572 12.5454C26.5088 13.064 26.6846 13.7319 26.6846 14.5493C26.6846 15.0854 26.6143 15.5996 26.4736 16.0918C26.333 16.584 26.1792 16.9224 26.0122 17.1069C25.7397 17.1509 25.3794 17.1729 24.9312 17.1729C24.2632 17.1729 23.5469 17.1113 22.7822 16.9883C22.0264 16.8564 21.3057 16.6763 20.6201 16.4478C20.5674 17.23 20.5015 17.9858 20.4224 18.7153C20.3433 19.4097 20.2334 20.0161 20.0928 20.5347C19.9609 21.0444 19.7544 21.4883 19.4731 21.8662C19.1128 22.3408 18.6514 22.6924 18.0889 22.9209C17.5352 23.1494 16.9375 23.2637 16.2959 23.2637C15.707 23.2637 15.127 23.1274 14.5557 22.855C13.9932 22.5825 13.5317 22.1211 13.1714 21.4707C13.1802 20.8994 13.2505 20.3853 13.3823 19.9282C13.5229 19.4712 13.791 18.9878 14.1865 18.478ZM28.9653 4.08154C28.9653 3.30811 29.2158 2.67969 29.7168 2.19629C30.2266 1.71289 31.0352 1.47119 32.1426 1.47119C33.25 1.47119 34.0542 1.71289 34.5552 2.19629C35.0649 2.67969 35.3198 3.30811 35.3198 4.08154C35.3198 4.521 35.166 4.92529 34.8584 5.29443C34.5596 5.66357 34.1641 5.95801 33.6719 6.17773C33.1797 6.38867 32.6699 6.49414 32.1426 6.49414C31.5713 6.49414 31.0396 6.37109 30.5474 6.125C30.064 5.87012 29.6772 5.55371 29.3872 5.17578C29.106 4.79785 28.9653 4.43311 28.9653 4.08154ZM28.3193 11.6226C28.2051 11.1919 28.126 10.8008 28.082 10.4492C28.0381 10.0889 28.0161 9.71533 28.0161 9.32861L28.0293 8.95947C28.2139 8.72217 28.4995 8.48486 28.8862 8.24756C29.2817 8.00146 29.7388 7.79492 30.2573 7.62793C30.7847 7.46094 31.3296 7.37744 31.8921 7.37744C33.1226 7.37744 33.9971 7.6543 34.5156 8.20801C35.0342 8.76172 35.2935 9.62305 35.2935 10.792C35.2935 11.4951 35.1924 12.4136 34.9902 13.5474C34.7969 14.6812 34.5596 15.7842 34.2783 16.8564C34.0059 17.9199 33.7686 18.6802 33.5664 19.1372L33.5928 19.1636L35.5439 18.4517C35.8955 18.7505 36.1592 19.0801 36.335 19.4404C36.5195 19.8008 36.6382 20.2183 36.6909 20.6929C36.6909 20.7544 36.4976 21.0093 36.1108 21.4575C35.7241 21.897 35.21 22.3101 34.5684 22.6968C33.9355 23.0747 33.2017 23.2637 32.3667 23.2637C31.5229 23.2637 30.8374 23.0352 30.3101 22.5781C29.7915 22.1211 29.5322 21.3389 29.5322 20.2314C29.5322 18.9395 29.5674 17.5684 29.6377 16.1182C29.708 14.668 29.8179 13.2617 29.9673 11.8994L28.3193 11.6226ZM37.4556 5.75586C37.3237 5.21973 37.2358 4.77588 37.1919 4.42432C37.1479 4.06396 37.1304 3.65088 37.1392 3.18506C37.3237 2.94775 37.6094 2.71045 37.9961 2.47314C38.3916 2.22705 38.8486 2.02051 39.3672 1.85352C39.8945 1.68652 40.4395 1.60303 41.002 1.60303C42.1006 1.60303 42.9443 1.87988 43.5332 2.43359C44.1221 2.9873 44.4165 3.80469 44.4165 4.88574C44.4165 5.65918 44.3506 6.90283 44.2188 8.6167C44.0869 10.3306 43.8979 12.1543 43.6519 14.0879C43.4058 16.0127 43.1245 17.6958 42.8081 19.1372L42.8345 19.1636L44.7856 18.3462C45.4712 18.9351 45.8711 19.7173 45.9854 20.6929C45.9854 20.7544 45.7876 21.0093 45.3921 21.4575C44.9966 21.897 44.4736 22.3101 43.8232 22.6968C43.1816 23.0747 42.4434 23.2637 41.6084 23.2637C40.7383 23.2637 40.0308 23.022 39.4858 22.5386C38.9497 22.0552 38.6948 21.229 38.7212 20.0601L38.7476 17.687C38.7563 15.437 38.7783 13.4111 38.8135 11.6094C38.8574 9.80762 38.9453 7.94873 39.0771 6.03271L37.4556 5.75586Z" fill="white"/>
<path d="M14.1865 18.478L14.6123 17.5732L13.8875 17.2321L13.3964 17.865L14.1865 18.478ZM15.083 18.8999L14.6572 19.8047L14.673 19.8122L14.6891 19.819L15.083 18.8999ZM16.0981 19.2954L15.7618 20.2372L16.6942 20.5702L17.0365 19.6411L16.0981 19.2954ZM16.1772 17.9375L15.1786 17.9894L15.179 17.9967L15.1795 18.004L16.1772 17.9375ZM15.9663 14.8525L14.969 14.9255L14.9692 14.9287L15.9663 14.8525ZM15.6763 7.7334L14.6783 7.6697L14.6775 7.68156L14.6771 7.69343L15.6763 7.7334ZM15.7158 7.11377L16.7138 7.17747L16.7728 6.25286L15.8554 6.12356L15.7158 7.11377ZM13.7515 6.83691L12.808 7.1684L13.0096 7.74224L13.6119 7.82713L13.7515 6.83691ZM13.4878 5.76904L12.4997 5.92275L12.5002 5.92616L13.4878 5.76904ZM13.4614 3.69922L13.1035 2.76547L12.5476 2.97855L12.47 3.56876L13.4614 3.69922ZM25.9595 2.78955L25.7356 3.76416L26.2751 3.88811L26.6666 3.49666L25.9595 2.78955ZM25.9727 2.77637L26.4825 1.91608L25.8145 1.52027L25.2655 2.06926L25.9727 2.77637ZM27.2119 3.65967L26.5534 4.41224L26.5634 4.42097L26.5736 4.42943L27.2119 3.65967ZM28.2402 4.75391H29.2402V4.41876L29.0383 4.1513L28.2402 4.75391ZM28.0161 6.8501L27.0335 6.66448L27.0319 6.67316L28.0161 6.8501ZM27.4624 9.01221L26.5175 8.68464L26.5137 8.69598L27.4624 9.01221ZM26.7769 10.4097L27.1935 11.3187L27.3894 11.2289L27.5309 11.0664L26.7769 10.4097ZM26.0913 10.6338L26.2671 11.6182L26.284 11.6152L26.3008 11.6116L26.0913 10.6338ZM24.3511 10.6206L24.0763 11.5822L24.088 11.5854L24.3511 10.6206ZM23.7446 10.3569L22.7537 10.4912L22.8207 10.9856L23.256 11.2294L23.7446 10.3569ZM23.2964 7.04785L24.2873 6.91362L24.1928 6.21575L23.5039 6.06962L23.2964 7.04785ZM21.0684 7.02148L20.9626 6.0271L20.1241 6.11629L20.0704 6.95778L21.0684 7.02148ZM20.9761 9.06494L19.9767 9.02793L19.9764 9.03963L20.9761 9.06494ZM20.897 11.082L19.8984 11.0281L19.898 11.0361L20.897 11.082ZM20.7915 13.376L19.7926 13.33L19.7382 14.513L20.9135 14.3685L20.7915 13.376ZM26.1572 12.5454L26.9849 11.9843L26.6113 11.4332L25.9588 11.5653L26.1572 12.5454ZM26.4736 16.0918L25.5121 15.8171L26.4736 16.0918ZM26.0122 17.1069L26.1714 18.0942L26.5181 18.0383L26.7537 17.7778L26.0122 17.1069ZM22.7822 16.9883L22.6104 17.9735L22.6234 17.9756L22.7822 16.9883ZM20.6201 16.4478L20.9363 15.4991L19.7094 15.0901L19.6224 16.3805L20.6201 16.4478ZM20.4224 18.7153L21.416 18.8285L21.4165 18.8231L20.4224 18.7153ZM20.0928 20.5347L19.1276 20.2729L19.1246 20.2843L20.0928 20.5347ZM19.4731 21.8662L20.2696 22.4709L20.2754 22.4632L19.4731 21.8662ZM18.0889 22.9209L17.7125 21.9944L17.7074 21.9965L18.0889 22.9209ZM14.5557 22.855L14.1197 23.755L14.1252 23.7576L14.5557 22.855ZM13.1714 21.4707L12.1715 21.4553L12.1674 21.722L12.2967 21.9553L13.1714 21.4707ZM13.3823 19.9282L12.4265 19.6341L12.4239 19.6426L12.4215 19.6511L13.3823 19.9282ZM13.7607 19.3828C13.7613 19.3831 13.7619 19.3834 13.7625 19.3837C13.7631 19.3839 13.7636 19.3842 13.7642 19.3845C13.7648 19.3848 13.7654 19.385 13.766 19.3853C13.7666 19.3856 13.7671 19.3859 13.7677 19.3861C13.7683 19.3864 13.7689 19.3867 13.7695 19.387C13.7701 19.3872 13.7706 19.3875 13.7712 19.3878C13.7718 19.3881 13.7724 19.3883 13.773 19.3886C13.7736 19.3889 13.7742 19.3892 13.7747 19.3894C13.7753 19.3897 13.7759 19.39 13.7765 19.3903C13.7771 19.3905 13.7777 19.3908 13.7782 19.3911C13.7788 19.3914 13.7794 19.3916 13.78 19.3919C13.7806 19.3922 13.7812 19.3925 13.7817 19.3927C13.7823 19.393 13.7829 19.3933 13.7835 19.3936C13.7841 19.3938 13.7847 19.3941 13.7852 19.3944C13.7858 19.3947 13.7864 19.3949 13.787 19.3952C13.7876 19.3955 13.7882 19.3958 13.7887 19.396C13.7893 19.3963 13.7899 19.3966 13.7905 19.3969C13.7911 19.3971 13.7917 19.3974 13.7922 19.3977C13.7928 19.398 13.7934 19.3982 13.794 19.3985C13.7946 19.3988 13.7952 19.3991 13.7957 19.3993C13.7963 19.3996 13.7969 19.3999 13.7975 19.4001C13.7981 19.4004 13.7987 19.4007 13.7992 19.401C13.7998 19.4012 13.8004 19.4015 13.801 19.4018C13.8016 19.4021 13.8022 19.4023 13.8027 19.4026C13.8033 19.4029 13.8039 19.4032 13.8045 19.4034C13.8051 19.4037 13.8057 19.404 13.8063 19.4043C13.8068 19.4045 13.8074 19.4048 13.808 19.4051C13.8086 19.4054 13.8092 19.4056 13.8098 19.4059C13.8103 19.4062 13.8109 19.4065 13.8115 19.4067C13.8121 19.407 13.8127 19.4073 13.8133 19.4076C13.8138 19.4078 13.8144 19.4081 13.815 19.4084C13.8156 19.4087 13.8162 19.4089 13.8168 19.4092C13.8173 19.4095 13.8179 19.4098 13.8185 19.41C13.8191 19.4103 13.8197 19.4106 13.8203 19.4109C13.8208 19.4111 13.8214 19.4114 13.822 19.4117C13.8226 19.412 13.8232 19.4122 13.8238 19.4125C13.8243 19.4128 13.8249 19.4131 13.8255 19.4133C13.8261 19.4136 13.8267 19.4139 13.8273 19.4142C13.8278 19.4144 13.8284 19.4147 13.829 19.415C13.8296 19.4153 13.8302 19.4155 13.8308 19.4158C13.8313 19.4161 13.8319 19.4164 13.8325 19.4166C13.8331 19.4169 13.8337 19.4172 13.8343 19.4175C13.8348 19.4177 13.8354 19.418 13.836 19.4183C13.8366 19.4186 13.8372 19.4188 13.8378 19.4191C13.8384 19.4194 13.8389 19.4197 13.8395 19.4199C13.8401 19.4202 13.8407 19.4205 13.8413 19.4207C13.8419 19.421 13.8424 19.4213 13.843 19.4216C13.8436 19.4218 13.8442 19.4221 13.8448 19.4224C13.8454 19.4227 13.8459 19.4229 13.8465 19.4232C13.8471 19.4235 13.8477 19.4238 13.8483 19.424C13.8489 19.4243 13.8494 19.4246 13.85 19.4249C13.8506 19.4251 13.8512 19.4254 13.8518 19.4257C13.8524 19.426 13.8529 19.4262 13.8535 19.4265C13.8541 19.4268 13.8547 19.4271 13.8553 19.4273C13.8559 19.4276 13.8564 19.4279 13.857 19.4282C13.8576 19.4284 13.8582 19.4287 13.8588 19.429C13.8594 19.4293 13.8599 19.4295 13.8605 19.4298C13.8611 19.4301 13.8617 19.4304 13.8623 19.4306C13.8629 19.4309 13.8634 19.4312 13.864 19.4315C13.8646 19.4317 13.8652 19.432 13.8658 19.4323C13.8664 19.4326 13.867 19.4328 13.8675 19.4331C13.8681 19.4334 13.8687 19.4337 13.8693 19.4339C13.8699 19.4342 13.8705 19.4345 13.871 19.4348C13.8716 19.435 13.8722 19.4353 13.8728 19.4356C13.8734 19.4359 13.874 19.4361 13.8745 19.4364C13.8751 19.4367 13.8757 19.437 13.8763 19.4372C13.8769 19.4375 13.8775 19.4378 13.878 19.4381C13.8786 19.4383 13.8792 19.4386 13.8798 19.4389C13.8804 19.4392 13.881 19.4394 13.8815 19.4397C13.8821 19.44 13.8827 19.4402 13.8833 19.4405C13.8839 19.4408 13.8845 19.4411 13.885 19.4413C13.8856 19.4416 13.8862 19.4419 13.8868 19.4422C13.8874 19.4424 13.888 19.4427 13.8885 19.443C13.8891 19.4433 13.8897 19.4435 13.8903 19.4438C13.8909 19.4441 13.8915 19.4444 13.892 19.4446C13.8926 19.4449 13.8932 19.4452 13.8938 19.4455C13.8944 19.4457 13.895 19.446 13.8955 19.4463C13.8961 19.4466 13.8967 19.4468 13.8973 19.4471C13.8979 19.4474 13.8985 19.4477 13.8991 19.4479C13.8996 19.4482 13.9002 19.4485 13.9008 19.4488C13.9014 19.449 13.902 19.4493 13.9026 19.4496C13.9031 19.4499 13.9037 19.4501 13.9043 19.4504C13.9049 19.4507 13.9055 19.451 13.9061 19.4512C13.9066 19.4515 13.9072 19.4518 13.9078 19.4521C13.9084 19.4523 13.909 19.4526 13.9096 19.4529C13.9101 19.4532 13.9107 19.4534 13.9113 19.4537C13.9119 19.454 13.9125 19.4543 13.9131 19.4545C13.9136 19.4548 13.9142 19.4551 13.9148 19.4554C13.9154 19.4556 13.916 19.4559 13.9166 19.4562C13.9171 19.4565 13.9177 19.4567 13.9183 19.457C13.9189 19.4573 13.9195 19.4576 13.9201 19.4578C13.9206 19.4581 13.9212 19.4584 13.9218 19.4587C13.9224 19.4589 13.923 19.4592 13.9236 19.4595C13.9241 19.4598 13.9247 19.46 13.9253 19.4603C13.9259 19.4606 13.9265 19.4608 13.9271 19.4611C13.9276 19.4614 13.9282 19.4617 13.9288 19.4619C13.9294 19.4622 13.93 19.4625 13.9306 19.4628C13.9312 19.463 13.9317 19.4633 13.9323 19.4636C13.9329 19.4639 13.9335 19.4641 13.9341 19.4644C13.9347 19.4647 13.9352 19.465 13.9358 19.4652C13.9364 19.4655 13.937 19.4658 13.9376 19.4661C13.9382 19.4663 13.9387 19.4666 13.9393 19.4669C13.9399 19.4672 13.9405 19.4674 13.9411 19.4677C13.9417 19.468 13.9422 19.4683 13.9428 19.4685C13.9434 19.4688 13.944 19.4691 13.9446 19.4694C13.9452 19.4696 13.9457 19.4699 13.9463 19.4702C13.9469 19.4705 13.9475 19.4707 13.9481 19.471C13.9487 19.4713 13.9492 19.4716 13.9498 19.4718C13.9504 19.4721 13.951 19.4724 13.9516 19.4727C13.9522 19.4729 13.9527 19.4732 13.9533 19.4735C13.9539 19.4738 13.9545 19.474 13.9551 19.4743C13.9557 19.4746 13.9562 19.4749 13.9568 19.4751C13.9574 19.4754 13.958 19.4757 13.9586 19.476C13.9592 19.4762 13.9598 19.4765 13.9603 19.4768C13.9609 19.4771 13.9615 19.4773 13.9621 19.4776C13.9627 19.4779 13.9633 19.4782 13.9638 19.4784C13.9644 19.4787 13.965 19.479 13.9656 19.4793C13.9662 19.4795 13.9668 19.4798 13.9673 19.4801C13.9679 19.4803 13.9685 19.4806 13.9691 19.4809C13.9697 19.4812 13.9703 19.4814 13.9708 19.4817C13.9714 19.482 13.972 19.4823 13.9726 19.4825C13.9732 19.4828 13.9738 19.4831 13.9743 19.4834C13.9749 19.4836 13.9755 19.4839 13.9761 19.4842C13.9767 19.4845 13.9773 19.4847 13.9778 19.485C13.9784 19.4853 13.979 19.4856 13.9796 19.4858C13.9802 19.4861 13.9808 19.4864 13.9813 19.4867C13.9819 19.4869 13.9825 19.4872 13.9831 19.4875C13.9837 19.4878 13.9843 19.488 13.9848 19.4883C13.9854 19.4886 13.986 19.4889 13.9866 19.4891C13.9872 19.4894 13.9878 19.4897 13.9883 19.49C13.9889 19.4902 13.9895 19.4905 13.9901 19.4908C13.9907 19.4911 13.9913 19.4913 13.9919 19.4916C13.9924 19.4919 13.993 19.4922 13.9936 19.4924C13.9942 19.4927 13.9948 19.493 13.9954 19.4933C13.9959 19.4935 13.9965 19.4938 13.9971 19.4941C13.9977 19.4944 13.9983 19.4946 13.9989 19.4949C13.9994 19.4952 14 19.4955 14.0006 19.4957C14.0012 19.496 14.0018 19.4963 14.0024 19.4966C14.0029 19.4968 14.0035 19.4971 14.0041 19.4974C14.0047 19.4977 14.0053 19.4979 14.0059 19.4982C14.0064 19.4985 14.007 19.4988 14.0076 19.499C14.0082 19.4993 14.0088 19.4996 14.0094 19.4999C14.0099 19.5001 14.0105 19.5004 14.0111 19.5007C14.0117 19.5009 14.0123 19.5012 14.0129 19.5015C14.0134 19.5018 14.014 19.502 14.0146 19.5023C14.0152 19.5026 14.0158 19.5029 14.0164 19.5031C14.0169 19.5034 14.0175 19.5037 14.0181 19.504C14.0187 19.5042 14.0193 19.5045 14.0199 19.5048C14.0205 19.5051 14.021 19.5053 14.0216 19.5056C14.0222 19.5059 14.0228 19.5062 14.0234 19.5064C14.024 19.5067 14.0245 19.507 14.0251 19.5073C14.0257 19.5075 14.0263 19.5078 14.0269 19.5081C14.0275 19.5084 14.028 19.5086 14.0286 19.5089C14.0292 19.5092 14.0298 19.5095 14.0304 19.5097C14.031 19.51 14.0315 19.5103 14.0321 19.5106C14.0327 19.5108 14.0333 19.5111 14.0339 19.5114C14.0345 19.5117 14.035 19.5119 14.0356 19.5122C14.0362 19.5125 14.0368 19.5128 14.0374 19.513C14.038 19.5133 14.0385 19.5136 14.0391 19.5139C14.0397 19.5141 14.0403 19.5144 14.0409 19.5147C14.0415 19.515 14.042 19.5152 14.0426 19.5155C14.0432 19.5158 14.0438 19.5161 14.0444 19.5163C14.045 19.5166 14.0455 19.5169 14.0461 19.5172C14.0467 19.5174 14.0473 19.5177 14.0479 19.518C14.0485 19.5183 14.049 19.5185 14.0496 19.5188C14.0502 19.5191 14.0508 19.5194 14.0514 19.5196C14.052 19.5199 14.0526 19.5202 14.0531 19.5204C14.0537 19.5207 14.0543 19.521 14.0549 19.5213C14.0555 19.5215 14.0561 19.5218 14.0566 19.5221C14.0572 19.5224 14.0578 19.5226 14.0584 19.5229C14.059 19.5232 14.0596 19.5235 14.0601 19.5237C14.0607 19.524 14.0613 19.5243 14.0619 19.5246C14.0625 19.5248 14.0631 19.5251 14.0636 19.5254C14.0642 19.5257 14.0648 19.5259 14.0654 19.5262C14.066 19.5265 14.0666 19.5268 14.0671 19.527C14.0677 19.5273 14.0683 19.5276 14.0689 19.5279C14.0695 19.5281 14.0701 19.5284 14.0706 19.5287C14.0712 19.529 14.0718 19.5292 14.0724 19.5295C14.073 19.5298 14.0736 19.5301 14.0741 19.5303C14.0747 19.5306 14.0753 19.5309 14.0759 19.5312C14.0765 19.5314 14.0771 19.5317 14.0776 19.532C14.0782 19.5323 14.0788 19.5325 14.0794 19.5328C14.08 19.5331 14.0806 19.5334 14.0811 19.5336C14.0817 19.5339 14.0823 19.5342 14.0829 19.5345C14.0835 19.5347 14.0841 19.535 14.0847 19.5353C14.0852 19.5356 14.0858 19.5358 14.0864 19.5361C14.087 19.5364 14.0876 19.5367 14.0882 19.5369C14.0887 19.5372 14.0893 19.5375 14.0899 19.5378C14.0905 19.538 14.0911 19.5383 14.0917 19.5386C14.0922 19.5389 14.0928 19.5391 14.0934 19.5394C14.094 19.5397 14.0946 19.54 14.0952 19.5402C14.0957 19.5405 14.0963 19.5408 14.0969 19.541C14.0975 19.5413 14.0981 19.5416 14.0987 19.5419C14.0992 19.5421 14.0998 19.5424 14.1004 19.5427C14.101 19.543 14.1016 19.5432 14.1022 19.5435C14.1027 19.5438 14.1033 19.5441 14.1039 19.5443C14.1045 19.5446 14.1051 19.5449 14.1057 19.5452C14.1062 19.5454 14.1068 19.5457 14.1074 19.546C14.108 19.5463 14.1086 19.5465 14.1092 19.5468C14.1097 19.5471 14.1103 19.5474 14.1109 19.5476C14.1115 19.5479 14.1121 19.5482 14.1127 19.5485C14.1133 19.5487 14.1138 19.549 14.1144 19.5493C14.115 19.5496 14.1156 19.5498 14.1162 19.5501C14.1168 19.5504 14.1173 19.5507 14.1179 19.5509C14.1185 19.5512 14.1191 19.5515 14.1197 19.5518C14.1203 19.552 14.1208 19.5523 14.1214 19.5526C14.122 19.5529 14.1226 19.5531 14.1232 19.5534C14.1238 19.5537 14.1243 19.554 14.1249 19.5542C14.1255 19.5545 14.1261 19.5548 14.1267 19.5551C14.1273 19.5553 14.1278 19.5556 14.1284 19.5559C14.129 19.5562 14.1296 19.5564 14.1302 19.5567C14.1308 19.557 14.1313 19.5573 14.1319 19.5575C14.1325 19.5578 14.1331 19.5581 14.1337 19.5584C14.1343 19.5586 14.1348 19.5589 14.1354 19.5592C14.136 19.5595 14.1366 19.5597 14.1372 19.56C14.1378 19.5603 14.1383 19.5605 14.1389 19.5608C14.1395 19.5611 14.1401 19.5614 14.1407 19.5616C14.1413 19.5619 14.1418 19.5622 14.1424 19.5625C14.143 19.5627 14.1436 19.563 14.1442 19.5633C14.1448 19.5636 14.1454 19.5638 14.1459 19.5641C14.1465 19.5644 14.1471 19.5647 14.1477 19.5649C14.1483 19.5652 14.1489 19.5655 14.1494 19.5658C14.15 19.566 14.1506 19.5663 14.1512 19.5666C14.1518 19.5669 14.1524 19.5671 14.1529 19.5674C14.1535 19.5677 14.1541 19.568 14.1547 19.5682C14.1553 19.5685 14.1559 19.5688 14.1564 19.5691C14.157 19.5693 14.1576 19.5696 14.1582 19.5699C14.1588 19.5702 14.1594 19.5704 14.1599 19.5707C14.1605 19.571 14.1611 19.5713 14.1617 19.5715C14.1623 19.5718 14.1629 19.5721 14.1634 19.5724C14.164 19.5726 14.1646 19.5729 14.1652 19.5732C14.1658 19.5735 14.1664 19.5737 14.1669 19.574C14.1675 19.5743 14.1681 19.5746 14.1687 19.5748C14.1693 19.5751 14.1699 19.5754 14.1704 19.5757C14.171 19.5759 14.1716 19.5762 14.1722 19.5765C14.1728 19.5768 14.1734 19.577 14.1739 19.5773C14.1745 19.5776 14.1751 19.5779 14.1757 19.5781C14.1763 19.5784 14.1769 19.5787 14.1775 19.579C14.178 19.5792 14.1786 19.5795 14.1792 19.5798C14.1798 19.5801 14.1804 19.5803 14.181 19.5806C14.1815 19.5809 14.1821 19.5811 14.1827 19.5814C14.1833 19.5817 14.1839 19.582 14.1845 19.5822C14.185 19.5825 14.1856 19.5828 14.1862 19.5831C14.1868 19.5833 14.1874 19.5836 14.188 19.5839C14.1885 19.5842 14.1891 19.5844 14.1897 19.5847C14.1903 19.585 14.1909 19.5853 14.1915 19.5855C14.192 19.5858 14.1926 19.5861 14.1932 19.5864C14.1938 19.5866 14.1944 19.5869 14.195 19.5872C14.1955 19.5875 14.1961 19.5877 14.1967 19.588C14.1973 19.5883 14.1979 19.5886 14.1985 19.5888C14.199 19.5891 14.1996 19.5894 14.2002 19.5897C14.2008 19.5899 14.2014 19.5902 14.202 19.5905C14.2025 19.5908 14.2031 19.591 14.2037 19.5913C14.2043 19.5916 14.2049 19.5919 14.2055 19.5921C14.2061 19.5924 14.2066 19.5927 14.2072 19.593C14.2078 19.5932 14.2084 19.5935 14.209 19.5938C14.2096 19.5941 14.2101 19.5943 14.2107 19.5946C14.2113 19.5949 14.2119 19.5952 14.2125 19.5954C14.2131 19.5957 14.2136 19.596 14.2142 19.5963C14.2148 19.5965 14.2154 19.5968 14.216 19.5971C14.2166 19.5974 14.2171 19.5976 14.2177 19.5979C14.2183 19.5982 14.2189 19.5985 14.2195 19.5987C14.2201 19.599 14.2206 19.5993 14.2212 19.5996C14.2218 19.5998 14.2224 19.6001 14.223 19.6004C14.2236 19.6007 14.2241 19.6009 14.2247 19.6012C14.2253 19.6015 14.2259 19.6017 14.2265 19.602C14.2271 19.6023 14.2276 19.6026 14.2282 19.6028C14.2288 19.6031 14.2294 19.6034 14.23 19.6037C14.2306 19.6039 14.2311 19.6042 14.2317 19.6045C14.2323 19.6048 14.2329 19.605 14.2335 19.6053C14.2341 19.6056 14.2346 19.6059 14.2352 19.6061C14.2358 19.6064 14.2364 19.6067 14.237 19.607C14.2376 19.6072 14.2382 19.6075 14.2387 19.6078C14.2393 19.6081 14.2399 19.6083 14.2405 19.6086C14.2411 19.6089 14.2417 19.6092 14.2422 19.6094C14.2428 19.6097 14.2434 19.61 14.244 19.6103C14.2446 19.6105 14.2452 19.6108 14.2457 19.6111C14.2463 19.6114 14.2469 19.6116 14.2475 19.6119C14.2481 19.6122 14.2487 19.6125 14.2492 19.6127C14.2498 19.613 14.2504 19.6133 14.251 19.6136C14.2516 19.6138 14.2522 19.6141 14.2527 19.6144C14.2533 19.6147 14.2539 19.6149 14.2545 19.6152C14.2551 19.6155 14.2557 19.6158 14.2562 19.616C14.2568 19.6163 14.2574 19.6166 14.258 19.6169C14.2586 19.6171 14.2592 19.6174 14.2597 19.6177C14.2603 19.618 14.2609 19.6182 14.2615 19.6185C14.2621 19.6188 14.2627 19.6191 14.2632 19.6193C14.2638 19.6196 14.2644 19.6199 14.265 19.6202C14.2656 19.6204 14.2662 19.6207 14.2667 19.621C14.2673 19.6212 14.2679 19.6215 14.2685 19.6218C14.2691 19.6221 14.2697 19.6223 14.2703 19.6226C14.2708 19.6229 14.2714 19.6232 14.272 19.6234C14.2726 19.6237 14.2732 19.624 14.2738 19.6243C14.2743 19.6245 14.2749 19.6248 14.2755 19.6251C14.2761 19.6254 14.2767 19.6256 14.2773 19.6259C14.2778 19.6262 14.2784 19.6265 14.279 19.6267C14.2796 19.627 14.2802 19.6273 14.2808 19.6276C14.2813 19.6278 14.2819 19.6281 14.2825 19.6284C14.2831 19.6287 14.2837 19.6289 14.2843 19.6292C14.2848 19.6295 14.2854 19.6298 14.286 19.63C14.2866 19.6303 14.2872 19.6306 14.2878 19.6309C14.2883 19.6311 14.2889 19.6314 14.2895 19.6317C14.2901 19.632 14.2907 19.6322 14.2913 19.6325C14.2918 19.6328 14.2924 19.6331 14.293 19.6333C14.2936 19.6336 14.2942 19.6339 14.2948 19.6342C14.2953 19.6344 14.2959 19.6347 14.2965 19.635C14.2971 19.6353 14.2977 19.6355 14.2983 19.6358C14.2989 19.6361 14.2994 19.6364 14.3 19.6366C14.3006 19.6369 14.3012 19.6372 14.3018 19.6375C14.3024 19.6377 14.3029 19.638 14.3035 19.6383C14.3041 19.6386 14.3047 19.6388 14.3053 19.6391C14.3059 19.6394 14.3064 19.6397 14.307 19.6399C14.3076 19.6402 14.3082 19.6405 14.3088 19.6408C14.3094 19.641 14.3099 19.6413 14.3105 19.6416C14.3111 19.6418 14.3117 19.6421 14.3123 19.6424C14.3129 19.6427 14.3134 19.6429 14.314 19.6432C14.3146 19.6435 14.3152 19.6438 14.3158 19.644C14.3164 19.6443 14.3169 19.6446 14.3175 19.6449C14.3181 19.6451 14.3187 19.6454 14.3193 19.6457C14.3199 19.646 14.3204 19.6462 14.321 19.6465C14.3216 19.6468 14.3222 19.6471 14.3228 19.6473C14.3234 19.6476 14.3239 19.6479 14.3245 19.6482C14.3251 19.6484 14.3257 19.6487 14.3263 19.649C14.3269 19.6493 14.3274 19.6495 14.328 19.6498C14.3286 19.6501 14.3292 19.6504 14.3298 19.6506C14.3304 19.6509 14.331 19.6512 14.3315 19.6515C14.3321 19.6517 14.3327 19.652 14.3333 19.6523C14.3339 19.6526 14.3345 19.6528 14.335 19.6531C14.3356 19.6534 14.3362 19.6537 14.3368 19.6539C14.3374 19.6542 14.338 19.6545 14.3385 19.6548C14.3391 19.655 14.3397 19.6553 14.3403 19.6556C14.3409 19.6559 14.3415 19.6561 14.342 19.6564C14.3426 19.6567 14.3432 19.657 14.3438 19.6572C14.3444 19.6575 14.345 19.6578 14.3455 19.6581C14.3461 19.6583 14.3467 19.6586 14.3473 19.6589C14.3479 19.6592 14.3485 19.6594 14.349 19.6597C14.3496 19.66 14.3502 19.6603 14.3508 19.6605C14.3514 19.6608 14.352 19.6611 14.3525 19.6613C14.3531 19.6616 14.3537 19.6619 14.3543 19.6622C14.3549 19.6624 14.3555 19.6627 14.356 19.663C14.3566 19.6633 14.3572 19.6635 14.3578 19.6638C14.3584 19.6641 14.359 19.6644 14.3595 19.6646C14.3601 19.6649 14.3607 19.6652 14.3613 19.6655C14.3619 19.6657 14.3625 19.666 14.3631 19.6663C14.3636 19.6666 14.3642 19.6668 14.3648 19.6671C14.3654 19.6674 14.366 19.6677 14.3666 19.6679C14.3671 19.6682 14.3677 19.6685 14.3683 19.6688C14.3689 19.669 14.3695 19.6693 14.3701 19.6696C14.3706 19.6699 14.3712 19.6701 14.3718 19.6704C14.3724 19.6707 14.373 19.671 14.3736 19.6712C14.3741 19.6715 14.3747 19.6718 14.3753 19.6721C14.3759 19.6723 14.3765 19.6726 14.3771 19.6729C14.3776 19.6732 14.3782 19.6734 14.3788 19.6737C14.3794 19.674 14.38 19.6743 14.3806 19.6745C14.3811 19.6748 14.3817 19.6751 14.3823 19.6754C14.3829 19.6756 14.3835 19.6759 14.3841 19.6762C14.3846 19.6765 14.3852 19.6767 14.3858 19.677C14.3864 19.6773 14.387 19.6776 14.3876 19.6778C14.3881 19.6781 14.3887 19.6784 14.3893 19.6787C14.3899 19.6789 14.3905 19.6792 14.3911 19.6795C14.3917 19.6798 14.3922 19.68 14.3928 19.6803C14.3934 19.6806 14.394 19.6809 14.3946 19.6811C14.3952 19.6814 14.3957 19.6817 14.3963 19.6819C14.3969 19.6822 14.3975 19.6825 14.3981 19.6828C14.3987 19.683 14.3992 19.6833 14.3998 19.6836C14.4004 19.6839 14.401 19.6841 14.4016 19.6844C14.4022 19.6847 14.4027 19.685 14.4033 19.6852C14.4039 19.6855 14.4045 19.6858 14.4051 19.6861C14.4057 19.6863 14.4062 19.6866 14.4068 19.6869C14.4074 19.6872 14.408 19.6874 14.4086 19.6877C14.4092 19.688 14.4097 19.6883 14.4103 19.6885C14.4109 19.6888 14.4115 19.6891 14.4121 19.6894C14.4127 19.6896 14.4132 19.6899 14.4138 19.6902C14.4144 19.6905 14.415 19.6907 14.4156 19.691C14.4162 19.6913 14.4167 19.6916 14.4173 19.6918C14.4179 19.6921 14.4185 19.6924 14.4191 19.6927C14.4197 19.6929 14.4202 19.6932 14.4208 19.6935C14.4214 19.6938 14.422 19.694 14.4226 19.6943C14.4232 19.6946 14.4238 19.6949 14.4243 19.6951C14.4249 19.6954 14.4255 19.6957 14.4261 19.696C14.4267 19.6962 14.4273 19.6965 14.4278 19.6968C14.4284 19.6971 14.429 19.6973 14.4296 19.6976C14.4302 19.6979 14.4308 19.6982 14.4313 19.6984C14.4319 19.6987 14.4325 19.699 14.4331 19.6993C14.4337 19.6995 14.4343 19.6998 14.4348 19.7001C14.4354 19.7004 14.436 19.7006 14.4366 19.7009C14.4372 19.7012 14.4378 19.7014 14.4383 19.7017C14.4389 19.702 14.4395 19.7023 14.4401 19.7025C14.4407 19.7028 14.4413 19.7031 14.4418 19.7034C14.4424 19.7036 14.443 19.7039 14.4436 19.7042C14.4442 19.7045 14.4448 19.7047 14.4453 19.705C14.4459 19.7053 14.4465 19.7056 14.4471 19.7058C14.4477 19.7061 14.4483 19.7064 14.4488 19.7067C14.4494 19.7069 14.45 19.7072 14.4506 19.7075C14.4512 19.7078 14.4518 19.708 14.4524 19.7083C14.4529 19.7086 14.4535 19.7089 14.4541 19.7091C14.4547 19.7094 14.4553 19.7097 14.4559 19.71C14.4564 19.7102 14.457 19.7105 14.4576 19.7108C14.4582 19.7111 14.4588 19.7113 14.4594 19.7116C14.4599 19.7119 14.4605 19.7122 14.4611 19.7124C14.4617 19.7127 14.4623 19.713 14.4629 19.7133C14.4634 19.7135 14.464 19.7138 14.4646 19.7141C14.4652 19.7144 14.4658 19.7146 14.4664 19.7149C14.4669 19.7152 14.4675 19.7155 14.4681 19.7157C14.4687 19.716 14.4693 19.7163 14.4699 19.7166C14.4704 19.7168 14.471 19.7171 14.4716 19.7174C14.4722 19.7177 14.4728 19.7179 14.4734 19.7182C14.4739 19.7185 14.4745 19.7188 14.4751 19.719C14.4757 19.7193 14.4763 19.7196 14.4769 19.7199C14.4774 19.7201 14.478 19.7204 14.4786 19.7207C14.4792 19.721 14.4798 19.7212 14.4804 19.7215C14.4809 19.7218 14.4815 19.722 14.4821 19.7223C14.4827 19.7226 14.4833 19.7229 14.4839 19.7231C14.4845 19.7234 14.485 19.7237 14.4856 19.724C14.4862 19.7242 14.4868 19.7245 14.4874 19.7248C14.488 19.7251 14.4885 19.7253 14.4891 19.7256C14.4897 19.7259 14.4903 19.7262 14.4909 19.7264C14.4915 19.7267 14.492 19.727 14.4926 19.7273C14.4932 19.7275 14.4938 19.7278 14.4944 19.7281C14.495 19.7284 14.4955 19.7286 14.4961 19.7289C14.4967 19.7292 14.4973 19.7295 14.4979 19.7297C14.4985 19.73 14.499 19.7303 14.4996 19.7306C14.5002 19.7308 14.5008 19.7311 14.5014 19.7314C14.502 19.7317 14.5025 19.7319 14.5031 19.7322C14.5037 19.7325 14.5043 19.7328 14.5049 19.733C14.5055 19.7333 14.506 19.7336 14.5066 19.7339C14.5072 19.7341 14.5078 19.7344 14.5084 19.7347C14.509 19.735 14.5095 19.7352 14.5101 19.7355C14.5107 19.7358 14.5113 19.7361 14.5119 19.7363C14.5125 19.7366 14.513 19.7369 14.5136 19.7372C14.5142 19.7374 14.5148 19.7377 14.5154 19.738C14.516 19.7383 14.5166 19.7385 14.5171 19.7388C14.5177 19.7391 14.5183 19.7394 14.5189 19.7396C14.5195 19.7399 14.5201 19.7402 14.5206 19.7405C14.5212 19.7407 14.5218 19.741 14.5224 19.7413C14.523 19.7415 14.5236 19.7418 14.5241 19.7421C14.5247 19.7424 14.5253 19.7426 14.5259 19.7429C14.5265 19.7432 14.5271 19.7435 14.5276 19.7437C14.5282 19.744 14.5288 19.7443 14.5294 19.7446C14.53 19.7448 14.5306 19.7451 14.5311 19.7454C14.5317 19.7457 14.5323 19.7459 14.5329 19.7462C14.5335 19.7465 14.5341 19.7468 14.5346 19.747C14.5352 19.7473 14.5358 19.7476 14.5364 19.7479C14.537 19.7481 14.5376 19.7484 14.5381 19.7487C14.5387 19.749 14.5393 19.7492 14.5399 19.7495C14.5405 19.7498 14.5411 19.7501 14.5416 19.7503C14.5422 19.7506 14.5428 19.7509 14.5434 19.7512C14.544 19.7514 14.5446 19.7517 14.5452 19.752C14.5457 19.7523 14.5463 19.7525 14.5469 19.7528C14.5475 19.7531 14.5481 19.7534 14.5487 19.7536C14.5492 19.7539 14.5498 19.7542 14.5504 19.7545C14.551 19.7547 14.5516 19.755 14.5522 19.7553C14.5527 19.7556 14.5533 19.7558 14.5539 19.7561C14.5545 19.7564 14.5551 19.7567 14.5557 19.7569C14.5562 19.7572 14.5568 19.7575 14.5574 19.7578C14.558 19.758 14.5586 19.7583 14.5592 19.7586C14.5597 19.7589 14.5603 19.7591 14.5609 19.7594C14.5615 19.7597 14.5621 19.76 14.5627 19.7602C14.5632 19.7605 14.5638 19.7608 14.5644 19.7611C14.565 19.7613 14.5656 19.7616 14.5662 19.7619C14.5667 19.7621 14.5673 19.7624 14.5679 19.7627C14.5685 19.763 14.5691 19.7632 14.5697 19.7635C14.5702 19.7638 14.5708 19.7641 14.5714 19.7643C14.572 19.7646 14.5726 19.7649 14.5732 19.7652C14.5737 19.7654 14.5743 19.7657 14.5749 19.766C14.5755 19.7663 14.5761 19.7665 14.5767 19.7668C14.5773 19.7671 14.5778 19.7674 14.5784 19.7676C14.579 19.7679 14.5796 19.7682 14.5802 19.7685C14.5808 19.7687 14.5813 19.769 14.5819 19.7693C14.5825 19.7696 14.5831 19.7698 14.5837 19.7701C14.5843 19.7704 14.5848 19.7707 14.5854 19.7709C14.586 19.7712 14.5866 19.7715 14.5872 19.7718C14.5878 19.772 14.5883 19.7723 14.5889 19.7726C14.5895 19.7729 14.5901 19.7731 14.5907 19.7734C14.5913 19.7737 14.5918 19.774 14.5924 19.7742C14.593 19.7745 14.5936 19.7748 14.5942 19.7751C14.5948 19.7753 14.5953 19.7756 14.5959 19.7759C14.5965 19.7762 14.5971 19.7764 14.5977 19.7767C14.5983 19.777 14.5988 19.7773 14.5994 19.7775C14.6 19.7778 14.6006 19.7781 14.6012 19.7784C14.6018 19.7786 14.6023 19.7789 14.6029 19.7792C14.6035 19.7795 14.6041 19.7797 14.6047 19.78C14.6053 19.7803 14.6058 19.7806 14.6064 19.7808C14.607 19.7811 14.6076 19.7814 14.6082 19.7816C14.6088 19.7819 14.6094 19.7822 14.6099 19.7825C14.6105 19.7827 14.6111 19.783 14.6117 19.7833C14.6123 19.7836 14.6129 19.7838 14.6134 19.7841C14.614 19.7844 14.6146 19.7847 14.6152 19.7849C14.6158 19.7852 14.6164 19.7855 14.6169 19.7858C14.6175 19.786 14.6181 19.7863 14.6187 19.7866C14.6193 19.7869 14.6199 19.7871 14.6204 19.7874C14.621 19.7877 14.6216 19.788 14.6222 19.7882C14.6228 19.7885 14.6234 19.7888 14.6239 19.7891C14.6245 19.7893 14.6251 19.7896 14.6257 19.7899C14.6263 19.7902 14.6269 19.7904 14.6274 19.7907C14.628 19.791 14.6286 19.7913 14.6292 19.7915C14.6298 19.7918 14.6304 19.7921 14.6309 19.7924C14.6315 19.7926 14.6321 19.7929 14.6327 19.7932C14.6333 19.7935 14.6339 19.7937 14.6344 19.794C14.635 19.7943 14.6356 19.7946 14.6362 19.7948C14.6368 19.7951 14.6374 19.7954 14.638 19.7957C14.6385 19.7959 14.6391 19.7962 14.6397 19.7965C14.6403 19.7968 14.6409 19.797 14.6415 19.7973C14.642 19.7976 14.6426 19.7979 14.6432 19.7981C14.6438 19.7984 14.6444 19.7987 14.645 19.799C14.6455 19.7992 14.6461 19.7995 14.6467 19.7998C14.6473 19.8001 14.6479 19.8003 14.6485 19.8006C14.649 19.8009 14.6496 19.8012 14.6502 19.8014C14.6508 19.8017 14.6514 19.802 14.652 19.8022C14.6525 19.8025 14.6531 19.8028 14.6537 19.8031C14.6543 19.8033 14.6549 19.8036 14.6555 19.8039C14.656 19.8042 14.6566 19.8044 14.6572 19.8047L15.5088 17.9951C15.5082 17.9948 15.5076 17.9945 15.5071 17.9943C15.5065 17.994 15.5059 17.9937 15.5053 17.9934C15.5047 17.9932 15.5041 17.9929 15.5036 17.9926C15.503 17.9923 15.5024 17.9921 15.5018 17.9918C15.5012 17.9915 15.5006 17.9912 15.5001 17.991C15.4995 17.9907 15.4989 17.9904 15.4983 17.9901C15.4977 17.9899 15.4971 17.9896 15.4965 17.9893C15.496 17.989 15.4954 17.9888 15.4948 17.9885C15.4942 17.9882 15.4936 17.9879 15.493 17.9877C15.4925 17.9874 15.4919 17.9871 15.4913 17.9868C15.4907 17.9866 15.4901 17.9863 15.4895 17.986C15.489 17.9857 15.4884 17.9855 15.4878 17.9852C15.4872 17.9849 15.4866 17.9846 15.486 17.9844C15.4855 17.9841 15.4849 17.9838 15.4843 17.9835C15.4837 17.9833 15.4831 17.983 15.4825 17.9827C15.482 17.9824 15.4814 17.9822 15.4808 17.9819C15.4802 17.9816 15.4796 17.9814 15.479 17.9811C15.4785 17.9808 15.4779 17.9805 15.4773 17.9803C15.4767 17.98 15.4761 17.9797 15.4755 17.9794C15.475 17.9792 15.4744 17.9789 15.4738 17.9786C15.4732 17.9783 15.4726 17.9781 15.472 17.9778C15.4715 17.9775 15.4709 17.9772 15.4703 17.977C15.4697 17.9767 15.4691 17.9764 15.4685 17.9761C15.4679 17.9759 15.4674 17.9756 15.4668 17.9753C15.4662 17.975 15.4656 17.9748 15.465 17.9745C15.4644 17.9742 15.4639 17.9739 15.4633 17.9737C15.4627 17.9734 15.4621 17.9731 15.4615 17.9728C15.4609 17.9726 15.4604 17.9723 15.4598 17.972C15.4592 17.9717 15.4586 17.9715 15.458 17.9712C15.4574 17.9709 15.4569 17.9706 15.4563 17.9704C15.4557 17.9701 15.4551 17.9698 15.4545 17.9695C15.4539 17.9693 15.4534 17.969 15.4528 17.9687C15.4522 17.9684 15.4516 17.9682 15.451 17.9679C15.4504 17.9676 15.4499 17.9673 15.4493 17.9671C15.4487 17.9668 15.4481 17.9665 15.4475 17.9662C15.4469 17.966 15.4464 17.9657 15.4458 17.9654C15.4452 17.9651 15.4446 17.9649 15.444 17.9646C15.4434 17.9643 15.4429 17.964 15.4423 17.9638C15.4417 17.9635 15.4411 17.9632 15.4405 17.9629C15.4399 17.9627 15.4394 17.9624 15.4388 17.9621C15.4382 17.9618 15.4376 17.9616 15.437 17.9613C15.4364 17.961 15.4358 17.9608 15.4353 17.9605C15.4347 17.9602 15.4341 17.9599 15.4335 17.9597C15.4329 17.9594 15.4323 17.9591 15.4318 17.9588C15.4312 17.9586 15.4306 17.9583 15.43 17.958C15.4294 17.9577 15.4288 17.9575 15.4283 17.9572C15.4277 17.9569 15.4271 17.9566 15.4265 17.9564C15.4259 17.9561 15.4253 17.9558 15.4248 17.9555C15.4242 17.9553 15.4236 17.955 15.423 17.9547C15.4224 17.9544 15.4218 17.9542 15.4213 17.9539C15.4207 17.9536 15.4201 17.9533 15.4195 17.9531C15.4189 17.9528 15.4183 17.9525 15.4178 17.9522C15.4172 17.952 15.4166 17.9517 15.416 17.9514C15.4154 17.9511 15.4148 17.9509 15.4143 17.9506C15.4137 17.9503 15.4131 17.95 15.4125 17.9498C15.4119 17.9495 15.4113 17.9492 15.4108 17.9489C15.4102 17.9487 15.4096 17.9484 15.409 17.9481C15.4084 17.9478 15.4078 17.9476 15.4072 17.9473C15.4067 17.947 15.4061 17.9467 15.4055 17.9465C15.4049 17.9462 15.4043 17.9459 15.4037 17.9456C15.4032 17.9454 15.4026 17.9451 15.402 17.9448C15.4014 17.9445 15.4008 17.9443 15.4002 17.944C15.3997 17.9437 15.3991 17.9434 15.3985 17.9432C15.3979 17.9429 15.3973 17.9426 15.3967 17.9423C15.3962 17.9421 15.3956 17.9418 15.395 17.9415C15.3944 17.9413 15.3938 17.941 15.3932 17.9407C15.3927 17.9404 15.3921 17.9402 15.3915 17.9399C15.3909 17.9396 15.3903 17.9393 15.3897 17.9391C15.3892 17.9388 15.3886 17.9385 15.388 17.9382C15.3874 17.938 15.3868 17.9377 15.3862 17.9374C15.3857 17.9371 15.3851 17.9369 15.3845 17.9366C15.3839 17.9363 15.3833 17.936 15.3827 17.9358C15.3822 17.9355 15.3816 17.9352 15.381 17.9349C15.3804 17.9347 15.3798 17.9344 15.3792 17.9341C15.3787 17.9338 15.3781 17.9336 15.3775 17.9333C15.3769 17.933 15.3763 17.9327 15.3757 17.9325C15.3751 17.9322 15.3746 17.9319 15.374 17.9316C15.3734 17.9314 15.3728 17.9311 15.3722 17.9308C15.3716 17.9305 15.3711 17.9303 15.3705 17.93C15.3699 17.9297 15.3693 17.9294 15.3687 17.9292C15.3681 17.9289 15.3676 17.9286 15.367 17.9283C15.3664 17.9281 15.3658 17.9278 15.3652 17.9275C15.3646 17.9272 15.3641 17.927 15.3635 17.9267C15.3629 17.9264 15.3623 17.9261 15.3617 17.9259C15.3611 17.9256 15.3606 17.9253 15.36 17.925C15.3594 17.9248 15.3588 17.9245 15.3582 17.9242C15.3576 17.9239 15.3571 17.9237 15.3565 17.9234C15.3559 17.9231 15.3553 17.9228 15.3547 17.9226C15.3541 17.9223 15.3536 17.922 15.353 17.9217C15.3524 17.9215 15.3518 17.9212 15.3512 17.9209C15.3506 17.9207 15.3501 17.9204 15.3495 17.9201C15.3489 17.9198 15.3483 17.9196 15.3477 17.9193C15.3471 17.919 15.3466 17.9187 15.346 17.9185C15.3454 17.9182 15.3448 17.9179 15.3442 17.9176C15.3436 17.9174 15.343 17.9171 15.3425 17.9168C15.3419 17.9165 15.3413 17.9163 15.3407 17.916C15.3401 17.9157 15.3395 17.9154 15.339 17.9152C15.3384 17.9149 15.3378 17.9146 15.3372 17.9143C15.3366 17.9141 15.336 17.9138 15.3355 17.9135C15.3349 17.9132 15.3343 17.913 15.3337 17.9127C15.3331 17.9124 15.3325 17.9121 15.332 17.9119C15.3314 17.9116 15.3308 17.9113 15.3302 17.911C15.3296 17.9108 15.329 17.9105 15.3285 17.9102C15.3279 17.9099 15.3273 17.9097 15.3267 17.9094C15.3261 17.9091 15.3255 17.9088 15.325 17.9086C15.3244 17.9083 15.3238 17.908 15.3232 17.9077C15.3226 17.9075 15.322 17.9072 15.3215 17.9069C15.3209 17.9066 15.3203 17.9064 15.3197 17.9061C15.3191 17.9058 15.3185 17.9055 15.318 17.9053C15.3174 17.905 15.3168 17.9047 15.3162 17.9044C15.3156 17.9042 15.315 17.9039 15.3144 17.9036C15.3139 17.9033 15.3133 17.9031 15.3127 17.9028C15.3121 17.9025 15.3115 17.9022 15.3109 17.902C15.3104 17.9017 15.3098 17.9014 15.3092 17.9012C15.3086 17.9009 15.308 17.9006 15.3074 17.9003C15.3069 17.9001 15.3063 17.8998 15.3057 17.8995C15.3051 17.8992 15.3045 17.899 15.3039 17.8987C15.3034 17.8984 15.3028 17.8981 15.3022 17.8979C15.3016 17.8976 15.301 17.8973 15.3004 17.897C15.2999 17.8968 15.2993 17.8965 15.2987 17.8962C15.2981 17.8959 15.2975 17.8957 15.2969 17.8954C15.2964 17.8951 15.2958 17.8948 15.2952 17.8946C15.2946 17.8943 15.294 17.894 15.2934 17.8937C15.2929 17.8935 15.2923 17.8932 15.2917 17.8929C15.2911 17.8926 15.2905 17.8924 15.2899 17.8921C15.2894 17.8918 15.2888 17.8915 15.2882 17.8913C15.2876 17.891 15.287 17.8907 15.2864 17.8904C15.2859 17.8902 15.2853 17.8899 15.2847 17.8896C15.2841 17.8893 15.2835 17.8891 15.2829 17.8888C15.2823 17.8885 15.2818 17.8882 15.2812 17.888C15.2806 17.8877 15.28 17.8874 15.2794 17.8871C15.2788 17.8869 15.2783 17.8866 15.2777 17.8863C15.2771 17.886 15.2765 17.8858 15.2759 17.8855C15.2753 17.8852 15.2748 17.8849 15.2742 17.8847C15.2736 17.8844 15.273 17.8841 15.2724 17.8838C15.2718 17.8836 15.2713 17.8833 15.2707 17.883C15.2701 17.8827 15.2695 17.8825 15.2689 17.8822C15.2683 17.8819 15.2678 17.8816 15.2672 17.8814C15.2666 17.8811 15.266 17.8808 15.2654 17.8806C15.2648 17.8803 15.2643 17.88 15.2637 17.8797C15.2631 17.8795 15.2625 17.8792 15.2619 17.8789C15.2613 17.8786 15.2608 17.8784 15.2602 17.8781C15.2596 17.8778 15.259 17.8775 15.2584 17.8773C15.2578 17.877 15.2573 17.8767 15.2567 17.8764C15.2561 17.8762 15.2555 17.8759 15.2549 17.8756C15.2543 17.8753 15.2538 17.8751 15.2532 17.8748C15.2526 17.8745 15.252 17.8742 15.2514 17.874C15.2508 17.8737 15.2502 17.8734 15.2497 17.8731C15.2491 17.8729 15.2485 17.8726 15.2479 17.8723C15.2473 17.872 15.2467 17.8718 15.2462 17.8715C15.2456 17.8712 15.245 17.8709 15.2444 17.8707C15.2438 17.8704 15.2432 17.8701 15.2427 17.8698C15.2421 17.8696 15.2415 17.8693 15.2409 17.869C15.2403 17.8687 15.2397 17.8685 15.2392 17.8682C15.2386 17.8679 15.238 17.8676 15.2374 17.8674C15.2368 17.8671 15.2362 17.8668 15.2357 17.8665C15.2351 17.8663 15.2345 17.866 15.2339 17.8657C15.2333 17.8654 15.2327 17.8652 15.2322 17.8649C15.2316 17.8646 15.231 17.8643 15.2304 17.8641C15.2298 17.8638 15.2292 17.8635 15.2287 17.8632C15.2281 17.863 15.2275 17.8627 15.2269 17.8624C15.2263 17.8621 15.2257 17.8619 15.2252 17.8616C15.2246 17.8613 15.224 17.8611 15.2234 17.8608C15.2228 17.8605 15.2222 17.8602 15.2216 17.86C15.2211 17.8597 15.2205 17.8594 15.2199 17.8591C15.2193 17.8589 15.2187 17.8586 15.2181 17.8583C15.2176 17.858 15.217 17.8578 15.2164 17.8575C15.2158 17.8572 15.2152 17.8569 15.2146 17.8567C15.2141 17.8564 15.2135 17.8561 15.2129 17.8558C15.2123 17.8556 15.2117 17.8553 15.2111 17.855C15.2106 17.8547 15.21 17.8545 15.2094 17.8542C15.2088 17.8539 15.2082 17.8536 15.2076 17.8534C15.2071 17.8531 15.2065 17.8528 15.2059 17.8525C15.2053 17.8523 15.2047 17.852 15.2041 17.8517C15.2036 17.8514 15.203 17.8512 15.2024 17.8509C15.2018 17.8506 15.2012 17.8503 15.2006 17.8501C15.2001 17.8498 15.1995 17.8495 15.1989 17.8492C15.1983 17.849 15.1977 17.8487 15.1971 17.8484C15.1966 17.8481 15.196 17.8479 15.1954 17.8476C15.1948 17.8473 15.1942 17.847 15.1936 17.8468C15.1931 17.8465 15.1925 17.8462 15.1919 17.8459C15.1913 17.8457 15.1907 17.8454 15.1901 17.8451C15.1895 17.8448 15.189 17.8446 15.1884 17.8443C15.1878 17.844 15.1872 17.8437 15.1866 17.8435C15.186 17.8432 15.1855 17.8429 15.1849 17.8426C15.1843 17.8424 15.1837 17.8421 15.1831 17.8418C15.1825 17.8415 15.182 17.8413 15.1814 17.841C15.1808 17.8407 15.1802 17.8405 15.1796 17.8402C15.179 17.8399 15.1785 17.8396 15.1779 17.8394C15.1773 17.8391 15.1767 17.8388 15.1761 17.8385C15.1755 17.8383 15.175 17.838 15.1744 17.8377C15.1738 17.8374 15.1732 17.8372 15.1726 17.8369C15.172 17.8366 15.1715 17.8363 15.1709 17.8361C15.1703 17.8358 15.1697 17.8355 15.1691 17.8352C15.1685 17.835 15.168 17.8347 15.1674 17.8344C15.1668 17.8341 15.1662 17.8339 15.1656 17.8336C15.165 17.8333 15.1645 17.833 15.1639 17.8328C15.1633 17.8325 15.1627 17.8322 15.1621 17.8319C15.1615 17.8317 15.161 17.8314 15.1604 17.8311C15.1598 17.8308 15.1592 17.8306 15.1586 17.8303C15.158 17.83 15.1574 17.8297 15.1569 17.8295C15.1563 17.8292 15.1557 17.8289 15.1551 17.8286C15.1545 17.8284 15.1539 17.8281 15.1534 17.8278C15.1528 17.8275 15.1522 17.8273 15.1516 17.827C15.151 17.8267 15.1504 17.8264 15.1499 17.8262C15.1493 17.8259 15.1487 17.8256 15.1481 17.8253C15.1475 17.8251 15.1469 17.8248 15.1464 17.8245C15.1458 17.8242 15.1452 17.824 15.1446 17.8237C15.144 17.8234 15.1434 17.8231 15.1429 17.8229C15.1423 17.8226 15.1417 17.8223 15.1411 17.822C15.1405 17.8218 15.1399 17.8215 15.1394 17.8212C15.1388 17.821 15.1382 17.8207 15.1376 17.8204C15.137 17.8201 15.1364 17.8199 15.1359 17.8196C15.1353 17.8193 15.1347 17.819 15.1341 17.8188C15.1335 17.8185 15.1329 17.8182 15.1324 17.8179C15.1318 17.8177 15.1312 17.8174 15.1306 17.8171C15.13 17.8168 15.1294 17.8166 15.1288 17.8163C15.1283 17.816 15.1277 17.8157 15.1271 17.8155C15.1265 17.8152 15.1259 17.8149 15.1253 17.8146C15.1248 17.8144 15.1242 17.8141 15.1236 17.8138C15.123 17.8135 15.1224 17.8133 15.1218 17.813C15.1213 17.8127 15.1207 17.8124 15.1201 17.8122C15.1195 17.8119 15.1189 17.8116 15.1183 17.8113C15.1178 17.8111 15.1172 17.8108 15.1166 17.8105C15.116 17.8102 15.1154 17.81 15.1148 17.8097C15.1143 17.8094 15.1137 17.8091 15.1131 17.8089C15.1125 17.8086 15.1119 17.8083 15.1113 17.808C15.1108 17.8078 15.1102 17.8075 15.1096 17.8072C15.109 17.8069 15.1084 17.8067 15.1078 17.8064C15.1073 17.8061 15.1067 17.8058 15.1061 17.8056C15.1055 17.8053 15.1049 17.805 15.1043 17.8047C15.1038 17.8045 15.1032 17.8042 15.1026 17.8039C15.102 17.8036 15.1014 17.8034 15.1008 17.8031C15.1003 17.8028 15.0997 17.8025 15.0991 17.8023C15.0985 17.802 15.0979 17.8017 15.0973 17.8014C15.0967 17.8012 15.0962 17.8009 15.0956 17.8006C15.095 17.8004 15.0944 17.8001 15.0938 17.7998C15.0932 17.7995 15.0927 17.7993 15.0921 17.799C15.0915 17.7987 15.0909 17.7984 15.0903 17.7982C15.0897 17.7979 15.0892 17.7976 15.0886 17.7973C15.088 17.7971 15.0874 17.7968 15.0868 17.7965C15.0862 17.7962 15.0857 17.796 15.0851 17.7957C15.0845 17.7954 15.0839 17.7951 15.0833 17.7949C15.0827 17.7946 15.0822 17.7943 15.0816 17.794C15.081 17.7938 15.0804 17.7935 15.0798 17.7932C15.0792 17.7929 15.0787 17.7927 15.0781 17.7924C15.0775 17.7921 15.0769 17.7918 15.0763 17.7916C15.0757 17.7913 15.0752 17.791 15.0746 17.7907C15.074 17.7905 15.0734 17.7902 15.0728 17.7899C15.0722 17.7896 15.0717 17.7894 15.0711 17.7891C15.0705 17.7888 15.0699 17.7885 15.0693 17.7883C15.0687 17.788 15.0682 17.7877 15.0676 17.7874C15.067 17.7872 15.0664 17.7869 15.0658 17.7866C15.0652 17.7863 15.0646 17.7861 15.0641 17.7858C15.0635 17.7855 15.0629 17.7852 15.0623 17.785C15.0617 17.7847 15.0611 17.7844 15.0606 17.7841C15.06 17.7839 15.0594 17.7836 15.0588 17.7833C15.0582 17.783 15.0576 17.7828 15.0571 17.7825C15.0565 17.7822 15.0559 17.7819 15.0553 17.7817C15.0547 17.7814 15.0541 17.7811 15.0536 17.7809C15.053 17.7806 15.0524 17.7803 15.0518 17.78C15.0512 17.7798 15.0506 17.7795 15.0501 17.7792C15.0495 17.7789 15.0489 17.7787 15.0483 17.7784C15.0477 17.7781 15.0471 17.7778 15.0466 17.7776C15.046 17.7773 15.0454 17.777 15.0448 17.7767C15.0442 17.7765 15.0436 17.7762 15.0431 17.7759C15.0425 17.7756 15.0419 17.7754 15.0413 17.7751C15.0407 17.7748 15.0401 17.7745 15.0396 17.7743C15.039 17.774 15.0384 17.7737 15.0378 17.7734C15.0372 17.7732 15.0366 17.7729 15.036 17.7726C15.0355 17.7723 15.0349 17.7721 15.0343 17.7718C15.0337 17.7715 15.0331 17.7712 15.0325 17.771C15.032 17.7707 15.0314 17.7704 15.0308 17.7701C15.0302 17.7699 15.0296 17.7696 15.029 17.7693C15.0285 17.769 15.0279 17.7688 15.0273 17.7685C15.0267 17.7682 15.0261 17.7679 15.0255 17.7677C15.025 17.7674 15.0244 17.7671 15.0238 17.7668C15.0232 17.7666 15.0226 17.7663 15.022 17.766C15.0215 17.7657 15.0209 17.7655 15.0203 17.7652C15.0197 17.7649 15.0191 17.7646 15.0185 17.7644C15.018 17.7641 15.0174 17.7638 15.0168 17.7635C15.0162 17.7633 15.0156 17.763 15.015 17.7627C15.0145 17.7624 15.0139 17.7622 15.0133 17.7619C15.0127 17.7616 15.0121 17.7613 15.0115 17.7611C15.011 17.7608 15.0104 17.7605 15.0098 17.7603C15.0092 17.76 15.0086 17.7597 15.008 17.7594C15.0075 17.7592 15.0069 17.7589 15.0063 17.7586C15.0057 17.7583 15.0051 17.7581 15.0045 17.7578C15.0039 17.7575 15.0034 17.7572 15.0028 17.757C15.0022 17.7567 15.0016 17.7564 15.001 17.7561C15.0004 17.7559 14.9999 17.7556 14.9993 17.7553C14.9987 17.755 14.9981 17.7548 14.9975 17.7545C14.9969 17.7542 14.9964 17.7539 14.9958 17.7537C14.9952 17.7534 14.9946 17.7531 14.994 17.7528C14.9934 17.7526 14.9929 17.7523 14.9923 17.752C14.9917 17.7517 14.9911 17.7515 14.9905 17.7512C14.9899 17.7509 14.9894 17.7506 14.9888 17.7504C14.9882 17.7501 14.9876 17.7498 14.987 17.7495C14.9864 17.7493 14.9859 17.749 14.9853 17.7487C14.9847 17.7484 14.9841 17.7482 14.9835 17.7479C14.9829 17.7476 14.9824 17.7473 14.9818 17.7471C14.9812 17.7468 14.9806 17.7465 14.98 17.7462C14.9794 17.746 14.9789 17.7457 14.9783 17.7454C14.9777 17.7451 14.9771 17.7449 14.9765 17.7446C14.9759 17.7443 14.9753 17.744 14.9748 17.7438C14.9742 17.7435 14.9736 17.7432 14.973 17.7429C14.9724 17.7427 14.9718 17.7424 14.9713 17.7421C14.9707 17.7418 14.9701 17.7416 14.9695 17.7413C14.9689 17.741 14.9683 17.7408 14.9678 17.7405C14.9672 17.7402 14.9666 17.7399 14.966 17.7397C14.9654 17.7394 14.9648 17.7391 14.9643 17.7388C14.9637 17.7386 14.9631 17.7383 14.9625 17.738C14.9619 17.7377 14.9613 17.7375 14.9608 17.7372C14.9602 17.7369 14.9596 17.7366 14.959 17.7364C14.9584 17.7361 14.9578 17.7358 14.9573 17.7355C14.9567 17.7353 14.9561 17.735 14.9555 17.7347C14.9549 17.7344 14.9543 17.7342 14.9538 17.7339C14.9532 17.7336 14.9526 17.7333 14.952 17.7331C14.9514 17.7328 14.9508 17.7325 14.9503 17.7322C14.9497 17.732 14.9491 17.7317 14.9485 17.7314C14.9479 17.7311 14.9473 17.7309 14.9468 17.7306C14.9462 17.7303 14.9456 17.73 14.945 17.7298C14.9444 17.7295 14.9438 17.7292 14.9432 17.7289C14.9427 17.7287 14.9421 17.7284 14.9415 17.7281C14.9409 17.7278 14.9403 17.7276 14.9397 17.7273C14.9392 17.727 14.9386 17.7267 14.938 17.7265C14.9374 17.7262 14.9368 17.7259 14.9362 17.7256C14.9357 17.7254 14.9351 17.7251 14.9345 17.7248C14.9339 17.7245 14.9333 17.7243 14.9327 17.724C14.9322 17.7237 14.9316 17.7234 14.931 17.7232C14.9304 17.7229 14.9298 17.7226 14.9292 17.7223C14.9287 17.7221 14.9281 17.7218 14.9275 17.7215C14.9269 17.7212 14.9263 17.721 14.9257 17.7207C14.9252 17.7204 14.9246 17.7202 14.924 17.7199C14.9234 17.7196 14.9228 17.7193 14.9222 17.7191C14.9217 17.7188 14.9211 17.7185 14.9205 17.7182C14.9199 17.718 14.9193 17.7177 14.9187 17.7174C14.9182 17.7171 14.9176 17.7169 14.917 17.7166C14.9164 17.7163 14.9158 17.716 14.9152 17.7158C14.9147 17.7155 14.9141 17.7152 14.9135 17.7149C14.9129 17.7147 14.9123 17.7144 14.9117 17.7141C14.9111 17.7138 14.9106 17.7136 14.91 17.7133C14.9094 17.713 14.9088 17.7127 14.9082 17.7125C14.9076 17.7122 14.9071 17.7119 14.9065 17.7116C14.9059 17.7114 14.9053 17.7111 14.9047 17.7108C14.9041 17.7105 14.9036 17.7103 14.903 17.71C14.9024 17.7097 14.9018 17.7094 14.9012 17.7092C14.9006 17.7089 14.9001 17.7086 14.8995 17.7083C14.8989 17.7081 14.8983 17.7078 14.8977 17.7075C14.8971 17.7072 14.8966 17.707 14.896 17.7067C14.8954 17.7064 14.8948 17.7061 14.8942 17.7059C14.8936 17.7056 14.8931 17.7053 14.8925 17.705C14.8919 17.7048 14.8913 17.7045 14.8907 17.7042C14.8901 17.7039 14.8896 17.7037 14.889 17.7034C14.8884 17.7031 14.8878 17.7028 14.8872 17.7026C14.8866 17.7023 14.8861 17.702 14.8855 17.7017C14.8849 17.7015 14.8843 17.7012 14.8837 17.7009C14.8831 17.7007 14.8825 17.7004 14.882 17.7001C14.8814 17.6998 14.8808 17.6996 14.8802 17.6993C14.8796 17.699 14.879 17.6987 14.8785 17.6985C14.8779 17.6982 14.8773 17.6979 14.8767 17.6976C14.8761 17.6974 14.8755 17.6971 14.875 17.6968C14.8744 17.6965 14.8738 17.6963 14.8732 17.696C14.8726 17.6957 14.872 17.6954 14.8715 17.6952C14.8709 17.6949 14.8703 17.6946 14.8697 17.6943C14.8691 17.6941 14.8685 17.6938 14.868 17.6935C14.8674 17.6932 14.8668 17.693 14.8662 17.6927C14.8656 17.6924 14.865 17.6921 14.8645 17.6919C14.8639 17.6916 14.8633 17.6913 14.8627 17.691C14.8621 17.6908 14.8615 17.6905 14.861 17.6902C14.8604 17.6899 14.8598 17.6897 14.8592 17.6894C14.8586 17.6891 14.858 17.6888 14.8575 17.6886C14.8569 17.6883 14.8563 17.688 14.8557 17.6877C14.8551 17.6875 14.8545 17.6872 14.854 17.6869C14.8534 17.6866 14.8528 17.6864 14.8522 17.6861C14.8516 17.6858 14.851 17.6855 14.8504 17.6853C14.8499 17.685 14.8493 17.6847 14.8487 17.6844C14.8481 17.6842 14.8475 17.6839 14.8469 17.6836C14.8464 17.6833 14.8458 17.6831 14.8452 17.6828C14.8446 17.6825 14.844 17.6822 14.8434 17.682C14.8429 17.6817 14.8423 17.6814 14.8417 17.6811C14.8411 17.6809 14.8405 17.6806 14.8399 17.6803C14.8394 17.6801 14.8388 17.6798 14.8382 17.6795C14.8376 17.6792 14.837 17.679 14.8364 17.6787C14.8359 17.6784 14.8353 17.6781 14.8347 17.6779C14.8341 17.6776 14.8335 17.6773 14.8329 17.677C14.8324 17.6768 14.8318 17.6765 14.8312 17.6762C14.8306 17.6759 14.83 17.6757 14.8294 17.6754C14.8289 17.6751 14.8283 17.6748 14.8277 17.6746C14.8271 17.6743 14.8265 17.674 14.8259 17.6737C14.8254 17.6735 14.8248 17.6732 14.8242 17.6729C14.8236 17.6726 14.823 17.6724 14.8224 17.6721C14.8219 17.6718 14.8213 17.6715 14.8207 17.6713C14.8201 17.671 14.8195 17.6707 14.8189 17.6704C14.8183 17.6702 14.8178 17.6699 14.8172 17.6696C14.8166 17.6693 14.816 17.6691 14.8154 17.6688C14.8148 17.6685 14.8143 17.6682 14.8137 17.668C14.8131 17.6677 14.8125 17.6674 14.8119 17.6671C14.8113 17.6669 14.8108 17.6666 14.8102 17.6663C14.8096 17.666 14.809 17.6658 14.8084 17.6655C14.8078 17.6652 14.8073 17.6649 14.8067 17.6647C14.8061 17.6644 14.8055 17.6641 14.8049 17.6638C14.8043 17.6636 14.8038 17.6633 14.8032 17.663C14.8026 17.6627 14.802 17.6625 14.8014 17.6622C14.8008 17.6619 14.8003 17.6616 14.7997 17.6614C14.7991 17.6611 14.7985 17.6608 14.7979 17.6605C14.7973 17.6603 14.7968 17.66 14.7962 17.6597C14.7956 17.6595 14.795 17.6592 14.7944 17.6589C14.7938 17.6586 14.7933 17.6584 14.7927 17.6581C14.7921 17.6578 14.7915 17.6575 14.7909 17.6573C14.7903 17.657 14.7897 17.6567 14.7892 17.6564C14.7886 17.6562 14.788 17.6559 14.7874 17.6556C14.7868 17.6553 14.7862 17.6551 14.7857 17.6548C14.7851 17.6545 14.7845 17.6542 14.7839 17.654C14.7833 17.6537 14.7827 17.6534 14.7822 17.6531C14.7816 17.6529 14.781 17.6526 14.7804 17.6523C14.7798 17.652 14.7792 17.6518 14.7787 17.6515C14.7781 17.6512 14.7775 17.6509 14.7769 17.6507C14.7763 17.6504 14.7757 17.6501 14.7752 17.6498C14.7746 17.6496 14.774 17.6493 14.7734 17.649C14.7728 17.6487 14.7722 17.6485 14.7717 17.6482C14.7711 17.6479 14.7705 17.6476 14.7699 17.6474C14.7693 17.6471 14.7687 17.6468 14.7682 17.6465C14.7676 17.6463 14.767 17.646 14.7664 17.6457C14.7658 17.6454 14.7652 17.6452 14.7647 17.6449C14.7641 17.6446 14.7635 17.6443 14.7629 17.6441C14.7623 17.6438 14.7617 17.6435 14.7612 17.6432C14.7606 17.643 14.76 17.6427 14.7594 17.6424C14.7588 17.6421 14.7582 17.6419 14.7576 17.6416C14.7571 17.6413 14.7565 17.641 14.7559 17.6408C14.7553 17.6405 14.7547 17.6402 14.7541 17.64C14.7536 17.6397 14.753 17.6394 14.7524 17.6391C14.7518 17.6389 14.7512 17.6386 14.7506 17.6383C14.7501 17.638 14.7495 17.6378 14.7489 17.6375C14.7483 17.6372 14.7477 17.6369 14.7471 17.6367C14.7466 17.6364 14.746 17.6361 14.7454 17.6358C14.7448 17.6356 14.7442 17.6353 14.7436 17.635C14.7431 17.6347 14.7425 17.6345 14.7419 17.6342C14.7413 17.6339 14.7407 17.6336 14.7401 17.6334C14.7396 17.6331 14.739 17.6328 14.7384 17.6325C14.7378 17.6323 14.7372 17.632 14.7366 17.6317C14.7361 17.6314 14.7355 17.6312 14.7349 17.6309C14.7343 17.6306 14.7337 17.6303 14.7331 17.6301C14.7326 17.6298 14.732 17.6295 14.7314 17.6292C14.7308 17.629 14.7302 17.6287 14.7296 17.6284C14.7291 17.6281 14.7285 17.6279 14.7279 17.6276C14.7273 17.6273 14.7267 17.627 14.7261 17.6268C14.7255 17.6265 14.725 17.6262 14.7244 17.6259C14.7238 17.6257 14.7232 17.6254 14.7226 17.6251C14.722 17.6248 14.7215 17.6246 14.7209 17.6243C14.7203 17.624 14.7197 17.6237 14.7191 17.6235C14.7185 17.6232 14.718 17.6229 14.7174 17.6226C14.7168 17.6224 14.7162 17.6221 14.7156 17.6218C14.715 17.6215 14.7145 17.6213 14.7139 17.621C14.7133 17.6207 14.7127 17.6204 14.7121 17.6202C14.7115 17.6199 14.711 17.6196 14.7104 17.6194C14.7098 17.6191 14.7092 17.6188 14.7086 17.6185C14.708 17.6183 14.7075 17.618 14.7069 17.6177C14.7063 17.6174 14.7057 17.6172 14.7051 17.6169C14.7045 17.6166 14.704 17.6163 14.7034 17.6161C14.7028 17.6158 14.7022 17.6155 14.7016 17.6152C14.701 17.615 14.7005 17.6147 14.6999 17.6144C14.6993 17.6141 14.6987 17.6139 14.6981 17.6136C14.6975 17.6133 14.6969 17.613 14.6964 17.6128C14.6958 17.6125 14.6952 17.6122 14.6946 17.6119C14.694 17.6117 14.6934 17.6114 14.6929 17.6111C14.6923 17.6108 14.6917 17.6106 14.6911 17.6103C14.6905 17.61 14.6899 17.6097 14.6894 17.6095C14.6888 17.6092 14.6882 17.6089 14.6876 17.6086C14.687 17.6084 14.6864 17.6081 14.6859 17.6078C14.6853 17.6075 14.6847 17.6073 14.6841 17.607C14.6835 17.6067 14.6829 17.6064 14.6824 17.6062C14.6818 17.6059 14.6812 17.6056 14.6806 17.6053C14.68 17.6051 14.6794 17.6048 14.6789 17.6045C14.6783 17.6042 14.6777 17.604 14.6771 17.6037C14.6765 17.6034 14.6759 17.6031 14.6754 17.6029C14.6748 17.6026 14.6742 17.6023 14.6736 17.602C14.673 17.6018 14.6724 17.6015 14.6719 17.6012C14.6713 17.6009 14.6707 17.6007 14.6701 17.6004C14.6695 17.6001 14.6689 17.5999 14.6684 17.5996C14.6678 17.5993 14.6672 17.599 14.6666 17.5988C14.666 17.5985 14.6654 17.5982 14.6648 17.5979C14.6643 17.5977 14.6637 17.5974 14.6631 17.5971C14.6625 17.5968 14.6619 17.5966 14.6613 17.5963C14.6608 17.596 14.6602 17.5957 14.6596 17.5955C14.659 17.5952 14.6584 17.5949 14.6578 17.5946C14.6573 17.5944 14.6567 17.5941 14.6561 17.5938C14.6555 17.5935 14.6549 17.5933 14.6543 17.593C14.6538 17.5927 14.6532 17.5924 14.6526 17.5922C14.652 17.5919 14.6514 17.5916 14.6508 17.5913C14.6503 17.5911 14.6497 17.5908 14.6491 17.5905C14.6485 17.5902 14.6479 17.59 14.6473 17.5897C14.6468 17.5894 14.6462 17.5891 14.6456 17.5889C14.645 17.5886 14.6444 17.5883 14.6438 17.588C14.6433 17.5878 14.6427 17.5875 14.6421 17.5872C14.6415 17.5869 14.6409 17.5867 14.6403 17.5864C14.6398 17.5861 14.6392 17.5858 14.6386 17.5856C14.638 17.5853 14.6374 17.585 14.6368 17.5847C14.6363 17.5845 14.6357 17.5842 14.6351 17.5839C14.6345 17.5836 14.6339 17.5834 14.6333 17.5831C14.6327 17.5828 14.6322 17.5825 14.6316 17.5823C14.631 17.582 14.6304 17.5817 14.6298 17.5814C14.6292 17.5812 14.6287 17.5809 14.6281 17.5806C14.6275 17.5803 14.6269 17.5801 14.6263 17.5798C14.6257 17.5795 14.6252 17.5793 14.6246 17.579C14.624 17.5787 14.6234 17.5784 14.6228 17.5782C14.6222 17.5779 14.6217 17.5776 14.6211 17.5773C14.6205 17.5771 14.6199 17.5768 14.6193 17.5765C14.6187 17.5762 14.6182 17.576 14.6176 17.5757C14.617 17.5754 14.6164 17.5751 14.6158 17.5749C14.6152 17.5746 14.6147 17.5743 14.6141 17.574C14.6135 17.5738 14.6129 17.5735 14.6123 17.5732L13.7607 19.3828ZM14.6891 19.819C15.0185 19.9602 15.3764 20.0995 15.7618 20.2372L16.4345 18.3537C16.0816 18.2276 15.7627 18.1032 15.4769 17.9808L14.6891 19.819ZM17.0365 19.6411C17.1623 19.2997 17.1904 18.8872 17.1904 18.5044H15.1904C15.1904 18.6585 15.1837 18.774 15.1741 18.8565C15.1639 18.9442 15.1534 18.967 15.1598 18.9497L17.0365 19.6411ZM17.1904 18.5044C17.1904 18.2515 17.1861 18.0363 17.175 17.871L15.1795 18.004C15.186 18.1024 15.1904 18.2651 15.1904 18.5044H17.1904ZM17.1759 17.8856C17.1401 17.1961 17.069 16.1578 16.9634 14.7763L14.9692 14.9287C15.0746 16.307 15.1441 17.3253 15.1786 17.9894L17.1759 17.8856ZM16.9636 14.7796C16.8584 13.3406 16.7796 12.1727 16.7273 11.2744L14.7307 11.3907C14.7838 12.3029 14.8633 13.4817 14.969 14.9255L16.9636 14.7796ZM16.7273 11.2744C16.6756 10.3862 16.6499 9.54876 16.6499 8.76172H14.6499C14.6499 9.59187 14.677 10.4683 14.7307 11.3907L16.7273 11.2744ZM16.6499 8.76172C16.6499 8.53542 16.6581 8.20809 16.6755 7.77337L14.6771 7.69343C14.6593 8.13761 14.6499 8.49583 14.6499 8.76172H16.6499ZM16.6742 7.7971L16.7138 7.17747L14.7179 7.05007L14.6783 7.6697L16.6742 7.7971ZM15.8554 6.12356L13.891 5.8467L13.6119 7.82713L15.5763 8.10398L15.8554 6.12356ZM14.6949 6.50543C14.6031 6.24395 14.5287 5.94716 14.4754 5.61193L12.5002 5.92616C12.5699 6.36436 12.6714 6.77949 12.808 7.1684L14.6949 6.50543ZM14.4759 5.61534C14.4216 5.26647 14.3955 4.93565 14.3955 4.62207H12.3955C12.3955 5.04677 12.4309 5.4806 12.4997 5.92275L14.4759 5.61534ZM14.3955 4.62207C14.3955 4.39197 14.4136 4.12856 14.4529 3.82967L12.47 3.56876C12.4214 3.93784 12.3955 4.28967 12.3955 4.62207H14.3955ZM13.8194 4.63296C14.7682 4.26925 16.0048 3.99315 17.5521 3.82312L17.3336 1.83509C15.6817 2.01661 14.264 2.3206 13.1035 2.76547L13.8194 4.63296ZM17.5521 3.82312C19.1134 3.65155 20.7292 3.56543 22.3999 3.56543V1.56543C20.6605 1.56543 18.9716 1.65509 17.3336 1.83509L17.5521 3.82312ZM22.3999 3.56543C24.1291 3.56543 25.2096 3.64333 25.7356 3.76416L26.1834 1.81494C25.4086 1.63694 24.116 1.56543 22.3999 1.56543V3.56543ZM26.6666 3.49666L26.6798 3.48347L25.2655 2.06926L25.2524 2.08244L26.6666 3.49666ZM25.4629 3.63666C25.8939 3.89208 26.2554 4.15148 26.5534 4.41224L27.8704 2.90709C27.4653 2.55262 27.0007 2.22316 26.4825 1.91608L25.4629 3.63666ZM26.5736 4.42943C26.8662 4.67207 27.1567 4.97839 27.4422 5.35651L29.0383 4.1513C28.6734 3.66809 28.2783 3.24492 27.8502 2.88991L26.5736 4.42943ZM27.2402 4.75391C27.2402 5.28168 27.1748 5.91612 27.0335 6.66449L28.9987 7.0357C29.1562 6.20204 29.2402 5.43902 29.2402 4.75391H27.2402ZM27.0319 6.67316C26.8992 7.41114 26.7269 8.0808 26.5176 8.68466L28.4072 9.33975C28.6549 8.62526 28.8518 7.85351 29.0003 7.02704L27.0319 6.67316ZM26.5137 8.69598C26.3044 9.32404 26.126 9.63442 26.0228 9.75289L27.5309 11.0664C27.9024 10.64 28.181 10.0187 28.4111 9.32843L26.5137 8.69598ZM26.3602 9.5006C26.2209 9.56444 26.0625 9.61726 25.8818 9.65599L26.3008 11.6116C26.6123 11.5448 26.9109 11.4483 27.1935 11.3187L26.3602 9.5006ZM25.9155 9.64936C25.7455 9.67972 25.5092 9.69971 25.1948 9.69971V11.6997C25.5836 11.6997 25.9449 11.6757 26.2671 11.6182L25.9155 9.64936ZM25.1948 9.69971C24.8533 9.69971 24.678 9.67324 24.6142 9.65584L24.088 11.5854C24.4109 11.6734 24.798 11.6997 25.1948 11.6997V9.69971ZM24.6258 9.65908C24.5347 9.63304 24.405 9.58063 24.2332 9.48443L23.256 11.2294C23.5237 11.3793 23.7983 11.5027 24.0764 11.5821L24.6258 9.65908ZM24.7356 10.2227L24.2873 6.91362L22.3054 7.18208L22.7537 10.4912L24.7356 10.2227ZM23.5039 6.06962C23.1249 5.98922 22.6995 5.95557 22.2417 5.95557V7.95557C22.61 7.95557 22.8878 7.98343 23.0889 8.02609L23.5039 6.06962ZM22.2417 5.95557C21.8332 5.95557 21.4065 5.97987 20.9626 6.0271L21.1741 8.01587C21.5564 7.97521 21.9119 7.95557 22.2417 7.95557V5.95557ZM20.0704 6.95778C20.0431 7.38537 20.0119 8.07818 19.9768 9.02793L21.9754 9.10195C22.0105 8.15326 22.0409 7.48377 22.0663 7.08518L20.0704 6.95778ZM19.9764 9.03963C19.959 9.72503 19.933 10.3878 19.8984 11.0281L21.8955 11.136C21.9312 10.4755 21.9579 9.79352 21.9758 9.09025L19.9764 9.03963ZM19.898 11.0361L19.7926 13.33L21.7904 13.4219L21.8959 11.128L19.898 11.0361ZM20.9135 14.3685C23.0728 14.103 24.8889 13.8225 26.3557 13.5255L25.9588 11.5653C24.5603 11.8484 22.7992 12.1216 20.6695 12.3835L20.9135 14.3685ZM25.3295 13.1066C25.5392 13.4158 25.6846 13.8717 25.6846 14.5493H27.6846C27.6846 13.5922 27.4784 12.7121 26.9849 11.9843L25.3295 13.1066ZM25.6846 14.5493C25.6846 14.9969 25.626 15.4184 25.5121 15.8171L27.4352 16.3665C27.6025 15.7808 27.6846 15.174 27.6846 14.5493H25.6846ZM25.5121 15.8171C25.4507 16.032 25.3929 16.19 25.3424 16.3009C25.2893 16.4178 25.2599 16.448 25.2707 16.436L26.7537 17.7778C27.0843 17.4125 27.2878 16.8822 27.4352 16.3665L25.5121 15.8171ZM25.853 16.1197C25.6553 16.1516 25.3546 16.1729 24.9312 16.1729V18.1729C25.4042 18.1729 25.8242 18.1502 26.1714 18.0942L25.853 16.1197ZM24.9312 16.1729C24.324 16.1729 23.6613 16.1169 22.9411 16.001L22.6234 17.9756C23.4325 18.1058 24.2024 18.1729 24.9312 18.1729V16.1729ZM22.9541 16.0032C22.2442 15.8793 21.5719 15.7109 20.9363 15.4991L20.3039 17.3964C21.0394 17.6416 21.8086 17.8336 22.6104 17.9734L22.9541 16.0032ZM19.6224 16.3805C19.5705 17.1501 19.5057 17.8924 19.4282 18.6075L21.4165 18.8231C21.4972 18.0793 21.5643 17.3099 21.6179 16.515L19.6224 16.3805ZM19.4288 18.6021C19.3538 19.2603 19.2518 19.8151 19.1276 20.2729L21.0579 20.7964C21.215 20.2172 21.3327 19.559 21.4159 18.8285L19.4288 18.6021ZM19.1246 20.2843C19.0214 20.6836 18.8664 21.0065 18.6709 21.2692L20.2754 22.4632C20.6424 21.97 20.9005 21.4053 21.0609 20.7851L19.1246 20.2843ZM18.6767 21.2615C18.4271 21.5903 18.1119 21.8322 17.7125 21.9944L18.4652 23.8474C19.1908 23.5526 19.7985 23.0914 20.2696 22.4709L18.6767 21.2615ZM17.7074 21.9965C17.2831 22.1716 16.816 22.2637 16.2959 22.2637V24.2637C17.059 24.2637 17.7873 24.1272 18.4704 23.8453L17.7074 21.9965ZM16.2959 22.2637C15.8669 22.2637 15.4332 22.1656 14.9861 21.9524L14.1252 23.7576C14.8207 24.0893 15.5471 24.2637 16.2959 24.2637V22.2637ZM14.9916 21.955C14.6477 21.7884 14.3259 21.4911 14.0461 20.9861L12.2967 21.9553C12.7376 22.7511 13.3386 23.3766 14.1197 23.755L14.9916 21.955ZM14.1713 21.4861C14.179 20.9862 14.2402 20.5622 14.3431 20.2054L12.4215 19.6511C12.2608 20.2083 12.1814 20.8126 12.1715 21.4553L14.1713 21.4861ZM14.3381 20.2223C14.4332 19.9133 14.6309 19.5366 14.9766 19.091L13.3964 17.865C12.9511 18.439 12.6127 19.0291 12.4265 19.6341L14.3381 20.2223ZM29.7168 2.19629L29.0287 1.47064L29.0224 1.47667L29.7168 2.19629ZM34.5552 2.19629L33.8608 2.91594L33.8671 2.92191L34.5552 2.19629ZM34.8584 5.29443L34.0902 4.65425L34.0856 4.65971L34.0812 4.66524L34.8584 5.29443ZM33.6719 6.17773L34.0658 7.09688L34.0727 7.09393L34.0795 7.09087L33.6719 6.17773ZM30.5474 6.125L30.081 7.00957L30.0905 7.0146L30.1001 7.01943L30.5474 6.125ZM29.3872 5.17578L28.585 5.77279L28.5894 5.77873L28.5939 5.7846L29.3872 5.17578ZM28.3193 11.6226L27.3528 11.879L27.5181 12.502L28.1537 12.6087L28.3193 11.6226ZM28.082 10.4492L27.0894 10.5703L27.0898 10.5733L28.082 10.4492ZM28.0161 9.32861L27.0168 9.29292L27.0161 9.31076V9.32861H28.0161ZM28.0293 8.95947L27.2399 8.34553L27.0415 8.60071L27.0299 8.92378L28.0293 8.95947ZM28.8862 8.24756L29.4093 9.0999L29.4145 9.09662L28.8862 8.24756ZM30.2573 7.62793L29.9554 6.67458L29.9508 6.67607L30.2573 7.62793ZM34.9902 13.5474L34.0057 13.3718L34.0045 13.3792L34.9902 13.5474ZM34.2783 16.8564L33.311 16.6027L33.3096 16.6083L34.2783 16.8564ZM33.5664 19.1372L32.6519 18.7327L32.3746 19.3596L32.8593 19.8443L33.5664 19.1372ZM33.5928 19.1636L32.8857 19.8707L33.3365 20.3216L33.9355 20.103L33.5928 19.1636ZM35.5439 18.4517L36.1916 17.6897L35.748 17.3127L35.2012 17.5122L35.5439 18.4517ZM36.335 19.4404L35.4362 19.8789L35.4405 19.8876L35.4449 19.8963L36.335 19.4404ZM36.6909 20.6929H37.6909V20.6375L37.6848 20.5824L36.6909 20.6929ZM36.1108 21.4575L36.8616 22.1182L36.868 22.1108L36.1108 21.4575ZM34.5684 22.6968L35.0811 23.5553L35.0846 23.5532L34.5684 22.6968ZM30.3101 22.5781L29.6488 23.3284L29.6551 23.3338L30.3101 22.5781ZM29.9673 11.8994L30.9613 12.0084L31.0643 11.0697L30.133 10.9132L29.9673 11.8994ZM29.9653 4.08154C29.9653 3.54632 30.1282 3.18898 30.4112 2.91591L29.0224 1.47667C28.3035 2.17039 27.9653 3.06989 27.9653 4.08154H29.9653ZM30.4049 2.92191C30.6467 2.69265 31.1494 2.47119 32.1426 2.47119V0.471191C30.9209 0.471191 29.8065 0.733132 29.0287 1.47067L30.4049 2.92191ZM32.1426 2.47119C33.1378 2.47119 33.6303 2.6935 33.8608 2.91591L35.2495 1.47667C34.4781 0.732278 33.3622 0.471191 32.1426 0.471191V2.47119ZM33.8671 2.92191C34.1565 3.19636 34.3198 3.55184 34.3198 4.08154H36.3198C36.3198 3.06437 35.9734 2.16302 35.2433 1.47067L33.8671 2.92191ZM34.3198 4.08154C34.3198 4.26466 34.263 4.44683 34.0902 4.65425L35.6266 5.93462C36.069 5.40376 36.3198 4.77733 36.3198 4.08154H34.3198ZM34.0812 4.66524C33.8941 4.89631 33.6321 5.10036 33.2642 5.2646L34.0795 7.09087C34.696 6.81566 35.2251 6.43083 35.6356 5.92363L34.0812 4.66524ZM33.278 5.25859C32.9083 5.41703 32.5324 5.49414 32.1426 5.49414V7.49414C32.8075 7.49414 33.4511 7.36032 34.0658 7.09688L33.278 5.25859ZM32.1426 5.49414C31.7204 5.49414 31.3425 5.40456 30.9946 5.23057L30.1001 7.01943C30.7366 7.33763 31.4222 7.49414 32.1426 7.49414V5.49414ZM31.0138 5.24043C30.6392 5.04294 30.3707 4.8148 30.1805 4.56696L28.5939 5.7846C28.9838 6.29263 29.4887 6.69729 30.081 7.00957L31.0138 5.24043ZM30.1894 4.57877C29.9934 4.31529 29.9653 4.15539 29.9653 4.08154H27.9653C27.9653 4.71083 28.2186 5.28041 28.585 5.77279L30.1894 4.57877ZM29.2859 11.3661C29.1804 10.9684 29.1115 10.6224 29.0743 10.3252L27.0898 10.5733C27.1405 10.9791 27.2298 11.4154 27.3528 11.879L29.2859 11.3661ZM29.0747 10.3282C29.0359 10.0105 29.0161 9.67747 29.0161 9.32861H27.0161C27.0161 9.75319 27.0402 10.1673 27.0894 10.5703L29.0747 10.3282ZM29.0155 9.3643L29.0287 8.99516L27.0299 8.92378L27.0168 9.29292L29.0155 9.3643ZM28.8186 9.57341C28.9019 9.46633 29.078 9.30312 29.4092 9.09988L28.3632 7.39524C27.921 7.6666 27.5258 7.97801 27.2399 8.34553L28.8186 9.57341ZM29.4145 9.09662C29.7301 8.90029 30.1104 8.72583 30.5639 8.57979L29.9508 6.67607C29.3672 6.86401 28.8334 7.10264 28.3579 7.3985L29.4145 9.09662ZM30.5592 8.58127C30.9873 8.44573 31.4303 8.37744 31.8921 8.37744V6.37744C31.2289 6.37744 30.5821 6.47615 29.9554 6.67459L30.5592 8.58127ZM31.8921 8.37744C33.0122 8.37744 33.5458 8.63542 33.7857 8.89156L35.2455 7.52445C34.4483 6.67317 33.2329 6.37744 31.8921 6.37744V8.37744ZM33.7857 8.89156C34.0573 9.18158 34.2935 9.74399 34.2935 10.792H36.2935C36.2935 9.50211 36.011 8.34186 35.2455 7.52445L33.7857 8.89156ZM34.2935 10.792C34.2935 11.4111 34.2032 12.2644 34.0058 13.3718L35.9747 13.7229C36.1816 12.5627 36.2935 11.5791 36.2935 10.792H34.2935ZM34.0045 13.3792C33.8158 14.4853 33.5846 15.5597 33.311 16.6027L35.2456 17.1102C35.5345 16.0086 35.7779 14.877 35.976 13.7155L34.0045 13.3792ZM33.3096 16.6083C33.0386 17.666 32.818 18.3571 32.6519 18.7327L34.4809 19.5417C34.7191 19.0033 34.9731 18.1738 35.247 17.1046L33.3096 16.6083ZM32.8593 19.8443L32.8857 19.8707L34.2999 18.4565L34.2735 18.4301L32.8593 19.8443ZM33.9355 20.103L35.8867 19.3911L35.2012 17.5122L33.25 18.2242L33.9355 20.103ZM34.8963 19.2136C35.1585 19.4365 35.3294 19.6598 35.4362 19.8789L37.2337 19.002C36.989 18.5003 36.6325 18.0645 36.1916 17.6897L34.8963 19.2136ZM35.4449 19.8963C35.5653 20.1313 35.6553 20.428 35.697 20.8033L37.6848 20.5824C37.621 20.0085 37.4738 19.4703 37.225 18.9846L35.4449 19.8963ZM35.6909 20.6929C35.6909 20.574 35.7129 20.4825 35.7262 20.4352C35.7408 20.3834 35.7568 20.3444 35.7665 20.3223C35.7854 20.2794 35.8012 20.254 35.8014 20.2538C35.8027 20.2516 35.7895 20.2726 35.7492 20.3258C35.6716 20.4281 35.5427 20.5851 35.3537 20.8043L36.868 22.1108C37.0657 21.8817 37.2268 21.6872 37.3426 21.5346C37.3989 21.4603 37.4582 21.3781 37.5079 21.2967C37.5323 21.2569 37.5662 21.1981 37.5972 21.1277C37.616 21.085 37.6909 20.9165 37.6909 20.6929H35.6909ZM35.3601 20.7969C35.0569 21.1414 34.6293 21.4925 34.0521 21.8403L35.0846 23.5532C35.7907 23.1277 36.3913 22.6525 36.8616 22.1181L35.3601 20.7969ZM34.0556 21.8382C33.5976 22.1118 33.0456 22.2637 32.3667 22.2637V24.2637C33.3577 24.2637 34.2735 24.0376 35.0811 23.5553L34.0556 21.8382ZM32.3667 22.2637C31.7109 22.2637 31.2744 22.0906 30.965 21.8224L29.6551 23.3338C30.4004 23.9797 31.335 24.2637 32.3667 24.2637V22.2637ZM30.9713 21.8279C30.769 21.6497 30.5322 21.2214 30.5322 20.2314H28.5322C28.5322 21.4564 28.814 22.5925 29.6489 23.3283L30.9713 21.8279ZM30.5322 20.2314C30.5322 18.9574 30.5669 17.6026 30.6365 16.1666L28.6389 16.0697C28.5679 17.5341 28.5322 18.9215 28.5322 20.2314H30.5322ZM30.6365 16.1666C30.7059 14.7355 30.8142 13.3495 30.9613 12.0084L28.9732 11.7904C28.8215 13.174 28.7101 14.6005 28.6389 16.0697L30.6365 16.1666ZM30.133 10.9132L28.485 10.6364L28.1537 12.6087L29.8016 12.8856L30.133 10.9132ZM37.4556 5.75586L36.4845 5.99465L36.641 6.63126L37.2873 6.7416L37.4556 5.75586ZM37.1919 4.42432L36.1992 4.54537L36.1996 4.54835L37.1919 4.42432ZM37.1392 3.18506L36.3498 2.57112L36.1456 2.83366L36.1393 3.16619L37.1392 3.18506ZM37.9961 2.47314L38.5191 3.32548L38.5244 3.3222L37.9961 2.47314ZM39.3672 1.85352L39.0653 0.900162L39.0607 0.901655L39.3672 1.85352ZM43.6519 14.0879L44.6438 14.2147L44.6439 14.2141L43.6519 14.0879ZM42.8081 19.1372L41.8314 18.9228L41.714 19.4573L42.101 19.8443L42.8081 19.1372ZM42.8345 19.1636L42.1274 19.8707L42.6019 20.3452L43.2209 20.0859L42.8345 19.1636ZM44.7856 18.3462L45.4372 17.5876L44.9688 17.1853L44.3993 17.4239L44.7856 18.3462ZM45.9854 20.6929H46.9854V20.6345L46.9786 20.5765L45.9854 20.6929ZM45.3921 21.4575L46.1354 22.1265L46.1419 22.1191L45.3921 21.4575ZM43.8232 22.6968L44.3308 23.5584L44.3343 23.5563L43.8232 22.6968ZM39.4858 22.5386L38.8162 23.2813L38.8222 23.2866L39.4858 22.5386ZM38.7212 20.0601L39.721 20.0826L39.7211 20.0712L38.7212 20.0601ZM38.7476 17.687L39.7475 17.6981L39.7476 17.6909L38.7476 17.687ZM38.8135 11.6094L37.8138 11.585L37.8137 11.5899L38.8135 11.6094ZM39.0771 6.03271L40.0748 6.10136L40.1369 5.19917L39.2454 5.04698L39.0771 6.03271ZM38.4266 5.51707C38.2996 5.0004 38.2214 4.59815 38.1842 4.30028L36.1996 4.54835C36.2503 4.9536 36.3479 5.43906 36.4845 5.99465L38.4266 5.51707ZM38.1845 4.30326C38.1476 4.00017 38.1308 3.63536 38.139 3.20392L36.1393 3.16619C36.1299 3.66639 36.1483 4.12776 36.1992 4.54537L38.1845 4.30326ZM37.9285 3.799C38.0118 3.69191 38.1879 3.52871 38.5191 3.32547L37.4731 1.62082C37.0308 1.89219 36.6357 2.20359 36.3498 2.57112L37.9285 3.799ZM38.5244 3.3222C38.8399 3.12588 39.2202 2.95141 39.6737 2.80538L39.0607 0.901655C38.477 1.0896 37.9433 1.32822 37.4678 1.62409L38.5244 3.3222ZM39.6691 2.80686C40.0971 2.67131 40.5401 2.60303 41.002 2.60303V0.603027C40.3388 0.603027 39.6919 0.701734 39.0653 0.900173L39.6691 2.80686ZM41.002 2.60303C41.939 2.60303 42.5029 2.83746 42.8482 3.16211L44.2182 1.70507C43.3858 0.922303 42.2622 0.603027 41.002 0.603027V2.60303ZM42.8482 3.16211C43.1749 3.46931 43.4165 3.98357 43.4165 4.88574H45.4165C45.4165 3.62581 45.0693 2.50529 44.2182 1.70507L42.8482 3.16211ZM43.4165 4.88574C43.4165 5.61783 43.3533 6.8286 43.2217 8.54L45.2158 8.6934C45.3478 6.97707 45.4165 5.70052 45.4165 4.88574H43.4165ZM43.2217 8.54C43.0913 10.2353 42.9041 12.0424 42.6599 13.9616L44.6439 14.2141C44.8918 12.2662 45.0825 10.4258 45.2158 8.6934L43.2217 8.54ZM42.6599 13.9611C42.4165 15.865 42.1398 17.5177 41.8314 18.9228L43.7848 19.3516C44.1092 17.8739 44.395 16.1604 44.6438 14.2147L42.6599 13.9611ZM42.101 19.8443L42.1274 19.8707L43.5416 18.4565L43.5152 18.4301L42.101 19.8443ZM43.2209 20.0859L45.172 19.2685L44.3993 17.4239L42.4481 18.2412L43.2209 20.0859ZM44.1341 19.1048C44.6119 19.5152 44.9043 20.0594 44.9921 20.8092L46.9786 20.5765C46.8379 19.3752 46.3305 18.3549 45.4372 17.5876L44.1341 19.1048ZM44.9854 20.6929C44.9854 20.5712 45.0083 20.4776 45.0222 20.4295C45.0374 20.3768 45.0541 20.3371 45.0642 20.3146C45.0837 20.2712 45.1001 20.2455 45.1003 20.2453C45.1017 20.2429 45.0883 20.2639 45.047 20.3172C44.9675 20.4195 44.8357 20.5767 44.6423 20.7959L46.1419 22.1191C46.344 21.8901 46.5088 21.6957 46.6271 21.5432C46.6847 21.469 46.7454 21.3867 46.7963 21.3053C46.8211 21.2655 46.8561 21.2063 46.888 21.1354C46.9072 21.0928 46.9854 20.9213 46.9854 20.6929H44.9854ZM44.6488 20.7886C44.3364 21.1356 43.8989 21.4884 43.3122 21.8372L44.3343 23.5563C45.0483 23.1318 45.6567 22.6583 46.1354 22.1265L44.6488 20.7886ZM43.3157 21.8351C42.8459 22.1119 42.287 22.2637 41.6084 22.2637V24.2637C42.5997 24.2637 43.5173 24.0376 44.3308 23.5584L43.3157 21.8351ZM41.6084 22.2637C40.9328 22.2637 40.4771 22.0812 40.1495 21.7905L38.8222 23.2866C39.5844 23.9628 40.5438 24.2637 41.6084 24.2637V22.2637ZM40.1555 21.7959C39.9391 21.6008 39.6971 21.1373 39.7209 20.0826L37.7214 20.0375C37.6925 21.3207 37.9603 22.5096 38.8162 23.2813L40.1555 21.7959ZM39.7211 20.0712L39.7475 17.6981L37.7476 17.6759L37.7213 20.0489L39.7211 20.0712ZM39.7476 17.6909C39.7563 15.4449 39.7783 13.4244 39.8133 11.6289L37.8137 11.5899C37.7784 13.3979 37.7564 15.4291 37.7476 17.6831L39.7476 17.6909ZM39.8132 11.6338C39.8567 9.84769 39.9439 8.00359 40.0748 6.10136L38.0795 5.96407C37.9467 7.89387 37.8581 9.76754 37.8138 11.585L39.8132 11.6338ZM39.2454 5.04698L37.6239 4.77012L37.2873 6.7416L38.9089 7.01845L39.2454 5.04698Z" fill="#646466" mask="url(#path-2-outside-1_1282_5291)"/>
</svg>
