<svg width="20" height="20" viewBox="0 0 20 20" fill="none" xmlns="http://www.w3.org/2000/svg">
<path d="M18.4504 12.4803C18.846 12.4803 19.1666 12.1597 19.1666 11.7642V7.10921C19.1666 5.52968 17.8815 4.24463 16.302 4.24463H15.2149C14.9082 4.24463 14.6357 4.04959 14.5369 3.75923L14.3202 3.12268C14.0237 2.2517 13.2064 1.6665 12.2864 1.6665H7.71122C6.80902 1.6665 5.99695 2.23666 5.69055 3.08522L5.44265 3.77172C5.34049 4.05456 5.06983 4.24463 4.76908 4.24463H3.69783C2.1183 4.24463 0.833252 5.52968 0.833252 7.10921V15.3449C0.833252 16.9244 2.1183 18.2095 3.69783 18.2095H16.302C17.8815 18.2095 19.1666 16.9244 19.1666 15.3449C19.1666 14.9494 18.846 14.6287 18.4504 14.6287C18.0549 14.6287 17.7343 14.9494 17.7343 15.3449C17.7343 16.1347 17.0918 16.7772 16.302 16.7772H3.69783C2.90807 16.7772 2.26554 16.1347 2.26554 15.3449V7.10921C2.26554 6.31945 2.90807 5.67692 3.69783 5.67692H4.76908C5.67128 5.67692 6.48336 5.10676 6.78976 4.2582L7.03765 3.5717C7.13981 3.28886 7.41048 3.0988 7.71122 3.0988H12.2864C12.593 3.0988 12.8655 3.29387 12.9643 3.5842L13.181 4.22075C13.4775 5.09172 14.2948 5.67692 15.2149 5.67692H16.302C17.0918 5.67692 17.7343 6.31945 17.7343 7.10921V11.7642C17.7343 12.1597 18.0549 12.4803 18.4504 12.4803Z" fill="#D68DE1"/>
<path fill-rule="evenodd" clip-rule="evenodd" d="M5.55981 10.869C5.55981 8.40096 7.56771 6.39307 10.0357 6.39307C12.5037 6.39307 14.5116 8.40096 14.5116 10.869C14.5116 13.337 12.5037 15.3449 10.0357 15.3449C7.56771 15.3449 5.55981 13.337 5.55981 10.869ZM6.99211 10.869C6.99211 12.5472 8.35747 13.9126 10.0357 13.9126C11.714 13.9126 13.0793 12.5472 13.0793 10.869C13.0793 9.19073 11.714 7.82536 10.0357 7.82536C8.35747 7.82536 6.99211 9.19073 6.99211 10.869Z" fill="#D68DE1"/>
</svg>
