<svg width="62" height="55" viewBox="0 0 62 55" fill="none" xmlns="http://www.w3.org/2000/svg">
<path d="M6.42107 54.5657L54.7386 54.5657C59.6794 54.5657 62.7594 49.2078 60.289 44.9407L36.1302 3.20031C33.6598 -1.06677 27.4998 -1.06677 25.0294 3.20031L0.87065 44.9407C-1.59977 49.2078 1.48023 54.5657 6.42107 54.5657ZM30.5798 32.1074C28.8152 32.1074 27.3715 30.6636 27.3715 28.8991L27.3715 22.4824C27.3715 20.7178 28.8152 19.2741 30.5798 19.2741C32.3444 19.2741 33.7881 20.7178 33.7881 22.4824L33.7881 28.8991C33.7881 30.6636 32.3444 32.1074 30.5798 32.1074ZM33.7881 44.9407L27.3715 44.9407L27.3715 38.5241L33.7881 38.5241L33.7881 44.9407Z" fill="#070417" fill-opacity="0.8"/>
</svg>
