<svg width="42" height="44" viewBox="0 0 42 44" fill="none" xmlns="http://www.w3.org/2000/svg">
<g filter="url(#filter0_d_1723_14225)">
<path d="M7.86977 14.8009L6.62779 13.6103L6.208 15.2788C5.64198 17.5284 5.59664 19.8775 6.07542 22.1473C6.5542 24.4171 7.54449 26.5478 8.97091 28.3771C10.3973 30.2064 12.2223 31.6863 14.3069 32.7039C16.3914 33.7216 18.6806 34.2503 21.0003 34.2498C21.0003 34.2498 21.0004 34.2498 21.0005 34.2498H28.1253H28.1614C29.2375 34.2498 30.096 34.2498 30.7925 34.2024C31.5057 34.1538 32.122 34.0521 32.7003 33.8128L32.7005 33.8127C33.3984 33.5237 34.0324 33.1001 34.5665 32.566C35.1006 32.032 35.5242 31.3979 35.8132 30.7L35.8133 30.6998C36.0526 30.1215 36.1543 29.5052 36.2028 28.792C36.2503 28.0955 36.2503 27.237 36.2503 26.1609V26.1248V19C36.2503 18.9999 36.2503 18.9999 36.2503 18.9998C36.2508 16.6801 35.7221 14.3909 34.7044 12.3064C33.6868 10.2218 32.2069 8.39684 30.3776 6.97042C28.5482 5.544 26.4176 4.55371 24.1478 4.07493C21.878 3.59615 19.5289 3.64149 17.2793 4.20751L15.6108 4.6273L16.8014 5.86929C17.2025 6.28777 17.4719 6.81489 17.576 7.38517C17.6801 7.95545 17.6144 8.54375 17.387 9.07698C17.1595 9.61022 16.7805 10.0649 16.2969 10.3845C15.8133 10.7041 15.2465 10.8746 14.6669 10.8748C14.6668 10.8748 14.6667 10.8748 14.6666 10.8748H13.8753H12.8753V11.8748V12.6662C12.8753 12.6663 12.8753 12.6664 12.8753 12.6665C12.875 13.2461 12.7046 13.8128 12.385 14.2964C12.0654 14.78 11.6107 15.1591 11.0775 15.3865C10.5442 15.6139 9.95594 15.6796 9.38566 15.5755C8.81538 15.4714 8.28826 15.202 7.86977 14.8009ZM15.8378 17.004C15.9472 16.8946 16.0956 16.8331 16.2503 16.8331H25.7503C25.905 16.8331 26.0534 16.8946 26.1628 17.004C26.2722 17.1134 26.3336 17.2617 26.3336 17.4165C26.3336 17.5712 26.2722 17.7195 26.1628 17.8289C26.0534 17.9383 25.905 17.9998 25.7503 17.9998H16.2503C16.0956 17.9998 15.9472 17.9383 15.8378 17.8289C15.7284 17.7195 15.6669 17.5712 15.6669 17.4165C15.6669 17.2617 15.7284 17.1134 15.8378 17.004ZM20.5878 23.3373C20.6972 23.2279 20.8456 23.1665 21.0003 23.1665H25.7503C25.905 23.1665 26.0534 23.2279 26.1628 23.3373C26.2722 23.4467 26.3336 23.5951 26.3336 23.7498C26.3336 23.9045 26.2722 24.0529 26.1628 24.1623C26.0534 24.2717 25.905 24.3331 25.7503 24.3331H21.0003C20.8456 24.3331 20.6972 24.2717 20.5878 24.1623C20.4784 24.0529 20.4169 23.9045 20.4169 23.7498C20.4169 23.5951 20.4784 23.4467 20.5878 23.3373Z" fill="url(#paint0_linear_1723_14225)" stroke="white" stroke-width="2"/>
</g>
<g filter="url(#filter1_d_1723_14225)">
<path d="M12.4274 6.49134H10.0868V4.15076C10.0868 3.84038 9.9635 3.54271 9.74403 3.32324C9.52456 3.10377 9.22689 2.98047 8.91651 2.98047C8.60613 2.98047 8.30846 3.10377 8.08899 3.32324C7.86952 3.54271 7.74622 3.84038 7.74622 4.15076L7.78777 6.49134H5.40564C5.09526 6.49134 4.79759 6.61464 4.57812 6.83411C4.35865 7.05358 4.23535 7.35125 4.23535 7.66163C4.23535 7.97201 4.35865 8.26968 4.57812 8.48915C4.79759 8.70862 5.09526 8.83192 5.40564 8.83192L7.78777 8.79037L7.74622 11.1725C7.74622 11.4829 7.86952 11.7805 8.08899 12C8.30846 12.2195 8.60613 12.3428 8.91651 12.3428C9.22689 12.3428 9.52456 12.2195 9.74403 12C9.9635 11.7805 10.0868 11.4829 10.0868 11.1725V8.79037L12.4274 8.83192C12.7378 8.83192 13.0354 8.70862 13.2549 8.48915C13.4744 8.26968 13.5977 7.97201 13.5977 7.66163C13.5977 7.35125 13.4744 7.05358 13.2549 6.83411C13.0354 6.61464 12.7378 6.49134 12.4274 6.49134Z" fill="url(#paint1_linear_1723_14225)"/>
<path d="M6.76986 5.49134H5.40564C4.83004 5.49134 4.27802 5.71999 3.87101 6.127C3.46401 6.53401 3.23535 7.08603 3.23535 7.66163C3.23535 8.23723 3.46401 8.78925 3.87101 9.19625C4.27802 9.60326 4.83004 9.83192 5.40564 9.83192H5.41436L5.42308 9.83177L6.76986 9.80828L6.74637 11.1551L6.74622 11.1638V11.1725C6.74622 11.7481 6.97488 12.3001 7.38188 12.7071C7.78889 13.1141 8.34091 13.3428 8.91651 13.3428C9.49211 13.3428 10.0441 13.1141 10.4511 12.7071C10.8581 12.3001 11.0868 11.7481 11.0868 11.1725V9.80828L12.4096 9.83176L12.4185 9.83192H12.4274C13.003 9.83192 13.555 9.60326 13.962 9.19625C14.369 8.78925 14.5977 8.23723 14.5977 7.66163C14.5977 7.08603 14.369 6.53401 13.962 6.127C13.555 5.71999 13.003 5.49134 12.4274 5.49134H11.0868V4.15076C11.0868 3.57516 10.8581 3.02314 10.4511 2.61613C10.0441 2.20912 9.49211 1.98047 8.91651 1.98047C8.34091 1.98047 7.78889 2.20912 7.38188 2.61613C6.97488 3.02314 6.74622 3.57516 6.74622 4.15076V4.15963L6.74638 4.16851L6.76986 5.49134Z" stroke="white" stroke-width="2"/>
</g>
<defs>
<filter id="filter0_d_1723_14225" x="0.74707" y="2.74658" width="40.5029" height="40.5034" filterUnits="userSpaceOnUse" color-interpolation-filters="sRGB">
<feFlood flood-opacity="0" result="BackgroundImageFix"/>
<feColorMatrix in="SourceAlpha" type="matrix" values="0 0 0 0 0 0 0 0 0 0 0 0 0 0 0 0 0 0 127 0" result="hardAlpha"/>
<feOffset dy="4"/>
<feGaussianBlur stdDeviation="2"/>
<feComposite in2="hardAlpha" operator="out"/>
<feColorMatrix type="matrix" values="0 0 0 0 0 0 0 0 0 0 0 0 0 0 0 0 0 0 0.25 0"/>
<feBlend mode="normal" in2="BackgroundImageFix" result="effect1_dropShadow_1723_14225"/>
<feBlend mode="normal" in="SourceGraphic" in2="effect1_dropShadow_1723_14225" result="shape"/>
</filter>
<filter id="filter1_d_1723_14225" x="0.235352" y="0.980469" width="17.3623" height="17.3623" filterUnits="userSpaceOnUse" color-interpolation-filters="sRGB">
<feFlood flood-opacity="0" result="BackgroundImageFix"/>
<feColorMatrix in="SourceAlpha" type="matrix" values="0 0 0 0 0 0 0 0 0 0 0 0 0 0 0 0 0 0 127 0" result="hardAlpha"/>
<feOffset dy="2"/>
<feGaussianBlur stdDeviation="1"/>
<feComposite in2="hardAlpha" operator="out"/>
<feColorMatrix type="matrix" values="0 0 0 0 0 0 0 0 0 0 0 0 0 0 0 0 0 0 0.25 0"/>
<feBlend mode="normal" in2="BackgroundImageFix" result="effect1_dropShadow_1723_14225"/>
<feBlend mode="normal" in="SourceGraphic" in2="effect1_dropShadow_1723_14225" result="shape"/>
</filter>
<linearGradient id="paint0_linear_1723_14225" x1="20.9987" y1="4.74658" x2="20.9987" y2="33.2498" gradientUnits="userSpaceOnUse">
<stop offset="0.38" stop-color="#B5B4F2"/>
<stop offset="1" stop-color="#A2E4FA"/>
</linearGradient>
<linearGradient id="paint1_linear_1723_14225" x1="8.91651" y1="2.98047" x2="8.91651" y2="12.3428" gradientUnits="userSpaceOnUse">
<stop offset="0.38" stop-color="#B5B4F2"/>
<stop offset="1" stop-color="#A2E4FA"/>
</linearGradient>
</defs>
</svg>
