<svg width="22" height="21" viewBox="0 0 22 21" fill="none" xmlns="http://www.w3.org/2000/svg">
<path d="M3.72979 17.7592L6.32669 16.8904L6.38488 16.8709L6.44004 16.8978L6.96277 17.1527L3.72979 17.7592ZM3.72979 17.7592L4.59649 15.584L4.62762 15.5059L4.5772 15.4386L4.09434 14.7939L4.09395 14.7934C3.11867 13.503 2.58693 11.9301 2.57857 10.3109C2.57879 6.08583 6.0547 2.58251 11 2.58251C15.9455 2.58251 19.4214 6.08605 19.4214 10.3113C19.4214 14.5207 15.9198 18.0401 11 18.0401C9.51107 18.0401 8.15092 17.7308 6.96289 17.1528L3.72979 17.7592ZM2.5092 19.994L2.50913 19.9935L6.26396 18.7385C7.6314 19.3942 9.22352 19.7726 11 19.7726C17.2115 19.7726 21.15 15.1414 21.15 10.3113C21.15 5.48157 17.2519 0.85 11 0.85C4.74814 0.85 0.85 5.48157 0.849999 10.3113L0.850001 10.3119C0.858565 12.2783 1.49402 14.1897 2.66238 15.7673L1.43213 18.8507C1.43212 18.8507 1.43212 18.8507 1.43211 18.8507C1.37084 19.0042 1.35464 19.172 1.38541 19.3343C1.41618 19.4967 1.49265 19.6468 1.60586 19.7671C1.71907 19.8874 1.86429 19.9727 2.02438 20.0129C2.18448 20.0531 2.35272 20.0465 2.5092 19.994Z" fill="#808080" stroke="#808080" stroke-width="0.3"/>
</svg>
