<svg
  width="25"
  height="25"
  viewBox="0 0 25 25"
  fill="none"
  xmlns="http://www.w3.org/2000/svg"
>
  <path
    d="M12.4993 4.16699C7.89622 4.16699 4.16602 7.89824 4.16602 12.5003C4.16602 17.1024 7.89622 20.8337 12.4993 20.8337C17.1025 20.8337 20.8327 17.1024 20.8327 12.5003C20.8327 7.89824 17.1025 4.16699 12.4993 4.16699ZM16.3608 14.8889C16.5561 15.0842 16.6659 15.3491 16.6659 15.6253C16.6659 15.9016 16.5561 16.1665 16.3608 16.3618C16.1655 16.5571 15.9006 16.6668 15.6243 16.6668C15.3481 16.6668 15.0832 16.5571 14.8879 16.3618L12.4993 13.9732L10.1108 16.3618C10.0143 16.4589 9.89954 16.5359 9.77315 16.5884C9.64676 16.641 9.51123 16.6681 9.37435 16.6681C9.23747 16.6681 9.10193 16.641 8.97554 16.5884C8.84916 16.5359 8.7344 16.4589 8.63789 16.3618C8.44261 16.1664 8.3329 15.9015 8.3329 15.6253C8.3329 15.3491 8.44261 15.0842 8.63789 14.8889L11.0264 12.5003L8.63789 10.1118C8.44257 9.91646 8.33284 9.65155 8.33284 9.37533C8.33284 9.0991 8.44257 8.83419 8.63789 8.63887C8.83321 8.44355 9.09812 8.33382 9.37435 8.33382C9.65057 8.33382 9.91549 8.44355 10.1108 8.63887L12.4993 11.0274L14.8879 8.63887C15.0832 8.44355 15.3481 8.33382 15.6243 8.33382C15.9006 8.33382 16.1655 8.44355 16.3608 8.63887C16.5561 8.83419 16.6659 9.0991 16.6659 9.37533C16.6659 9.65155 16.5561 9.91646 16.3608 10.1118L13.9723 12.5003L16.3608 14.8889Z"
    fill="#FF0000"
  />
</svg>
