<svg width="28" height="28" viewBox="0 0 28 28" fill="none" xmlns="http://www.w3.org/2000/svg">
<path d="M14.0001 4.6665C8.84458 4.6665 4.66675 8.8455 4.66675 13.9998C4.66675 19.1542 8.84458 23.3332 14.0001 23.3332C19.1556 23.3332 23.3334 19.1542 23.3334 13.9998C23.3334 8.8455 19.1556 4.6665 14.0001 4.6665ZM18.3249 16.675C18.5437 16.8938 18.6666 17.1905 18.6666 17.4998C18.6666 17.8092 18.5437 18.1059 18.3249 18.3247C18.1062 18.5434 17.8095 18.6663 17.5001 18.6663C17.1907 18.6663 16.894 18.5434 16.6752 18.3247L14.0001 15.6495L11.3249 18.3247C11.2168 18.4334 11.0883 18.5197 10.9467 18.5785C10.8052 18.6374 10.6534 18.6677 10.5001 18.6677C10.3468 18.6677 10.195 18.6374 10.0534 18.5785C9.91186 18.5197 9.78334 18.4334 9.67525 18.3247C9.45653 18.1059 9.33366 17.8092 9.33366 17.4998C9.33366 17.1905 9.45653 16.8938 9.67525 16.675L12.3504 13.9998L9.67525 11.3247C9.45649 11.1059 9.33359 10.8092 9.33359 10.4998C9.33359 10.1905 9.45649 9.89376 9.67525 9.675C9.89401 9.45624 10.1907 9.33335 10.5001 9.33335C10.8095 9.33335 11.1062 9.45624 11.3249 9.675L14.0001 12.3502L16.6752 9.675C16.894 9.45624 17.1907 9.33335 17.5001 9.33335C17.8095 9.33335 18.1062 9.45624 18.3249 9.675C18.5437 9.89376 18.6666 10.1905 18.6666 10.4998C18.6666 10.8092 18.5437 11.1059 18.3249 11.3247L15.6497 13.9998L18.3249 16.675Z" fill="black"/>
</svg>
