<svg width="21" height="21" viewBox="0 0 21 21" fill="none" xmlns="http://www.w3.org/2000/svg">
<g filter="url(#filter0_d_577_28876)">
<rect width="20" height="20" rx="10" fill="white"/>
<rect x="0.5" y="0.5" width="19" height="19" rx="9.5" stroke="black"/>
<path d="M5.5 6.625V12.625C5.5 12.8239 5.57902 13.0147 5.71967 13.1553C5.86032 13.296 6.05109 13.375 6.25 13.375H13.75C13.9489 13.375 14.1397 13.296 14.2803 13.1553C14.421 13.0147 14.5 12.8239 14.5 12.625V6.625H5.5ZM5.5 5.875H14.5C14.6989 5.875 14.8897 5.95402 15.0303 6.09467C15.171 6.23532 15.25 6.42609 15.25 6.625V12.625C15.25 13.0228 15.092 13.4044 14.8107 13.6857C14.5294 13.967 14.1478 14.125 13.75 14.125H6.25C5.85218 14.125 5.47064 13.967 5.18934 13.6857C4.90804 13.4044 4.75 13.0228 4.75 12.625V6.625C4.75 6.42609 4.82902 6.23532 4.96967 6.09467C5.11032 5.95402 5.30109 5.875 5.5 5.875Z" fill="black"/>
<path d="M14.5938 6.625L11.6935 9.94C11.4823 10.1814 11.222 10.3749 10.9299 10.5075C10.6378 10.64 10.3208 10.7086 10 10.7086C9.67925 10.7086 9.3622 10.64 9.07012 10.5075C8.77804 10.3749 8.51768 10.1814 8.3065 9.94L5.40625 6.625H14.5938ZM6.403 6.625L8.8705 9.44575C9.01129 9.60674 9.18488 9.73576 9.37962 9.82416C9.57436 9.91256 9.78576 9.95829 9.99962 9.95829C10.2135 9.95829 10.4249 9.91256 10.6196 9.82416C10.8144 9.73576 10.988 9.60674 11.1287 9.44575L13.597 6.625H6.403Z" fill="black"/>
</g>
<defs>
<filter id="filter0_d_577_28876" x="0" y="0" width="21" height="21" filterUnits="userSpaceOnUse" color-interpolation-filters="sRGB">
<feFlood flood-opacity="0" result="BackgroundImageFix"/>
<feColorMatrix in="SourceAlpha" type="matrix" values="0 0 0 0 0 0 0 0 0 0 0 0 0 0 0 0 0 0 127 0" result="hardAlpha"/>
<feOffset dx="1" dy="1"/>
<feComposite in2="hardAlpha" operator="out"/>
<feColorMatrix type="matrix" values="0 0 0 0 0 0 0 0 0 0 0 0 0 0 0 0 0 0 1 0"/>
<feBlend mode="normal" in2="BackgroundImageFix" result="effect1_dropShadow_577_28876"/>
<feBlend mode="normal" in="SourceGraphic" in2="effect1_dropShadow_577_28876" result="shape"/>
</filter>
</defs>
</svg>
