<svg width="12" height="12" viewBox="0 0 12 12" fill="none" xmlns="http://www.w3.org/2000/svg">
<path d="M1.5 2.625V8.625C1.5 8.82391 1.57902 9.01468 1.71967 9.15533C1.86032 9.29598 2.05109 9.375 2.25 9.375H9.75C9.94891 9.375 10.1397 9.29598 10.2803 9.15533C10.421 9.01468 10.5 8.82391 10.5 8.625V2.625H1.5ZM1.5 1.875H10.5C10.6989 1.875 10.8897 1.95402 11.0303 2.09467C11.171 2.23532 11.25 2.42609 11.25 2.625V8.625C11.25 9.02282 11.092 9.40436 10.8107 9.68566C10.5294 9.96696 10.1478 10.125 9.75 10.125H2.25C1.85218 10.125 1.47064 9.96696 1.18934 9.68566C0.908035 9.40436 0.75 9.02282 0.75 8.625V2.625C0.75 2.42609 0.829018 2.23532 0.96967 2.09467C1.11032 1.95402 1.30109 1.875 1.5 1.875Z" fill="black"/>
<path d="M10.5938 2.625L7.6935 5.94C7.48232 6.18142 7.22196 6.3749 6.92988 6.50746C6.6378 6.64002 6.32075 6.7086 6 6.7086C5.67925 6.7086 5.3622 6.64002 5.07012 6.50746C4.77804 6.3749 4.51768 6.18142 4.3065 5.94L1.40625 2.625H10.5938ZM2.403 2.625L4.8705 5.44575C5.01129 5.60674 5.18488 5.73576 5.37962 5.82416C5.57436 5.91256 5.78576 5.95829 5.99962 5.95829C6.21349 5.95829 6.42489 5.91256 6.61963 5.82416C6.81437 5.73576 6.98796 5.60674 7.12875 5.44575L9.597 2.625H2.403Z" fill="black"/>
</svg>
