<svg width="85" height="41" viewBox="0 0 85 41" fill="none" xmlns="http://www.w3.org/2000/svg">
<g filter="url(#filter0_d_4001_8874)">
<path d="M2.84709 2.91305L4.96578 2.25096H7.87898L10.6598 1.58887H13.0433L16.0889 2.25096H19.929L23.1071 2.91305L24.2988 4.89932L23.7691 9.00428L22.445 12.3147L21.3856 17.2142L22.445 17.8763L23.1071 20.9219L21.3856 24.8944L19.929 26.351L17.1482 27.0131L14.3675 27.5428H8.80591H4.96578L2.84709 27.0131L1.92017 24.3648V22.9082L2.84709 20.9219L1.92017 20.1274V14.6983L2.84709 10.0636L1.92017 5.82625L2.84709 2.91305Z" fill="#F0D3D7"/>
<path d="M7.87898 2.38338H7.89453L7.90965 2.37977L10.6753 1.72129H13.0291L16.0608 2.38035L16.0747 2.38338H16.0889H19.9154L23.0233 3.03086L24.1616 4.928L23.64 8.97068L22.322 12.2656L22.3179 12.2759L22.3155 12.2867L21.2562 17.1862L21.2365 17.2772L21.3154 17.3265L22.3274 17.959L22.9686 20.9084L21.2742 24.8187L19.8619 26.2309L17.1205 26.8836L14.355 27.4104H8.80591H4.98208L2.94849 26.902L2.05258 24.3423V22.9376L2.96709 20.9779L3.0096 20.8868L2.93327 20.8214L2.05258 20.0665V14.7114L2.97694 10.0896L2.98238 10.0624L2.97645 10.0353L2.0571 5.8326L2.95238 3.01888L4.98599 2.38338H7.87898Z" stroke="white" stroke-width="0.264836"/>
</g>
<path d="M5.89278 23.6027L7.4818 23.2055V6.25598L5.89278 5.85872V5.46147H20.0615V10.2285H19.267C18.9316 9.96368 18.6402 9.62822 18.3931 9.22214C17.8281 8.26873 17.5456 7.23587 17.5456 6.12356H11.8516V14.4659H14.8972C15.0208 13.795 15.2503 13.1682 15.5858 12.5856C15.727 12.3207 15.8948 12.0647 16.089 11.8175H16.8835V17.7764H16.089C15.8948 17.5292 15.727 17.2732 15.5858 17.0083C15.2503 16.4257 15.0208 15.7989 14.8972 15.128H11.8516V23.2055L13.4406 23.6027V24H5.89278V23.6027Z" fill="black"/>
<g filter="url(#filter1_d_4001_8874)">
<path d="M19.9291 15.0957L22.8423 13.7715L25.3582 14.4336L27.0797 16.5523L27.4769 19.333L27.0797 21.5842V24.2325L27.4769 28.3375L27.0797 31.1183L24.0341 31.7803H21.1209L19.1346 30.5886L18.3401 25.4243L19.1346 19.7303L19.9291 15.0957Z" fill="#EBC039"/>
<path d="M26.9493 21.5611L26.9473 21.5726V21.5842V24.2325H26.9466L26.9479 24.2453L27.3436 28.3344L26.9616 31.0084L24.0198 31.6479H21.1575L19.256 30.507L18.4739 25.4233L19.2655 19.7506L20.0478 15.1872L22.8542 13.9115L25.2827 14.5506L26.9538 16.6073L27.3429 19.3308L26.9493 21.5611Z" stroke="white" stroke-width="0.264836"/>
</g>
<path d="M21.497 18.0741V17.3283H24.0564V18.0741H21.497ZM21.497 30.4473V18.5826H24.0564V30.4473H21.497Z" fill="black"/>
<g filter="url(#filter2_d_4001_8874)">
<path d="M37.1177 19.2415L39.5017 20.8398L41.1953 23.1571L41.9941 25.9139L41.802 28.7776L40.642 31.403L38.654 33.4732L36.0778 34.7387L33.2242 35.0467L30.4373 34.3602L28.0533 32.7619L26.3597 30.4446L25.5608 27.6878L25.753 24.8241L26.913 22.1988L28.901 20.1285L31.4772 18.8631L34.3308 18.555L37.1177 19.2415Z" fill="#CC4A30"/>
<path d="M34.3218 18.6892L37.0633 19.3645L39.4085 20.9368L41.0746 23.2164L41.8605 25.9283L41.6714 28.7455L40.5303 31.3281L38.5746 33.3647L36.0404 34.6095L33.2332 34.9126L30.4917 34.2372L28.1464 32.6649L26.4804 30.3853L25.6945 27.6734L25.8836 24.8563L27.0247 22.2736L28.9804 20.2371L31.5146 18.9922L34.3218 18.6892Z" stroke="white" stroke-width="0.264836"/>
</g>
<path d="M37.4555 32.4919C36.6674 32.023 35.9046 31.5924 35.167 31.2002C34.4318 30.8029 33.6881 30.4381 32.9362 30.1059C32.0681 29.7223 31.1794 29.3719 30.2701 29.0545C29.3658 28.7394 28.412 28.4476 27.4086 28.1792C27.6953 28.131 27.9809 28.0853 28.2654 28.0421C28.5522 27.9938 28.8406 27.9554 29.1307 27.9268C29.4747 27.4213 29.7876 26.9111 30.0694 26.3962C30.3585 25.8785 30.6212 25.3522 30.8576 24.8172C31.2121 24.0148 31.5107 23.2027 31.7531 22.3809C31.9978 21.5541 32.2047 20.7105 32.3737 19.8502L33.1004 20.1713C33.6556 20.4166 34.2241 20.6316 34.806 20.8164C35.3929 21.0033 36.0322 21.1742 36.7239 21.329C36.2132 22.4847 35.6439 23.6024 35.016 24.6822C34.3903 25.7569 33.6806 26.8035 32.8867 27.822C33.8381 27.8805 34.7943 27.9893 35.7554 28.1486C36.7216 28.3101 37.7128 28.5309 38.729 28.8111C38.6146 29.0018 38.5041 29.1972 38.3975 29.3975C38.296 29.5999 38.1984 29.8071 38.1048 30.0191C37.9264 30.4228 37.7791 30.8313 37.6629 31.2444C37.554 31.6547 37.4848 32.0705 37.4555 32.4919Z" fill="white"/>
<g filter="url(#filter3_d_4001_8874)">
<path d="M37.7275 23.7275L42.4594 19.6504L46.3858 19.0465L50.8155 19.9729L53.1712 21.3523L56.1812 26.1143L56.1307 30.1415L53.0901 34.7622L47.4925 36.695L42.0963 36.4531L38.895 31.3185L37.7275 23.7275Z" fill="#CFF2E9"/>
<path d="M39.0217 31.2715L37.8695 23.78L42.5171 19.7755L46.3822 19.181L50.7672 20.0981L53.0765 21.4502L56.0483 26.1519L55.9988 30.1011L53.0043 34.6518L47.4731 36.5616L42.1718 36.324L39.0217 31.2715Z" stroke="white" stroke-width="0.264836"/>
</g>
<mask id="path-12-outside-1_4001_8874" maskUnits="userSpaceOnUse" x="40.3974" y="20.3433" width="13.6593" height="13.04" fill="black">
<rect fill="white" x="40.3974" y="20.3433" width="13.6593" height="13.04"/>
<path d="M47.2967 29.69C47.8393 29.6343 48.3402 29.5273 48.7996 29.3689C49.2589 29.2105 49.5871 28.9837 49.7842 28.6887C49.9882 28.3792 50.0659 27.946 50.0173 27.3891L51.9622 26.79C52.1335 27.8067 52.1943 28.6762 52.1446 29.3985L44.2772 32.1119C43.6027 30.8146 43.013 29.4342 42.5083 27.9707C42.0036 26.5073 41.6454 25.2263 41.434 24.1279L46.0487 22.5363C46.2757 25.4821 46.6917 27.8666 47.2967 29.69Z"/>
</mask>
<path d="M47.2967 29.69C47.8393 29.6343 48.3402 29.5273 48.7996 29.3689C49.2589 29.2105 49.5871 28.9837 49.7842 28.6887C49.9882 28.3792 50.0659 27.946 50.0173 27.3891L51.9622 26.79C52.1335 27.8067 52.1943 28.6762 52.1446 29.3985L44.2772 32.1119C43.6027 30.8146 43.013 29.4342 42.5083 27.9707C42.0036 26.5073 41.6454 25.2263 41.434 24.1279L46.0487 22.5363C46.2757 25.4821 46.6917 27.8666 47.2967 29.69Z" fill="black"/>
<path d="M47.2967 29.69L47.0453 29.7734L47.1123 29.9751L47.3237 29.9534L47.2967 29.69ZM49.7842 28.6887L50.0044 28.8357L50.0052 28.8345L49.7842 28.6887ZM50.0173 27.3891L49.9393 27.136L49.7348 27.199L49.7534 27.4121L50.0173 27.3891ZM51.9622 26.79L52.2233 26.746L52.1731 26.4479L51.8842 26.5369L51.9622 26.79ZM52.1446 29.3985L52.231 29.6489L52.3968 29.5917L52.4088 29.4167L52.1446 29.3985ZM44.2772 32.1119L44.0422 32.2341L44.1476 32.4368L44.3635 32.3623L44.2772 32.1119ZM41.434 24.1279L41.3476 23.8775L41.1305 23.9524L41.1739 24.178L41.434 24.1279ZM46.0487 22.5363L46.3127 22.516L46.2864 22.1742L45.9623 22.286L46.0487 22.5363ZM47.3237 29.9534C47.8841 29.896 48.4052 29.785 48.8859 29.6193L48.7132 29.1185C48.2753 29.2696 47.7945 29.3727 47.2697 29.4265L47.3237 29.9534ZM48.8859 29.6193C49.3801 29.4488 49.7652 29.1939 50.0044 28.8357L49.5639 28.5416C49.409 28.7735 49.1378 28.9721 48.7132 29.1185L48.8859 29.6193ZM50.0052 28.8345C50.2552 28.4554 50.3324 27.9536 50.2811 27.366L49.7534 27.4121C49.7994 27.9385 49.7212 28.303 49.5631 28.5429L50.0052 28.8345ZM50.0952 27.6422L52.0401 27.0431L51.8842 26.5369L49.9393 27.136L50.0952 27.6422ZM51.701 26.834C51.8702 27.8381 51.9282 28.6855 51.8804 29.3804L52.4088 29.4167C52.4604 28.6669 52.3968 27.7753 52.2233 26.746L51.701 26.834ZM52.0583 29.1482L44.1908 31.8616L44.3635 32.3623L52.231 29.6489L52.0583 29.1482ZM44.5122 31.9898C43.844 30.7046 43.2594 29.3363 42.7587 27.8844L42.2579 28.0571C42.7667 29.5321 43.3613 30.9246 44.0422 32.2341L44.5122 31.9898ZM42.7587 27.8844C42.2566 26.4286 41.9024 25.1603 41.694 24.0778L41.1739 24.178C41.3885 25.2924 41.7505 26.5859 42.2579 28.0571L42.7587 27.8844ZM41.5203 24.3783L46.135 22.7867L45.9623 22.286L41.3476 23.8775L41.5203 24.3783ZM45.7846 22.5567C46.0126 25.5137 46.431 27.9218 47.0453 29.7734L47.548 29.6066C46.9525 27.8115 46.5389 25.4505 46.3127 22.516L45.7846 22.5567Z" fill="black" mask="url(#path-12-outside-1_4001_8874)"/>
<mask id="path-15-outside-2_4001_8874" maskUnits="userSpaceOnUse" x="40.6941" y="19.6568" width="13.6593" height="13.04" fill="black">
<rect fill="white" x="40.6941" y="19.6568" width="13.6593" height="13.04"/>
<path d="M47.5933 29.0035C48.1359 28.9478 48.6369 28.8408 49.0962 28.6824C49.5555 28.5239 49.8837 28.2972 50.0808 28.0021C50.2848 27.6927 50.3625 27.2595 50.3139 26.7026L52.2588 26.1035C52.4301 27.1202 52.491 27.9897 52.4413 28.712L44.5738 31.4254C43.8993 30.1281 43.3097 28.7477 42.8049 27.2842C42.3002 25.8208 41.9421 24.5398 41.7306 23.4414L46.3453 21.8498C46.5724 24.7956 46.9884 27.1801 47.5933 29.0035Z"/>
</mask>
<path d="M47.5933 29.0035C48.1359 28.9478 48.6369 28.8408 49.0962 28.6824C49.5555 28.5239 49.8837 28.2972 50.0808 28.0021C50.2848 27.6927 50.3625 27.2595 50.3139 26.7026L52.2588 26.1035C52.4301 27.1202 52.491 27.9897 52.4413 28.712L44.5738 31.4254C43.8993 30.1281 43.3097 28.7477 42.8049 27.2842C42.3002 25.8208 41.9421 24.5398 41.7306 23.4414L46.3453 21.8498C46.5724 24.7956 46.9884 27.1801 47.5933 29.0035Z" fill="white"/>
<path d="M47.5933 29.0035L47.3419 29.0869L47.4089 29.2886L47.6203 29.2669L47.5933 29.0035ZM50.0808 28.0021L50.301 28.1492L50.3019 28.1479L50.0808 28.0021ZM50.3139 26.7026L50.2359 26.4495L50.0314 26.5124L50.0501 26.7256L50.3139 26.7026ZM52.2588 26.1035L52.5199 26.0595L52.4697 25.7614L52.1808 25.8504L52.2588 26.1035ZM52.4413 28.712L52.5276 28.9624L52.6934 28.9052L52.7055 28.7302L52.4413 28.712ZM44.5738 31.4254L44.3388 31.5476L44.4442 31.7502L44.6602 31.6758L44.5738 31.4254ZM41.7306 23.4414L41.6442 23.191L41.4271 23.2659L41.4705 23.4914L41.7306 23.4414ZM46.3453 21.8498L46.6094 21.8295L46.583 21.4877L46.259 21.5995L46.3453 21.8498ZM47.6203 29.2669C48.1807 29.2094 48.7018 29.0985 49.1825 28.9327L49.0099 28.432C48.5719 28.583 48.0911 28.6862 47.5663 28.74L47.6203 29.2669ZM49.1825 28.9327C49.6767 28.7623 50.0618 28.5074 50.301 28.1492L49.8605 27.8551C49.7056 28.087 49.4344 28.2856 49.0099 28.432L49.1825 28.9327ZM50.3019 28.1479C50.5518 27.7689 50.629 27.2671 50.5777 26.6795L50.0501 26.7256C50.096 27.2519 50.0179 27.6165 49.8597 27.8563L50.3019 28.1479ZM50.3918 26.9557L52.3367 26.3566L52.1808 25.8504L50.2359 26.4495L50.3918 26.9557ZM51.9976 26.1475C52.1668 27.1515 52.2249 27.999 52.1771 28.6938L52.7055 28.7302C52.7571 27.9804 52.6934 27.0888 52.5199 26.0595L51.9976 26.1475ZM52.3549 28.4617L44.4875 31.175L44.6602 31.6758L52.5276 28.9624L52.3549 28.4617ZM44.8088 31.3032C44.1406 30.0181 43.556 28.6497 43.0553 27.1979L42.5546 27.3706C43.0633 28.8456 43.658 30.2381 44.3388 31.5476L44.8088 31.3032ZM43.0553 27.1979C42.5532 25.7421 42.1991 24.4738 41.9906 23.3913L41.4705 23.4914C41.6851 24.6058 42.0472 25.8994 42.5546 27.3706L43.0553 27.1979ZM41.8169 23.6917L46.4316 22.1002L46.259 21.5995L41.6442 23.191L41.8169 23.6917ZM46.0812 21.8702C46.3092 24.8272 46.7276 27.2353 47.3419 29.0869L47.8447 28.9201C47.2491 27.125 46.8355 24.7639 46.6094 21.8295L46.0812 21.8702Z" fill="black" mask="url(#path-15-outside-2_4001_8874)"/>
<g filter="url(#filter4_d_4001_8874)">
<path d="M53.6957 11.2554L58.1979 9.79883L63.4946 11.2554L63.8919 14.6983L62.4353 17.0818L63.8919 20.7895V28.0725L66.0105 30.8533L66.4078 32.5747L64.554 33.2368L58.1979 33.6341L53.6957 33.2368L52.5039 30.8533L54.755 28.0725V21.7165L53.166 19.5978L53.6957 16.1549H54.755L54.0929 14.1686L53.6957 11.2554Z" fill="#B5B4F2"/>
<path d="M54.8806 16.113L54.2225 14.1385L53.8418 11.3473L58.201 9.93701L63.3733 11.3594L63.7551 14.6682L62.3223 17.0128L62.2879 17.069L62.312 17.1302L63.7594 20.8146V28.0725V28.1172L63.7865 28.1528L65.8879 30.9109L66.2523 32.4897L64.527 33.1058L58.1996 33.5013L53.781 33.1114L52.6605 30.8703L54.8579 28.1558L54.8874 28.1194V28.0725V21.7165V21.6723L54.8609 21.637L53.3053 19.5629L53.8093 16.2873H54.755H54.9387L54.8806 16.113Z" stroke="white" stroke-width="0.264836"/>
</g>
<path d="M55.417 30.4885L57.006 30.0912V18.4384L55.417 18.0412V17.6439H58.8599C60.4489 17.6439 61.2434 18.4384 61.2434 20.0275V30.0912L62.8324 30.4885V30.8857H55.417V30.4885ZM58.8599 16.0549C58.3302 16.0549 57.8888 15.8784 57.5357 15.5252C57.1826 15.1721 57.006 14.7307 57.006 14.2011C57.006 13.6714 57.1826 13.23 57.5357 12.8769C57.8888 12.5238 58.3302 12.3472 58.8599 12.3472C59.3896 12.3472 59.8309 12.5238 60.1841 12.8769C60.5372 13.23 60.7137 13.6714 60.7137 14.2011C60.7137 14.7307 60.5372 15.1721 60.1841 15.5252C59.8309 15.8784 59.3896 16.0549 58.8599 16.0549Z" fill="#712A7C"/>
<g filter="url(#filter5_d_4001_8874)">
<path d="M62.5676 7.41538L65.216 6.48845L68.9237 6.0912H71.7044H75.677L79.9144 5.56152L82.5627 6.75329L83.3572 8.60714V10.9907L82.5627 14.4335L82.2979 17.4792V23.0407L81.9006 26.2187L79.9144 28.205L77.6632 29.3968L75.677 30.4561L71.7044 29.794H67.8643L65.216 26.7484L64.0242 23.5704L63.0973 20.7896L62.5676 18.6709V15.6253V13.3742L61.2434 10.9907L62.5676 7.41538Z" fill="#B5B4F2"/>
<path d="M75.677 6.22361H75.6852L75.6934 6.22259L79.8939 5.69753L82.4613 6.85287L83.2248 8.63432V10.9756L82.4337 14.4038L82.4316 14.4128L82.4308 14.4221L82.166 17.4677L82.1655 17.4676V17.4792V23.0325L81.7749 26.1572L79.8348 28.0973L77.6013 29.2797L77.6009 29.2799L75.6544 30.3181L71.7262 29.6634L71.7154 29.6616H71.7044H67.9246L65.3316 26.6796L64.149 23.5262L63.2245 20.7526L62.7 18.6546V15.6253V13.3742V13.3399L62.6833 13.3099L61.3887 10.9796L62.6701 7.51978L65.2453 6.61849L68.9307 6.22361H71.7044H75.677Z" stroke="white" stroke-width="0.264836"/>
</g>
<path d="M65.2159 15.4593V9.84477H80.9736V15.4593H79.7289L78.5372 11.6192L74.7235 11.4073V26.5824L77.16 27.1651V28.3833H69.0295V27.1651L71.466 26.5824V11.4073L67.6259 11.6192L66.4606 15.4593H65.2159Z" fill="black"/>
<path d="M64.6864 14.6649V9.05034H80.4441V14.6649H79.1994L78.0076 10.8247L74.194 10.6129V25.788L76.6305 26.3706V27.5889H68.5V26.3706L70.9365 25.788V10.6129L67.0964 10.8247L65.9311 14.6649H64.6864Z" fill="white"/>
<defs>
<filter id="filter0_d_4001_8874" x="0.860821" y="1.58887" width="24.4974" height="28.0728" filterUnits="userSpaceOnUse" color-interpolation-filters="sRGB">
<feFlood flood-opacity="0" result="BackgroundImageFix"/>
<feColorMatrix in="SourceAlpha" type="matrix" values="0 0 0 0 0 0 0 0 0 0 0 0 0 0 0 0 0 0 127 0" result="hardAlpha"/>
<feOffset dy="1.05934"/>
<feGaussianBlur stdDeviation="0.529672"/>
<feComposite in2="hardAlpha" operator="out"/>
<feColorMatrix type="matrix" values="0 0 0 0 0 0 0 0 0 0 0 0 0 0 0 0 0 0 0.25 0"/>
<feBlend mode="normal" in2="BackgroundImageFix" result="effect1_dropShadow_4001_8874"/>
<feBlend mode="normal" in="SourceGraphic" in2="effect1_dropShadow_4001_8874" result="shape"/>
</filter>
<filter id="filter1_d_4001_8874" x="17.2807" y="13.7715" width="11.2555" height="20.1275" filterUnits="userSpaceOnUse" color-interpolation-filters="sRGB">
<feFlood flood-opacity="0" result="BackgroundImageFix"/>
<feColorMatrix in="SourceAlpha" type="matrix" values="0 0 0 0 0 0 0 0 0 0 0 0 0 0 0 0 0 0 127 0" result="hardAlpha"/>
<feOffset dy="1.05934"/>
<feGaussianBlur stdDeviation="0.529672"/>
<feComposite in2="hardAlpha" operator="out"/>
<feColorMatrix type="matrix" values="0 0 0 0 0 0 0 0 0 0 0 0 0 0 0 0 0 0 0.25 0"/>
<feBlend mode="normal" in2="BackgroundImageFix" result="effect1_dropShadow_4001_8874"/>
<feBlend mode="normal" in="SourceGraphic" in2="effect1_dropShadow_4001_8874" result="shape"/>
</filter>
<filter id="filter2_d_4001_8874" x="24.5014" y="18.5552" width="18.552" height="18.6104" filterUnits="userSpaceOnUse" color-interpolation-filters="sRGB">
<feFlood flood-opacity="0" result="BackgroundImageFix"/>
<feColorMatrix in="SourceAlpha" type="matrix" values="0 0 0 0 0 0 0 0 0 0 0 0 0 0 0 0 0 0 127 0" result="hardAlpha"/>
<feOffset dy="1.05934"/>
<feGaussianBlur stdDeviation="0.529672"/>
<feComposite in2="hardAlpha" operator="out"/>
<feColorMatrix type="matrix" values="0 0 0 0 0 0 0 0 0 0 0 0 0 0 0 0 0 0 0.25 0"/>
<feBlend mode="normal" in2="BackgroundImageFix" result="effect1_dropShadow_4001_8874"/>
<feBlend mode="normal" in="SourceGraphic" in2="effect1_dropShadow_4001_8874" result="shape"/>
</filter>
<filter id="filter3_d_4001_8874" x="36.6682" y="19.0464" width="20.5724" height="19.7671" filterUnits="userSpaceOnUse" color-interpolation-filters="sRGB">
<feFlood flood-opacity="0" result="BackgroundImageFix"/>
<feColorMatrix in="SourceAlpha" type="matrix" values="0 0 0 0 0 0 0 0 0 0 0 0 0 0 0 0 0 0 127 0" result="hardAlpha"/>
<feOffset dy="1.05934"/>
<feGaussianBlur stdDeviation="0.529672"/>
<feComposite in2="hardAlpha" operator="out"/>
<feColorMatrix type="matrix" values="0 0 0 0 0 0 0 0 0 0 0 0 0 0 0 0 0 0 0.25 0"/>
<feBlend mode="normal" in2="BackgroundImageFix" result="effect1_dropShadow_4001_8874"/>
<feBlend mode="normal" in="SourceGraphic" in2="effect1_dropShadow_4001_8874" result="shape"/>
</filter>
<filter id="filter4_d_4001_8874" x="51.4446" y="9.79883" width="16.0226" height="25.9541" filterUnits="userSpaceOnUse" color-interpolation-filters="sRGB">
<feFlood flood-opacity="0" result="BackgroundImageFix"/>
<feColorMatrix in="SourceAlpha" type="matrix" values="0 0 0 0 0 0 0 0 0 0 0 0 0 0 0 0 0 0 127 0" result="hardAlpha"/>
<feOffset dy="1.05934"/>
<feGaussianBlur stdDeviation="0.529672"/>
<feComposite in2="hardAlpha" operator="out"/>
<feColorMatrix type="matrix" values="0 0 0 0 0 0 0 0 0 0 0 0 0 0 0 0 0 0 0.25 0"/>
<feBlend mode="normal" in2="BackgroundImageFix" result="effect1_dropShadow_4001_8874"/>
<feBlend mode="normal" in="SourceGraphic" in2="effect1_dropShadow_4001_8874" result="shape"/>
</filter>
<filter id="filter5_d_4001_8874" x="60.1841" y="5.56152" width="24.2325" height="27.0132" filterUnits="userSpaceOnUse" color-interpolation-filters="sRGB">
<feFlood flood-opacity="0" result="BackgroundImageFix"/>
<feColorMatrix in="SourceAlpha" type="matrix" values="0 0 0 0 0 0 0 0 0 0 0 0 0 0 0 0 0 0 127 0" result="hardAlpha"/>
<feOffset dy="1.05934"/>
<feGaussianBlur stdDeviation="0.529672"/>
<feComposite in2="hardAlpha" operator="out"/>
<feColorMatrix type="matrix" values="0 0 0 0 0 0 0 0 0 0 0 0 0 0 0 0 0 0 0.25 0"/>
<feBlend mode="normal" in2="BackgroundImageFix" result="effect1_dropShadow_4001_8874"/>
<feBlend mode="normal" in="SourceGraphic" in2="effect1_dropShadow_4001_8874" result="shape"/>
</filter>
</defs>
</svg>
