<svg width="17" height="14" viewBox="0 0 17 14" fill="none" xmlns="http://www.w3.org/2000/svg">
<path fill-rule="evenodd" clip-rule="evenodd" d="M3.84413 1.20438C2.32156 1.57915 1.0625 2.76809 1.0625 4.84226C1.0625 7.60351 3.36706 10.3055 8.5 12.8633C13.6329 10.3055 15.9375 7.60351 15.9375 4.84226C15.9375 2.76916 14.6784 1.57915 13.1559 1.20438C11.5929 0.818841 9.83875 1.31531 8.92819 2.57209C8.87883 2.6402 8.81436 2.69559 8.73997 2.73376C8.66558 2.77193 8.58338 2.79183 8.5 2.79183C8.41662 2.79183 8.33442 2.77193 8.26003 2.73376C8.18564 2.69559 8.12117 2.6402 8.07181 2.57209C7.16125 1.31531 5.40706 0.818841 3.84413 1.20438ZM8.5 1.43054C7.23562 0.145758 5.2785 -0.258092 3.59337 0.156527C1.66281 0.633608 0 2.20378 0 4.84226C0 8.33152 2.93887 11.3383 8.26944 13.9466C8.34136 13.9818 8.42017 14 8.5 14C8.57983 14 8.65864 13.9818 8.73056 13.9466C14.0611 11.3383 17 8.3326 17 4.84226C17 2.20378 15.3372 0.633608 13.4066 0.157604C11.7215 -0.257015 9.76544 0.147912 8.5 1.43054Z" fill="#2F2F2F"/>
</svg>
