<svg width="65" height="84" viewBox="0 0 65 84" fill="none" xmlns="http://www.w3.org/2000/svg">
<path d="M18.693 67V59.916H19.892V62.996H23.302V59.916H24.501V67H23.302V63.92H19.892V67H18.693ZM28.3873 67.11C27.4486 67.11 26.7593 66.8753 26.3193 66.406C25.8866 65.9367 25.6703 65.2657 25.6703 64.393C25.6703 63.5203 25.8903 62.8493 26.3303 62.38C26.7703 61.9107 27.4559 61.676 28.3873 61.676C29.3259 61.676 30.0153 61.9107 30.4553 62.38C30.8953 62.8493 31.1153 63.5203 31.1153 64.393C31.1153 65.2657 30.8953 65.9367 30.4553 66.406C30.0226 66.8753 29.3333 67.11 28.3873 67.11ZM28.3873 66.098C28.9373 66.098 29.3259 65.966 29.5533 65.702C29.7879 65.4307 29.9053 64.9943 29.9053 64.393C29.9053 63.7917 29.7879 63.359 29.5533 63.095C29.3259 62.831 28.9373 62.699 28.3873 62.699C27.8446 62.699 27.4559 62.831 27.2213 63.095C26.9939 63.359 26.8803 63.7917 26.8803 64.393C26.8803 64.9943 26.9939 65.4307 27.2213 65.702C27.4559 65.966 27.8446 66.098 28.3873 66.098ZM32.2819 67V61.786H33.3819L33.4369 62.336C33.6935 62.1307 33.9759 61.9693 34.2839 61.852C34.5919 61.7347 34.9219 61.676 35.2739 61.676C35.6479 61.676 35.9375 61.7383 36.1429 61.863C36.3555 61.9803 36.5169 62.1453 36.6269 62.358C36.8689 62.16 37.1475 61.9987 37.4629 61.874C37.7782 61.742 38.1559 61.676 38.5959 61.676C39.1972 61.676 39.6409 61.83 39.9269 62.138C40.2129 62.446 40.3559 62.919 40.3559 63.557V67H39.1789V63.678C39.1789 63.2747 39.0945 62.9923 38.9259 62.831C38.7572 62.6697 38.4822 62.589 38.1009 62.589C37.8515 62.589 37.6132 62.633 37.3859 62.721C37.1659 62.809 36.9752 62.941 36.8139 63.117C36.8359 63.1977 36.8505 63.282 36.8579 63.37C36.8652 63.458 36.8689 63.5533 36.8689 63.656V67H35.7579V63.689C35.7579 63.3077 35.6919 63.029 35.5599 62.853C35.4279 62.677 35.1785 62.589 34.8119 62.589C34.5552 62.589 34.3095 62.6513 34.0749 62.776C33.8475 62.8933 33.6422 63.0363 33.4589 63.205V67H32.2819ZM44.2353 67.11C43.326 67.11 42.622 66.8863 42.1233 66.439C41.6247 65.9917 41.3753 65.306 41.3753 64.382C41.3753 63.546 41.588 62.886 42.0133 62.402C42.4387 61.918 43.084 61.676 43.9493 61.676C44.7413 61.676 45.3353 61.885 45.7313 62.303C46.1347 62.7137 46.3363 63.2453 46.3363 63.898V64.866H42.5193C42.578 65.372 42.7613 65.7203 43.0693 65.911C43.3773 66.1017 43.8467 66.197 44.4773 66.197C44.7413 66.197 45.0127 66.1713 45.2913 66.12C45.57 66.0687 45.812 66.0027 46.0173 65.922V66.802C45.7827 66.9047 45.5113 66.9817 45.2033 67.033C44.9027 67.0843 44.58 67.11 44.2353 67.11ZM42.5193 64.085H45.2803V63.722C45.2803 63.3627 45.1813 63.084 44.9833 62.886C44.7853 62.6807 44.4517 62.578 43.9823 62.578C43.425 62.578 43.04 62.699 42.8273 62.941C42.622 63.183 42.5193 63.5643 42.5193 64.085Z" fill="#646466"/>
<path d="M43.3175 39.7302V28.9365C43.3175 28.7394 43.2716 28.5449 43.1834 28.3686C43.0952 28.1923 42.9672 28.0389 42.8095 27.9206L33.9206 21.254C33.7008 21.0891 33.4335 21 33.1587 21C32.884 21 32.6166 21.0891 32.3968 21.254L23.5079 27.9206C23.3502 28.0389 23.2222 28.1923 23.1341 28.3686C23.0459 28.5449 23 28.7394 23 28.9365V39.7302C23 40.0669 23.1338 40.3899 23.3719 40.6281C23.6101 40.8662 23.9331 41 24.2698 41H29.3492C29.686 41 30.009 40.8662 30.2471 40.6281C30.4853 40.3899 30.619 40.0669 30.619 39.7302V35.9206C30.619 35.5839 30.7528 35.2609 30.991 35.0227C31.2291 34.7846 31.5521 34.6508 31.8889 34.6508H34.4286C34.7654 34.6508 35.0883 34.7846 35.3265 35.0227C35.5646 35.2609 35.6984 35.5839 35.6984 35.9206V39.7302C35.6984 40.0669 35.8322 40.3899 36.0703 40.6281C36.3085 40.8662 36.6315 41 36.9683 41H42.0476C42.3844 41 42.7074 40.8662 42.9455 40.6281C43.1837 40.3899 43.3175 40.0669 43.3175 39.7302Z" fill="white" stroke="#646466" stroke-linecap="round" stroke-linejoin="round"/>
</svg>
