<svg width="42" height="49" viewBox="0 0 42 49" fill="none" xmlns="http://www.w3.org/2000/svg">
<g filter="url(#filter0_d_356_3383)">
<path d="M34.7751 34.5759L36.6324 22.8491C36.6967 22.4432 36.6656 22.028 36.5416 21.6362C36.4176 21.2445 36.2041 20.887 35.918 20.5921L27.4078 11.8194C27.009 11.4084 26.4877 11.1377 25.922 11.0482C25.3564 10.9586 24.7769 11.0548 24.2707 11.3226L13.4661 17.036C13.1028 17.2281 12.7893 17.5021 12.5503 17.8364C12.3113 18.1706 12.1534 18.556 12.0891 18.9618L10.2318 30.6886C10.122 31.382 10.2921 32.0905 10.7047 32.6585C11.1173 33.2264 11.7386 33.6071 12.432 33.7169L17.9505 34.591C18.6438 34.7008 19.3524 34.5307 19.9203 34.1181C20.4882 33.7055 20.869 33.0841 20.9788 32.3908L21.6343 28.2519C21.6404 28.2135 21.6615 28.179 21.693 28.1561C21.7245 28.1332 21.7639 28.1238 21.8023 28.1299L24.5616 28.5669C24.6 28.573 24.6345 28.5941 24.6574 28.6256C24.6803 28.6571 24.6897 28.6964 24.6836 28.7349L24.0281 32.8738C23.9183 33.5671 24.0884 34.2757 24.501 34.8436C24.9136 35.4115 25.5349 35.7922 26.2283 35.9021L31.7468 36.7761C32.4401 36.8859 33.1487 36.7158 33.7166 36.3032C34.2845 35.8906 34.6653 35.2692 34.7751 34.5759Z" fill="#7B00FF" stroke="white" stroke-width="2.5" stroke-linecap="round" stroke-linejoin="round"/>
<path d="M16.949 17.5307L16.949 17.5307L15.8289 14.8087L12.9559 14.1788L16.949 17.5307ZM16.949 17.5307L16.9533 17.5409M16.949 17.5307L16.9533 17.5409M16.9533 17.5409C17.0657 17.8075 17.2383 18.0444 17.4574 18.233C17.7588 18.5014 18.1391 18.6656 18.5417 18.7007L18.5417 18.7008M16.9533 17.5409L18.5417 18.7008M12.0466 13.6904L12.0466 13.6904C11.7952 13.4457 11.6174 13.1355 11.5336 12.7948C11.4497 12.4542 11.4631 12.0968 11.5722 11.7634C11.6813 11.43 11.8817 11.1338 12.1508 10.9087C12.1508 10.9087 12.1508 10.9087 12.1508 10.9087L14.3826 9.04076L14.0845 6.13052L14.0837 6.12198L14.0829 6.11343C14.0529 5.77426 14.1158 5.43332 14.2649 5.12718C14.4139 4.82105 14.6435 4.5613 14.9291 4.37579L14.9389 4.3694L14.9488 4.36319C15.2463 4.17778 15.5898 4.07944 15.9403 4.07936L15.9406 5.32936L15.9403 4.07936C16.2899 4.07928 16.6325 4.17693 16.9295 4.36127L19.4295 5.90624L22.0876 4.72678C22.4082 4.58362 22.7626 4.53336 23.1104 4.58175C23.4593 4.63029 23.7874 4.77612 24.0572 5.00253C24.3271 5.22894 24.5277 5.52678 24.636 5.86192L23.4467 6.24655L24.6361 5.86192C24.7437 6.19467 24.756 6.55083 24.6719 6.89017L23.9863 9.72086L25.943 11.9159C25.9436 11.9165 25.9443 11.9172 25.9449 11.9179C26.178 12.1784 26.3336 12.4988 26.3943 12.8432C26.4551 13.1883 26.4179 13.5437 26.2869 13.8688L26.2825 13.8797L26.2779 13.8905C26.1448 14.2039 25.9289 14.4751 25.6533 14.6751L12.0466 13.6904ZM12.0466 13.6904C12.2975 13.9345 12.6118 14.1035 12.9537 14.1783L12.0466 13.6904ZM18.5417 18.7008L18.5546 18.7018C18.9114 18.7291 19.2686 18.6538 19.5839 18.4847C19.8964 18.3172 20.1549 18.0645 20.3295 17.7561L21.7787 15.2387L24.6965 15.0269L24.7051 15.0262M18.5417 18.7008L24.7051 15.0262M24.7051 15.0262L24.7136 15.0255M24.7051 15.0262L24.7136 15.0255M24.7136 15.0255C25.0529 14.9962 25.3777 14.875 25.6533 14.6751L24.7136 15.0255Z" fill="#F6B354" stroke="white" stroke-width="2.5"/>
</g>
<path d="M33.5414 34.3799L35.3988 22.653C35.4327 22.4389 35.4163 22.2197 35.3509 22.013C35.2854 21.8062 35.1727 21.6176 35.0217 21.4619L26.5115 12.6893C26.3011 12.4724 26.026 12.3296 25.7275 12.2823C25.4289 12.235 25.1232 12.2858 24.856 12.4271L14.0514 18.1406C13.8597 18.2419 13.6942 18.3865 13.5681 18.5629C13.442 18.7393 13.3587 18.9427 13.3247 19.1569L11.4674 30.8837C11.4094 31.2496 11.4992 31.6235 11.717 31.9232C11.9347 32.223 12.2626 32.4239 12.6285 32.4818L18.147 33.3559C18.5129 33.4138 18.8868 33.3241 19.1866 33.1063C19.4863 32.8886 19.6872 32.5607 19.7452 32.1948L20.4007 28.0559C20.4586 27.69 20.6596 27.3621 20.9593 27.1443C21.259 26.9266 21.6329 26.8368 21.9988 26.8948L24.7581 27.3318C25.124 27.3897 25.4519 27.5907 25.6696 27.8904C25.8874 28.1901 25.9772 28.564 25.9192 28.9299L25.2637 33.0688C25.2057 33.4347 25.2955 33.8086 25.5132 34.1084C25.731 34.4081 26.0589 34.609 26.4248 34.667L31.9433 35.541C32.3092 35.599 32.6831 35.5092 32.9828 35.2914C33.2826 35.0737 33.4835 34.7458 33.5414 34.3799Z" fill="#7B00FF"/>
<path d="M18.4646 17.2925C18.3878 17.2286 18.3274 17.1471 18.2886 17.0551L16.9194 13.7278L13.405 12.9573C13.2908 12.9324 13.1857 12.876 13.1019 12.7945C13.0181 12.7129 12.9589 12.6095 12.9309 12.496C12.9029 12.3824 12.9074 12.2633 12.9438 12.1522C12.9801 12.041 13.047 11.9423 13.1366 11.8672L15.8772 9.57347L15.5116 6.00318C15.5016 5.89013 15.5226 5.77648 15.5723 5.67444C15.622 5.57239 15.6985 5.48581 15.7937 5.42397C15.8928 5.36217 16.0073 5.32939 16.1242 5.32936C16.241 5.32933 16.3555 5.36205 16.4547 5.42381L19.5172 7.31636L22.7798 5.8686C22.887 5.82055 23.0055 5.80365 23.1217 5.81983C23.238 5.83601 23.3474 5.88462 23.4374 5.96009C23.5273 6.03556 23.5942 6.13483 23.6303 6.24655C23.6664 6.35826 23.6703 6.47789 23.6416 6.59174L22.8008 10.0635L25.1964 12.7508C25.2744 12.8378 25.3265 12.9449 25.3468 13.0599C25.3671 13.175 25.3547 13.2934 25.311 13.4018C25.2666 13.5063 25.1947 13.5967 25.1028 13.6633C25.0109 13.73 24.9027 13.7704 24.7896 13.7801L21.21 14.0401L19.427 17.1373C19.3688 17.2414 19.282 17.3267 19.1769 17.3831C19.0717 17.4394 18.9527 17.4645 18.8338 17.4554C18.6961 17.4434 18.5663 17.3861 18.4646 17.2925Z" fill="#F6B354"/>
<defs>
<filter id="filter0_d_356_3383" x="0.949219" y="0.829346" width="40.9658" height="47.2292" filterUnits="userSpaceOnUse" color-interpolation-filters="sRGB">
<feFlood flood-opacity="0" result="BackgroundImageFix"/>
<feColorMatrix in="SourceAlpha" type="matrix" values="0 0 0 0 0 0 0 0 0 0 0 0 0 0 0 0 0 0 127 0" result="hardAlpha"/>
<feOffset dx="-2" dy="4"/>
<feGaussianBlur stdDeviation="3"/>
<feComposite in2="hardAlpha" operator="out"/>
<feColorMatrix type="matrix" values="0 0 0 0 0 0 0 0 0 0 0 0 0 0 0 0 0 0 0.3 0"/>
<feBlend mode="normal" in2="BackgroundImageFix" result="effect1_dropShadow_356_3383"/>
<feBlend mode="normal" in="SourceGraphic" in2="effect1_dropShadow_356_3383" result="shape"/>
</filter>
</defs>
</svg>
