<svg width="22" height="22" viewBox="0 0 22 22" fill="none" xmlns="http://www.w3.org/2000/svg">
<path d="M21.3175 19.7302V8.93651C21.3175 8.73937 21.2716 8.54494 21.1834 8.36862C21.0952 8.19229 20.9672 8.03892 20.8095 7.92063L11.9206 1.25397C11.7008 1.08911 11.4335 1 11.1587 1C10.884 1 10.6166 1.08911 10.3968 1.25397L1.50794 7.92063C1.35023 8.03892 1.22222 8.19229 1.13406 8.36862C1.0459 8.54494 1 8.73937 1 8.93651V19.7302C1 20.0669 1.13379 20.3899 1.37193 20.6281C1.61007 20.8662 1.93306 21 2.26984 21H7.34921C7.68599 21 8.00898 20.8662 8.24712 20.6281C8.48526 20.3899 8.61905 20.0669 8.61905 19.7302V15.9206C8.61905 15.5839 8.75283 15.2609 8.99098 15.0227C9.22912 14.7846 9.55211 14.6508 9.88889 14.6508H12.4286C12.7654 14.6508 13.0883 14.7846 13.3265 15.0227C13.5646 15.2609 13.6984 15.5839 13.6984 15.9206V19.7302C13.6984 20.0669 13.8322 20.3899 14.0703 20.6281C14.3085 20.8662 14.6315 21 14.9683 21H20.0476C20.3844 21 20.7074 20.8662 20.9455 20.6281C21.1837 20.3899 21.3175 20.0669 21.3175 19.7302Z" fill="white" stroke="#646466" stroke-linecap="round" stroke-linejoin="round"/>
</svg>
