<svg width="65" height="84" viewBox="0 0 65 84" fill="none" xmlns="http://www.w3.org/2000/svg">
<g clip-path="url(#clip0_356_3382)">
<g filter="url(#filter0_d_356_3382)">
<path d="M42.7751 42.5759L44.6324 30.8491C44.6967 30.4432 44.6656 30.028 44.5416 29.6362C44.4176 29.2445 44.2041 28.887 43.918 28.5921L35.4078 19.8194C35.009 19.4084 34.4877 19.1377 33.922 19.0482C33.3564 18.9586 32.7769 19.0548 32.2707 19.3226L21.4661 25.036C21.1028 25.2281 20.7893 25.5021 20.5503 25.8364C20.3113 26.1706 20.1534 26.556 20.0891 26.9618L18.2318 38.6886C18.122 39.382 18.2921 40.0905 18.7047 40.6585C19.1173 41.2264 19.7386 41.6071 20.432 41.7169L25.9505 42.591C26.6438 42.7008 27.3524 42.5307 27.9203 42.1181C28.4882 41.7055 28.869 41.0841 28.9788 40.3908L29.6343 36.2519C29.6404 36.2135 29.6615 36.179 29.693 36.1561C29.7245 36.1332 29.7639 36.1238 29.8023 36.1299L32.5616 36.5669C32.6 36.573 32.6345 36.5941 32.6574 36.6256C32.6803 36.6571 32.6897 36.6964 32.6836 36.7349L32.0281 40.8738C31.9183 41.5671 32.0884 42.2757 32.501 42.8436C32.9136 43.4115 33.5349 43.7922 34.2283 43.9021L39.7468 44.7761C40.4401 44.8859 41.1487 44.7158 41.7166 44.3032C42.2845 43.8906 42.6653 43.2692 42.7751 42.5759Z" fill="#7B00FF" stroke="white" stroke-width="2.5" stroke-linecap="round" stroke-linejoin="round"/>
<path d="M24.949 25.5307L24.949 25.5307L23.8289 22.8087L20.9559 22.1788L24.949 25.5307ZM24.949 25.5307L24.9533 25.5409M24.949 25.5307L24.9533 25.5409M24.9533 25.5409C25.0657 25.8075 25.2383 26.0444 25.4574 26.233C25.7588 26.5014 26.1391 26.6656 26.5417 26.7007L26.5417 26.7008M24.9533 25.5409L26.5417 26.7008M20.0466 21.6904L20.0466 21.6904C19.7952 21.4457 19.6174 21.1355 19.5336 20.7948C19.4497 20.4542 19.4631 20.0968 19.5722 19.7634C19.6813 19.43 19.8817 19.1338 20.1508 18.9087C20.1508 18.9087 20.1508 18.9087 20.1508 18.9087L22.3826 17.0408L22.0845 14.1305L22.0837 14.122L22.0829 14.1134C22.0529 13.7743 22.1158 13.4333 22.2649 13.1272C22.4139 12.8211 22.6435 12.5613 22.9291 12.3758L22.9389 12.3694L22.9488 12.3632C23.2463 12.1778 23.5898 12.0794 23.9403 12.0794L23.9406 13.3294L23.9403 12.0794C24.2899 12.0793 24.6325 12.1769 24.9295 12.3613L27.4295 13.9062L30.0876 12.7268C30.4082 12.5836 30.7626 12.5334 31.1104 12.5818C31.4593 12.6303 31.7874 12.7761 32.0572 13.0025C32.3271 13.2289 32.5277 13.5268 32.636 13.8619L31.4467 14.2465L32.6361 13.8619C32.7437 14.1947 32.756 14.5508 32.6719 14.8902L31.9863 17.7209L33.943 19.9159C33.9436 19.9165 33.9443 19.9172 33.9449 19.9179C34.178 20.1784 34.3336 20.4988 34.3943 20.8432C34.4551 21.1883 34.4179 21.5437 34.2869 21.8688L34.2825 21.8797L34.2779 21.8905C34.1448 22.2039 33.9289 22.4751 33.6533 22.6751L20.0466 21.6904ZM20.0466 21.6904C20.2975 21.9345 20.6118 22.1035 20.9537 22.1783L20.0466 21.6904ZM26.5417 26.7008L26.5546 26.7018C26.9114 26.7291 27.2686 26.6538 27.5839 26.4847C27.8964 26.3172 28.1549 26.0645 28.3295 25.7561L29.7787 23.2387L32.6965 23.0269L32.7051 23.0262M26.5417 26.7008L32.7051 23.0262M32.7051 23.0262L32.7136 23.0255M32.7051 23.0262L32.7136 23.0255M32.7136 23.0255C33.0529 22.9962 33.3777 22.875 33.6533 22.6751L32.7136 23.0255Z" fill="#F6B354" stroke="white" stroke-width="2.5"/>
</g>
<path d="M41.5414 42.3799L43.3988 30.653C43.4327 30.4389 43.4163 30.2197 43.3509 30.013C43.2854 29.8062 43.1727 29.6176 43.0217 29.4619L34.5115 20.6893C34.3011 20.4724 34.026 20.3296 33.7275 20.2823C33.4289 20.235 33.1232 20.2858 32.856 20.4271L22.0514 26.1406C21.8597 26.2419 21.6942 26.3865 21.5681 26.5629C21.442 26.7393 21.3587 26.9427 21.3247 27.1569L19.4674 38.8837C19.4094 39.2496 19.4992 39.6235 19.717 39.9232C19.9347 40.223 20.2626 40.4239 20.6285 40.4818L26.147 41.3559C26.5129 41.4138 26.8868 41.3241 27.1866 41.1063C27.4863 40.8886 27.6872 40.5607 27.7452 40.1948L28.4007 36.0559C28.4586 35.69 28.6596 35.3621 28.9593 35.1443C29.259 34.9266 29.6329 34.8368 29.9988 34.8948L32.7581 35.3318C33.124 35.3897 33.4519 35.5907 33.6696 35.8904C33.8874 36.1901 33.9772 36.564 33.9192 36.9299L33.2637 41.0688C33.2057 41.4347 33.2955 41.8086 33.5132 42.1084C33.731 42.4081 34.0589 42.609 34.4248 42.667L39.9433 43.541C40.3092 43.599 40.6831 43.5092 40.9828 43.2914C41.2826 43.0737 41.4835 42.7458 41.5414 42.3799Z" fill="#7B00FF"/>
<path d="M26.4646 25.2925C26.3878 25.2286 26.3274 25.1471 26.2886 25.0551L24.9194 21.7278L21.405 20.9573C21.2908 20.9324 21.1857 20.876 21.1019 20.7945C21.0181 20.7129 20.9589 20.6095 20.9309 20.496C20.9029 20.3824 20.9074 20.2633 20.9438 20.1522C20.9801 20.041 21.047 19.9423 21.1366 19.8672L23.8772 17.5735L23.5116 14.0032C23.5016 13.8901 23.5226 13.7765 23.5723 13.6744C23.622 13.5724 23.6985 13.4858 23.7937 13.424C23.8928 13.3622 24.0073 13.3294 24.1242 13.3294C24.241 13.3293 24.3555 13.3621 24.4547 13.4238L27.5172 15.3164L30.7798 13.8686C30.887 13.8206 31.0055 13.8036 31.1217 13.8198C31.238 13.836 31.3474 13.8846 31.4374 13.9601C31.5273 14.0356 31.5942 14.1348 31.6303 14.2465C31.6664 14.3583 31.6703 14.4779 31.6416 14.5917L30.8008 18.0635L33.1964 20.7508C33.2744 20.8378 33.3265 20.9449 33.3468 21.0599C33.3671 21.175 33.3547 21.2934 33.311 21.4018C33.2666 21.5063 33.1947 21.5967 33.1028 21.6633C33.0109 21.73 32.9027 21.7704 32.7896 21.7801L29.21 22.0401L27.427 25.1373C27.3688 25.2414 27.282 25.3267 27.1769 25.3831C27.0717 25.4394 26.9527 25.4645 26.8338 25.4554C26.6961 25.4434 26.5663 25.3861 26.4646 25.2925Z" fill="#F6B354"/>
<path d="M15.561 67V59.916H17.332V62.721H20.104V59.916H21.875V67H20.104V64.195H17.332V67H15.561ZM25.7116 67.11C24.7069 67.11 23.9663 66.879 23.4896 66.417C23.0129 65.9477 22.7746 65.273 22.7746 64.393C22.7746 63.5203 23.0129 62.8493 23.4896 62.38C23.9736 61.9107 24.7143 61.676 25.7116 61.676C26.7163 61.676 27.4569 61.9107 27.9336 62.38C28.4176 62.8493 28.6596 63.5203 28.6596 64.393C28.6596 65.273 28.4213 65.9477 27.9446 66.417C27.4679 66.879 26.7236 67.11 25.7116 67.11ZM25.7116 65.724C26.1223 65.724 26.4156 65.6213 26.5916 65.416C26.7676 65.2107 26.8556 64.8697 26.8556 64.393C26.8556 63.9163 26.7676 63.5753 26.5916 63.37C26.4156 63.1647 26.1223 63.062 25.7116 63.062C25.3083 63.062 25.0186 63.1647 24.8426 63.37C24.6666 63.5753 24.5786 63.9163 24.5786 64.393C24.5786 64.8697 24.6666 65.2107 24.8426 65.416C25.0186 65.6213 25.3083 65.724 25.7116 65.724ZM29.5581 67V61.786H31.1971L31.2521 62.248C31.4867 62.0793 31.7507 61.9437 32.0441 61.841C32.3374 61.731 32.6527 61.676 32.9901 61.676C33.3421 61.676 33.6171 61.731 33.8151 61.841C34.0131 61.9437 34.1671 62.0903 34.2771 62.281C34.5191 62.105 34.7904 61.962 35.0911 61.852C35.3991 61.7347 35.7584 61.676 36.1691 61.676C36.7777 61.676 37.2251 61.8337 37.5111 62.149C37.7971 62.4643 37.9401 62.9447 37.9401 63.59V67H36.1911V63.799C36.1911 63.513 36.1287 63.3077 36.0041 63.183C35.8867 63.051 35.6924 62.985 35.4211 62.985C35.2524 62.985 35.0874 63.0217 34.9261 63.095C34.7647 63.161 34.6291 63.2563 34.5191 63.381C34.5337 63.4617 34.5411 63.5387 34.5411 63.612C34.5484 63.6853 34.5521 63.7733 34.5521 63.876V67H32.9021V63.777C32.9021 63.513 32.8544 63.315 32.7591 63.183C32.6711 63.051 32.4987 62.985 32.2421 62.985C32.0587 62.985 31.8864 63.0327 31.7251 63.128C31.5637 63.2233 31.4171 63.3333 31.2851 63.458V67H29.5581ZM41.7407 67.11C40.8314 67.11 40.1017 66.8863 39.5517 66.439C39.0017 65.9843 38.7267 65.3023 38.7267 64.393C38.7267 63.5643 38.9541 62.9043 39.4087 62.413C39.8634 61.9217 40.5454 61.676 41.4547 61.676C42.2834 61.676 42.9251 61.8887 43.3797 62.314C43.8344 62.7393 44.0617 63.3113 44.0617 64.03V64.965H40.3657C40.4464 65.3097 40.6334 65.5517 40.9267 65.691C41.2274 65.823 41.6344 65.889 42.1477 65.889C42.4337 65.889 42.7234 65.8633 43.0167 65.812C43.3174 65.7607 43.5667 65.6947 43.7647 65.614V66.769C43.5154 66.8863 43.2184 66.9707 42.8737 67.022C42.5291 67.0807 42.1514 67.11 41.7407 67.11ZM40.3657 63.942H42.5217V63.711C42.5217 63.4543 42.4447 63.2527 42.2907 63.106C42.1367 62.952 41.8764 62.875 41.5097 62.875C41.0844 62.875 40.7874 62.963 40.6187 63.139C40.4501 63.3077 40.3657 63.5753 40.3657 63.942Z" fill="#7B00FF"/>
</g>
<defs>
<filter id="filter0_d_356_3382" x="8.94922" y="8.82935" width="40.9658" height="47.2292" filterUnits="userSpaceOnUse" color-interpolation-filters="sRGB">
<feFlood flood-opacity="0" result="BackgroundImageFix"/>
<feColorMatrix in="SourceAlpha" type="matrix" values="0 0 0 0 0 0 0 0 0 0 0 0 0 0 0 0 0 0 127 0" result="hardAlpha"/>
<feOffset dx="-2" dy="4"/>
<feGaussianBlur stdDeviation="3"/>
<feComposite in2="hardAlpha" operator="out"/>
<feColorMatrix type="matrix" values="0 0 0 0 0 0 0 0 0 0 0 0 0 0 0 0 0 0 0.3 0"/>
<feBlend mode="normal" in2="BackgroundImageFix" result="effect1_dropShadow_356_3382"/>
<feBlend mode="normal" in="SourceGraphic" in2="effect1_dropShadow_356_3382" result="shape"/>
</filter>
<clipPath id="clip0_356_3382">
<rect width="65" height="84" fill="white"/>
</clipPath>
</defs>
</svg>
