<svg width="14" height="14" viewBox="0 0 14 14" fill="none" xmlns="http://www.w3.org/2000/svg">
<g clip-path="url(#clip0_577_12030)">
<path d="M7.5 0.5H2.5C2.23478 0.5 1.98043 0.605357 1.79289 0.792893C1.60536 0.98043 1.5 1.23478 1.5 1.5V10.5L0.5 13.5L4.5 12.5H12.5C12.7652 12.5 13.0196 12.3946 13.2071 12.2071C13.3946 12.0196 13.5 11.7652 13.5 11.5V6.5" stroke="#2F2F2F" stroke-linecap="round" stroke-linejoin="round"/>
<path d="M8.36304 8.13715L5.36304 8.67715L5.86304 5.63715L10.593 0.927146C10.686 0.833418 10.7966 0.759023 10.9185 0.708255C11.0403 0.657486 11.171 0.631348 11.303 0.631348C11.435 0.631348 11.5658 0.657486 11.6876 0.708255C11.8095 0.759023 11.9201 0.833418 12.013 0.927146L13.073 1.98715C13.1668 2.08011 13.2412 2.19071 13.2919 2.31257C13.3427 2.43443 13.3688 2.56513 13.3688 2.69715C13.3688 2.82916 13.3427 2.95986 13.2919 3.08172C13.2412 3.20358 13.1668 3.31418 13.073 3.40715L8.36304 8.13715Z" stroke="#2F2F2F" stroke-linecap="round" stroke-linejoin="round"/>
</g>
<defs>
<clipPath id="clip0_577_12030">
<rect width="14" height="14" fill="white"/>
</clipPath>
</defs>
</svg>
