<svg width="22" height="20" viewBox="0 0 22 20" fill="none" xmlns="http://www.w3.org/2000/svg">
<path fill-rule="evenodd" clip-rule="evenodd" d="M11.0002 1.942C12.1715 0.856817 13.7085 0.252701 15.3052 0.25C17.0312 0.25 18.6792 0.96 19.8852 2.21C21.0853 3.461 21.7538 5.12845 21.7502 6.862C21.7538 8.59555 21.0853 10.263 19.8852 11.514C19.0892 12.339 18.2942 13.184 17.4952 14.032C15.8712 15.756 14.2302 17.499 12.5252 19.14L12.5222 19.144C12.0989 19.5449 11.5344 19.7625 10.9516 19.7496C10.3687 19.7367 9.8144 19.4943 9.40924 19.075L2.11424 11.514C-0.370762 8.937 -0.370762 4.787 2.11424 2.211C3.26284 1.00741 4.83912 0.3044 6.50207 0.254059C8.16502 0.203718 9.78093 0.81009 11.0002 1.942Z" fill="#FF5C5C"/>
</svg>
