<svg width="49" height="46" viewBox="0 0 49 46" fill="none" xmlns="http://www.w3.org/2000/svg">
<g filter="url(#filter0_d_356_3332)">
<path d="M19.0602 30.5919L18.8959 31.6298L18.8907 31.6623L18.8873 31.695L18.8736 31.8255L18.8695 31.8642L18.8679 31.903C18.8509 32.304 18.9347 32.7029 19.1118 33.0632C19.2888 33.4234 19.5534 33.7335 19.8813 33.9651L20.6024 32.944L19.8813 33.9651C20.2092 34.1966 20.5899 34.3423 20.9886 34.3886C21.3873 34.4349 21.7912 34.3806 22.1634 34.2304C22.1635 34.2304 22.1635 34.2304 22.1636 34.2304L27.7652 31.9715L32.789 32.7672C34.3214 33.0099 35.8875 32.6339 37.1427 31.722C38.3979 30.81 39.2394 29.4368 39.4821 27.9043L40.9213 18.8176C41.164 17.2852 40.788 15.7191 39.8761 14.4639C38.9641 13.2087 37.5909 12.3672 36.0585 12.1245L22.4284 9.9657C20.8959 9.72299 19.3299 10.099 18.0747 11.0109C16.8195 11.9229 15.978 13.2961 15.7352 14.8285L14.296 23.9153L14.2936 23.9307L14.2915 23.9462L14.2612 24.1743L14.2592 24.1898L14.2575 24.2053C14.0971 25.6976 14.5165 27.1944 15.4287 28.3862C16.3207 29.5515 17.6173 30.338 19.0602 30.5919Z" fill="#7B00FF" stroke="white" stroke-width="2.5"/>
<path d="M12.9529 17.529L12.9529 17.529L11.8328 14.807L8.95984 14.1771L12.9529 17.529ZM12.9529 17.529L12.9572 17.5392M12.9529 17.529L12.9572 17.5392M12.9572 17.5392C13.0696 17.8058 13.2423 18.0427 13.4613 18.2313C13.7627 18.4997 14.143 18.6639 14.5456 18.699L14.5456 18.6991M12.9572 17.5392L14.5456 18.6991M8.05055 13.6887L8.05054 13.6887C7.79909 13.444 7.62133 13.1337 7.53746 12.7931C7.45359 12.4524 7.46697 12.0951 7.57608 11.7617C7.68519 11.4283 7.88565 11.1321 8.15468 10.907C8.15468 10.907 8.15469 10.907 8.1547 10.907L10.3865 9.03905L10.0885 6.12881L10.0876 6.12027L10.0868 6.11172C10.0568 5.77255 10.1197 5.43161 10.2688 5.12547C10.4178 4.81935 10.6474 4.55959 10.933 4.37408L10.9428 4.36769L10.9528 4.36148C11.2502 4.17607 11.5937 4.07773 11.9442 4.07765L11.9445 5.32765L11.9442 4.07765C12.2938 4.07757 12.6364 4.17523 12.9334 4.35957L15.4334 5.90453L18.0915 4.72508C18.4121 4.58191 18.7665 4.53165 19.1143 4.58004C19.4632 4.62858 19.7913 4.77441 20.0612 5.00082C20.331 5.22723 20.5316 5.52507 20.64 5.86021L19.4506 6.24484L20.64 5.86021C20.7476 6.19296 20.76 6.54913 20.6758 6.88846L19.9902 9.71915L21.9469 11.9142C21.9476 11.9148 21.9482 11.9155 21.9488 11.9162C22.1819 12.1767 22.3376 12.4971 22.3982 12.8414C22.459 13.1866 22.4218 13.542 22.2908 13.8671L22.2864 13.878L22.2819 13.8888C22.1487 14.2022 21.9328 14.4734 21.6572 14.6734L8.05055 13.6887ZM8.05055 13.6887C8.30145 13.9328 8.61567 14.1018 8.95763 14.1766L8.05055 13.6887ZM14.5456 18.6991L14.5585 18.7001C14.9153 18.7274 15.2725 18.6521 15.5878 18.483C15.9003 18.3155 16.1588 18.0628 16.3334 17.7544L17.7826 15.237L20.7004 15.0252L20.709 15.0245M14.5456 18.6991L20.709 15.0245M20.709 15.0245L20.7175 15.0238M20.709 15.0245L20.7175 15.0238M20.7175 15.0238C21.0568 14.9945 21.3816 14.8733 21.6572 14.6734L20.7175 15.0238Z" fill="#F6B354" stroke="white" stroke-width="2.5"/>
</g>
<path d="M35.8639 13.3591C37.0689 13.55 38.1487 14.2117 38.8658 15.1987C39.5829 16.1857 39.8785 17.4171 39.6877 18.6221L38.2485 27.7088C38.0576 28.9138 37.3959 29.9936 36.4089 30.7107C35.4219 31.4278 34.1905 31.7234 32.9855 31.5326L27.6198 30.6827L21.6969 33.0711C21.5186 33.1431 21.325 33.1692 21.1339 33.147C20.9429 33.1248 20.7604 33.055 20.6033 32.944C20.4462 32.8331 20.3194 32.6845 20.2346 32.5119C20.1498 32.3392 20.1096 32.1481 20.1178 31.9559L20.1314 31.8254L20.4912 29.5537L19.3554 29.3738C18.1898 29.1892 17.1397 28.5636 16.4223 27.6264C15.7049 26.6893 15.3752 25.5123 15.5013 24.3389L15.5316 24.1108L16.9708 15.0241C17.1617 13.8191 17.8234 12.7393 18.8104 12.0222C19.7974 11.3051 21.0288 11.0095 22.2338 11.2003L35.8639 13.3591ZM29.7014 22.8621L22.8864 21.7827C22.5851 21.735 22.2773 21.8089 22.0305 21.9882C21.7838 22.1674 21.6184 22.4374 21.5706 22.7386C21.5229 23.0399 21.5968 23.3477 21.7761 23.5945C21.9554 23.8412 22.2253 24.0067 22.5266 24.0544L29.3416 25.1338C29.6429 25.1815 29.9507 25.1076 30.1975 24.9283C30.4442 24.749 30.6097 24.4791 30.6574 24.1778C30.7051 23.8766 30.6312 23.5687 30.4519 23.322C30.2726 23.0752 30.0027 22.9098 29.7014 22.8621ZM32.6927 18.6785L23.606 17.2393C23.3047 17.1916 22.9969 17.2655 22.7501 17.4448C22.5034 17.6241 22.338 17.894 22.2902 18.1953C22.2425 18.4965 22.3164 18.8044 22.4957 19.0511C22.675 19.2979 22.9449 19.4633 23.2462 19.511L32.3329 20.9502C32.6342 20.9979 32.942 20.924 33.1888 20.7447C33.4355 20.5655 33.6009 20.2955 33.6487 19.9943C33.6964 19.693 33.6225 19.3852 33.4432 19.1384C33.2639 18.8917 32.994 18.7262 32.6927 18.6785Z" fill="#7B00FF"/>
<path d="M14.4685 17.2906C14.3917 17.2266 14.3313 17.1452 14.2925 17.0531L12.9234 13.7259L9.40893 12.9553C9.29466 12.9305 9.18965 12.8741 9.10583 12.7925C9.02202 12.711 8.96276 12.6076 8.93481 12.494C8.90685 12.3805 8.91131 12.2613 8.94768 12.1502C8.98405 12.0391 9.05088 11.9404 9.14055 11.8653L11.8811 9.57152L11.5155 6.00123C11.5055 5.88818 11.5265 5.77453 11.5762 5.67248C11.6259 5.57044 11.7024 5.48386 11.7976 5.42202C11.8967 5.36021 12.0112 5.32743 12.1281 5.32741C12.2449 5.32738 12.3594 5.3601 12.4586 5.42186L15.5211 7.31441L18.7837 5.86665C18.8909 5.8186 19.0094 5.80169 19.1256 5.81787C19.2419 5.83405 19.3513 5.88266 19.4413 5.95813C19.5312 6.0336 19.5981 6.13288 19.6342 6.2446C19.6703 6.35631 19.6743 6.47594 19.6455 6.58978L18.8047 10.0616L21.2003 12.7489C21.2783 12.8358 21.3305 12.9429 21.3507 13.058C21.371 13.173 21.3586 13.2915 21.3149 13.3998C21.2706 13.5043 21.1986 13.5947 21.1067 13.6614C21.0148 13.728 20.9066 13.7684 20.7935 13.7782L17.214 14.0381L15.4309 17.1354C15.3727 17.2395 15.2859 17.3248 15.1808 17.3811C15.0757 17.4375 14.9566 17.4626 14.8377 17.4535C14.7 17.4415 14.5702 17.3842 14.4685 17.2906Z" fill="#F6B354"/>
<defs>
<filter id="filter0_d_356_3332" x="0.233398" y="0.827637" width="48.0098" height="44.8269" filterUnits="userSpaceOnUse" color-interpolation-filters="sRGB">
<feFlood flood-opacity="0" result="BackgroundImageFix"/>
<feColorMatrix in="SourceAlpha" type="matrix" values="0 0 0 0 0 0 0 0 0 0 0 0 0 0 0 0 0 0 127 0" result="hardAlpha"/>
<feOffset dy="4"/>
<feGaussianBlur stdDeviation="3"/>
<feComposite in2="hardAlpha" operator="out"/>
<feColorMatrix type="matrix" values="0 0 0 0 0 0 0 0 0 0 0 0 0 0 0 0 0 0 0.3 0"/>
<feBlend mode="normal" in2="BackgroundImageFix" result="effect1_dropShadow_356_3332"/>
<feBlend mode="normal" in="SourceGraphic" in2="effect1_dropShadow_356_3332" result="shape"/>
</filter>
</defs>
</svg>
