<svg width="65" height="84" viewBox="0 0 65 84" fill="none" xmlns="http://www.w3.org/2000/svg">
<g filter="url(#filter0_d_356_3331)">
<path d="M25.0602 39.5919L24.8959 40.6298L24.8907 40.6623L24.8873 40.695L24.8736 40.8255L24.8695 40.8642L24.8679 40.903C24.8509 41.304 24.9347 41.7029 25.1118 42.0632C25.2888 42.4234 25.5534 42.7335 25.8813 42.9651L26.6024 41.944L25.8813 42.9651C26.2092 43.1966 26.5899 43.3423 26.9886 43.3886C27.3873 43.4349 27.7912 43.3806 28.1634 43.2304C28.1635 43.2304 28.1635 43.2304 28.1636 43.2304L33.7652 40.9715L38.789 41.7672C40.3214 42.0099 41.8875 41.6339 43.1427 40.722C44.3979 39.81 45.2394 38.4368 45.4821 36.9043L46.9213 27.8176C47.164 26.2852 46.788 24.7191 45.8761 23.4639C44.9641 22.2087 43.5909 21.3672 42.0585 21.1245L28.4284 18.9657C26.8959 18.723 25.3299 19.099 24.0747 20.0109C22.8195 20.9229 21.978 22.2961 21.7352 23.8285L20.296 32.9153L20.2936 32.9307L20.2915 32.9462L20.2612 33.1743L20.2592 33.1898L20.2575 33.2053C20.0971 34.6976 20.5165 36.1944 21.4287 37.3862C22.3207 38.5515 23.6173 39.338 25.0602 39.5919Z" fill="#7B00FF" stroke="white" stroke-width="2.5"/>
<path d="M18.9529 26.529L18.9529 26.529L17.8328 23.807L14.9598 23.1771L18.9529 26.529ZM18.9529 26.529L18.9572 26.5392M18.9529 26.529L18.9572 26.5392M18.9572 26.5392C19.0696 26.8058 19.2423 27.0427 19.4613 27.2313C19.7627 27.4997 20.143 27.6639 20.5456 27.699L20.5456 27.6991M18.9572 26.5392L20.5456 27.6991M14.0505 22.6887L14.0505 22.6887C13.7991 22.444 13.6213 22.1337 13.5375 21.7931C13.4536 21.4524 13.467 21.0951 13.5761 20.7617C13.6852 20.4283 13.8857 20.1321 14.1547 19.907C14.1547 19.907 14.1547 19.907 14.1547 19.907L16.3865 18.0391L16.0885 15.1288L16.0876 15.1203L16.0868 15.1117C16.0568 14.7726 16.1197 14.4316 16.2688 14.1255C16.4178 13.8193 16.6474 13.5596 16.933 13.3741L16.9428 13.3677L16.9528 13.3615C17.2502 13.1761 17.5937 13.0777 17.9442 13.0777L17.9445 14.3277L17.9442 13.0777C18.2938 13.0776 18.6364 13.1752 18.9334 13.3596L21.4334 14.9045L24.0915 13.7251C24.4121 13.5819 24.7665 13.5316 25.1143 13.58C25.4632 13.6286 25.7913 13.7744 26.0612 14.0008C26.331 14.2272 26.5316 14.5251 26.64 14.8602L25.4506 15.2448L26.64 14.8602C26.7476 15.193 26.76 15.5491 26.6758 15.8885L25.9902 18.7192L27.9469 20.9142C27.9476 20.9148 27.9482 20.9155 27.9488 20.9162C28.1819 21.1767 28.3376 21.4971 28.3982 21.8414C28.459 22.1866 28.4218 22.542 28.2908 22.8671L28.2864 22.878L28.2819 22.8888C28.1487 23.2022 27.9328 23.4734 27.6572 23.6734L14.0505 22.6887ZM14.0505 22.6887C14.3015 22.9328 14.6157 23.1018 14.9576 23.1766L14.0505 22.6887ZM20.5456 27.6991L20.5585 27.7001C20.9153 27.7274 21.2725 27.6521 21.5878 27.483C21.9003 27.3155 22.1588 27.0628 22.3334 26.7544L23.7826 24.237L26.7004 24.0252L26.709 24.0245M20.5456 27.6991L26.709 24.0245M26.709 24.0245L26.7175 24.0238M26.709 24.0245L26.7175 24.0238M26.7175 24.0238C27.0568 23.9945 27.3816 23.8733 27.6572 23.6734L26.7175 24.0238Z" fill="#F6B354" stroke="white" stroke-width="2.5"/>
</g>
<path d="M41.8639 22.3591C43.0689 22.55 44.1487 23.2117 44.8658 24.1987C45.5829 25.1857 45.8785 26.4171 45.6877 27.6221L44.2485 36.7088C44.0576 37.9138 43.3959 38.9936 42.4089 39.7107C41.4219 40.4278 40.1905 40.7234 38.9855 40.5326L33.6198 39.6827L27.6969 42.0711C27.5186 42.1431 27.325 42.1692 27.1339 42.147C26.9429 42.1248 26.7604 42.055 26.6033 41.944C26.4462 41.8331 26.3194 41.6845 26.2346 41.5119C26.1498 41.3392 26.1096 41.1481 26.1178 40.9559L26.1314 40.8254L26.4912 38.5537L25.3554 38.3738C24.1898 38.1892 23.1397 37.5636 22.4223 36.6264C21.7049 35.6893 21.3752 34.5123 21.5013 33.3389L21.5316 33.1108L22.9708 24.0241C23.1617 22.8191 23.8234 21.7393 24.8104 21.0222C25.7974 20.3051 27.0288 20.0095 28.2338 20.2003L41.8639 22.3591ZM35.7014 31.8621L28.8864 30.7827C28.5851 30.735 28.2773 30.8089 28.0305 30.9882C27.7838 31.1674 27.6184 31.4374 27.5706 31.7386C27.5229 32.0399 27.5968 32.3477 27.7761 32.5945C27.9554 32.8412 28.2253 33.0067 28.5266 33.0544L35.3416 34.1338C35.6429 34.1815 35.9507 34.1076 36.1975 33.9283C36.4442 33.749 36.6097 33.4791 36.6574 33.1778C36.7051 32.8766 36.6312 32.5687 36.4519 32.322C36.2726 32.0752 36.0027 31.9098 35.7014 31.8621ZM38.6927 27.6785L29.606 26.2393C29.3047 26.1916 28.9969 26.2655 28.7501 26.4448C28.5034 26.6241 28.338 26.894 28.2902 27.1953C28.2425 27.4965 28.3164 27.8044 28.4957 28.0511C28.675 28.2979 28.9449 28.4633 29.2462 28.511L38.3329 29.9502C38.6342 29.9979 38.942 29.924 39.1888 29.7447C39.4355 29.5655 39.6009 29.2955 39.6487 28.9943C39.6964 28.693 39.6225 28.3852 39.4432 28.1384C39.2639 27.8917 38.994 27.7262 38.6927 27.6785Z" fill="#7B00FF"/>
<path d="M20.4685 26.2906C20.3917 26.2266 20.3313 26.1452 20.2925 26.0531L18.9234 22.7259L15.4089 21.9553C15.2947 21.9305 15.1896 21.8741 15.1058 21.7925C15.022 21.711 14.9628 21.6076 14.9348 21.494C14.9068 21.3805 14.9113 21.2613 14.9477 21.1502C14.9841 21.0391 15.0509 20.9404 15.1406 20.8653L17.8811 18.5715L17.5155 15.0012C17.5055 14.8882 17.5265 14.7745 17.5762 14.6725C17.6259 14.5704 17.7024 14.4839 17.7976 14.422C17.8967 14.3602 18.0112 14.3274 18.1281 14.3274C18.2449 14.3274 18.3594 14.3601 18.4586 14.4219L21.5211 16.3144L24.7837 14.8666C24.8909 14.8186 25.0094 14.8017 25.1256 14.8179C25.2419 14.8341 25.3513 14.8827 25.4413 14.9581C25.5312 15.0336 25.5981 15.1329 25.6342 15.2446C25.6703 15.3563 25.6743 15.4759 25.6455 15.5898L24.8047 19.0616L27.2003 21.7489C27.2783 21.8358 27.3305 21.9429 27.3507 22.058C27.371 22.173 27.3586 22.2915 27.3149 22.3998C27.2706 22.5043 27.1986 22.5947 27.1067 22.6614C27.0148 22.728 26.9066 22.7684 26.7935 22.7782L23.214 23.0381L21.4309 26.1354C21.3727 26.2395 21.2859 26.3248 21.1808 26.3811C21.0757 26.4375 20.9566 26.4626 20.8377 26.4535C20.7 26.4415 20.5702 26.3842 20.4685 26.2906Z" fill="#F6B354"/>
<path d="M11.561 67V59.916H13.31L15.235 63.843L17.149 59.916H18.887V67H17.116V62.93L15.719 65.79H14.74L13.332 62.93V67H11.561ZM22.7984 67.11C21.889 67.11 21.1594 66.8863 20.6094 66.439C20.0594 65.9843 19.7844 65.3023 19.7844 64.393C19.7844 63.5643 20.0117 62.9043 20.4664 62.413C20.921 61.9217 21.603 61.676 22.5124 61.676C23.341 61.676 23.9827 61.8887 24.4374 62.314C24.892 62.7393 25.1194 63.3113 25.1194 64.03V64.965H21.4234C21.504 65.3097 21.691 65.5517 21.9844 65.691C22.285 65.823 22.692 65.889 23.2054 65.889C23.4914 65.889 23.781 65.8633 24.0744 65.812C24.375 65.7607 24.6244 65.6947 24.8224 65.614V66.769C24.573 66.8863 24.276 66.9707 23.9314 67.022C23.5867 67.0807 23.209 67.11 22.7984 67.11ZM21.4234 63.942H23.5794V63.711C23.5794 63.4543 23.5024 63.2527 23.3484 63.106C23.1944 62.952 22.934 62.875 22.5674 62.875C22.142 62.875 21.845 62.963 21.6764 63.139C21.5077 63.3077 21.4234 63.5753 21.4234 63.942ZM27.9023 67.11C27.4843 67.11 27.0883 67.0807 26.7143 67.022C26.3403 66.9633 26.0433 66.89 25.8233 66.802V65.449C26.0799 65.559 26.3769 65.6433 26.7143 65.702C27.0516 65.7607 27.3523 65.79 27.6163 65.79C27.9316 65.79 28.1589 65.7753 28.2983 65.746C28.4449 65.7167 28.5183 65.636 28.5183 65.504C28.5183 65.3573 28.4009 65.2473 28.1663 65.174C27.9316 65.1007 27.6089 64.9943 27.1983 64.855C26.7216 64.6863 26.3586 64.492 26.1093 64.272C25.8673 64.0447 25.7463 63.711 25.7463 63.271C25.7463 62.7577 25.9369 62.3653 26.3183 62.094C26.7069 61.8153 27.3229 61.676 28.1663 61.676C28.4963 61.676 28.8226 61.7017 29.1453 61.753C29.4679 61.8043 29.7319 61.863 29.9373 61.929V63.26C29.7319 63.1647 29.4973 63.095 29.2333 63.051C28.9693 63.007 28.7309 62.985 28.5183 62.985C28.2469 62.985 28.0159 63.0033 27.8253 63.04C27.6419 63.0693 27.5503 63.1463 27.5503 63.271C27.5503 63.4103 27.6529 63.5093 27.8583 63.568C28.0636 63.6193 28.3606 63.7073 28.7493 63.832C29.1599 63.9567 29.4789 64.0923 29.7063 64.239C29.9336 64.3783 30.0949 64.547 30.1903 64.745C30.2856 64.943 30.3333 65.1923 30.3333 65.493C30.3333 66.0137 30.1279 66.4133 29.7173 66.692C29.3066 66.9707 28.7016 67.11 27.9023 67.11ZM32.8866 67.11C32.4686 67.11 32.0726 67.0807 31.6986 67.022C31.3246 66.9633 31.0276 66.89 30.8076 66.802V65.449C31.0643 65.559 31.3613 65.6433 31.6986 65.702C32.036 65.7607 32.3366 65.79 32.6006 65.79C32.916 65.79 33.1433 65.7753 33.2826 65.746C33.4293 65.7167 33.5026 65.636 33.5026 65.504C33.5026 65.3573 33.3853 65.2473 33.1506 65.174C32.916 65.1007 32.5933 64.9943 32.1826 64.855C31.706 64.6863 31.343 64.492 31.0936 64.272C30.8516 64.0447 30.7306 63.711 30.7306 63.271C30.7306 62.7577 30.9213 62.3653 31.3026 62.094C31.6913 61.8153 32.3073 61.676 33.1506 61.676C33.4806 61.676 33.807 61.7017 34.1296 61.753C34.4523 61.8043 34.7163 61.863 34.9216 61.929V63.26C34.7163 63.1647 34.4816 63.095 34.2176 63.051C33.9536 63.007 33.7153 62.985 33.5026 62.985C33.2313 62.985 33.0003 63.0033 32.8096 63.04C32.6263 63.0693 32.5346 63.1463 32.5346 63.271C32.5346 63.4103 32.6373 63.5093 32.8426 63.568C33.048 63.6193 33.345 63.7073 33.7336 63.832C34.1443 63.9567 34.4633 64.0923 34.6906 64.239C34.918 64.3783 35.0793 64.547 35.1746 64.745C35.27 64.943 35.3176 65.1923 35.3176 65.493C35.3176 66.0137 35.1123 66.4133 34.7016 66.692C34.291 66.9707 33.686 67.11 32.8866 67.11ZM37.6812 67.11C37.3512 67.11 37.0432 67.0513 36.7572 66.934C36.4785 66.8167 36.2549 66.637 36.0862 66.395C35.9175 66.1457 35.8332 65.8377 35.8332 65.471C35.8332 64.9357 36.0129 64.5177 36.3722 64.217C36.7389 63.909 37.2852 63.755 38.0112 63.755H39.4632V63.634C39.4632 63.37 39.3752 63.183 39.1992 63.073C39.0232 62.9557 38.6932 62.897 38.2092 62.897C37.6152 62.897 37.0322 62.9887 36.4602 63.172V62.028C36.7169 61.9253 37.0285 61.841 37.3952 61.775C37.7692 61.709 38.1615 61.676 38.5722 61.676C39.3789 61.676 40.0095 61.841 40.4642 62.171C40.9262 62.501 41.1572 63.0253 41.1572 63.744V67H39.6062L39.5182 66.56C39.3275 66.736 39.0819 66.8717 38.7812 66.967C38.4879 67.0623 38.1212 67.11 37.6812 67.11ZM38.2422 66.021C38.5209 66.021 38.7629 65.9733 38.9682 65.878C39.1735 65.7827 39.3385 65.6617 39.4632 65.515V64.778H38.2092C37.6885 64.778 37.4282 64.987 37.4282 65.405C37.4282 65.5957 37.4942 65.746 37.6262 65.856C37.7582 65.966 37.9635 66.021 38.2422 66.021ZM44.4632 68.936C44.2065 68.936 43.9352 68.925 43.6492 68.903C43.3632 68.881 43.0919 68.848 42.8352 68.804C42.5785 68.76 42.3585 68.7087 42.1752 68.65V67.44C42.4685 67.5353 42.8205 67.6087 43.2312 67.66C43.6419 67.7113 44.0195 67.737 44.3642 67.737C44.8115 67.737 45.1452 67.7113 45.3652 67.66C45.5925 67.616 45.7062 67.5353 45.7062 67.418C45.7062 67.3153 45.6622 67.2457 45.5742 67.209C45.4862 67.1723 45.3139 67.154 45.0572 67.154H43.6162C43.1469 67.154 42.7802 67.0697 42.5162 66.901C42.2595 66.7323 42.1312 66.4867 42.1312 66.164C42.1312 65.944 42.1972 65.735 42.3292 65.537C42.4685 65.339 42.6702 65.1923 42.9342 65.097C42.6335 64.943 42.4062 64.7487 42.2522 64.514C42.0982 64.2793 42.0212 63.9823 42.0212 63.623C42.0212 62.9483 42.2375 62.457 42.6702 62.149C43.1102 61.8337 43.7519 61.676 44.5952 61.676C44.7712 61.676 44.9655 61.6907 45.1782 61.72C45.3982 61.742 45.5595 61.764 45.6622 61.786H47.6642L47.6202 62.886H46.8612C47.0445 63.0693 47.1362 63.3407 47.1362 63.7C47.1362 64.206 46.9712 64.613 46.6412 64.921C46.3185 65.229 45.8272 65.383 45.1672 65.383C45.0572 65.383 44.9472 65.3793 44.8372 65.372C44.7345 65.3573 44.6319 65.3463 44.5292 65.339C44.3385 65.361 44.1735 65.4013 44.0342 65.46C43.9022 65.5187 43.8362 65.603 43.8362 65.713C43.8362 65.801 43.8692 65.8597 43.9352 65.889C44.0085 65.9183 44.1149 65.933 44.2542 65.933H45.5852C46.1205 65.933 46.5349 66.0577 46.8282 66.307C47.1289 66.549 47.2792 66.9047 47.2792 67.374C47.2792 68.4153 46.3405 68.936 44.4632 68.936ZM44.6062 64.404C44.9949 64.404 45.2625 64.338 45.4092 64.206C45.5559 64.074 45.6292 63.854 45.6292 63.546C45.6292 63.238 45.5522 63.0143 45.3982 62.875C45.2515 62.7357 44.9875 62.666 44.6062 62.666C44.2469 62.666 43.9865 62.7357 43.8252 62.875C43.6712 63.007 43.5942 63.2307 43.5942 63.546C43.5942 63.8393 43.6675 64.0557 43.8142 64.195C43.9609 64.3343 44.2249 64.404 44.6062 64.404ZM51.2114 67.11C50.3021 67.11 49.5724 66.8863 49.0224 66.439C48.4724 65.9843 48.1974 65.3023 48.1974 64.393C48.1974 63.5643 48.4248 62.9043 48.8794 62.413C49.3341 61.9217 50.0161 61.676 50.9254 61.676C51.7541 61.676 52.3958 61.8887 52.8504 62.314C53.3051 62.7393 53.5324 63.3113 53.5324 64.03V64.965H49.8364C49.9171 65.3097 50.1041 65.5517 50.3974 65.691C50.6981 65.823 51.1051 65.889 51.6184 65.889C51.9044 65.889 52.1941 65.8633 52.4874 65.812C52.7881 65.7607 53.0374 65.6947 53.2354 65.614V66.769C52.9861 66.8863 52.6891 66.9707 52.3444 67.022C51.9998 67.0807 51.6221 67.11 51.2114 67.11ZM49.8364 63.942H51.9924V63.711C51.9924 63.4543 51.9154 63.2527 51.7614 63.106C51.6074 62.952 51.3471 62.875 50.9804 62.875C50.5551 62.875 50.2581 62.963 50.0894 63.139C49.9208 63.3077 49.8364 63.5753 49.8364 63.942Z" fill="#7B00FF"/>
<defs>
<filter id="filter0_d_356_3331" x="6.2334" y="9.82764" width="48.0098" height="44.8269" filterUnits="userSpaceOnUse" color-interpolation-filters="sRGB">
<feFlood flood-opacity="0" result="BackgroundImageFix"/>
<feColorMatrix in="SourceAlpha" type="matrix" values="0 0 0 0 0 0 0 0 0 0 0 0 0 0 0 0 0 0 127 0" result="hardAlpha"/>
<feOffset dy="4"/>
<feGaussianBlur stdDeviation="3"/>
<feComposite in2="hardAlpha" operator="out"/>
<feColorMatrix type="matrix" values="0 0 0 0 0 0 0 0 0 0 0 0 0 0 0 0 0 0 0.3 0"/>
<feBlend mode="normal" in2="BackgroundImageFix" result="effect1_dropShadow_356_3331"/>
<feBlend mode="normal" in="SourceGraphic" in2="effect1_dropShadow_356_3331" result="shape"/>
</filter>
</defs>
</svg>
