<svg width="65" height="84" viewBox="0 0 65 84" fill="none" xmlns="http://www.w3.org/2000/svg">
<path d="M12.693 67V59.916H13.925L16.169 64.503L18.402 59.916H19.634V67H18.446V61.863L16.532 65.779H15.806L13.881 61.863V67H12.693ZM23.6582 67.11C22.7489 67.11 22.0449 66.8863 21.5462 66.439C21.0475 65.9917 20.7982 65.306 20.7982 64.382C20.7982 63.546 21.0109 62.886 21.4362 62.402C21.8615 61.918 22.5069 61.676 23.3722 61.676C24.1642 61.676 24.7582 61.885 25.1542 62.303C25.5575 62.7137 25.7592 63.2453 25.7592 63.898V64.866H21.9422C22.0009 65.372 22.1842 65.7203 22.4922 65.911C22.8002 66.1017 23.2695 66.197 23.9002 66.197C24.1642 66.197 24.4355 66.1713 24.7142 66.12C24.9929 66.0687 25.2349 66.0027 25.4402 65.922V66.802C25.2055 66.9047 24.9342 66.9817 24.6262 67.033C24.3255 67.0843 24.0029 67.11 23.6582 67.11ZM21.9422 64.085H24.7032V63.722C24.7032 63.3627 24.6042 63.084 24.4062 62.886C24.2082 62.6807 23.8745 62.578 23.4052 62.578C22.8479 62.578 22.4629 62.699 22.2502 62.941C22.0449 63.183 21.9422 63.5643 21.9422 64.085ZM28.6107 67.11C28.2514 67.11 27.9067 67.0843 27.5767 67.033C27.254 66.9817 26.9864 66.9193 26.7737 66.846V65.834C27.023 65.9293 27.298 66.0027 27.5987 66.054C27.8994 66.1053 28.1854 66.131 28.4567 66.131C28.8674 66.131 29.1607 66.0943 29.3367 66.021C29.5127 65.9477 29.6007 65.8047 29.6007 65.592C29.6007 65.438 29.5457 65.317 29.4357 65.229C29.333 65.141 29.1754 65.0603 28.9627 64.987C28.7574 64.9137 28.4934 64.8257 28.1707 64.723C27.8627 64.6203 27.595 64.5103 27.3677 64.393C27.1404 64.2683 26.9644 64.1107 26.8397 63.92C26.715 63.7293 26.6527 63.48 26.6527 63.172C26.6527 62.6953 26.825 62.3287 27.1697 62.072C27.5144 61.808 28.068 61.676 28.8307 61.676C29.1314 61.676 29.4174 61.698 29.6887 61.742C29.96 61.786 30.191 61.841 30.3817 61.907V62.908C30.1764 62.8273 29.949 62.765 29.6997 62.721C29.4577 62.677 29.2304 62.655 29.0177 62.655C28.6364 62.655 28.3467 62.688 28.1487 62.754C27.958 62.82 27.8627 62.952 27.8627 63.15C27.8627 63.3553 27.9617 63.502 28.1597 63.59C28.365 63.6707 28.6914 63.7843 29.1387 63.931C29.5494 64.0557 29.8757 64.1877 30.1177 64.327C30.3597 64.4663 30.532 64.635 30.6347 64.833C30.7447 65.0237 30.7997 65.273 30.7997 65.581C30.7997 66.0943 30.6127 66.4793 30.2387 66.736C29.8647 66.9853 29.322 67.11 28.6107 67.11ZM33.4339 67.11C33.0746 67.11 32.7299 67.0843 32.3999 67.033C32.0773 66.9817 31.8096 66.9193 31.5969 66.846V65.834C31.8463 65.9293 32.1213 66.0027 32.4219 66.054C32.7226 66.1053 33.0086 66.131 33.2799 66.131C33.6906 66.131 33.9839 66.0943 34.1599 66.021C34.3359 65.9477 34.4239 65.8047 34.4239 65.592C34.4239 65.438 34.3689 65.317 34.2589 65.229C34.1563 65.141 33.9986 65.0603 33.7859 64.987C33.5806 64.9137 33.3166 64.8257 32.9939 64.723C32.6859 64.6203 32.4183 64.5103 32.1909 64.393C31.9636 64.2683 31.7876 64.1107 31.6629 63.92C31.5383 63.7293 31.4759 63.48 31.4759 63.172C31.4759 62.6953 31.6483 62.3287 31.9929 62.072C32.3376 61.808 32.8913 61.676 33.6539 61.676C33.9546 61.676 34.2406 61.698 34.5119 61.742C34.7833 61.786 35.0143 61.841 35.2049 61.907V62.908C34.9996 62.8273 34.7723 62.765 34.5229 62.721C34.2809 62.677 34.0536 62.655 33.8409 62.655C33.4596 62.655 33.1699 62.688 32.9719 62.754C32.7813 62.82 32.6859 62.952 32.6859 63.15C32.6859 63.3553 32.7849 63.502 32.9829 63.59C33.1883 63.6707 33.5146 63.7843 33.9619 63.931C34.3726 64.0557 34.6989 64.1877 34.9409 64.327C35.1829 64.4663 35.3553 64.635 35.4579 64.833C35.5679 65.0237 35.6229 65.273 35.6229 65.581C35.6229 66.0943 35.4359 66.4793 35.0619 66.736C34.6879 66.9853 34.1453 67.11 33.4339 67.11ZM38.2653 67.11C37.9353 67.11 37.6273 67.0513 37.3413 66.934C37.0627 66.8167 36.839 66.6407 36.6703 66.406C36.5017 66.164 36.4173 65.867 36.4173 65.515C36.4173 65.0163 36.586 64.6167 36.9233 64.316C37.268 64.008 37.796 63.854 38.5073 63.854H40.1793V63.623C40.1793 63.3737 40.139 63.1757 40.0583 63.029C39.985 62.8823 39.8457 62.776 39.6403 62.71C39.4423 62.644 39.149 62.611 38.7603 62.611C38.1443 62.611 37.5687 62.7027 37.0333 62.886V61.995C37.268 61.8997 37.554 61.8227 37.8913 61.764C38.2287 61.7053 38.5917 61.676 38.9803 61.676C39.743 61.676 40.3223 61.83 40.7183 62.138C41.1217 62.446 41.3233 62.9483 41.3233 63.645V67H40.3003L40.2233 66.472C40.0107 66.6773 39.7467 66.835 39.4313 66.945C39.1233 67.055 38.7347 67.11 38.2653 67.11ZM38.5843 66.252C38.9437 66.252 39.2553 66.1933 39.5193 66.076C39.7907 65.9513 40.0107 65.7863 40.1793 65.581V64.668H38.5293C38.1773 64.668 37.9207 64.7377 37.7593 64.877C37.6053 65.009 37.5283 65.2143 37.5283 65.493C37.5283 65.7643 37.62 65.9587 37.8033 66.076C37.9867 66.1933 38.247 66.252 38.5843 66.252ZM44.765 68.936C44.3763 68.936 43.9876 68.9103 43.599 68.859C43.2103 68.815 42.8803 68.7453 42.609 68.65V67.726C42.9023 67.8213 43.2396 67.8947 43.621 67.946C44.0023 67.9973 44.3653 68.023 44.71 68.023C45.238 68.023 45.623 67.9937 45.865 67.935C46.107 67.8763 46.228 67.7443 46.228 67.539C46.228 67.385 46.1693 67.275 46.052 67.209C45.9346 67.1503 45.711 67.121 45.381 67.121H43.973C43.027 67.121 42.554 66.7873 42.554 66.12C42.554 65.9073 42.6163 65.7093 42.741 65.526C42.8656 65.3427 43.0636 65.2033 43.335 65.108C43.0343 64.9613 42.8106 64.7597 42.664 64.503C42.5246 64.2463 42.455 63.9383 42.455 63.579C42.455 62.9117 42.653 62.4277 43.049 62.127C43.4523 61.8263 44.0536 61.676 44.853 61.676C45.0216 61.676 45.1976 61.6907 45.381 61.72C45.5643 61.742 45.7073 61.764 45.81 61.786H47.724L47.691 62.567H46.811C46.9503 62.6843 47.053 62.831 47.119 63.007C47.185 63.183 47.218 63.3737 47.218 63.579C47.218 64.1363 47.0493 64.5763 46.712 64.899C46.3746 65.2143 45.865 65.372 45.183 65.372C45.0656 65.372 44.9556 65.3683 44.853 65.361C44.7576 65.3463 44.6513 65.3317 44.534 65.317C44.314 65.339 44.116 65.3977 43.94 65.493C43.764 65.5883 43.676 65.7167 43.676 65.878C43.676 65.988 43.72 66.0687 43.808 66.12C43.896 66.164 44.0426 66.186 44.248 66.186H45.711C46.2316 66.186 46.6313 66.2997 46.91 66.527C47.196 66.747 47.339 67.0697 47.339 67.495C47.339 68.0083 47.1153 68.375 46.668 68.595C46.228 68.8223 45.5936 68.936 44.765 68.936ZM44.853 64.613C45.3296 64.613 45.6596 64.5323 45.843 64.371C46.0336 64.2097 46.129 63.9347 46.129 63.546C46.129 63.1573 46.0336 62.875 45.843 62.699C45.6596 62.523 45.3296 62.435 44.853 62.435C44.4056 62.435 44.0793 62.5193 43.874 62.688C43.6686 62.8567 43.566 63.1427 43.566 63.546C43.566 63.92 43.6613 64.1913 43.852 64.36C44.05 64.5287 44.3836 64.613 44.853 64.613ZM51.2764 67.11C50.367 67.11 49.663 66.8863 49.1644 66.439C48.6657 65.9917 48.4164 65.306 48.4164 64.382C48.4164 63.546 48.629 62.886 49.0544 62.402C49.4797 61.918 50.125 61.676 50.9904 61.676C51.7824 61.676 52.3764 61.885 52.7724 62.303C53.1757 62.7137 53.3774 63.2453 53.3774 63.898V64.866H49.5604C49.619 65.372 49.8024 65.7203 50.1104 65.911C50.4184 66.1017 50.8877 66.197 51.5184 66.197C51.7824 66.197 52.0537 66.1713 52.3324 66.12C52.611 66.0687 52.853 66.0027 53.0584 65.922V66.802C52.8237 66.9047 52.5524 66.9817 52.2444 67.033C51.9437 67.0843 51.621 67.11 51.2764 67.11ZM49.5604 64.085H52.3214V63.722C52.3214 63.3627 52.2224 63.084 52.0244 62.886C51.8264 62.6807 51.4927 62.578 51.0234 62.578C50.466 62.578 50.081 62.699 49.8684 62.941C49.663 63.183 49.5604 63.5643 49.5604 64.085Z" fill="#646466"/>
<path d="M39.6846 21C40.8572 21 41.9817 21.4658 42.8109 22.2949C43.64 23.1241 44.1058 24.2486 44.1058 25.4212V34.2635C44.1058 35.436 43.64 36.5606 42.8109 37.3897C41.9817 38.2188 40.8572 38.6846 39.6846 38.6846H34.4632L29.1999 41.8424C29.0413 41.9376 28.8615 41.9914 28.6768 41.9991C28.4921 42.0067 28.3084 41.9679 28.1426 41.8862C27.9768 41.8045 27.8341 41.6825 27.7276 41.5314C27.6211 41.3803 27.5542 41.2049 27.5331 41.0212L27.5264 40.8952V38.6846H26.4212C25.2869 38.6846 24.196 38.2487 23.3741 37.4669C22.5522 36.6851 22.0622 35.6174 22.0055 34.4845L22 34.2635V25.4212C22 24.2486 22.4658 23.1241 23.2949 22.2949C24.1241 21.4658 25.2486 21 26.4212 21H39.6846ZM35.2635 30.9476H28.6317C28.3386 30.9476 28.0575 31.0641 27.8502 31.2713C27.6429 31.4786 27.5264 31.7598 27.5264 32.0529C27.5264 32.346 27.6429 32.6272 27.8502 32.8344C28.0575 33.0417 28.3386 33.1582 28.6317 33.1582H35.2635C35.5566 33.1582 35.8377 33.0417 36.045 32.8344C36.2523 32.6272 36.3688 32.346 36.3688 32.0529C36.3688 31.7598 36.2523 31.4786 36.045 31.2713C35.8377 31.0641 35.5566 30.9476 35.2635 30.9476ZM37.474 26.5264H28.6317C28.3386 26.5264 28.0575 26.6429 27.8502 26.8502C27.6429 27.0575 27.5264 27.3386 27.5264 27.6317C27.5264 27.9249 27.6429 28.206 27.8502 28.4133C28.0575 28.6206 28.3386 28.737 28.6317 28.737H37.474C37.7672 28.737 38.0483 28.6206 38.2556 28.4133C38.4629 28.206 38.5793 27.9249 38.5793 27.6317C38.5793 27.3386 38.4629 27.0575 38.2556 26.8502C38.0483 26.6429 37.7672 26.5264 37.474 26.5264Z" fill="white" stroke="#646466"/>
</svg>
