<svg width="24" height="23" viewBox="0 0 24 23" fill="none" xmlns="http://www.w3.org/2000/svg">
<path d="M18.6846 1C19.8572 1 20.9817 1.4658 21.8109 2.29493C22.64 3.12405 23.1058 4.24859 23.1058 5.42116V14.2635C23.1058 15.436 22.64 16.5606 21.8109 17.3897C20.9817 18.2188 19.8572 18.6846 18.6846 18.6846H13.4632L8.19985 21.8424C8.04134 21.9376 7.86151 21.9914 7.6768 21.9991C7.4921 22.0067 7.30843 21.9679 7.1426 21.8862C6.97677 21.8045 6.83409 21.6825 6.7276 21.5314C6.62112 21.3803 6.55423 21.2049 6.53308 21.0212L6.52645 20.8952V18.6846H5.42116C4.28686 18.6846 3.19596 18.2487 2.37408 17.4669C1.55221 16.6851 1.06224 15.6174 1.00553 14.4845L1 14.2635V5.42116C1 4.24859 1.4658 3.12405 2.29493 2.29493C3.12405 1.4658 4.24859 1 5.42116 1H18.6846ZM14.2635 10.9476H7.63174C7.33859 10.9476 7.05746 11.0641 6.85018 11.2713C6.6429 11.4786 6.52645 11.7598 6.52645 12.0529C6.52645 12.346 6.6429 12.6272 6.85018 12.8344C7.05746 13.0417 7.33859 13.1582 7.63174 13.1582H14.2635C14.5566 13.1582 14.8377 13.0417 15.045 12.8344C15.2523 12.6272 15.3688 12.346 15.3688 12.0529C15.3688 11.7598 15.2523 11.4786 15.045 11.2713C14.8377 11.0641 14.5566 10.9476 14.2635 10.9476ZM16.474 6.52645H7.63174C7.33859 6.52645 7.05746 6.6429 6.85018 6.85018C6.6429 7.05746 6.52645 7.33859 6.52645 7.63174C6.52645 7.92488 6.6429 8.20601 6.85018 8.41329C7.05746 8.62057 7.33859 8.73702 7.63174 8.73702H16.474C16.7672 8.73702 17.0483 8.62057 17.2556 8.41329C17.4629 8.20601 17.5793 7.92488 17.5793 7.63174C17.5793 7.33859 17.4629 7.05746 17.2556 6.85018C17.0483 6.6429 16.7672 6.52645 16.474 6.52645Z" fill="white" stroke="#646466"/>
</svg>
