<svg width="42" height="50" viewBox="0 0 42 50" fill="none" xmlns="http://www.w3.org/2000/svg">
<g filter="url(#filter0_d_356_3366)">
<path d="M11.7223 15.586L12.2561 14.1539C12.8632 12.5251 14.01 11.1543 15.5049 10.275L16.1387 11.3525L15.5049 10.275C17 9.39562 18.751 9.06224 20.4614 9.33344L11.7223 15.586ZM11.7223 15.586L13.2318 15.825L18.0437 16.5872C18.0447 16.589 18.046 16.5929 18.0452 16.5982C18.0443 16.6035 18.0419 16.6068 18.0403 16.6082L13.1051 15.8265L11.8704 15.631L11.6749 16.8656L11.0833 20.601L10.8877 21.8356L12.1223 22.0312L17.0576 22.8129C17.0586 22.8147 17.06 22.8186 17.0591 22.8239C17.0583 22.8292 17.0558 22.8325 17.0543 22.8339L12.119 22.0522L10.8844 21.8567L10.6888 23.0913C10.376 25.0665 10.8536 27.0862 12.0199 28.7059C13.1865 30.326 14.9469 31.4132 16.9149 31.7249L18.1495 31.9204M11.7223 15.586L18.1495 31.9204M18.1495 31.9204L18.1462 31.9415L16.9116 31.7459C16.2533 31.6417 15.5823 31.8058 15.0463 32.1988C14.5106 32.5915 14.1532 33.1803 14.0496 33.8346C13.946 34.4889 14.1039 35.1593 14.492 35.6983C14.8804 36.2377 15.4678 36.6012 16.1261 36.7054L23.5337 37.8787C24.192 37.9829 24.863 37.8188 25.3991 37.4258C25.9347 37.0331 26.2921 36.4443 26.3957 35.79C26.4993 35.1357 26.3414 34.4653 25.9533 33.9263C25.5649 33.3869 24.9775 33.0234 24.3192 32.9192L23.0846 32.7236L23.088 32.7026L24.3226 32.8981C26.2906 33.2098 28.3008 32.7199 29.911 31.5395C31.5207 30.3595 32.599 28.5863 32.9118 26.6111L33.1074 25.3765L31.8728 25.1809L26.9375 24.3993C26.9365 24.3974 26.9352 24.3935 26.936 24.3882C26.9368 24.3829 26.9393 24.3796 26.9408 24.3782L31.8761 25.1599L33.1107 25.3554L33.3063 24.1208L33.8979 20.3854L34.0934 19.1508L32.8588 18.9552L27.9235 18.1736C27.9225 18.1717 27.9212 18.1679 27.922 18.1625C27.9229 18.1572 27.9253 18.1539 27.9269 18.1525L32.7387 18.9146L34.2482 19.1537L34.1831 17.6268C34.109 15.8901 33.4419 14.232 32.2919 12.9338C31.1418 11.6355 29.5795 10.7773 27.869 10.5067C27.8689 10.5067 27.8689 10.5067 27.8688 10.5067L20.4616 9.33348L18.1495 31.9204Z" fill="#7B00FF" stroke="white" stroke-width="2.5"/>
<path d="M12.9499 17.5302L12.95 17.5302L11.8299 14.8082L8.95691 14.1783L12.9499 17.5302ZM12.9499 17.5302L12.9542 17.5404M12.9499 17.5302L12.9542 17.5404M12.9542 17.5404C13.0667 17.8071 13.2393 18.0439 13.4584 18.2325C13.7598 18.5009 14.14 18.6651 14.5427 18.7002L14.5427 18.7003M12.9542 17.5404L14.5427 18.7003M8.04762 13.6899L8.04761 13.6899C7.79616 13.4453 7.6184 13.135 7.53453 12.7943C7.45066 12.4537 7.46404 12.0963 7.57315 11.7629C7.68226 11.4295 7.88272 11.1334 8.15175 10.9082C8.15175 10.9082 8.15176 10.9082 8.15177 10.9082L10.3835 9.04027L10.0855 6.13003L10.0846 6.12149L10.0839 6.11294C10.0539 5.77377 10.1168 5.43283 10.2658 5.1267C10.4149 4.82057 10.6445 4.56081 10.93 4.3753L10.9399 4.36891L10.9498 4.3627C11.2473 4.17729 11.5907 4.07896 11.9412 4.07887L11.9415 5.32887L11.9412 4.07887C12.2908 4.07879 12.6335 4.17645 12.9305 4.36079L15.4305 5.90575L18.0885 4.7263C18.4092 4.58313 18.7636 4.53287 19.1114 4.58126C19.4603 4.62981 19.7884 4.77563 20.0582 5.00204C20.328 5.22845 20.5286 5.52629 20.637 5.86143L19.4477 6.24606L20.637 5.86143C20.7446 6.19418 20.757 6.55035 20.6729 6.88968L19.9873 9.72038L21.944 11.9154C21.9446 11.9161 21.9452 11.9167 21.9458 11.9174C22.1789 12.1779 22.3346 12.4984 22.3952 12.8427C22.456 13.1879 22.4188 13.5432 22.2879 13.8683L22.2835 13.8792L22.2789 13.89C22.1458 14.2034 21.9299 14.4746 21.6543 14.6746L8.04762 13.6899ZM8.04762 13.6899C8.29852 13.934 8.61274 14.103 8.9547 14.1778L8.04762 13.6899ZM14.5427 18.7003L14.5556 18.7013C14.9124 18.7286 15.2696 18.6533 15.5849 18.4842C15.8974 18.3167 16.1559 18.064 16.3305 17.7556L17.7797 15.2383L20.6975 15.0264L20.7061 15.0258M14.5427 18.7003L20.7061 15.0258M20.7061 15.0258L20.7146 15.025M20.7061 15.0258L20.7146 15.025M20.7146 15.025C21.0538 14.9957 21.3787 14.8745 21.6543 14.6746L20.7146 15.025Z" fill="#F6B354" stroke="white" stroke-width="2.5"/>
</g>
<path d="M13.4284 14.5899L18.2434 15.3526C18.5708 15.4044 18.864 15.5853 19.0586 15.8555C19.2531 16.1257 19.3331 16.463 19.2808 16.7932C19.2284 17.1235 19.0482 17.4196 18.7797 17.6164C18.5112 17.8133 18.1764 17.8947 17.8489 17.8428L12.9105 17.0607L12.3189 20.7961L17.2573 21.5783C17.5847 21.6301 17.878 21.811 18.0725 22.0812C18.2671 22.3514 18.347 22.6887 18.2947 23.0189C18.2424 23.3492 18.0622 23.6453 17.7936 23.8421C17.5251 24.0389 17.1903 24.1204 16.8629 24.0685L11.9244 23.2864C11.6629 24.9375 12.0625 26.6241 13.0352 27.975C14.008 29.3259 15.4742 30.2305 17.1114 30.4898L19.5807 30.8808L19.1862 33.3711L16.717 32.98C16.3896 32.9282 16.0548 33.0096 15.7863 33.2065C15.5177 33.4033 15.3375 33.6994 15.2852 34.0296C15.2329 34.3599 15.3128 34.6972 15.5074 34.9674C15.7019 35.2375 15.9952 35.4185 16.3226 35.4703L23.7303 36.6436C24.0577 36.6954 24.3925 36.614 24.661 36.4172C24.9295 36.2203 25.1098 35.9242 25.1621 35.594C25.2144 35.2637 25.1345 34.9264 24.9399 34.6563C24.7454 34.3861 24.4521 34.2052 24.1247 34.1533L21.6555 33.7622L22.0499 31.2719L24.5191 31.663C26.1563 31.9223 27.8303 31.5151 29.1729 30.5309C30.5155 29.5467 31.4167 28.0662 31.6782 26.415L26.7398 25.6329C26.4123 25.581 26.1191 25.4001 25.9245 25.1299C25.73 24.8597 25.6501 24.5224 25.7024 24.1922C25.7547 23.862 25.9349 23.5659 26.2034 23.369C26.4719 23.1722 26.8067 23.0907 27.1342 23.1426L32.0726 23.9248L32.6643 20.1894L27.7258 19.4072C27.3984 19.3553 27.1051 19.1744 26.9106 18.9042C26.716 18.634 26.6361 18.2967 26.6884 17.9665C26.7407 17.6363 26.921 17.3402 27.1895 17.1433C27.458 16.9465 27.7928 16.8651 28.1202 16.9169L32.9352 17.6795C32.8733 16.2282 32.3159 14.8444 31.3572 13.7622C30.3986 12.68 29.0976 11.9659 27.6745 11.7408L20.2668 10.5676C18.8438 10.3419 17.3858 10.619 16.1397 11.352C14.8935 12.085 13.9357 13.2288 13.4284 14.5899Z" fill="#7B00FF"/>
<path d="M14.4656 17.292C14.3888 17.2281 14.3284 17.1467 14.2895 17.0546L12.9204 13.7273L9.406 12.9568C9.29173 12.932 9.18672 12.8756 9.1029 12.794C9.01909 12.7125 8.95984 12.609 8.93188 12.4955C8.90392 12.3819 8.90838 12.2628 8.94475 12.1517C8.98112 12.0405 9.04795 11.9418 9.13762 11.8668L11.8782 9.57299L11.5126 6.0027C11.5026 5.88964 11.5236 5.77599 11.5733 5.67395C11.6229 5.57191 11.6995 5.48532 11.7947 5.42348C11.8938 5.36168 12.0083 5.3289 12.1251 5.32887C12.242 5.32884 12.3565 5.36157 12.4557 5.42333L15.5181 7.31587L18.7808 5.86811C18.8879 5.82006 19.0064 5.80316 19.1227 5.81934C19.239 5.83552 19.3484 5.88413 19.4383 5.9596C19.5283 6.03507 19.5951 6.13435 19.6313 6.24606C19.6674 6.35777 19.6713 6.47741 19.6426 6.59125L18.8018 10.063L21.1974 12.7503C21.2754 12.8373 21.3275 12.9444 21.3478 13.0594C21.368 13.1745 21.3556 13.2929 21.312 13.4013C21.2676 13.5058 21.1956 13.5962 21.1038 13.6628C21.0119 13.7295 20.9036 13.7699 20.7906 13.7797L17.211 14.0396L15.428 17.1369C15.3698 17.241 15.283 17.3262 15.1778 17.3826C15.0727 17.4389 14.9537 17.464 14.8347 17.4549C14.6971 17.4429 14.5672 17.3857 14.4656 17.292Z" fill="#F6B354"/>
<defs>
<filter id="filter0_d_356_3366" x="0.230469" y="0.828857" width="41.332" height="48.3306" filterUnits="userSpaceOnUse" color-interpolation-filters="sRGB">
<feFlood flood-opacity="0" result="BackgroundImageFix"/>
<feColorMatrix in="SourceAlpha" type="matrix" values="0 0 0 0 0 0 0 0 0 0 0 0 0 0 0 0 0 0 127 0" result="hardAlpha"/>
<feOffset dy="4"/>
<feGaussianBlur stdDeviation="3"/>
<feComposite in2="hardAlpha" operator="out"/>
<feColorMatrix type="matrix" values="0 0 0 0 0 0 0 0 0 0 0 0 0 0 0 0 0 0 0.3 0"/>
<feBlend mode="normal" in2="BackgroundImageFix" result="effect1_dropShadow_356_3366"/>
<feBlend mode="normal" in="SourceGraphic" in2="effect1_dropShadow_356_3366" result="shape"/>
</filter>
</defs>
</svg>
