<svg width="21" height="26" viewBox="0 0 21 26" fill="none" xmlns="http://www.w3.org/2000/svg">
<path d="M1.11899 5.8H5.75942C6.07499 5.8 6.37763 5.92643 6.60077 6.15147C6.82391 6.37652 6.94927 6.68174 6.94927 7C6.94927 7.31826 6.82391 7.62348 6.60077 7.84853C6.37763 8.07357 6.07499 8.2 5.75942 8.2H1V11.8H5.75942C6.07499 11.8 6.37763 11.9264 6.60077 12.1515C6.82391 12.3765 6.94927 12.6817 6.94927 13C6.94927 13.3183 6.82391 13.6235 6.60077 13.8485C6.37763 14.0736 6.07499 14.2 5.75942 14.2H1C1 15.7913 1.6268 17.3174 2.7425 18.4426C3.85821 19.5679 5.37143 20.2 6.94927 20.2H9.32898V22.6H6.94927C6.6337 22.6 6.33106 22.7264 6.10792 22.9515C5.88478 23.1765 5.75942 23.4817 5.75942 23.8C5.75942 24.1183 5.88478 24.4235 6.10792 24.6485C6.33106 24.8736 6.6337 25 6.94927 25H14.0884C14.404 25 14.7066 24.8736 14.9298 24.6485C15.1529 24.4235 15.2783 24.1183 15.2783 23.8C15.2783 23.4817 15.1529 23.1765 14.9298 22.9515C14.7066 22.7264 14.404 22.6 14.0884 22.6H11.7087V20.2H14.0884C15.6662 20.2 17.1795 19.5679 18.2952 18.4426C19.4109 17.3174 20.0377 15.7913 20.0377 14.2H15.2783C14.9627 14.2 14.66 14.0736 14.4369 13.8485C14.2138 13.6235 14.0884 13.3183 14.0884 13C14.0884 12.6817 14.2138 12.3765 14.4369 12.1515C14.66 11.9264 14.9627 11.8 15.2783 11.8H20.0377V8.2H15.2783C14.9627 8.2 14.66 8.07357 14.4369 7.84853C14.2138 7.62348 14.0884 7.31826 14.0884 7C14.0884 6.68174 14.2138 6.37652 14.4369 6.15147C14.66 5.92643 14.9627 5.8 15.2783 5.8H19.9187C19.6444 4.44476 18.9142 3.22673 17.8518 2.35203C16.7894 1.47734 15.4599 0.999718 14.0884 1H6.94927C5.57778 0.999718 4.24832 1.47734 3.18588 2.35203C2.12344 3.22673 1.39328 4.44476 1.11899 5.8Z" fill="white" stroke="#646466"/>
</svg>
