<svg width="46" height="59" viewBox="0 0 46 59" fill="none" xmlns="http://www.w3.org/2000/svg">
<g filter="url(#filter0_d_682_14999)">
<path d="M41 24.7273L41 24.7271C41 24.1805 40.7778 23.6512 40.374 23.2572C39.9694 22.8623 39.4157 22.6362 38.8333 22.6362C38.251 22.6362 37.6972 22.8623 37.2927 23.2572C36.8889 23.6512 36.6667 24.1805 36.6667 24.7271C36.6667 28.2793 35.2208 31.681 32.6552 34.1852C30.0904 36.6886 26.6169 38.0908 23 38.0908C19.3831 38.0908 15.9096 36.6886 13.3448 34.1852C10.7792 31.681 9.33333 28.2793 9.33333 24.7271C9.33333 24.1805 9.11109 23.6512 8.70734 23.2572C8.30277 22.8623 7.74901 22.6362 7.16666 22.6362C6.58432 22.6362 6.03056 22.8623 5.62599 23.2572C5.22224 23.6512 5 24.1805 5 24.7271L5 24.7273C4.99935 28.8673 6.50082 32.8772 9.24361 36.0454C11.9869 39.2141 15.7954 41.3363 19.9961 42.0294L20.8333 42.1675L20.8333 43.016L20.8333 47.909C20.8333 48.4556 21.0556 48.9849 21.4593 49.379C21.8639 49.7738 22.4177 49.9999 23 49.9999C23.5823 49.9999 24.1361 49.7738 24.5407 49.379C24.9444 48.9849 25.1667 48.4556 25.1667 47.909L25.1667 43.016L25.1667 42.1675L26.0039 42.0294C30.2046 41.3363 34.0131 39.2141 36.7564 36.0454C39.4992 32.8772 41.0007 28.8673 41 24.7273Z" fill="url(#paint0_linear_682_14999)" stroke="white" stroke-width="2"/>
<path d="M31.5 9.27273C31.5 7.08659 30.6105 4.98494 29.019 3.43153C27.4267 1.87733 25.262 1 23 1C20.738 1 18.5733 1.87733 16.981 3.43153C15.3895 4.98494 14.5 7.08659 14.5 9.27273L14.5 24.7273C14.5 26.9134 15.3895 29.0151 16.981 30.5685C18.5733 32.1227 20.738 33 23 33C25.262 33 27.4267 32.1227 29.019 30.5685C30.6105 29.0151 31.5 26.9134 31.5 24.7273L31.5 9.27273Z" fill="url(#paint1_linear_682_14999)" stroke="white" stroke-width="2"/>
</g>
<defs>
<filter id="filter0_d_682_14999" x="0" y="0" width="46" height="59" filterUnits="userSpaceOnUse" color-interpolation-filters="sRGB">
<feFlood flood-opacity="0" result="BackgroundImageFix"/>
<feColorMatrix in="SourceAlpha" type="matrix" values="0 0 0 0 0 0 0 0 0 0 0 0 0 0 0 0 0 0 127 0" result="hardAlpha"/>
<feOffset dy="4"/>
<feGaussianBlur stdDeviation="2"/>
<feComposite in2="hardAlpha" operator="out"/>
<feColorMatrix type="matrix" values="0 0 0 0 0 0 0 0 0 0 0 0 0 0 0 0 0 0 0.25 0"/>
<feBlend mode="normal" in2="BackgroundImageFix" result="effect1_dropShadow_682_14999"/>
<feBlend mode="normal" in="SourceGraphic" in2="effect1_dropShadow_682_14999" result="shape"/>
</filter>
<linearGradient id="paint0_linear_682_14999" x1="42" y1="9.27259" x2="23.7644" y2="52.8651" gradientUnits="userSpaceOnUse">
<stop stop-color="#CAD2D9"/>
<stop offset="1" stop-color="#70777D"/>
</linearGradient>
<linearGradient id="paint1_linear_682_14999" x1="37.25" y1="-7.72727" x2="19.0739" y2="52.7929" gradientUnits="userSpaceOnUse">
<stop offset="0.384982" stop-color="#B5B4F2"/>
<stop offset="1" stop-color="#A2E4FA"/>
</linearGradient>
</defs>
</svg>
