<svg width="65" height="84" viewBox="0 0 65 84" fill="none" xmlns="http://www.w3.org/2000/svg">
<path d="M13.693 67V59.916H14.925L17.169 64.503L19.402 59.916H20.634V67H19.446V61.863L17.532 65.779H16.806L14.881 61.863V67H13.693ZM22.8085 68.936C22.4125 68.936 22.0751 68.8847 21.7965 68.782V67.891C21.9211 67.935 22.0348 67.9643 22.1375 67.979C22.2475 67.9937 22.3575 68.001 22.4675 68.001C22.6948 68.001 22.8781 67.9643 23.0175 67.891C23.1568 67.8177 23.2778 67.7003 23.3805 67.539C23.4905 67.385 23.6078 67.1833 23.7325 66.934L21.4115 61.786H22.6545L24.3265 65.658L26.0205 61.786H27.2525L25.1295 66.703C24.9461 67.143 24.7481 67.528 24.5355 67.858C24.3301 68.1953 24.0881 68.4593 23.8095 68.65C23.5381 68.8407 23.2045 68.936 22.8085 68.936ZM28.2057 67V59.916H31.3627C31.9054 59.916 32.3527 60.0187 32.7047 60.224C33.0567 60.4293 33.317 60.7117 33.4857 61.071C33.6544 61.423 33.7387 61.8263 33.7387 62.281C33.7387 62.985 33.5187 63.5497 33.0787 63.975C32.646 64.4003 32.0594 64.613 31.3187 64.613H29.4047V67H28.2057ZM29.4047 63.667H31.0987C31.5754 63.667 31.9347 63.5423 32.1767 63.293C32.4187 63.0437 32.5397 62.7063 32.5397 62.281C32.5397 61.8263 32.4224 61.4743 32.1877 61.225C31.9604 60.9757 31.6157 60.851 31.1537 60.851H29.4047V63.667ZM36.1071 67.11C35.7771 67.11 35.4691 67.0513 35.1831 66.934C34.9045 66.8167 34.6808 66.6407 34.5121 66.406C34.3435 66.164 34.2591 65.867 34.2591 65.515C34.2591 65.0163 34.4278 64.6167 34.7651 64.316C35.1098 64.008 35.6378 63.854 36.3491 63.854H38.0211V63.623C38.0211 63.3737 37.9808 63.1757 37.9001 63.029C37.8268 62.8823 37.6875 62.776 37.4821 62.71C37.2841 62.644 36.9908 62.611 36.6021 62.611C35.9861 62.611 35.4105 62.7027 34.8751 62.886V61.995C35.1098 61.8997 35.3958 61.8227 35.7331 61.764C36.0705 61.7053 36.4335 61.676 36.8221 61.676C37.5848 61.676 38.1641 61.83 38.5601 62.138C38.9635 62.446 39.1651 62.9483 39.1651 63.645V67H38.1421L38.0651 66.472C37.8525 66.6773 37.5885 66.835 37.2731 66.945C36.9651 67.055 36.5765 67.11 36.1071 67.11ZM36.4261 66.252C36.7855 66.252 37.0971 66.1933 37.3611 66.076C37.6325 65.9513 37.8525 65.7863 38.0211 65.581V64.668H36.3711C36.0191 64.668 35.7625 64.7377 35.6011 64.877C35.4471 65.009 35.3701 65.2143 35.3701 65.493C35.3701 65.7643 35.4618 65.9587 35.6451 66.076C35.8285 66.1933 36.0888 66.252 36.4261 66.252ZM42.6068 68.936C42.2181 68.936 41.8294 68.9103 41.4408 68.859C41.0521 68.815 40.7221 68.7453 40.4508 68.65V67.726C40.7441 67.8213 41.0814 67.8947 41.4628 67.946C41.8441 67.9973 42.2071 68.023 42.5518 68.023C43.0798 68.023 43.4648 67.9937 43.7068 67.935C43.9488 67.8763 44.0698 67.7443 44.0698 67.539C44.0698 67.385 44.0111 67.275 43.8938 67.209C43.7764 67.1503 43.5528 67.121 43.2228 67.121H41.8148C40.8688 67.121 40.3958 66.7873 40.3958 66.12C40.3958 65.9073 40.4581 65.7093 40.5828 65.526C40.7074 65.3427 40.9054 65.2033 41.1768 65.108C40.8761 64.9613 40.6524 64.7597 40.5058 64.503C40.3664 64.2463 40.2968 63.9383 40.2968 63.579C40.2968 62.9117 40.4948 62.4277 40.8908 62.127C41.2941 61.8263 41.8954 61.676 42.6948 61.676C42.8634 61.676 43.0394 61.6907 43.2228 61.72C43.4061 61.742 43.5491 61.764 43.6518 61.786H45.5658L45.5328 62.567H44.6528C44.7921 62.6843 44.8948 62.831 44.9608 63.007C45.0268 63.183 45.0598 63.3737 45.0598 63.579C45.0598 64.1363 44.8911 64.5763 44.5538 64.899C44.2164 65.2143 43.7068 65.372 43.0248 65.372C42.9074 65.372 42.7974 65.3683 42.6948 65.361C42.5994 65.3463 42.4931 65.3317 42.3758 65.317C42.1558 65.339 41.9578 65.3977 41.7818 65.493C41.6058 65.5883 41.5178 65.7167 41.5178 65.878C41.5178 65.988 41.5618 66.0687 41.6498 66.12C41.7378 66.164 41.8844 66.186 42.0898 66.186H43.5528C44.0734 66.186 44.4731 66.2997 44.7518 66.527C45.0378 66.747 45.1808 67.0697 45.1808 67.495C45.1808 68.0083 44.9571 68.375 44.5098 68.595C44.0698 68.8223 43.4354 68.936 42.6068 68.936ZM42.6948 64.613C43.1714 64.613 43.5014 64.5323 43.6848 64.371C43.8754 64.2097 43.9708 63.9347 43.9708 63.546C43.9708 63.1573 43.8754 62.875 43.6848 62.699C43.5014 62.523 43.1714 62.435 42.6948 62.435C42.2474 62.435 41.9211 62.5193 41.7158 62.688C41.5104 62.8567 41.4078 63.1427 41.4078 63.546C41.4078 63.92 41.5031 64.1913 41.6938 64.36C41.8918 64.5287 42.2254 64.613 42.6948 64.613ZM49.1182 67.11C48.2088 67.11 47.5048 66.8863 47.0062 66.439C46.5075 65.9917 46.2582 65.306 46.2582 64.382C46.2582 63.546 46.4708 62.886 46.8962 62.402C47.3215 61.918 47.9668 61.676 48.8322 61.676C49.6242 61.676 50.2182 61.885 50.6142 62.303C51.0175 62.7137 51.2192 63.2453 51.2192 63.898V64.866H47.4022C47.4608 65.372 47.6442 65.7203 47.9522 65.911C48.2602 66.1017 48.7295 66.197 49.3602 66.197C49.6242 66.197 49.8955 66.1713 50.1742 66.12C50.4528 66.0687 50.6948 66.0027 50.9002 65.922V66.802C50.6655 66.9047 50.3942 66.9817 50.0862 67.033C49.7855 67.0843 49.4628 67.11 49.1182 67.11ZM47.4022 64.085H50.1632V63.722C50.1632 63.3627 50.0642 63.084 49.8662 62.886C49.6682 62.6807 49.3345 62.578 48.8652 62.578C48.3078 62.578 47.9228 62.699 47.7102 62.941C47.5048 63.183 47.4022 63.5643 47.4022 64.085Z" fill="#646466"/>
<path d="M32.974 30.4559C35.8613 30.4559 38.202 28.1152 38.202 25.2279C38.202 22.3406 35.8613 20 32.974 20C30.0867 20 27.7461 22.3406 27.7461 25.2279C27.7461 28.1152 30.0867 30.4559 32.974 30.4559Z" fill="white" stroke="#646466"/>
<path d="M22 38.7228C22 37.0608 22.5781 35.4668 23.6071 34.2915C24.6361 33.1163 26.0318 32.4561 27.487 32.4561H38.461C39.9163 32.4561 41.3119 33.1163 42.3409 34.2915C43.3699 35.4668 43.948 37.0608 43.948 38.7228C43.948 39.5539 43.659 40.3508 43.1445 40.9385C42.63 41.5261 41.9322 41.8562 41.2045 41.8562H24.7435C24.0159 41.8562 23.3181 41.5261 22.8036 40.9385C22.289 40.3508 22 39.5539 22 38.7228Z" fill="white" stroke="#646466" stroke-linejoin="round"/>
</svg>
