<svg width="65" height="84" viewBox="0 0 65 84" fill="none" xmlns="http://www.w3.org/2000/svg">
<g filter="url(#filter0_d_356_3275)">
<path d="M23.4138 29.82C21.8249 31.1436 20.7667 33.0804 20.4322 35.1922C20.2429 36.3873 20.4712 37.6267 21.1084 38.6384C21.7494 39.6561 22.7632 40.3701 23.9502 40.5582L42.1084 43.4341C43.2955 43.6221 44.4803 43.2563 45.4044 42.4865C46.323 41.7212 46.9231 40.613 47.1124 39.4179C47.4469 37.3062 47.039 35.1371 45.9369 33.3873C44.831 31.6315 43.1052 30.4314 41.1155 30.1162L29.01 28.1989C27.0203 27.8838 25.0081 28.4919 23.4138 29.82Z" fill="#7B00FF" stroke="white" stroke-width="2.5" stroke-linejoin="round"/>
<path d="M34.8472 30.3609C38.714 30.9733 42.3452 28.3351 42.9577 24.4683C43.5701 20.6014 40.9319 16.9702 37.065 16.3577C33.1982 15.7453 29.567 18.3835 28.9545 22.2504C28.3421 26.1172 30.9803 29.7484 34.8472 30.3609Z" fill="#7B00FF" stroke="white" stroke-width="2.5"/>
<path d="M24.9499 26.5307L24.95 26.5307L23.8299 23.8087L20.9569 23.1788L24.9499 26.5307ZM24.9499 26.5307L24.9542 26.5409M24.9499 26.5307L24.9542 26.5409M24.9542 26.5409C25.0667 26.8075 25.2393 27.0444 25.4584 27.233C25.7598 27.5014 26.14 27.6656 26.5427 27.7007L26.5427 27.7008M24.9542 26.5409L26.5427 27.7008M20.0476 22.6904L20.0476 22.6904C19.7962 22.4457 19.6184 22.1355 19.5345 21.7948C19.4507 21.4542 19.464 21.0968 19.5732 20.7634C19.6823 20.43 19.8827 20.1338 20.1517 19.9087C20.1518 19.9087 20.1518 19.9087 20.1518 19.9087L22.3835 18.0408L22.0855 15.1305L22.0846 15.122L22.0839 15.1134C22.0539 14.7743 22.1168 14.4333 22.2658 14.1272C22.4149 13.8211 22.6445 13.5613 22.93 13.3758L22.9399 13.3694L22.9498 13.3632C23.2473 13.1778 23.5907 13.0794 23.9412 13.0794L23.9415 14.3294L23.9412 13.0794C24.2908 13.0793 24.6335 13.1769 24.9305 13.3613L27.4305 14.9062L30.0885 13.7268C30.4092 13.5836 30.7636 13.5334 31.1114 13.5818C31.4603 13.6303 31.7884 13.7761 32.0582 14.0025C32.328 14.2289 32.5286 14.5268 32.637 14.8619L31.4477 15.2465L32.637 14.8619C32.7446 15.1947 32.757 15.5508 32.6729 15.8902L31.9873 18.7209L33.944 20.9159C33.9446 20.9165 33.9452 20.9172 33.9458 20.9179C34.1789 21.1784 34.3346 21.4988 34.3952 21.8432C34.456 22.1883 34.4188 22.5437 34.2879 22.8688L34.2835 22.8797L34.2789 22.8905C34.1458 23.2039 33.9299 23.4751 33.6543 23.6751L20.0476 22.6904ZM20.0476 22.6904C20.2985 22.9345 20.6127 23.1035 20.9547 23.1783L20.0476 22.6904ZM26.5427 27.7008L26.5556 27.7018C26.9124 27.7291 27.2696 27.6538 27.5849 27.4847C27.8974 27.3172 28.1559 27.0645 28.3305 26.7561L29.7797 24.2387L32.6975 24.0269L32.7061 24.0262M26.5427 27.7008L32.7061 24.0262M32.7061 24.0262L32.7146 24.0255M32.7061 24.0262L32.7146 24.0255M32.7146 24.0255C33.0538 23.9962 33.3787 23.875 33.6543 23.6751L32.7146 24.0255Z" fill="#F6B354" stroke="white" stroke-width="2.5"/>
</g>
<path d="M21.6658 35.3878C21.9562 33.5543 22.8724 31.897 24.2129 30.7804C25.5533 29.6637 27.2082 29.1793 28.8135 29.4335L40.919 31.3508C42.5243 31.6051 43.9485 32.5772 44.8782 34.0535C45.808 35.5297 46.1672 37.389 45.8768 39.2224C45.7316 40.1391 45.2735 40.9678 44.6033 41.5261C43.9331 42.0844 43.1057 42.3267 42.303 42.1995L24.1448 39.3235C23.3421 39.1964 22.63 38.7103 22.1651 37.9722C21.7003 37.2341 21.5207 36.3045 21.6658 35.3878Z" fill="#7B00FF"/>
<path d="M35.0417 29.1263C38.2267 29.6307 41.2176 27.4577 41.7221 24.2727C42.2265 21.0877 40.0535 18.0968 36.8685 17.5924C33.6835 17.0879 30.6926 19.2609 30.1882 22.4459C29.6837 25.6309 31.8567 28.6218 35.0417 29.1263Z" fill="#7B00FF"/>
<path d="M26.4646 26.2925C26.3878 26.2286 26.3274 26.1471 26.2886 26.0551L24.9194 22.7278L21.405 21.9573C21.2908 21.9324 21.1857 21.876 21.1019 21.7945C21.0181 21.7129 20.9589 21.6095 20.9309 21.496C20.9029 21.3824 20.9074 21.2633 20.9438 21.1522C20.9801 21.041 21.047 20.9423 21.1366 20.8672L23.8772 18.5735L23.5116 15.0032C23.5016 14.8901 23.5226 14.7765 23.5723 14.6744C23.622 14.5724 23.6985 14.4858 23.7937 14.424C23.8928 14.3622 24.0073 14.3294 24.1242 14.3294C24.241 14.3293 24.3555 14.3621 24.4547 14.4238L27.5172 16.3164L30.7798 14.8686C30.887 14.8206 31.0055 14.8036 31.1217 14.8198C31.238 14.836 31.3474 14.8846 31.4374 14.9601C31.5273 15.0356 31.5942 15.1348 31.6303 15.2465C31.6664 15.3583 31.6703 15.4779 31.6416 15.5917L30.8008 19.0635L33.1964 21.7508C33.2744 21.8378 33.3265 21.9449 33.3468 22.0599C33.3671 22.175 33.3547 22.2934 33.311 22.4018C33.2666 22.5063 33.1947 22.5967 33.1028 22.6633C33.0109 22.73 32.9027 22.7704 32.7896 22.7801L29.21 23.0401L27.427 26.1373C27.3688 26.2414 27.282 26.3267 27.1769 26.3831C27.0717 26.4394 26.9527 26.4645 26.8338 26.4554C26.6961 26.4434 26.5663 26.3861 26.4646 26.2925Z" fill="#F6B354"/>
<path d="M13.561 67V59.916H15.31L17.235 63.843L19.149 59.916H20.887V67H19.116V62.93L17.719 65.79H16.74L15.332 62.93V67H13.561ZM23.1686 68.936C22.9046 68.936 22.6773 68.9213 22.4866 68.892C22.3033 68.87 22.12 68.8223 21.9366 68.749V67.517C22.0613 67.561 22.175 67.5903 22.2776 67.605C22.3876 67.6197 22.4976 67.627 22.6076 67.627C22.9083 67.627 23.132 67.572 23.2786 67.462C23.4326 67.3593 23.5866 67.1723 23.7406 66.901L21.3976 61.786H23.2566L24.6316 65.097L25.9846 61.786H27.8326L25.8416 66.571C25.6436 67.0477 25.4236 67.462 25.1816 67.814C24.9396 68.1733 24.6573 68.4483 24.3346 68.639C24.012 68.837 23.6233 68.936 23.1686 68.936ZM28.5141 67V59.916H32.0011C32.5658 59.916 33.0315 60.0297 33.3981 60.257C33.7648 60.477 34.0361 60.7777 34.2121 61.159C34.3955 61.5403 34.4871 61.9693 34.4871 62.446C34.4871 62.93 34.3845 63.359 34.1791 63.733C33.9738 64.107 33.6805 64.4003 33.2991 64.613C32.9251 64.8183 32.4778 64.921 31.9571 64.921H30.2851V67H28.5141ZM30.2851 63.557H31.5611C31.9351 63.557 32.2138 63.4543 32.3971 63.249C32.5878 63.0437 32.6831 62.7723 32.6831 62.435C32.6831 62.0683 32.5951 61.786 32.4191 61.588C32.2505 61.3827 31.9828 61.28 31.6161 61.28H30.2851V63.557ZM36.5982 67.11C36.2682 67.11 35.9602 67.0513 35.6742 66.934C35.3955 66.8167 35.1718 66.637 35.0032 66.395C34.8345 66.1457 34.7502 65.8377 34.7502 65.471C34.7502 64.9357 34.9298 64.5177 35.2892 64.217C35.6558 63.909 36.2022 63.755 36.9282 63.755H38.3802V63.634C38.3802 63.37 38.2922 63.183 38.1162 63.073C37.9402 62.9557 37.6102 62.897 37.1262 62.897C36.5322 62.897 35.9492 62.9887 35.3772 63.172V62.028C35.6338 61.9253 35.9455 61.841 36.3122 61.775C36.6862 61.709 37.0785 61.676 37.4892 61.676C38.2958 61.676 38.9265 61.841 39.3812 62.171C39.8432 62.501 40.0742 63.0253 40.0742 63.744V67H38.5232L38.4352 66.56C38.2445 66.736 37.9988 66.8717 37.6982 66.967C37.4048 67.0623 37.0382 67.11 36.5982 67.11ZM37.1592 66.021C37.4378 66.021 37.6798 65.9733 37.8852 65.878C38.0905 65.7827 38.2555 65.6617 38.3802 65.515V64.778H37.1262C36.6055 64.778 36.3452 64.987 36.3452 65.405C36.3452 65.5957 36.4112 65.746 36.5432 65.856C36.6752 65.966 36.8805 66.021 37.1592 66.021ZM43.3802 68.936C43.1235 68.936 42.8522 68.925 42.5662 68.903C42.2802 68.881 42.0089 68.848 41.7522 68.804C41.4955 68.76 41.2755 68.7087 41.0922 68.65V67.44C41.3855 67.5353 41.7375 67.6087 42.1482 67.66C42.5589 67.7113 42.9365 67.737 43.2812 67.737C43.7285 67.737 44.0622 67.7113 44.2822 67.66C44.5095 67.616 44.6232 67.5353 44.6232 67.418C44.6232 67.3153 44.5792 67.2457 44.4912 67.209C44.4032 67.1723 44.2309 67.154 43.9742 67.154H42.5332C42.0639 67.154 41.6972 67.0697 41.4332 66.901C41.1765 66.7323 41.0482 66.4867 41.0482 66.164C41.0482 65.944 41.1142 65.735 41.2462 65.537C41.3855 65.339 41.5872 65.1923 41.8512 65.097C41.5505 64.943 41.3232 64.7487 41.1692 64.514C41.0152 64.2793 40.9382 63.9823 40.9382 63.623C40.9382 62.9483 41.1545 62.457 41.5872 62.149C42.0272 61.8337 42.6689 61.676 43.5122 61.676C43.6882 61.676 43.8825 61.6907 44.0952 61.72C44.3152 61.742 44.4765 61.764 44.5792 61.786H46.5812L46.5372 62.886H45.7782C45.9615 63.0693 46.0532 63.3407 46.0532 63.7C46.0532 64.206 45.8882 64.613 45.5582 64.921C45.2355 65.229 44.7442 65.383 44.0842 65.383C43.9742 65.383 43.8642 65.3793 43.7542 65.372C43.6515 65.3573 43.5489 65.3463 43.4462 65.339C43.2555 65.361 43.0905 65.4013 42.9512 65.46C42.8192 65.5187 42.7532 65.603 42.7532 65.713C42.7532 65.801 42.7862 65.8597 42.8522 65.889C42.9255 65.9183 43.0319 65.933 43.1712 65.933H44.5022C45.0375 65.933 45.4519 66.0577 45.7452 66.307C46.0459 66.549 46.1962 66.9047 46.1962 67.374C46.1962 68.4153 45.2575 68.936 43.3802 68.936ZM43.5232 64.404C43.9119 64.404 44.1795 64.338 44.3262 64.206C44.4729 64.074 44.5462 63.854 44.5462 63.546C44.5462 63.238 44.4692 63.0143 44.3152 62.875C44.1685 62.7357 43.9045 62.666 43.5232 62.666C43.1639 62.666 42.9035 62.7357 42.7422 62.875C42.5882 63.007 42.5112 63.2307 42.5112 63.546C42.5112 63.8393 42.5845 64.0557 42.7312 64.195C42.8779 64.3343 43.1419 64.404 43.5232 64.404ZM50.1284 67.11C49.2191 67.11 48.4894 66.8863 47.9394 66.439C47.3894 65.9843 47.1144 65.3023 47.1144 64.393C47.1144 63.5643 47.3418 62.9043 47.7964 62.413C48.2511 61.9217 48.9331 61.676 49.8424 61.676C50.6711 61.676 51.3128 61.8887 51.7674 62.314C52.2221 62.7393 52.4494 63.3113 52.4494 64.03V64.965H48.7534C48.8341 65.3097 49.0211 65.5517 49.3144 65.691C49.6151 65.823 50.0221 65.889 50.5354 65.889C50.8214 65.889 51.1111 65.8633 51.4044 65.812C51.7051 65.7607 51.9544 65.6947 52.1524 65.614V66.769C51.9031 66.8863 51.6061 66.9707 51.2614 67.022C50.9168 67.0807 50.5391 67.11 50.1284 67.11ZM48.7534 63.942H50.9094V63.711C50.9094 63.4543 50.8324 63.2527 50.6784 63.106C50.5244 62.952 50.2641 62.875 49.8974 62.875C49.4721 62.875 49.1751 62.963 49.0064 63.139C48.8378 63.3077 48.7534 63.5753 48.7534 63.942Z" fill="#7B00FF"/>
<defs>
<filter id="filter0_d_356_3275" x="12.2305" y="9.82935" width="42.2451" height="44.9036" filterUnits="userSpaceOnUse" color-interpolation-filters="sRGB">
<feFlood flood-opacity="0" result="BackgroundImageFix"/>
<feColorMatrix in="SourceAlpha" type="matrix" values="0 0 0 0 0 0 0 0 0 0 0 0 0 0 0 0 0 0 127 0" result="hardAlpha"/>
<feOffset dy="4"/>
<feGaussianBlur stdDeviation="3"/>
<feComposite in2="hardAlpha" operator="out"/>
<feColorMatrix type="matrix" values="0 0 0 0 0 0 0 0 0 0 0 0 0 0 0 0 0 0 0.3 0"/>
<feBlend mode="normal" in2="BackgroundImageFix" result="effect1_dropShadow_356_3275"/>
<feBlend mode="normal" in="SourceGraphic" in2="effect1_dropShadow_356_3275" result="shape"/>
</filter>
</defs>
</svg>
