<svg width="75" height="75" viewBox="0 0 75 75" fill="none" xmlns="http://www.w3.org/2000/svg">
<circle cx="37.5" cy="37.5" r="37" fill="white" stroke="black"/>
<g clip-path="url(#clip0_510_6629)">
<g filter="url(#filter0_d_510_6629)">
<path d="M44.0264 19.7785L42.3269 21.478L26.705 37.098C25.6472 38.1576 25.1174 38.6875 24.6627 39.2705C24.1262 39.9588 23.6658 40.7032 23.2895 41.4906C22.9724 42.158 22.7359 42.8693 22.2629 44.2883L20.2572 50.3035L19.7659 51.7738C19.6509 52.1165 19.6339 52.4845 19.7166 52.8364C19.7994 53.1883 19.9786 53.5102 20.2342 53.7658C20.4898 54.0214 20.8117 54.2006 21.1636 54.2834C21.5155 54.3661 21.8835 54.3491 22.2262 54.2341L23.6965 53.7428L29.7117 51.7371C31.1325 51.2641 31.842 51.0276 32.5094 50.7105C33.3001 50.334 34.0402 49.8763 34.7295 49.3373C35.3125 48.8826 35.8424 48.3528 36.9002 47.295L52.522 31.6731L54.2215 29.9736C55.5735 28.6217 56.333 26.788 56.333 24.8761C56.333 22.9641 55.5735 21.1304 54.2215 19.7785C52.8696 18.4265 51.0359 17.667 49.1239 17.667C47.212 17.667 45.3783 18.4265 44.0264 19.7785Z" stroke="black" shape-rendering="crispEdges"/>
</g>
<path opacity="0.5" d="M42.327 21.4761C42.327 21.4761 42.5397 25.0877 45.726 28.2741C48.9123 31.4604 52.5222 31.6712 52.5222 31.6712M23.6967 53.7427L20.2573 50.3034" stroke="black" stroke-width="2"/>
</g>
<rect x="16.5" y="14.5" width="43" height="43" stroke="white"/>
<defs>
<filter id="filter0_d_510_6629" x="15.165" y="17.167" width="45.668" height="45.668" filterUnits="userSpaceOnUse" color-interpolation-filters="sRGB">
<feFlood flood-opacity="0" result="BackgroundImageFix"/>
<feColorMatrix in="SourceAlpha" type="matrix" values="0 0 0 0 0 0 0 0 0 0 0 0 0 0 0 0 0 0 127 0" result="hardAlpha"/>
<feOffset dy="4"/>
<feGaussianBlur stdDeviation="2"/>
<feComposite in2="hardAlpha" operator="out"/>
<feColorMatrix type="matrix" values="0 0 0 0 0 0 0 0 0 0 0 0 0 0 0 0 0 0 0.25 0"/>
<feBlend mode="normal" in2="BackgroundImageFix" result="effect1_dropShadow_510_6629"/>
<feBlend mode="normal" in="SourceGraphic" in2="effect1_dropShadow_510_6629" result="shape"/>
</filter>
<clipPath id="clip0_510_6629">
<rect x="16" y="14" width="44" height="44" fill="white"/>
</clipPath>
</defs>
</svg>
