<svg width="30" height="30" viewBox="0 0 30 30" fill="none" xmlns="http://www.w3.org/2000/svg">
<path d="M22.5 13.125V11.25C22.5 7.10786 19.1421 3.75 15 3.75C10.8579 3.75 7.5 7.10786 7.5 11.25V13.125C7.45346 14.281 6.92803 15.3655 6.04969 16.1184C5.26893 16.7837 4.77992 17.7284 4.6875 18.75C4.6875 21.0938 8.5425 22.5 15 22.5C21.4575 22.5 25.3125 21.0938 25.3125 18.75C25.2201 17.7284 24.7311 16.7837 23.9503 16.1184C23.072 15.3655 22.5465 14.281 22.5 13.125Z" fill="#646466"/>
<path d="M12.3235 24.2812C12.6902 25.451 13.7741 26.2472 15 26.2472C16.226 26.2472 17.3099 25.451 17.6766 24.2812C16.8385 24.3431 15.9479 24.375 15 24.375C14.0522 24.375 13.1616 24.345 12.3235 24.2812Z" fill="#646466"/>
</svg>
