<svg width="30" height="30" viewBox="0 0 30 30" fill="none" xmlns="http://www.w3.org/2000/svg">
<path d="M22.5 13.125V11.25C22.5 7.10786 19.1421 3.75 15 3.75C10.8579 3.75 7.5 7.10786 7.5 11.25V13.125C7.45346 14.281 6.92803 15.3655 6.04969 16.1184C5.26893 16.7837 4.77992 17.7284 4.6875 18.75C4.6875 21.0938 8.5425 22.5 15 22.5C21.4575 22.5 25.3125 21.0938 25.3125 18.75C25.2201 17.7284 24.7311 16.7837 23.9503 16.1184C23.072 15.3655 22.5465 14.281 22.5 13.125Z" fill="#646466"/>
<path d="M12.3232 24.2812C12.69 25.451 13.7739 26.2472 14.9998 26.2472C16.2257 26.2472 17.3096 25.451 17.6764 24.2812C16.8382 24.3431 15.9476 24.375 14.9998 24.375C14.052 24.375 13.1614 24.345 12.3232 24.2812Z" fill="#646466"/>
<path d="M21.875 11.25C24.2912 11.25 26.25 9.29125 26.25 6.875C26.25 4.45875 24.2912 2.5 21.875 2.5C19.4588 2.5 17.5 4.45875 17.5 6.875C17.5 9.29125 19.4588 11.25 21.875 11.25Z" fill="#F5365C"/>
</svg>
