<svg width="24" height="27" viewBox="0 0 24 27" fill="none" xmlns="http://www.w3.org/2000/svg">
<g filter="url(#filter0_d_1566_14164)">
<path d="M18.75 22.5H5.25C4.41986 22.5001 3.62117 22.1428 3.01777 21.5014C2.41437 20.86 2.052 19.9832 2.005 19.0508L2 18.8438V7.03125C1.99993 6.38986 2.2163 5.77235 2.60537 5.30353C2.99444 4.8347 3.52721 4.54952 4.096 4.50563L4.25 4.5H16.75C17.3201 4.49992 17.869 4.74333 18.2858 5.18104C18.7025 5.61875 18.956 6.21811 18.995 6.858L19 7.03125V7.875H19.75C20.3201 7.87492 20.869 8.11833 21.2858 8.55604C21.7025 8.99375 21.956 9.59311 21.995 10.233L22 10.4062V18.8438C22.0001 19.7777 21.6824 20.6762 21.1123 21.355C20.5422 22.0338 19.7628 22.4415 18.934 22.4944L18.75 22.5ZM5.25 20.8125H18.75C19.1893 20.8125 19.6126 20.6265 19.9357 20.2916C20.2588 19.9566 20.4581 19.4972 20.494 19.0046L20.5 18.8438V10.4062C20.5 10.2024 20.4344 10.0054 20.3152 9.8517C20.1961 9.69804 20.0316 9.5981 19.852 9.57037L19.75 9.5625H19V18.2812C19 18.4851 18.9344 18.6821 18.8152 18.8358C18.6961 18.9895 18.5316 19.0894 18.352 19.1171L18.25 19.125C18.0688 19.125 17.8937 19.0512 17.7571 18.9171C17.6205 18.7831 17.5316 18.598 17.507 18.396L17.5 18.2812V7.03125C17.5 6.82736 17.4344 6.63037 17.3152 6.4767C17.1961 6.32304 17.0316 6.2231 16.852 6.19537L16.75 6.1875H4.25C4.06876 6.18751 3.89366 6.26135 3.75707 6.39536C3.62048 6.52938 3.53165 6.7145 3.507 6.9165L3.5 7.03125V18.8438C3.50002 19.3378 3.66517 19.8139 3.96268 20.1773C4.26019 20.5408 4.6683 20.7651 5.106 20.8057L5.25 20.8125ZM12.246 16.3125H15.252C15.442 16.3126 15.6249 16.3938 15.7638 16.5397C15.9026 16.6857 15.9871 16.8855 16 17.0987C16.013 17.312 15.9535 17.5229 15.8336 17.6887C15.7137 17.8545 15.5423 17.963 15.354 17.9921L15.252 18H12.246C12.056 17.9999 11.8731 17.9187 11.7342 17.7728C11.5954 17.6268 11.5109 17.427 11.498 17.2138C11.485 17.0005 11.5445 16.7896 11.6644 16.6238C11.7843 16.458 11.9558 16.3495 12.144 16.3204L12.246 16.3125ZM9.243 12.3806C9.44191 12.3806 9.63268 12.4695 9.77333 12.6278C9.91398 12.786 9.993 13.0006 9.993 13.2244V17.1562C9.993 17.38 9.91398 17.5946 9.77333 17.7529C9.63268 17.9111 9.44191 18 9.243 18H5.748C5.54909 18 5.35832 17.9111 5.21767 17.7529C5.07702 17.5946 4.998 17.38 4.998 17.1562V13.2244C4.998 13.0006 5.07702 12.786 5.21767 12.6278C5.35832 12.4695 5.54909 12.3806 5.748 12.3806H9.243ZM8.493 14.0681H6.498V16.3125H8.493V14.0681ZM12.246 12.3806H15.252C15.442 12.3807 15.6249 12.4619 15.7638 12.6078C15.9026 12.7538 15.9871 12.9536 16 13.1669C16.013 13.3801 15.9535 13.591 15.8336 13.7568C15.7137 13.9227 15.5423 14.0311 15.354 14.0603L15.252 14.0681H12.246C12.0546 14.0703 11.8697 13.9901 11.7292 13.8439C11.5887 13.6978 11.5032 13.4967 11.4901 13.2819C11.4771 13.0671 11.5375 12.8548 11.6591 12.6885C11.7807 12.5222 11.9541 12.4145 12.144 12.3874L12.246 12.3806ZM5.748 8.43975H15.252C15.4434 8.43756 15.6283 8.51776 15.7688 8.66393C15.9093 8.8101 15.9948 9.01117 16.0079 9.22598C16.0209 9.44079 15.9605 9.65308 15.8389 9.81938C15.7173 9.98568 15.5439 10.0934 15.354 10.1205L15.252 10.1272H5.748C5.55798 10.1272 5.37506 10.046 5.23621 9.90003C5.09736 9.75409 5.01293 9.55429 4.99997 9.34101C4.98702 9.12773 5.04652 8.91687 5.16643 8.75104C5.28635 8.58521 5.45775 8.47676 5.646 8.44762L5.748 8.43975Z" fill="white"/>
</g>
<defs>
<filter id="filter0_d_1566_14164" x="2" y="4.5" width="21" height="19" filterUnits="userSpaceOnUse" color-interpolation-filters="sRGB">
<feFlood flood-opacity="0" result="BackgroundImageFix"/>
<feColorMatrix in="SourceAlpha" type="matrix" values="0 0 0 0 0 0 0 0 0 0 0 0 0 0 0 0 0 0 127 0" result="hardAlpha"/>
<feOffset dx="1" dy="1"/>
<feComposite in2="hardAlpha" operator="out"/>
<feColorMatrix type="matrix" values="0 0 0 0 0 0 0 0 0 0 0 0 0 0 0 0 0 0 0.5 0"/>
<feBlend mode="normal" in2="BackgroundImageFix" result="effect1_dropShadow_1566_14164"/>
<feBlend mode="normal" in="SourceGraphic" in2="effect1_dropShadow_1566_14164" result="shape"/>
</filter>
</defs>
</svg>
