<svg width="24" height="24" viewBox="0 0 24 24" fill="none" xmlns="http://www.w3.org/2000/svg">
<path d="M8.83995 16.3493L19.8013 5.38801C20.0599 5.12934 20.3617 5 20.7066 5C21.0515 5 21.3533 5.12934 21.612 5.38801C21.8707 5.64669 22 5.95408 22 6.31019C22 6.66629 21.8707 6.97325 21.612 7.23107L9.74531 19.1301C9.48663 19.3888 9.18484 19.5181 8.83995 19.5181C8.49505 19.5181 8.19326 19.3888 7.93459 19.1301L2.37309 13.5686C2.11441 13.3099 1.99025 13.003 2.0006 12.6477C2.01094 12.2925 2.14589 11.9851 2.40542 11.7255C2.66496 11.466 2.97235 11.3367 3.3276 11.3375C3.68284 11.3384 3.9898 11.4677 4.24848 11.7255L8.83995 16.3493Z" fill="#808080"/>
</svg>
