<svg width="381" height="85" viewBox="0 0 381 85" fill="none" xmlns="http://www.w3.org/2000/svg">
<g filter="url(#filter0_i_559_7192)">
<g opacity="0.1">
<path d="M0 42.5C0 19.0279 19.0279 0 42.5 0H338.5C361.972 0 381 19.0279 381 42.5C381 65.9721 361.972 85 338.5 85H42.5C19.0279 85 0 65.9721 0 42.5Z" fill="#B5B4F2"/>
<path d="M0 42.5C0 19.0279 19.0279 0 42.5 0H338.5C361.972 0 381 19.0279 381 42.5C381 65.9721 361.972 85 338.5 85H42.5C19.0279 85 0 65.9721 0 42.5Z" fill="url(#paint0_radial_559_7192)"/>
</g>
</g>
<defs>
<filter id="filter0_i_559_7192" x="0" y="0" width="384" height="88" filterUnits="userSpaceOnUse" color-interpolation-filters="sRGB">
<feFlood flood-opacity="0" result="BackgroundImageFix"/>
<feBlend mode="normal" in="SourceGraphic" in2="BackgroundImageFix" result="shape"/>
<feColorMatrix in="SourceAlpha" type="matrix" values="0 0 0 0 0 0 0 0 0 0 0 0 0 0 0 0 0 0 127 0" result="hardAlpha"/>
<feOffset dx="3" dy="3"/>
<feGaussianBlur stdDeviation="2.5"/>
<feComposite in2="hardAlpha" operator="arithmetic" k2="-1" k3="1"/>
<feColorMatrix type="matrix" values="0 0 0 0 1 0 0 0 0 1 0 0 0 0 1 0 0 0 0.5 0"/>
<feBlend mode="normal" in2="shape" result="effect1_innerShadow_559_7192"/>
</filter>
<radialGradient id="paint0_radial_559_7192" cx="0" cy="0" r="1" gradientUnits="userSpaceOnUse" gradientTransform="translate(88 26) rotate(8.96758) scale(295.107 190.253)">
<stop offset="0.312196" stop-color="#6B36FE"/>
<stop offset="1" stop-color="white" stop-opacity="0"/>
</radialGradient>
</defs>
</svg>
