<svg width="24" height="24" viewBox="0 0 24 24" fill="none" xmlns="http://www.w3.org/2000/svg">
<path d="M20.25 10.625C20.25 11.889 20.001 13.1406 19.5173 14.3083C19.0336 15.4761 18.3247 16.5371 17.4309 17.4309C16.5371 18.3247 15.4761 19.0336 14.3083 19.5173C13.1406 20.001 11.889 20.25 10.625 20.25C9.36103 20.25 8.10943 20.001 6.94167 19.5173C5.77391 19.0336 4.71286 18.3247 3.8191 17.4309C2.92533 16.5371 2.21636 15.4761 1.73266 14.3083C1.24896 13.1406 1 11.889 1 10.625C1 8.07229 2.01406 5.62413 3.8191 3.8191C5.62413 2.01406 8.07229 1 10.625 1C13.1777 1 15.6259 2.01406 17.4309 3.8191C19.2359 5.62413 20.25 8.07229 20.25 10.625Z" fill="white" stroke="#646466"/>
<path d="M23 23L20.25 20.25L23 23Z" fill="white"/>
<path d="M23 23L20.25 20.25" stroke="#646466" stroke-width="2" stroke-linecap="round"/>
</svg>
