<svg width="65" height="84" viewBox="0 0 65 84" fill="none" xmlns="http://www.w3.org/2000/svg">
<path d="M17.838 67.11C16.9213 67.11 16.1843 66.9927 15.627 66.758V65.702C15.9423 65.8193 16.2797 65.9147 16.639 65.988C17.0057 66.0613 17.3687 66.098 17.728 66.098C18.2927 66.098 18.7143 66.032 18.993 65.9C19.279 65.768 19.422 65.504 19.422 65.108C19.422 64.866 19.3633 64.6717 19.246 64.525C19.1287 64.3783 18.9343 64.2537 18.663 64.151C18.3917 64.041 18.0177 63.9273 17.541 63.81C16.7783 63.612 16.243 63.3627 15.935 63.062C15.627 62.754 15.473 62.3323 15.473 61.797C15.473 61.1737 15.7003 60.686 16.155 60.334C16.6097 59.982 17.288 59.806 18.19 59.806C18.6007 59.806 18.9857 59.8353 19.345 59.894C19.7117 59.9527 19.9977 60.0187 20.203 60.092V61.148C19.6457 60.9353 19.0297 60.829 18.355 60.829C17.827 60.829 17.4163 60.8987 17.123 61.038C16.8297 61.1773 16.683 61.4303 16.683 61.797C16.683 62.0097 16.7343 62.182 16.837 62.314C16.9397 62.446 17.1157 62.5597 17.365 62.655C17.6217 62.7503 17.9737 62.8567 18.421 62.974C19.0003 63.1207 19.4477 63.2967 19.763 63.502C20.0857 63.7 20.3093 63.9347 20.434 64.206C20.566 64.47 20.632 64.7707 20.632 65.108C20.632 65.7313 20.401 66.2227 19.939 66.582C19.477 66.934 18.7767 67.11 17.838 67.11ZM24.4346 67.11C23.5252 67.11 22.8212 66.8863 22.3226 66.439C21.8239 65.9917 21.5746 65.306 21.5746 64.382C21.5746 63.546 21.7872 62.886 22.2126 62.402C22.6379 61.918 23.2832 61.676 24.1486 61.676C24.9406 61.676 25.5346 61.885 25.9306 62.303C26.3339 62.7137 26.5356 63.2453 26.5356 63.898V64.866H22.7186C22.7772 65.372 22.9606 65.7203 23.2686 65.911C23.5766 66.1017 24.0459 66.197 24.6766 66.197C24.9406 66.197 25.2119 66.1713 25.4906 66.12C25.7692 66.0687 26.0112 66.0027 26.2166 65.922V66.802C25.9819 66.9047 25.7106 66.9817 25.4026 67.033C25.1019 67.0843 24.7792 67.11 24.4346 67.11ZM22.7186 64.085H25.4796V63.722C25.4796 63.3627 25.3806 63.084 25.1826 62.886C24.9846 62.6807 24.6509 62.578 24.1816 62.578C23.6242 62.578 23.2392 62.699 23.0266 62.941C22.8212 63.183 22.7186 63.5643 22.7186 64.085ZM29.3308 67.11C29.0008 67.11 28.6928 67.0513 28.4068 66.934C28.1281 66.8167 27.9044 66.6407 27.7358 66.406C27.5671 66.164 27.4828 65.867 27.4828 65.515C27.4828 65.0163 27.6514 64.6167 27.9888 64.316C28.3334 64.008 28.8614 63.854 29.5728 63.854H31.2448V63.623C31.2448 63.3737 31.2044 63.1757 31.1238 63.029C31.0504 62.8823 30.9111 62.776 30.7058 62.71C30.5078 62.644 30.2144 62.611 29.8258 62.611C29.2098 62.611 28.6341 62.7027 28.0988 62.886V61.995C28.3334 61.8997 28.6194 61.8227 28.9568 61.764C29.2941 61.7053 29.6571 61.676 30.0458 61.676C30.8084 61.676 31.3878 61.83 31.7838 62.138C32.1871 62.446 32.3888 62.9483 32.3888 63.645V67H31.3658L31.2888 66.472C31.0761 66.6773 30.8121 66.835 30.4968 66.945C30.1888 67.055 29.8001 67.11 29.3308 67.11ZM29.6498 66.252C30.0091 66.252 30.3208 66.1933 30.5848 66.076C30.8561 65.9513 31.0761 65.7863 31.2448 65.581V64.668H29.5948C29.2428 64.668 28.9861 64.7377 28.8248 64.877C28.6708 65.009 28.5938 65.2143 28.5938 65.493C28.5938 65.7643 28.6854 65.9587 28.8688 66.076C29.0521 66.1933 29.3124 66.252 29.6498 66.252ZM33.7184 67V61.786H34.8184L34.8844 62.391C35.1337 62.2297 35.4307 62.083 35.7754 61.951C36.1201 61.819 36.4611 61.7273 36.7984 61.676V62.589C36.5931 62.6257 36.3694 62.6807 36.1274 62.754C35.8927 62.82 35.6691 62.897 35.4564 62.985C35.2437 63.0657 35.0641 63.15 34.9174 63.238V67H33.7184ZM40.0197 67.11C39.103 67.11 38.41 66.879 37.9407 66.417C37.4713 65.9477 37.2367 65.273 37.2367 64.393C37.2367 63.4763 37.4933 62.7943 38.0067 62.347C38.5273 61.8997 39.2203 61.676 40.0857 61.676C40.445 61.676 40.7457 61.7017 40.9877 61.753C41.237 61.8043 41.4753 61.885 41.7027 61.995V62.886C41.3213 62.6953 40.8593 62.6 40.3167 62.6C39.7153 62.6 39.2533 62.7357 38.9307 63.007C38.608 63.271 38.4467 63.733 38.4467 64.393C38.4467 65.0163 38.5897 65.4747 38.8757 65.768C39.1617 66.054 39.6347 66.197 40.2947 66.197C40.8153 66.197 41.2883 66.098 41.7137 65.9V66.813C41.4717 66.9083 41.2113 66.9817 40.9327 67.033C40.6613 67.0843 40.357 67.11 40.0197 67.11ZM42.6666 67V59.586H43.8656V62.292C44.093 62.1087 44.3643 61.962 44.6796 61.852C44.995 61.7347 45.3506 61.676 45.7466 61.676C46.4066 61.676 46.8943 61.8337 47.2096 62.149C47.525 62.4643 47.6826 62.9557 47.6826 63.623V67H46.4946V63.678C46.4946 63.2747 46.4066 62.9923 46.2306 62.831C46.062 62.6697 45.765 62.589 45.3396 62.589C45.0756 62.589 44.808 62.6477 44.5366 62.765C44.2653 62.875 44.0416 63.0217 43.8656 63.205V67H42.6666Z" fill="#646466"/>
<path d="M39.25 29.625C39.25 30.889 39.001 32.1406 38.5173 33.3083C38.0336 34.4761 37.3247 35.5371 36.4309 36.4309C35.5371 37.3247 34.4761 38.0336 33.3083 38.5173C32.1406 39.001 30.889 39.25 29.625 39.25C28.361 39.25 27.1094 39.001 25.9417 38.5173C24.7739 38.0336 23.7129 37.3247 22.8191 36.4309C21.9253 35.5371 21.2164 34.4761 20.7327 33.3083C20.249 32.1406 20 30.889 20 29.625C20 27.0723 21.0141 24.6241 22.8191 22.8191C24.6241 21.0141 27.0723 20 29.625 20C32.1777 20 34.6259 21.0141 36.4309 22.8191C38.2359 24.6241 39.25 27.0723 39.25 29.625Z" fill="white" stroke="#646466"/>
<path d="M42 42L39.25 39.25L42 42Z" fill="white"/>
<path d="M42 42L39.25 39.25" stroke="#646466" stroke-width="2" stroke-linecap="round"/>
</svg>
