<svg width="65" height="84" viewBox="0 0 65 84" fill="none" xmlns="http://www.w3.org/2000/svg">
<g filter="url(#filter0_d_356_3348)">
<path d="M24.4492 39.449L25.1023 38.3832L24.4492 39.4491C25.7648 40.2553 27.2264 40.7945 28.7504 41.0359C30.2744 41.2772 31.8311 41.2161 33.3315 40.8559L33.0397 39.6404L33.3315 40.8559C34.8319 40.4957 36.2467 39.8434 37.495 38.9365C38.7433 38.0295 39.8008 36.8855 40.607 35.5699L39.5412 34.9168L40.607 35.5699C41.4133 34.2542 41.9525 32.7927 42.1939 31.2686C42.6814 28.1907 41.9262 25.0452 40.0945 22.524L39.0832 23.2588L40.0945 22.524C38.2628 20.0029 35.5045 18.3127 32.4266 17.8252C29.3487 17.3377 26.2032 18.0929 23.682 19.9246C21.1609 21.7563 19.4707 24.5145 18.9832 27.5924C18.7418 29.1165 18.803 30.6731 19.1632 32.1735C19.5234 33.6739 20.1756 35.0887 21.0826 36.337L22.0938 35.6023L21.0826 36.337C21.9895 37.5853 23.1335 38.6428 24.4492 39.449Z" fill="#7B00FF" stroke="white" stroke-width="2.5"/>
<path d="M43.0247 43.9948L40.5309 40.5624L39.3174 41.4441L38.1039 42.3258L40.5976 45.7581L41.8111 44.8765L43.0247 43.9948Z" fill="#7B00FF" stroke="white" stroke-width="3" stroke-linecap="round"/>
<path d="M20.9509 25.53L20.951 25.53L19.8309 22.8079L16.9579 22.178L20.9509 25.53ZM20.9509 25.53L20.9552 25.5402M20.9509 25.53L20.9552 25.5402M20.9552 25.5402C21.0677 25.8068 21.2403 26.0437 21.4594 26.2323C21.7608 26.5007 22.141 26.6649 22.5436 26.7L22.5436 26.7M20.9552 25.5402L22.5436 26.7M16.0486 21.6897L16.0486 21.6897C15.7971 21.445 15.6194 21.1347 15.5355 20.7941C15.4516 20.4534 15.465 20.0961 15.5741 19.7626C15.6832 19.4292 15.8837 19.1331 16.1527 18.908C16.1527 18.9079 16.1527 18.9079 16.1527 18.9079L18.3845 17.04L18.0865 14.1298L18.0856 14.1212L18.0849 14.1127C18.0548 13.7735 18.1177 13.4326 18.2668 13.1265C18.4159 12.8203 18.6455 12.5606 18.931 12.3751L18.9408 12.3687L18.9508 12.3625C19.2482 12.177 19.5917 12.0787 19.9422 12.0786L19.9425 13.3286L19.9422 12.0786C20.2918 12.0785 20.6345 12.1762 20.9315 12.3605L23.4315 13.9055L26.0895 12.7261C26.4101 12.5829 26.7645 12.5326 27.1124 12.581C27.4612 12.6296 27.7894 12.7754 28.0592 13.0018C28.329 13.2282 28.5296 13.526 28.638 13.8612L27.4487 14.2458L28.638 13.8612C28.7456 14.1939 28.758 14.5501 28.6738 14.8894L27.9883 17.7201L29.945 19.9151C29.9456 19.9158 29.9462 19.9165 29.9468 19.9172C30.1799 20.1776 30.3356 20.4981 30.3962 20.8424C30.457 21.1876 30.4198 21.5429 30.2889 21.8681L30.2845 21.8789L30.2799 21.8897C30.1468 22.2031 29.9308 22.4744 29.6553 22.6743L16.0486 21.6897ZM16.0486 21.6897C16.2995 21.9338 16.6137 22.1028 16.9557 22.1775L16.0486 21.6897ZM22.5436 26.7L22.5566 26.701C22.9134 26.7284 23.2705 26.6531 23.5859 26.484C23.8984 26.3164 24.1569 26.0638 24.3315 25.7554L25.7807 23.238L28.6985 23.0261L28.707 23.0255M22.5436 26.7L28.707 23.0255M28.707 23.0255L28.7156 23.0248M28.707 23.0255L28.7156 23.0248M28.7156 23.0248C29.0548 22.9954 29.3797 22.8743 29.6553 22.6743L28.7156 23.0248Z" fill="#F6B354" stroke="white" stroke-width="2.5"/>
</g>
<path d="M40.6314 30.8481C40.426 32.1452 39.9671 33.3891 39.2809 34.5088C38.5948 35.6285 37.6948 36.6021 36.6324 37.374C35.57 38.1459 34.3659 38.7009 33.089 39.0075C31.8121 39.3141 30.4872 39.3661 29.1902 39.1607C27.8931 38.9552 26.6492 38.4964 25.5295 37.8102C24.4098 37.124 23.4363 36.2241 22.6644 35.1617C21.8925 34.0992 21.3374 32.8952 21.0308 31.6183C20.7243 30.3413 20.6722 29.0165 20.8776 27.7195C21.2925 25.0999 22.731 22.7525 24.8767 21.1936C27.0223 19.6347 29.6994 18.992 32.3189 19.4069C34.9384 19.8218 37.2858 21.2603 38.8447 23.4059C40.4036 25.5516 41.0463 28.2286 40.6314 30.8481Z" fill="#7B00FF" stroke="#7B00FF"/>
<path d="M41.9762 44.7295L39.4824 41.2971L41.9762 44.7295Z" fill="#7B00FF"/>
<path d="M41.9762 44.7295L39.4824 41.2971" stroke="#7B00FF" stroke-width="2" stroke-linecap="round"/>
<path d="M22.4666 25.2913C22.3897 25.2274 22.3294 25.1459 22.2905 25.0538L20.9214 21.7266L17.407 20.9561C17.2927 20.9312 17.1877 20.8748 17.1039 20.7933C17.0201 20.7117 16.9608 20.6083 16.9329 20.4947C16.9049 20.3812 16.9094 20.2621 16.9457 20.1509C16.9821 20.0398 17.0489 19.9411 17.1386 19.866L19.8792 17.5723L19.5136 14.002C19.5036 13.8889 19.5245 13.7753 19.5742 13.6732C19.6239 13.5712 19.7005 13.4846 19.7956 13.4228C19.8948 13.3609 20.0093 13.3282 20.1261 13.3281C20.2429 13.3281 20.3575 13.3608 20.4566 13.4226L23.5191 15.3151L26.7818 13.8674C26.8889 13.8193 27.0074 13.8024 27.1237 13.8186C27.24 13.8348 27.3494 13.8834 27.4393 13.9589C27.5293 14.0343 27.5961 14.1336 27.6322 14.2453C27.6684 14.357 27.6723 14.4767 27.6436 14.5905L26.8028 18.0623L29.1983 20.7496C29.2764 20.8365 29.3285 20.9436 29.3488 21.0587C29.369 21.1738 29.3566 21.2922 29.313 21.4006C29.2686 21.505 29.1966 21.5955 29.1048 21.6621C29.0129 21.7288 28.9046 21.7691 28.7915 21.7789L25.212 22.0389L23.429 25.1361C23.3707 25.2402 23.2839 25.3255 23.1788 25.3818C23.0737 25.4382 22.9546 25.4633 22.8357 25.4542C22.698 25.4422 22.5682 25.3849 22.4666 25.2913Z" fill="#F6B354"/>
<path d="M17.816 67.11C17.3467 67.11 16.9067 67.0733 16.496 67C16.0927 66.934 15.7443 66.835 15.451 66.703V65.196C15.7737 65.3353 16.1293 65.449 16.518 65.537C16.914 65.625 17.288 65.669 17.64 65.669C18.08 65.669 18.4063 65.6287 18.619 65.548C18.839 65.4673 18.949 65.2913 18.949 65.02C18.949 64.8367 18.894 64.69 18.784 64.58C18.6813 64.47 18.509 64.3747 18.267 64.294C18.0323 64.206 17.7097 64.1033 17.299 63.986C16.815 63.8393 16.43 63.678 16.144 63.502C15.858 63.3187 15.6527 63.0987 15.528 62.842C15.4033 62.5853 15.341 62.27 15.341 61.896C15.341 61.2213 15.583 60.7043 16.067 60.345C16.551 59.9857 17.266 59.806 18.212 59.806C18.6227 59.806 19.0223 59.839 19.411 59.905C19.7997 59.9637 20.115 60.0333 20.357 60.114V61.632C20.0417 61.5073 19.7227 61.4157 19.4 61.357C19.0847 61.2983 18.7767 61.269 18.476 61.269C18.08 61.269 17.7573 61.3057 17.508 61.379C17.266 61.4523 17.145 61.621 17.145 61.885C17.145 62.039 17.189 62.1637 17.277 62.259C17.365 62.347 17.5153 62.4277 17.728 62.501C17.948 62.5743 18.245 62.6623 18.619 62.765C19.1983 62.919 19.642 63.106 19.95 63.326C20.258 63.5387 20.4707 63.788 20.588 64.074C20.7053 64.3527 20.764 64.668 20.764 65.02C20.764 65.6433 20.522 66.1493 20.038 66.538C19.554 66.9193 18.8133 67.11 17.816 67.11ZM24.4566 67.11C23.5472 67.11 22.8176 66.8863 22.2676 66.439C21.7176 65.9843 21.4426 65.3023 21.4426 64.393C21.4426 63.5643 21.6699 62.9043 22.1246 62.413C22.5792 61.9217 23.2612 61.676 24.1706 61.676C24.9992 61.676 25.6409 61.8887 26.0956 62.314C26.5502 62.7393 26.7776 63.3113 26.7776 64.03V64.965H23.0816C23.1622 65.3097 23.3492 65.5517 23.6426 65.691C23.9432 65.823 24.3502 65.889 24.8636 65.889C25.1496 65.889 25.4392 65.8633 25.7326 65.812C26.0332 65.7607 26.2826 65.6947 26.4806 65.614V66.769C26.2312 66.8863 25.9342 66.9707 25.5896 67.022C25.2449 67.0807 24.8672 67.11 24.4566 67.11ZM23.0816 63.942H25.2376V63.711C25.2376 63.4543 25.1606 63.2527 25.0066 63.106C24.8526 62.952 24.5922 62.875 24.2256 62.875C23.8002 62.875 23.5032 62.963 23.3346 63.139C23.1659 63.3077 23.0816 63.5753 23.0816 63.942ZM29.3062 67.11C28.9762 67.11 28.6682 67.0513 28.3822 66.934C28.1035 66.8167 27.8799 66.637 27.7112 66.395C27.5425 66.1457 27.4582 65.8377 27.4582 65.471C27.4582 64.9357 27.6379 64.5177 27.9972 64.217C28.3639 63.909 28.9102 63.755 29.6362 63.755H31.0882V63.634C31.0882 63.37 31.0002 63.183 30.8242 63.073C30.6482 62.9557 30.3182 62.897 29.8342 62.897C29.2402 62.897 28.6572 62.9887 28.0852 63.172V62.028C28.3419 61.9253 28.6535 61.841 29.0202 61.775C29.3942 61.709 29.7865 61.676 30.1972 61.676C31.0039 61.676 31.6345 61.841 32.0892 62.171C32.5512 62.501 32.7822 63.0253 32.7822 63.744V67H31.2312L31.1432 66.56C30.9525 66.736 30.7069 66.8717 30.4062 66.967C30.1129 67.0623 29.7462 67.11 29.3062 67.11ZM29.8672 66.021C30.1459 66.021 30.3879 65.9733 30.5932 65.878C30.7985 65.7827 30.9635 65.6617 31.0882 65.515V64.778H29.8342C29.3135 64.778 29.0532 64.987 29.0532 65.405C29.0532 65.5957 29.1192 65.746 29.2512 65.856C29.3832 65.966 29.5885 66.021 29.8672 66.021ZM33.8442 67V61.786H35.5272L35.5822 62.27C35.8095 62.1307 36.0919 62.006 36.4292 61.896C36.7665 61.7787 37.1039 61.7053 37.4412 61.676V63.007C37.2505 63.029 37.0379 63.0657 36.8032 63.117C36.5759 63.161 36.3559 63.216 36.1432 63.282C35.9379 63.348 35.7619 63.4177 35.6152 63.491V67H33.8442ZM40.644 67.11C39.7127 67.11 38.983 66.8827 38.455 66.428C37.9343 65.9733 37.674 65.295 37.674 64.393C37.674 63.4763 37.9453 62.7943 38.488 62.347C39.038 61.8997 39.7677 61.676 40.677 61.676C41.0583 61.676 41.3883 61.7053 41.667 61.764C41.953 61.8153 42.228 61.9033 42.492 62.028V63.282C42.0813 63.084 41.601 62.985 41.051 62.985C40.5377 62.985 40.1453 63.0877 39.874 63.293C39.61 63.4983 39.478 63.865 39.478 64.393C39.478 64.8843 39.6027 65.2437 39.852 65.471C40.1013 65.691 40.4973 65.801 41.04 65.801C41.5753 65.801 42.063 65.691 42.503 65.471V66.78C42.239 66.8973 41.953 66.9817 41.645 67.033C41.3443 67.0843 41.0107 67.11 40.644 67.11ZM43.4048 67V59.586H45.1758V62.171C45.3738 62.0243 45.6194 61.907 45.9128 61.819C46.2061 61.7237 46.5214 61.676 46.8588 61.676C47.5554 61.676 48.0651 61.841 48.3878 62.171C48.7178 62.501 48.8828 63.007 48.8828 63.689V67H47.1118V63.81C47.1118 63.5093 47.0494 63.2967 46.9248 63.172C46.8001 63.0473 46.5764 62.985 46.2538 62.985C46.0631 62.985 45.8688 63.029 45.6707 63.117C45.4728 63.205 45.3078 63.315 45.1758 63.447V67H43.4048Z" fill="#7B00FF"/>
<defs>
<filter id="filter0_d_356_3348" x="8.23145" y="8.82861" width="42.5801" height="49.0481" filterUnits="userSpaceOnUse" color-interpolation-filters="sRGB">
<feFlood flood-opacity="0" result="BackgroundImageFix"/>
<feColorMatrix in="SourceAlpha" type="matrix" values="0 0 0 0 0 0 0 0 0 0 0 0 0 0 0 0 0 0 127 0" result="hardAlpha"/>
<feOffset dy="4"/>
<feGaussianBlur stdDeviation="3"/>
<feComposite in2="hardAlpha" operator="out"/>
<feColorMatrix type="matrix" values="0 0 0 0 0 0 0 0 0 0 0 0 0 0 0 0 0 0 0.3 0"/>
<feBlend mode="normal" in2="BackgroundImageFix" result="effect1_dropShadow_356_3348"/>
<feBlend mode="normal" in="SourceGraphic" in2="effect1_dropShadow_356_3348" result="shape"/>
</filter>
</defs>
</svg>
