<svg width="43" height="50" viewBox="0 0 43 50" fill="none" xmlns="http://www.w3.org/2000/svg">
<g filter="url(#filter0_d_356_3349)">
<path d="M16.4492 31.449L17.1023 30.3832L16.4492 31.4491C17.7648 32.2553 19.2264 32.7945 20.7504 33.0359C22.2744 33.2772 23.8311 33.2161 25.3315 32.8559L25.0397 31.6404L25.3315 32.8559C26.8319 32.4957 28.2467 31.8434 29.495 30.9365C30.7433 30.0295 31.8008 28.8855 32.607 27.5699L31.5412 26.9168L32.607 27.5699C33.4133 26.2542 33.9525 24.7927 34.1939 23.2686C34.6814 20.1907 33.9262 17.0452 32.0945 14.524L31.0832 15.2588L32.0945 14.524C30.2628 12.0029 27.5045 10.3127 24.4266 9.82519C21.3487 9.33769 18.2032 10.0929 15.682 11.9246C13.1609 13.7563 11.4707 16.5145 10.9832 19.5924C10.7418 21.1165 10.803 22.6731 11.1632 24.1735C11.5234 25.6739 12.1756 27.0887 13.0826 28.337L14.0938 27.6023L13.0826 28.337C13.9895 29.5853 15.1335 30.6428 16.4492 31.449Z" fill="#7B00FF" stroke="white" stroke-width="2.5"/>
<path d="M35.0247 35.9948L32.5309 32.5624L31.3174 33.4441L30.1039 34.3258L32.5976 37.7581L33.8111 36.8765L35.0247 35.9948Z" fill="#7B00FF" stroke="white" stroke-width="3" stroke-linecap="round"/>
<path d="M12.9509 17.53L12.951 17.53L11.8309 14.8079L8.95789 14.178L12.9509 17.53ZM12.9509 17.53L12.9552 17.5402M12.9509 17.53L12.9552 17.5402M12.9552 17.5402C13.0677 17.8068 13.2403 18.0437 13.4594 18.2323C13.7608 18.5007 14.141 18.6649 14.5436 18.7L14.5436 18.7M12.9552 17.5402L14.5436 18.7M8.04859 13.6897L8.04858 13.6897C7.79714 13.445 7.61938 13.1347 7.53551 12.7941C7.45163 12.4534 7.46502 12.0961 7.57413 11.7626C7.68324 11.4292 7.8837 11.1331 8.15272 10.908C8.15273 10.9079 8.15274 10.9079 8.15275 10.9079L10.3845 9.04003L10.0865 6.12979L10.0856 6.12125L10.0849 6.1127C10.0548 5.77353 10.1177 5.43258 10.2668 5.12645C10.4159 4.82032 10.6455 4.56056 10.931 4.37505L10.9408 4.36866L10.9508 4.36246C11.2482 4.17704 11.5917 4.07871 11.9422 4.07863L11.9425 5.32863L11.9422 4.07863C12.2918 4.07855 12.6345 4.1762 12.9315 4.36054L15.4315 5.90551L18.0895 4.72605C18.4101 4.58289 18.7645 4.53263 19.1124 4.58102C19.4612 4.62956 19.7894 4.77539 20.0592 5.0018C20.329 5.22821 20.5296 5.52604 20.638 5.86118L19.4487 6.24582L20.638 5.86119C20.7456 6.19394 20.758 6.5501 20.6738 6.88944L19.9883 9.72013L21.945 11.9151C21.9456 11.9158 21.9462 11.9165 21.9468 11.9172C22.1799 12.1776 22.3356 12.4981 22.3962 12.8424C22.457 13.1876 22.4198 13.5429 22.2889 13.8681L22.2845 13.8789L22.2799 13.8897C22.1468 14.2031 21.9308 14.4744 21.6553 14.6743L8.04859 13.6897ZM8.04859 13.6897C8.2995 13.9338 8.61372 14.1028 8.95568 14.1775L8.04859 13.6897ZM14.5436 18.7L14.5566 18.701C14.9134 18.7284 15.2705 18.6531 15.5859 18.484C15.8984 18.3164 16.1569 18.0638 16.3315 17.7554L17.7807 15.238L20.6985 15.0261L20.707 15.0255M14.5436 18.7L20.707 15.0255M20.707 15.0255L20.7156 15.0248M20.707 15.0255L20.7156 15.0248M20.7156 15.0248C21.0548 14.9954 21.3797 14.8743 21.6553 14.6743L20.7156 15.0248Z" fill="#F6B354" stroke="white" stroke-width="2.5"/>
</g>
<path d="M32.6314 22.8481C32.426 24.1452 31.9671 25.3891 31.2809 26.5088C30.5948 27.6285 29.6948 28.6021 28.6324 29.374C27.57 30.1459 26.3659 30.7009 25.089 31.0075C23.8121 31.3141 22.4872 31.3661 21.1902 31.1607C19.8931 30.9552 18.6492 30.4964 17.5295 29.8102C16.4098 29.124 15.4363 28.2241 14.6644 27.1617C13.8925 26.0992 13.3374 24.8952 13.0308 23.6183C12.7243 22.3413 12.6722 21.0165 12.8776 19.7195C13.2925 17.0999 14.731 14.7525 16.8767 13.1936C19.0223 11.6347 21.6994 10.992 24.3189 11.4069C26.9384 11.8218 29.2858 13.2603 30.8447 15.4059C32.4036 17.5516 33.0463 20.2286 32.6314 22.8481Z" fill="#7B00FF" stroke="#7B00FF"/>
<path d="M33.9762 36.7295L31.4824 33.2971L33.9762 36.7295Z" fill="#7B00FF"/>
<path d="M33.9762 36.7295L31.4824 33.2971" stroke="#7B00FF" stroke-width="2" stroke-linecap="round"/>
<path d="M14.4666 17.2913C14.3897 17.2274 14.3294 17.1459 14.2905 17.0538L12.9214 13.7266L9.40698 12.9561C9.29271 12.9312 9.18769 12.8748 9.10388 12.7933C9.02007 12.7117 8.96081 12.6083 8.93285 12.4947C8.9049 12.3812 8.90936 12.2621 8.94573 12.1509C8.9821 12.0398 9.04892 11.9411 9.1386 11.866L11.8792 9.57225L11.5136 6.00196C11.5036 5.88891 11.5245 5.77526 11.5742 5.67322C11.6239 5.57117 11.7005 5.48459 11.7956 5.42275C11.8948 5.36094 12.0093 5.32817 12.1261 5.32814C12.2429 5.32811 12.3575 5.36083 12.4566 5.42259L15.5191 7.31514L18.7818 5.86738C18.8889 5.81933 19.0074 5.80243 19.1237 5.81861C19.24 5.83479 19.3494 5.8834 19.4393 5.95887C19.5293 6.03434 19.5961 6.13361 19.6322 6.24533C19.6684 6.35704 19.6723 6.47667 19.6436 6.59052L18.8028 10.0623L21.1983 12.7496C21.2764 12.8365 21.3285 12.9436 21.3488 13.0587C21.369 13.1738 21.3566 13.2922 21.313 13.4006C21.2686 13.505 21.1966 13.5955 21.1048 13.6621C21.0129 13.7288 20.9046 13.7691 20.7915 13.7789L17.212 14.0389L15.429 17.1361C15.3707 17.2402 15.2839 17.3255 15.1788 17.3818C15.0737 17.4382 14.9546 17.4633 14.8357 17.4542C14.698 17.4422 14.5682 17.3849 14.4666 17.2913Z" fill="#F6B354"/>
<defs>
<filter id="filter0_d_356_3349" x="0.231445" y="0.828613" width="42.5801" height="49.0481" filterUnits="userSpaceOnUse" color-interpolation-filters="sRGB">
<feFlood flood-opacity="0" result="BackgroundImageFix"/>
<feColorMatrix in="SourceAlpha" type="matrix" values="0 0 0 0 0 0 0 0 0 0 0 0 0 0 0 0 0 0 127 0" result="hardAlpha"/>
<feOffset dy="4"/>
<feGaussianBlur stdDeviation="3"/>
<feComposite in2="hardAlpha" operator="out"/>
<feColorMatrix type="matrix" values="0 0 0 0 0 0 0 0 0 0 0 0 0 0 0 0 0 0 0.3 0"/>
<feBlend mode="normal" in2="BackgroundImageFix" result="effect1_dropShadow_356_3349"/>
<feBlend mode="normal" in="SourceGraphic" in2="effect1_dropShadow_356_3349" result="shape"/>
</filter>
</defs>
</svg>
