<svg width="19" height="19" viewBox="0 0 19 19" fill="none" xmlns="http://www.w3.org/2000/svg">
<path d="M17.844 15.2048L14.0625 11.4206C13.3338 10.6914 12.1519 10.6912 11.423 11.4201C10.6943 12.1488 10.6943 13.3303 11.423 14.0591L15.2082 17.8443C15.6271 18.2632 16.3167 18.2632 16.7356 17.8443L17.844 16.7359C18.2629 16.3133 18.2629 15.62 17.844 15.2048Z" fill="#9A9A9A"/>
<path d="M9.52779 10.9101C9.90963 11.292 10.5287 11.292 10.9106 10.9101C11.2924 10.5283 11.2924 9.90922 10.9106 9.52738L10.7437 9.36049C10.3284 8.94527 10.2844 8.29699 10.5247 7.76119C11.433 5.7359 11.0584 3.27304 9.39619 1.6108C7.24976 -0.535631 3.76135 -0.535631 1.61121 1.6108C-0.538924 3.75723 -0.535217 7.24564 1.61121 9.39577C3.27346 11.058 5.73631 11.4326 7.7616 10.5243C8.2974 10.284 8.94569 10.328 9.36091 10.7433L9.52779 10.9101ZM2.67887 8.31329C1.12187 6.7563 1.12187 4.23174 2.67887 2.67845C4.23586 1.12146 6.76042 1.12146 8.31371 2.67845C9.8707 4.23545 9.8707 6.76 8.31371 8.31329C6.76042 9.87029 4.23586 9.87029 2.67887 8.31329Z" fill="#9A9A9A"/>
</svg>
