<svg width="16" height="16" viewBox="0 0 16 16" fill="none" xmlns="http://www.w3.org/2000/svg">
<path d="M9.66671 6.33335L7.16671 8.83335M14.9067 0.525853C14.9858 0.498565 15.0709 0.494075 15.1525 0.512894C15.234 0.531714 15.3085 0.573085 15.3676 0.632278C15.4267 0.691472 15.468 0.7661 15.4867 0.847634C15.5054 0.929168 15.5008 1.01432 15.4734 1.09335L10.5367 15.2017C10.5072 15.286 10.453 15.3595 10.3811 15.4127C10.3093 15.4658 10.2232 15.4962 10.1339 15.4998C10.0446 15.5034 9.95628 15.48 9.88041 15.4328C9.80454 15.3856 9.7446 15.3167 9.70838 15.235L7.02588 9.20002C6.98075 9.09966 6.90041 9.01932 6.80005 8.97419L0.765049 6.29085C0.683628 6.2545 0.614978 6.19457 0.567968 6.1188C0.520959 6.04303 0.497749 5.9549 0.501338 5.86581C0.504927 5.77671 0.535149 5.69074 0.588101 5.619C0.641053 5.54726 0.714301 5.49304 0.798382 5.46335L14.9067 0.525853Z" stroke="black" stroke-width="0.7" stroke-linecap="round" stroke-linejoin="round"/>
</svg>
