<svg width="54" height="50" viewBox="0 0 54 50" fill="none" xmlns="http://www.w3.org/2000/svg">
<g filter="url(#filter0_d_585_19435)">
<path d="M33.9 2.87857L33.9 38.5193C33.9 41.001 30.9698 42.3166 29.116 40.6675L18.7844 31.4814C18.4686 31.2012 18.0611 31.0465 17.639 31.0466L9.175 31.0466C8.49541 31.0466 7.82247 30.9128 7.19461 30.6527C6.56675 30.3927 5.99626 30.0115 5.51572 29.5309C5.03518 29.0504 4.65399 28.4799 4.39392 27.852C4.13386 27.2242 4 26.5512 4 25.8717L4 15.5263C4.00061 14.1542 4.5461 12.8385 5.51653 11.8685C6.48697 10.8985 7.8029 10.3536 9.175 10.3536L17.639 10.3536C18.0614 10.3531 18.469 10.1976 18.7844 9.91656L29.1137 0.732669C30.9698 -0.91643 33.9 0.399169 33.9 2.87857ZM43.0816 6.66896C43.4491 6.39665 43.9098 6.28148 44.3622 6.34876C44.8147 6.41605 45.2219 6.66029 45.4943 7.02776C48.4275 10.9842 50.0075 15.7807 50 20.7059C50.0064 25.6305 48.4256 30.4261 45.492 34.3816C45.2168 34.7414 44.8111 34.9784 44.3626 35.0416C43.9141 35.1048 43.4588 34.9891 43.0949 34.7194C42.731 34.4497 42.4877 34.0478 42.4177 33.6003C42.3476 33.1528 42.4564 32.6957 42.7205 32.3278C45.2136 28.9664 46.5565 24.8908 46.55 20.7059C46.557 16.5201 45.214 12.4436 42.7205 9.08166C42.5854 8.89946 42.4876 8.69241 42.4326 8.47236C42.3777 8.25232 42.3666 8.02359 42.4002 7.79928C42.4337 7.57496 42.5112 7.35947 42.6281 7.16512C42.745 6.97077 42.8991 6.80369 43.0816 6.66896ZM38.8289 12.3546C39.0281 12.2465 39.2466 12.1788 39.4719 12.1552C39.6973 12.1317 39.9251 12.1528 40.1423 12.2173C40.3595 12.2818 40.5619 12.3884 40.7379 12.5312C40.9139 12.6739 41.06 12.8499 41.168 13.0492C42.4008 15.3262 43.1 17.9367 43.1 20.7059C43.1012 23.3781 42.4372 26.0087 41.168 28.3603C41.0602 28.5596 40.9141 28.7358 40.7382 28.8787C40.5623 29.0216 40.36 29.1284 40.1428 29.1931C39.9256 29.2579 39.6977 29.2792 39.4723 29.2558C39.2469 29.2325 39.0282 29.165 38.8289 29.0572C38.6295 28.9493 38.4534 28.8033 38.3105 28.6274C38.1676 28.4515 38.0607 28.2491 37.996 28.0319C37.9313 27.8147 37.91 27.5869 37.9333 27.3615C37.9566 27.136 38.0242 26.9174 38.132 26.7181C39.1289 24.871 39.6506 22.8048 39.65 20.7059C39.65 18.5255 39.098 16.4785 38.132 14.6914C37.9147 14.289 37.8661 13.8169 37.9967 13.3787C38.1274 12.9405 38.4267 12.5722 38.8289 12.3546Z" fill="white"/>
</g>
<defs>
<filter id="filter0_d_585_19435" x="0" y="0" width="54" height="49.4004" filterUnits="userSpaceOnUse" color-interpolation-filters="sRGB">
<feFlood flood-opacity="0" result="BackgroundImageFix"/>
<feColorMatrix in="SourceAlpha" type="matrix" values="0 0 0 0 0 0 0 0 0 0 0 0 0 0 0 0 0 0 127 0" result="hardAlpha"/>
<feOffset dy="4"/>
<feGaussianBlur stdDeviation="2"/>
<feComposite in2="hardAlpha" operator="out"/>
<feColorMatrix type="matrix" values="0 0 0 0 0 0 0 0 0 0 0 0 0 0 0 0 0 0 0.25 0"/>
<feBlend mode="normal" in2="BackgroundImageFix" result="effect1_dropShadow_585_19435"/>
<feBlend mode="normal" in="SourceGraphic" in2="effect1_dropShadow_585_19435" result="shape"/>
</filter>
</defs>
</svg>
