<svg width="100" height="20" viewBox="0 0 100 20" fill="none" xmlns="http://www.w3.org/2000/svg">
<rect width="1.33333" height="9.77778" rx="0.666667" transform="matrix(1 -1.63321e-08 -1.63321e-08 -1 0 14.6665)" fill="white"/>
<rect width="1.33333" height="20" rx="0.666667" transform="matrix(1 -1.63321e-08 -1.63321e-08 -1 2.66699 20)" fill="white"/>
<rect width="1.33333" height="8" rx="0.666667" transform="matrix(1 -1.63321e-08 -1.63321e-08 -1 5.33301 13.7778)" fill="white"/>
<rect width="1.33333" height="16" rx="0.666667" transform="matrix(1 -1.63321e-08 -1.63321e-08 -1 8 17.7778)" fill="white"/>
<rect width="1.33333" height="14.2222" rx="0.666667" transform="matrix(1 -1.63321e-08 -1.63321e-08 -1 10.667 17.3335)" fill="white"/>
<rect width="1.33333" height="9.33333" rx="0.666667" transform="matrix(1 -1.63321e-08 -1.63321e-08 -1 13.333 14.2222)" fill="white"/>
<rect width="1.33333" height="9.33333" rx="0.666667" transform="matrix(1 -1.63321e-08 -1.63321e-08 -1 16 14.2222)" fill="white"/>
<rect width="1.33333" height="15.5556" rx="0.666667" transform="matrix(1 -1.63321e-08 -1.63321e-08 -1 18.667 17.7778)" fill="white"/>
<rect width="1.33333" height="6.66667" rx="0.666667" transform="matrix(1 -1.63321e-08 -1.63321e-08 -1 21.333 13.3335)" fill="white"/>
<rect width="1.33333" height="14.6667" rx="0.666667" transform="matrix(1 -1.63321e-08 -1.63321e-08 -1 24 17.3335)" fill="white"/>
<rect width="1.33333" height="9.33333" rx="0.666667" transform="matrix(1 -1.63321e-08 -1.63321e-08 -1 26.667 14.2222)" fill="white"/>
<rect width="1.33333" height="20" rx="0.666667" transform="matrix(1 -1.63321e-08 -1.63321e-08 -1 29.333 20)" fill="white"/>
<rect width="1.33333" height="9.33333" rx="0.666667" transform="matrix(1 -1.63321e-08 -1.63321e-08 -1 32 14.2222)" fill="white"/>
<rect width="1.33333" height="9.33333" rx="0.666667" transform="matrix(1 -1.63321e-08 -1.63321e-08 -1 34.667 14.2222)" fill="white"/>
<rect width="1.33333" height="6.66667" rx="0.666667" transform="matrix(1 -1.63321e-08 -1.63321e-08 -1 37.333 13.3335)" fill="white"/>
<rect width="1.33333" height="15.5556" rx="0.666667" transform="matrix(1 -1.63321e-08 -1.63321e-08 -1 40 17.7778)" fill="white"/>
<rect width="1.33333" height="12" rx="0.666667" transform="matrix(1 -1.63321e-08 -1.63321e-08 -1 42.667 16)" fill="white"/>
<rect width="1.33333" height="17.3333" rx="0.666667" transform="matrix(1 -1.63321e-08 -1.63321e-08 -1 45.333 18.2222)" fill="white"/>
<rect width="1.33333" height="9.77778" rx="0.666667" transform="matrix(1 -1.63321e-08 -1.63321e-08 -1 48 14.6665)" fill="white"/>
<rect width="1.33333" height="14.6667" rx="0.666667" transform="matrix(1 -1.63321e-08 -1.63321e-08 -1 50.667 17.3335)" fill="white"/>
<rect width="1.33333" height="12" rx="0.666667" transform="matrix(1 -1.63321e-08 -1.63321e-08 -1 53.333 16)" fill="white"/>
<rect width="1.33333" height="13.3333" rx="0.666667" transform="matrix(1 -1.63321e-08 -1.63321e-08 -1 56 16.4443)" fill="white"/>
<rect width="1.33333" height="9.77778" rx="0.666667" transform="matrix(1 -1.63321e-08 -1.63321e-08 -1 58.667 14.6665)" fill="white"/>
<rect width="1.33333" height="13.7778" rx="0.666667" transform="matrix(1 -1.63321e-08 -1.63321e-08 -1 61.333 16.4443)" fill="white"/>
<rect width="1.33333" height="6.66667" rx="0.666667" transform="matrix(1 -1.63321e-08 -1.63321e-08 -1 64 13.3335)" fill="white"/>
<rect width="1.33333" height="9.77778" rx="0.666667" transform="matrix(1 -1.63321e-08 -1.63321e-08 -1 66.667 14.6665)" fill="white"/>
<rect width="1.33333" height="9.33333" rx="0.666667" transform="matrix(1 -1.63321e-08 -1.63321e-08 -1 69.333 14.2222)" fill="white"/>
<rect width="1.33333" height="9.77778" rx="0.666667" transform="matrix(1 -1.63321e-08 -1.63321e-08 -1 72 14.6665)" fill="white"/>
<rect width="1.33333" height="16" rx="0.666667" transform="matrix(1 -1.63321e-08 -1.63321e-08 -1 74.667 17.7778)" fill="white"/>
<rect width="1.33333" height="9.33333" rx="0.666667" transform="matrix(1 -1.63321e-08 -1.63321e-08 -1 77.333 14.2222)" fill="white"/>
<rect width="1.33333" height="6.66667" rx="0.666667" transform="matrix(1 -1.63321e-08 -1.63321e-08 -1 80 13.3335)" fill="white"/>
<rect width="1.33333" height="13.3333" rx="0.666667" transform="matrix(1 -1.63321e-08 -1.63321e-08 -1 82.667 16.4443)" fill="white"/>
<rect width="1.33333" height="9.33333" rx="0.666667" transform="matrix(1 -1.63321e-08 -1.63321e-08 -1 85.333 14.2222)" fill="white"/>
<rect width="1.33333" height="9.77778" rx="0.666667" transform="matrix(1 -1.63321e-08 -1.63321e-08 -1 88 14.6665)" fill="white"/>
<rect width="1.33333" height="6.66667" rx="0.666667" transform="matrix(1 -1.63321e-08 -1.63321e-08 -1 90.667 13.3335)" fill="white"/>
<rect width="1.33333" height="9.77778" rx="0.666667" transform="matrix(1 -1.63321e-08 -1.63321e-08 -1 93.333 14.6665)" fill="white"/>
<rect width="1.33333" height="13.7778" rx="0.666667" transform="matrix(1 -1.63321e-08 -1.63321e-08 -1 96 16.4443)" fill="white"/>
<rect width="1.33333" height="9.33333" rx="0.666667" transform="matrix(1 -1.63321e-08 -1.63321e-08 -1 98.667 14.2222)" fill="white"/>
</svg>
