<svg width="137" height="124" viewBox="0 0 137 124" fill="none" xmlns="http://www.w3.org/2000/svg">
<g filter="url(#filter0_d_585_24628)">
<g filter="url(#filter1_d_585_24628)">
<path d="M86.8886 9.7874L86.8886 106.207C86.8886 112.92 78.9615 116.479 73.9464 112.018L45.9963 87.1666C45.1421 86.4087 44.0396 85.9903 42.8976 85.9906L19.9999 85.9906C18.1614 85.9906 16.3409 85.6285 14.6424 84.925C12.9438 84.2214 11.4005 83.1902 10.1005 81.8901C8.80048 80.5901 7.76925 79.0468 7.06568 77.3482C6.36212 75.6497 6 73.8292 6 71.9907L6 44.0033C6.00165 40.2913 7.47737 36.732 10.1027 34.1078C12.728 31.4837 16.288 30.0095 19.9999 30.0095L42.8976 30.0095C44.0404 30.0082 45.143 29.5875 45.9963 28.8273L73.9402 3.98209C78.9615 -0.479223 86.8885 3.07987 86.8886 9.7874ZM111.728 20.0416C112.722 19.3049 113.968 18.9933 115.192 19.1753C116.416 19.3574 117.518 20.0181 118.255 21.0122C126.19 31.7157 130.464 44.6915 130.444 58.0156C130.461 71.3383 126.185 84.3119 118.248 95.0128C117.504 95.986 116.406 96.6273 115.193 96.7983C113.98 96.9692 112.748 96.6561 111.763 95.9266C110.779 95.197 110.121 94.1096 109.932 92.899C109.742 91.6884 110.036 90.4519 110.751 89.4564C117.495 80.3629 121.128 69.3373 121.111 58.0156C121.13 46.6919 117.496 35.6638 110.751 26.5687C110.385 26.0758 110.121 25.5156 109.972 24.9203C109.823 24.325 109.793 23.7063 109.884 23.0994C109.975 22.4926 110.184 21.9096 110.501 21.3838C110.817 20.8581 111.234 20.406 111.728 20.0416ZM100.223 35.4228C100.762 35.1306 101.353 34.9474 101.962 34.8836C102.572 34.8199 103.188 34.8769 103.776 35.0514C104.364 35.2259 104.911 35.5145 105.387 35.9006C105.863 36.2868 106.259 36.763 106.551 37.3019C109.886 43.4619 111.777 50.5241 111.777 58.0156C111.781 65.2449 109.984 72.3613 106.551 78.7231C106.259 79.2624 105.864 79.739 105.388 80.1256C104.912 80.5122 104.365 80.8013 103.777 80.9763C103.19 81.1514 102.573 81.209 101.963 81.1459C101.353 81.0828 100.762 80.9001 100.223 80.6084C99.6834 80.3167 99.2069 79.9217 98.8203 79.4458C98.4336 78.9699 98.1446 78.4225 97.9695 77.8349C97.7944 77.2473 97.7368 76.631 97.7999 76.0211C97.8631 75.4112 98.0457 74.8198 98.3374 74.2805C101.034 69.2835 102.446 63.694 102.444 58.0156C102.444 52.117 100.951 46.5792 98.3374 41.7446C97.7496 40.6562 97.618 39.3789 97.9715 38.1935C98.3251 37.0081 99.1348 36.0115 100.223 35.4228Z" fill="url(#paint0_linear_585_24628)"/>
<path d="M119.047 95.6145L119.043 95.6204C118.139 96.8022 116.806 97.5809 115.333 97.7885C113.859 97.9961 112.364 97.6159 111.168 96.73C109.973 95.8441 109.174 94.5236 108.944 93.0537C108.713 91.5837 109.071 90.0822 109.938 88.8734L109.943 88.867L109.947 88.8607C116.564 79.94 120.128 69.1238 120.111 58.0172L120.111 58.014C120.129 46.9053 116.565 36.0868 109.947 27.1644L109.947 27.1642C109.504 26.5657 109.182 25.8855 109.002 25.1626C108.821 24.4398 108.785 23.6884 108.895 22.9515C109.005 22.2147 109.26 21.5068 109.644 20.8683C110.03 20.2261 110.538 19.6773 111.133 19.2376C112.34 18.3434 113.853 17.9652 115.339 18.1862C116.825 18.4072 118.163 19.2095 119.058 20.4167C119.058 20.4167 119.058 20.4167 119.058 20.4167L118.255 21.0122C126.19 31.7157 130.464 44.6915 130.444 58.0156L119.047 95.6145ZM119.047 95.6145L119.052 95.6085C127.116 84.7353 131.461 71.553 131.444 58.0159L119.047 95.6145ZM107.43 36.8256L107.43 36.8258C110.842 43.1285 112.777 50.3538 112.777 58.0152L107.43 36.8256ZM107.43 36.8256C107.075 36.1711 106.595 35.5929 106.017 35.124C105.439 34.6551 104.774 34.3047 104.061 34.0928C103.347 33.8809 102.599 33.8117 101.858 33.8891C101.118 33.9664 100.401 34.1887 99.7468 34.5433M107.43 36.8256L107.431 79.1981M107.431 79.1981L107.43 79.1989C107.076 79.8537 106.596 80.4323 106.019 80.9017C105.441 81.3711 104.776 81.7221 104.063 81.9347C103.349 82.1473 102.601 82.2172 101.86 82.1406C101.12 82.0639 100.402 81.8422 99.7469 81.488C99.0921 81.1338 98.5135 80.6541 98.0441 80.0763C97.5747 79.4985 97.2237 78.8339 97.0111 78.1205L97.9695 77.8349L97.0111 78.1204C96.7986 77.407 96.7286 76.6586 96.8052 75.9181C96.8819 75.1776 97.1036 74.4595 97.4578 73.8047C100.076 68.954 101.446 63.5281 101.444 58.0159L101.444 58.0156C101.444 52.2879 99.9944 46.913 97.4577 42.2201L97.4575 42.2198C96.7438 40.8981 96.584 39.3471 97.0132 37.9077C97.4425 36.4683 98.4257 35.2582 99.7468 34.5433M107.431 79.1981C110.943 72.6904 112.781 65.4107 112.777 58.0156L107.431 79.1981ZM99.7468 34.5433L100.223 35.4228L99.746 34.5438C99.7462 34.5437 99.7465 34.5435 99.7468 34.5433ZM42.8976 86.9906L42.8979 86.9906C43.7952 86.9904 44.6614 87.3191 45.3326 87.9146L73.2817 112.765C78.942 117.8 87.8886 113.783 87.8886 106.207L87.8886 9.7874C87.8885 2.21545 78.941 -1.79869 73.276 3.23453L73.2757 3.23476L45.3318 28.08L45.3311 28.0807C44.6606 28.6779 43.7943 29.0085 42.8964 29.0095L19.9999 29.0095C16.0229 29.0095 12.2086 30.589 9.39574 33.4006C6.5829 36.2122 5.00177 40.0257 5 44.0028L5 44.0033L5 71.9907C5 73.9605 5.38799 75.911 6.1418 77.7309C6.89562 79.5508 8.00051 81.2044 9.39338 82.5973C10.7863 83.9901 12.4398 85.095 14.2597 85.8488C16.0796 86.6027 18.0301 86.9906 19.9999 86.9906L42.8976 86.9906Z" stroke="white" stroke-width="2"/>
</g>
</g>
<defs>
<filter id="filter0_d_585_24628" x="0" y="-0.00341797" width="136.444" height="124.007" filterUnits="userSpaceOnUse" color-interpolation-filters="sRGB">
<feFlood flood-opacity="0" result="BackgroundImageFix"/>
<feColorMatrix in="SourceAlpha" type="matrix" values="0 0 0 0 0 0 0 0 0 0 0 0 0 0 0 0 0 0 127 0" result="hardAlpha"/>
<feOffset dy="4"/>
<feGaussianBlur stdDeviation="2"/>
<feComposite in2="hardAlpha" operator="out"/>
<feColorMatrix type="matrix" values="0 0 0 0 0 0 0 0 0 0 0 0 0 0 0 0 0 0 0.25 0"/>
<feBlend mode="normal" in2="BackgroundImageFix" result="effect1_dropShadow_585_24628"/>
<feBlend mode="normal" in="SourceGraphic" in2="effect1_dropShadow_585_24628" result="shape"/>
</filter>
<filter id="filter1_d_585_24628" x="0" y="-0.00341797" width="136.444" height="124.007" filterUnits="userSpaceOnUse" color-interpolation-filters="sRGB">
<feFlood flood-opacity="0" result="BackgroundImageFix"/>
<feColorMatrix in="SourceAlpha" type="matrix" values="0 0 0 0 0 0 0 0 0 0 0 0 0 0 0 0 0 0 127 0" result="hardAlpha"/>
<feOffset dy="4"/>
<feGaussianBlur stdDeviation="2"/>
<feComposite in2="hardAlpha" operator="out"/>
<feColorMatrix type="matrix" values="0 0 0 0 0 0 0 0 0 0 0 0 0 0 0 0 0 0 0.25 0"/>
<feBlend mode="normal" in2="BackgroundImageFix" result="effect1_dropShadow_585_24628"/>
<feBlend mode="normal" in="SourceGraphic" in2="effect1_dropShadow_585_24628" result="shape"/>
</filter>
<linearGradient id="paint0_linear_585_24628" x1="-25.111" y1="-23.4545" x2="6.98619" y2="189.04" gradientUnits="userSpaceOnUse">
<stop offset="0.384982" stop-color="#B5B4F2"/>
<stop offset="1" stop-color="#A2E4FA"/>
</linearGradient>
</defs>
</svg>
