<svg width="65" height="84" viewBox="0 0 65 84" fill="none" xmlns="http://www.w3.org/2000/svg">
<path d="M21.19 67L18.484 59.916H19.727L21.85 65.713L23.973 59.916H25.216L22.532 67H21.19ZM27.9039 67.11C26.9652 67.11 26.2759 66.8753 25.8359 66.406C25.4032 65.9367 25.1869 65.2657 25.1869 64.393C25.1869 63.5203 25.4069 62.8493 25.8469 62.38C26.2869 61.9107 26.9725 61.676 27.9039 61.676C28.8425 61.676 29.5319 61.9107 29.9719 62.38C30.4119 62.8493 30.6319 63.5203 30.6319 64.393C30.6319 65.2657 30.4119 65.9367 29.9719 66.406C29.5392 66.8753 28.8499 67.11 27.9039 67.11ZM27.9039 66.098C28.4539 66.098 28.8425 65.966 29.0699 65.702C29.3045 65.4307 29.4219 64.9943 29.4219 64.393C29.4219 63.7917 29.3045 63.359 29.0699 63.095C28.8425 62.831 28.4539 62.699 27.9039 62.699C27.3612 62.699 26.9725 62.831 26.7379 63.095C26.5105 63.359 26.3969 63.7917 26.3969 64.393C26.3969 64.9943 26.5105 65.4307 26.7379 65.702C26.9725 65.966 27.3612 66.098 27.9039 66.098ZM32.0236 60.697V59.707H33.3326V60.697H32.0236ZM32.1226 67V62.699H31.3306L31.4406 61.786H33.3216V67H32.1226ZM37.2833 67.11C36.3667 67.11 35.6737 66.879 35.2043 66.417C34.735 65.9477 34.5003 65.273 34.5003 64.393C34.5003 63.4763 34.757 62.7943 35.2703 62.347C35.791 61.8997 36.484 61.676 37.3493 61.676C37.7087 61.676 38.0093 61.7017 38.2513 61.753C38.5007 61.8043 38.739 61.885 38.9663 61.995V62.886C38.585 62.6953 38.123 62.6 37.5803 62.6C36.979 62.6 36.517 62.7357 36.1943 63.007C35.8717 63.271 35.7103 63.733 35.7103 64.393C35.7103 65.0163 35.8533 65.4747 36.1393 65.768C36.4253 66.054 36.8983 66.197 37.5583 66.197C38.079 66.197 38.552 66.098 38.9773 65.9V66.813C38.7353 66.9083 38.475 66.9817 38.1963 67.033C37.925 67.0843 37.6207 67.11 37.2833 67.11ZM42.5703 67.11C41.661 67.11 40.957 66.8863 40.4583 66.439C39.9596 65.9917 39.7103 65.306 39.7103 64.382C39.7103 63.546 39.923 62.886 40.3483 62.402C40.7736 61.918 41.419 61.676 42.2843 61.676C43.0763 61.676 43.6703 61.885 44.0663 62.303C44.4696 62.7137 44.6713 63.2453 44.6713 63.898V64.866H40.8543C40.913 65.372 41.0963 65.7203 41.4043 65.911C41.7123 66.1017 42.1816 66.197 42.8123 66.197C43.0763 66.197 43.3476 66.1713 43.6263 66.12C43.905 66.0687 44.147 66.0027 44.3523 65.922V66.802C44.1176 66.9047 43.8463 66.9817 43.5383 67.033C43.2376 67.0843 42.915 67.11 42.5703 67.11ZM40.8543 64.085H43.6153V63.722C43.6153 63.3627 43.5163 63.084 43.3183 62.886C43.1203 62.6807 42.7866 62.578 42.3173 62.578C41.76 62.578 41.375 62.699 41.1623 62.941C40.957 63.183 40.8543 63.5643 40.8543 64.085Z" fill="#646466"/>
<path d="M23.119 24.8H27.7594C28.075 24.8 28.3776 24.9264 28.6008 25.1515C28.8239 25.3765 28.9493 25.6817 28.9493 26C28.9493 26.3183 28.8239 26.6235 28.6008 26.8485C28.3776 27.0736 28.075 27.2 27.7594 27.2H23V30.8H27.7594C28.075 30.8 28.3776 30.9264 28.6008 31.1515C28.8239 31.3765 28.9493 31.6817 28.9493 32C28.9493 32.3183 28.8239 32.6235 28.6008 32.8485C28.3776 33.0736 28.075 33.2 27.7594 33.2H23C23 34.7913 23.6268 36.3174 24.7425 37.4426C25.8582 38.5679 27.3714 39.2 28.9493 39.2H31.329V41.6H28.9493C28.6337 41.6 28.3311 41.7264 28.1079 41.9515C27.8848 42.1765 27.7594 42.4817 27.7594 42.8C27.7594 43.1183 27.8848 43.4235 28.1079 43.6485C28.3311 43.8736 28.6337 44 28.9493 44H36.0884C36.404 44 36.7066 43.8736 36.9298 43.6485C37.1529 43.4235 37.2783 43.1183 37.2783 42.8C37.2783 42.4817 37.1529 42.1765 36.9298 41.9515C36.7066 41.7264 36.404 41.6 36.0884 41.6H33.7087V39.2H36.0884C37.6662 39.2 39.1795 38.5679 40.2952 37.4426C41.4109 36.3174 42.0377 34.7913 42.0377 33.2H37.2783C36.9627 33.2 36.66 33.0736 36.4369 32.8485C36.2138 32.6235 36.0884 32.3183 36.0884 32C36.0884 31.6817 36.2138 31.3765 36.4369 31.1515C36.66 30.9264 36.9627 30.8 37.2783 30.8H42.0377V27.2H37.2783C36.9627 27.2 36.66 27.0736 36.4369 26.8485C36.2138 26.6235 36.0884 26.3183 36.0884 26C36.0884 25.6817 36.2138 25.3765 36.4369 25.1515C36.66 24.9264 36.9627 24.8 37.2783 24.8H41.9187C41.6444 23.4448 40.9142 22.2267 39.8518 21.352C38.7894 20.4773 37.4599 19.9997 36.0884 20H28.9493C27.5778 19.9997 26.2483 20.4773 25.1859 21.352C24.1234 22.2267 23.3933 23.4448 23.119 24.8Z" fill="white" stroke="#646466"/>
</svg>
