<svg width="65" height="84" viewBox="0 0 65 84" fill="none" xmlns="http://www.w3.org/2000/svg">
<g filter="url(#filter0_d_356_3365)">
<path d="M21.7223 23.586L22.2561 22.1539C22.8632 20.5251 24.01 19.1543 25.5049 18.275L26.1387 19.3525L25.5049 18.275C27 17.3956 28.751 17.0622 30.4614 17.3334L21.7223 23.586ZM21.7223 23.586L23.2318 23.825L28.0437 24.5872C28.0447 24.589 28.046 24.5929 28.0452 24.5982C28.0443 24.6035 28.0419 24.6068 28.0403 24.6082L23.1051 23.8265L21.8704 23.631L21.6749 24.8656L21.0833 28.601L20.8877 29.8356L22.1223 30.0312L27.0576 30.8129C27.0586 30.8147 27.06 30.8186 27.0591 30.8239C27.0583 30.8292 27.0558 30.8325 27.0543 30.8339L22.119 30.0522L20.8844 29.8567L20.6888 31.0913C20.376 33.0665 20.8536 35.0862 22.0199 36.7059C23.1865 38.326 24.9469 39.4132 26.9149 39.7249L28.1495 39.9204M21.7223 23.586L28.1495 39.9204M28.1495 39.9204L28.1462 39.9415L26.9116 39.7459C26.2533 39.6417 25.5823 39.8058 25.0463 40.1988C24.5106 40.5915 24.1532 41.1803 24.0496 41.8346C23.946 42.4889 24.1039 43.1593 24.492 43.6983C24.8804 44.2377 25.4678 44.6012 26.1261 44.7054L33.5337 45.8787C34.192 45.9829 34.863 45.8188 35.3991 45.4258C35.9347 45.0331 36.2921 44.4443 36.3957 43.79C36.4993 43.1357 36.3414 42.4653 35.9533 41.9263C35.5649 41.3869 34.9775 41.0234 34.3192 40.9192L33.0846 40.7236L33.088 40.7026L34.3226 40.8981C36.2906 41.2098 38.3008 40.7199 39.911 39.5395C41.5207 38.3595 42.599 36.5863 42.9118 34.6111L43.1074 33.3765L41.8728 33.1809L36.9375 32.3993C36.9365 32.3974 36.9352 32.3935 36.936 32.3882C36.9368 32.3829 36.9393 32.3796 36.9408 32.3782L41.8761 33.1599L43.1107 33.3554L43.3063 32.1208L43.8979 28.3854L44.0934 27.1508L42.8588 26.9552L37.9235 26.1736C37.9225 26.1717 37.9212 26.1679 37.922 26.1625C37.9229 26.1572 37.9253 26.1539 37.9269 26.1525L42.7387 26.9146L44.2482 27.1537L44.1831 25.6268C44.109 23.8901 43.4419 22.232 42.2919 20.9338C41.1418 19.6355 39.5795 18.7773 37.869 18.5067C37.8689 18.5067 37.8689 18.5067 37.8688 18.5067L30.4616 17.3335L28.1495 39.9204Z" fill="#7B00FF" stroke="white" stroke-width="2.5"/>
<path d="M22.9499 25.5302L22.95 25.5302L21.8299 22.8082L18.9569 22.1783L22.9499 25.5302ZM22.9499 25.5302L22.9542 25.5404M22.9499 25.5302L22.9542 25.5404M22.9542 25.5404C23.0667 25.8071 23.2393 26.0439 23.4584 26.2325C23.7598 26.5009 24.14 26.6651 24.5427 26.7002L24.5427 26.7003M22.9542 25.5404L24.5427 26.7003M18.0476 21.6899L18.0476 21.6899C17.7962 21.4453 17.6184 21.135 17.5345 20.7943C17.4507 20.4537 17.464 20.0963 17.5732 19.7629C17.6823 19.4295 17.8827 19.1334 18.1517 18.9082C18.1518 18.9082 18.1518 18.9082 18.1518 18.9082L20.3835 17.0403L20.0855 14.13L20.0846 14.1215L20.0839 14.1129C20.0539 13.7738 20.1168 13.4328 20.2658 13.1267C20.4149 12.8206 20.6445 12.5608 20.93 12.3753L20.9399 12.3689L20.9498 12.3627C21.2473 12.1773 21.5907 12.079 21.9412 12.0789L21.9415 13.3289L21.9412 12.0789C22.2908 12.0788 22.6335 12.1764 22.9305 12.3608L25.4305 13.9057L28.0885 12.7263C28.4092 12.5831 28.7636 12.5329 29.1114 12.5813C29.4603 12.6298 29.7884 12.7756 30.0582 13.002C30.328 13.2285 30.5286 13.5263 30.637 13.8614L29.4477 14.2461L30.637 13.8614C30.7446 14.1942 30.757 14.5503 30.6729 14.8897L29.9873 17.7204L31.944 19.9154C31.9446 19.9161 31.9452 19.9167 31.9458 19.9174C32.1789 20.1779 32.3346 20.4984 32.3952 20.8427C32.456 21.1879 32.4188 21.5432 32.2879 21.8683L32.2835 21.8792L32.2789 21.89C32.1458 22.2034 31.9299 22.4746 31.6543 22.6746L18.0476 21.6899ZM18.0476 21.6899C18.2985 21.934 18.6127 22.103 18.9547 22.1778L18.0476 21.6899ZM24.5427 26.7003L24.5556 26.7013C24.9124 26.7286 25.2696 26.6533 25.5849 26.4842C25.8974 26.3167 26.1559 26.064 26.3305 25.7556L27.7797 23.2383L30.6975 23.0264L30.7061 23.0258M24.5427 26.7003L30.7061 23.0258M30.7061 23.0258L30.7146 23.025M30.7061 23.0258L30.7146 23.025M30.7146 23.025C31.0538 22.9957 31.3787 22.8745 31.6543 22.6746L30.7146 23.025Z" fill="#F6B354" stroke="white" stroke-width="2.5"/>
</g>
<path d="M23.4284 22.5899L28.2434 23.3526C28.5708 23.4044 28.864 23.5853 29.0586 23.8555C29.2531 24.1257 29.3331 24.463 29.2808 24.7932C29.2284 25.1235 29.0482 25.4196 28.7797 25.6164C28.5112 25.8133 28.1764 25.8947 27.8489 25.8428L22.9105 25.0607L22.3189 28.7961L27.2573 29.5783C27.5847 29.6301 27.878 29.811 28.0725 30.0812C28.2671 30.3514 28.347 30.6887 28.2947 31.0189C28.2424 31.3492 28.0622 31.6453 27.7936 31.8421C27.5251 32.0389 27.1903 32.1204 26.8629 32.0685L21.9244 31.2864C21.6629 32.9375 22.0625 34.6241 23.0352 35.975C24.008 37.3259 25.4742 38.2305 27.1114 38.4898L29.5807 38.8808L29.1862 41.3711L26.717 40.98C26.3896 40.9282 26.0548 41.0096 25.7863 41.2065C25.5177 41.4033 25.3375 41.6994 25.2852 42.0296C25.2329 42.3599 25.3128 42.6972 25.5074 42.9674C25.7019 43.2375 25.9952 43.4185 26.3226 43.4703L33.7303 44.6436C34.0577 44.6954 34.3925 44.614 34.661 44.4172C34.9295 44.2203 35.1098 43.9242 35.1621 43.594C35.2144 43.2637 35.1345 42.9264 34.9399 42.6563C34.7454 42.3861 34.4521 42.2052 34.1247 42.1533L31.6555 41.7622L32.0499 39.2719L34.5191 39.663C36.1563 39.9223 37.8303 39.5151 39.1729 38.5309C40.5155 37.5467 41.4167 36.0662 41.6782 34.415L36.7398 33.6329C36.4123 33.581 36.1191 33.4001 35.9245 33.1299C35.73 32.8597 35.6501 32.5224 35.7024 32.1922C35.7547 31.862 35.9349 31.5659 36.2034 31.369C36.4719 31.1722 36.8067 31.0907 37.1342 31.1426L42.0726 31.9248L42.6643 28.1894L37.7258 27.4072C37.3984 27.3553 37.1051 27.1744 36.9106 26.9042C36.716 26.634 36.6361 26.2967 36.6884 25.9665C36.7407 25.6363 36.921 25.3402 37.1895 25.1433C37.458 24.9465 37.7928 24.8651 38.1202 24.9169L42.9352 25.6795C42.8733 24.2282 42.3159 22.8444 41.3572 21.7622C40.3986 20.68 39.0976 19.9659 37.6745 19.7408L30.2668 18.5676C28.8438 18.3419 27.3858 18.619 26.1397 19.352C24.8935 20.085 23.9357 21.2288 23.4284 22.5899Z" fill="#7B00FF"/>
<path d="M24.4656 25.292C24.3888 25.2281 24.3284 25.1467 24.2895 25.0546L22.9204 21.7273L19.406 20.9568C19.2917 20.932 19.1867 20.8756 19.1029 20.794C19.0191 20.7125 18.9598 20.609 18.9319 20.4955C18.9039 20.3819 18.9084 20.2628 18.9448 20.1517C18.9811 20.0405 19.0479 19.9418 19.1376 19.8668L21.8782 17.573L21.5126 14.0027C21.5026 13.8896 21.5236 13.776 21.5733 13.6739C21.6229 13.5719 21.6995 13.4853 21.7947 13.4235C21.8938 13.3617 22.0083 13.3289 22.1251 13.3289C22.242 13.3288 22.3565 13.3616 22.4557 13.4233L25.5181 15.3159L28.7808 13.8681C28.8879 13.8201 29.0064 13.8032 29.1227 13.8193C29.239 13.8355 29.3484 13.8841 29.4383 13.9596C29.5283 14.0351 29.5951 14.1343 29.6313 14.2461C29.6674 14.3578 29.6713 14.4774 29.6426 14.5912L28.8018 18.063L31.1974 20.7503C31.2754 20.8373 31.3275 20.9444 31.3478 21.0594C31.368 21.1745 31.3556 21.2929 31.312 21.4013C31.2676 21.5058 31.1956 21.5962 31.1038 21.6628C31.0119 21.7295 30.9036 21.7699 30.7906 21.7797L27.211 22.0396L25.428 25.1369C25.3698 25.241 25.283 25.3262 25.1778 25.3826C25.0727 25.4389 24.9537 25.464 24.8347 25.4549C24.6971 25.4429 24.5672 25.3857 24.4656 25.292Z" fill="#F6B354"/>
<path d="M20.047 67L17.341 59.916H19.189L20.993 64.976L22.808 59.916H24.667L21.961 67H20.047ZM27.1852 67.11C26.1806 67.11 25.4399 66.879 24.9632 66.417C24.4866 65.9477 24.2482 65.273 24.2482 64.393C24.2482 63.5203 24.4866 62.8493 24.9632 62.38C25.4472 61.9107 26.1879 61.676 27.1852 61.676C28.1899 61.676 28.9306 61.9107 29.4072 62.38C29.8912 62.8493 30.1332 63.5203 30.1332 64.393C30.1332 65.273 29.8949 65.9477 29.4182 66.417C28.9416 66.879 28.1972 67.11 27.1852 67.11ZM27.1852 65.724C27.5959 65.724 27.8892 65.6213 28.0652 65.416C28.2412 65.2107 28.3292 64.8697 28.3292 64.393C28.3292 63.9163 28.2412 63.5753 28.0652 63.37C27.8892 63.1647 27.5959 63.062 27.1852 63.062C26.7819 63.062 26.4922 63.1647 26.3162 63.37C26.1402 63.5753 26.0522 63.9163 26.0522 64.393C26.0522 64.8697 26.1402 65.2107 26.3162 65.416C26.4922 65.6213 26.7819 65.724 27.1852 65.724ZM31.1689 60.961V59.63H33.0939V60.961H31.1689ZM31.3119 67V63.095H30.5419L30.6959 61.786H33.0829V67H31.3119ZM36.9614 67.11C36.0301 67.11 35.3004 66.8827 34.7724 66.428C34.2517 65.9733 33.9914 65.295 33.9914 64.393C33.9914 63.4763 34.2627 62.7943 34.8054 62.347C35.3554 61.8997 36.0851 61.676 36.9944 61.676C37.3757 61.676 37.7057 61.7053 37.9844 61.764C38.2704 61.8153 38.5454 61.9033 38.8094 62.028V63.282C38.3987 63.084 37.9184 62.985 37.3684 62.985C36.8551 62.985 36.4627 63.0877 36.1914 63.293C35.9274 63.4983 35.7954 63.865 35.7954 64.393C35.7954 64.8843 35.9201 65.2437 36.1694 65.471C36.4187 65.691 36.8147 65.801 37.3574 65.801C37.8927 65.801 38.3804 65.691 38.8204 65.471V66.78C38.5564 66.8973 38.2704 66.9817 37.9624 67.033C37.6617 67.0843 37.3281 67.11 36.9614 67.11ZM42.5161 67.11C41.6068 67.11 40.8771 66.8863 40.3271 66.439C39.7771 65.9843 39.5021 65.3023 39.5021 64.393C39.5021 63.5643 39.7295 62.9043 40.1841 62.413C40.6388 61.9217 41.3208 61.676 42.2301 61.676C43.0588 61.676 43.7005 61.8887 44.1551 62.314C44.6098 62.7393 44.8371 63.3113 44.8371 64.03V64.965H41.1411C41.2218 65.3097 41.4088 65.5517 41.7021 65.691C42.0028 65.823 42.4098 65.889 42.9231 65.889C43.2091 65.889 43.4988 65.8633 43.7921 65.812C44.0928 65.7607 44.3421 65.6947 44.5401 65.614V66.769C44.2908 66.8863 43.9938 66.9707 43.6491 67.022C43.3045 67.0807 42.9268 67.11 42.5161 67.11ZM41.1411 63.942H43.2971V63.711C43.2971 63.4543 43.2201 63.2527 43.0661 63.106C42.9121 62.952 42.6518 62.875 42.2851 62.875C41.8598 62.875 41.5628 62.963 41.3941 63.139C41.2255 63.3077 41.1411 63.5753 41.1411 63.942Z" fill="#7B00FF"/>
<defs>
<filter id="filter0_d_356_3365" x="10.2305" y="8.82886" width="41.332" height="48.3306" filterUnits="userSpaceOnUse" color-interpolation-filters="sRGB">
<feFlood flood-opacity="0" result="BackgroundImageFix"/>
<feColorMatrix in="SourceAlpha" type="matrix" values="0 0 0 0 0 0 0 0 0 0 0 0 0 0 0 0 0 0 127 0" result="hardAlpha"/>
<feOffset dy="4"/>
<feGaussianBlur stdDeviation="3"/>
<feComposite in2="hardAlpha" operator="out"/>
<feColorMatrix type="matrix" values="0 0 0 0 0 0 0 0 0 0 0 0 0 0 0 0 0 0 0.3 0"/>
<feBlend mode="normal" in2="BackgroundImageFix" result="effect1_dropShadow_356_3365"/>
<feBlend mode="normal" in="SourceGraphic" in2="effect1_dropShadow_356_3365" result="shape"/>
</filter>
</defs>
</svg>
