<svg width="59" height="59" viewBox="0 0 59 59" fill="none" xmlns="http://www.w3.org/2000/svg">
<g filter="url(#filter0_d_1722_14148)">
<mask id="path-1-outside-1_1722_14148" maskUnits="userSpaceOnUse" x="7" y="3" width="48" height="48" fill="black">
<rect fill="white" x="7" y="3" width="48" height="48"/>
<path fill-rule="evenodd" clip-rule="evenodd" d="M40.9606 5C44.1031 5 47.1169 6.24835 49.339 8.47044C51.5611 10.6925 52.8095 13.7063 52.8095 16.8488C52.8095 17.7432 52.4517 18.6044 51.8157 19.2404L50.0667 20.9928L43.5378 27.5217L26.7798 44.2796C25.3923 45.6664 23.6255 46.6115 21.7018 46.9959L12.9634 48.7449C12.4285 48.8521 11.8754 48.8255 11.3532 48.6675C10.831 48.5095 10.356 48.225 9.97021 47.8392C9.58445 47.4535 9.29994 46.9784 9.14195 46.4563C8.98396 45.9341 8.95738 45.381 9.06458 44.8461L10.8136 36.1077C11.1979 34.184 12.143 32.4171 13.5298 31.0296L30.2878 14.2717L38.569 5.99044C39.2017 5.35775 40.063 5 40.9606 5ZM33.3088 18.2798L17.0444 34.5442C16.3513 35.2375 15.8787 36.1203 15.6863 37.0816L14.4275 43.3853L20.7279 42.1265C21.6903 41.9346 22.5744 41.4621 23.2686 40.7684L39.533 24.504C39.3851 22.9023 38.6815 21.4028 37.5441 20.2654C36.4067 19.128 34.9072 18.4244 33.3055 18.2765M43.5676 20.4561C42.3633 17.6642 40.138 15.4377 37.3467 14.2319L41.5867 9.99194C44.8826 10.2901 47.5095 12.9202 47.8076 16.2194L43.5676 20.4561Z"/>
</mask>
<path fill-rule="evenodd" clip-rule="evenodd" d="M40.9606 5C44.1031 5 47.1169 6.24835 49.339 8.47044C51.5611 10.6925 52.8095 13.7063 52.8095 16.8488C52.8095 17.7432 52.4517 18.6044 51.8157 19.2404L50.0667 20.9928L43.5378 27.5217L26.7798 44.2796C25.3923 45.6664 23.6255 46.6115 21.7018 46.9959L12.9634 48.7449C12.4285 48.8521 11.8754 48.8255 11.3532 48.6675C10.831 48.5095 10.356 48.225 9.97021 47.8392C9.58445 47.4535 9.29994 46.9784 9.14195 46.4563C8.98396 45.9341 8.95738 45.381 9.06458 44.8461L10.8136 36.1077C11.1979 34.184 12.143 32.4171 13.5298 31.0296L30.2878 14.2717L38.569 5.99044C39.2017 5.35775 40.063 5 40.9606 5ZM33.3088 18.2798L17.0444 34.5442C16.3513 35.2375 15.8787 36.1203 15.6863 37.0816L14.4275 43.3853L20.7279 42.1265C21.6903 41.9346 22.5744 41.4621 23.2686 40.7684L39.533 24.504C39.3851 22.9023 38.6815 21.4028 37.5441 20.2654C36.4067 19.128 34.9072 18.4244 33.3055 18.2765M43.5676 20.4561C42.3633 17.6642 40.138 15.4377 37.3467 14.2319L41.5867 9.99194C44.8826 10.2901 47.5095 12.9202 47.8076 16.2194L43.5676 20.4561Z" fill="url(#paint0_linear_1722_14148)"/>
<path d="M52.8095 16.8488L51.3095 16.8488L52.8095 16.8488ZM51.8157 19.2404L50.755 18.1798L50.754 18.1808L51.8157 19.2404ZM50.0667 20.9928L51.1274 22.0534L51.1284 22.0524L50.0667 20.9928ZM43.5378 27.5217L44.5984 28.5823L44.5984 28.5823L43.5378 27.5217ZM26.7798 44.2796L27.8402 45.3406L27.8405 45.3403L26.7798 44.2796ZM21.7018 46.9959L21.4079 45.525L21.4074 45.5251L21.7018 46.9959ZM12.9634 48.7449L12.669 47.2741L12.6686 47.2741L12.9634 48.7449ZM9.06458 44.8461L10.5353 45.1408L10.5354 45.1405L9.06458 44.8461ZM10.8136 36.1077L12.2844 36.4021L12.2845 36.4016L10.8136 36.1077ZM13.5298 31.0296L12.4692 29.969L12.4689 29.9692L13.5298 31.0296ZM30.2878 14.2717L31.3484 15.3323L31.3484 15.3323L30.2878 14.2717ZM38.569 5.99044L37.5084 4.92978L37.5084 4.92978L38.569 5.99044ZM17.0444 34.5442L15.9837 33.4835L15.9836 33.4837L17.0444 34.5442ZM15.6863 37.0816L14.2155 36.787L14.2153 36.7878L15.6863 37.0816ZM14.4275 43.3853L12.9566 43.0915L12.5162 45.2968L14.7214 44.8562L14.4275 43.3853ZM20.7279 42.1265L20.4346 40.6555L20.434 40.6556L20.7279 42.1265ZM23.2686 40.7684L24.3288 41.8294L24.3292 41.829L23.2686 40.7684ZM39.533 24.504L40.5936 25.5647L41.0913 25.067L41.0266 24.3661L39.533 24.504ZM43.5676 20.4561L42.1903 21.0502L43.0652 23.0786L44.6278 21.5172L43.5676 20.4561ZM37.3467 14.2319L36.286 13.1713L34.7242 14.7331L36.7519 15.609L37.3467 14.2319ZM41.5867 9.99194L41.7218 8.49804L41.0225 8.43478L40.526 8.93128L41.5867 9.99194ZM47.8076 16.2194L48.8678 17.2805L49.3647 16.784L49.3015 16.0844L47.8076 16.2194ZM40.9606 6.5C43.7053 6.5 46.3376 7.59032 48.2784 9.5311L50.3997 7.40978C47.8963 4.90639 44.501 3.5 40.9606 3.5L40.9606 6.5ZM48.2784 9.5311C50.2191 11.4719 51.3095 14.1041 51.3095 16.8488L54.3095 16.8488C54.3095 13.3085 52.9031 9.91317 50.3997 7.40978L48.2784 9.5311ZM51.3095 16.8488C51.3095 17.343 51.1114 17.8234 50.755 18.1798L52.8764 20.3011C53.792 19.3854 54.3095 18.1433 54.3095 16.8488L51.3095 16.8488ZM50.754 18.1808L49.005 19.9331L51.1284 22.0524L52.8774 20.3001L50.754 18.1808ZM49.006 19.9321L42.4771 26.461L44.5984 28.5823L51.1274 22.0534L49.006 19.9321ZM42.4771 26.461L25.7192 43.219L27.8405 45.3403L44.5984 28.5823L42.4771 26.461ZM25.7194 43.2187C24.5414 44.3962 23.0412 45.1986 21.4079 45.525L21.9957 48.4668C24.2097 48.0244 26.2433 46.9367 27.8402 45.3406L25.7194 43.2187ZM21.4074 45.5251L12.669 47.2741L13.2578 50.2157L21.9962 48.4667L21.4074 45.5251ZM12.6686 47.2741C12.376 47.3328 12.0733 47.3182 11.7876 47.2318L10.9188 50.1032C11.6774 50.3328 12.481 50.3714 13.2581 50.2156L12.6686 47.2741ZM11.7876 47.2318C11.5019 47.1453 11.2419 46.9897 11.0309 46.7786L8.90955 48.8999C9.46999 49.4604 10.1602 49.8737 10.9188 50.1032L11.7876 47.2318ZM11.0309 46.7786C10.8198 46.5675 10.6641 46.3076 10.5777 46.0219L7.70622 46.8907C7.93576 47.6493 8.34911 48.3395 8.90955 48.8999L11.0309 46.7786ZM10.5777 46.0219C10.4912 45.7361 10.4767 45.4335 10.5353 45.1408L7.59382 44.5513C7.43808 45.3285 7.47669 46.132 7.70622 46.8907L10.5777 46.0219ZM10.5354 45.1405L12.2844 36.4021L9.34275 35.8133L7.59375 44.5517L10.5354 45.1405ZM12.2845 36.4016C12.6108 34.7683 13.4133 33.2681 14.5908 32.09L12.4689 29.9692C10.8728 31.5661 9.78502 33.5997 9.34265 35.8138L12.2845 36.4016ZM14.5905 32.0903L31.3484 15.3323L29.2271 13.211L12.4692 29.969L14.5905 32.0903ZM31.3484 15.3323L39.6297 7.0511L37.5084 4.92978L29.2271 13.211L31.3484 15.3323ZM39.6297 7.0511C39.9814 6.69939 40.4612 6.5 40.9606 6.5L40.9606 3.5C39.6647 3.5 38.422 4.01611 37.5084 4.92978L39.6297 7.0511ZM32.2481 17.2192L15.9837 33.4835L18.1051 35.6049L34.3694 19.3405L32.2481 17.2192ZM15.9836 33.4837C15.0812 34.3863 14.4661 35.5356 14.2155 36.787L17.1571 37.3761C17.2914 36.705 17.6213 36.0887 18.1052 35.6047L15.9836 33.4837ZM14.2153 36.7878L12.9566 43.0915L15.8985 43.679L17.1572 37.3753L14.2153 36.7878ZM14.7214 44.8562L21.0218 43.5974L20.434 40.6556L14.1336 41.9143L14.7214 44.8562ZM21.0212 43.5976C22.2741 43.3478 23.4251 42.7325 24.3288 41.8294L22.2083 39.7073C21.7237 40.1916 21.1065 40.5215 20.4346 40.6555L21.0212 43.5976ZM24.3292 41.829L40.5936 25.5647L38.4723 23.4433L22.2079 39.7077L24.3292 41.829ZM41.0266 24.3661C40.8466 22.4157 39.9898 20.5897 38.6048 19.2047L36.4834 21.326C37.3732 22.2158 37.9236 23.3889 38.0393 24.6419L41.0266 24.3661ZM38.6048 19.2047C37.2197 17.8197 35.3938 16.9629 33.4433 16.7829L33.1676 19.7702C34.4206 19.8858 35.5936 20.4362 36.4834 21.326L38.6048 19.2047ZM44.9449 19.862C43.5892 16.7189 41.0839 14.2124 37.9415 12.8549L36.7519 15.609C39.1921 16.6631 41.1375 18.6095 42.1903 21.0502L44.9449 19.862ZM38.4074 15.2926L42.6474 11.0526L40.526 8.93128L36.286 13.1713L38.4074 15.2926ZM41.4516 11.4858C44.0245 11.7186 46.0806 13.7756 46.3137 16.3544L49.3015 16.0844C48.9383 12.0648 45.7408 8.86156 41.7218 8.49804L41.4516 11.4858ZM46.7473 15.1584L42.5073 19.3951L44.6278 21.5172L48.8678 17.2805L46.7473 15.1584Z" fill="white" mask="url(#path-1-outside-1_1722_14148)"/>
</g>
<defs>
<filter id="filter0_d_1722_14148" x="-4" y="0" width="62.3096" height="61" filterUnits="userSpaceOnUse" color-interpolation-filters="sRGB">
<feFlood flood-opacity="0" result="BackgroundImageFix"/>
<feColorMatrix in="SourceAlpha" type="matrix" values="0 0 0 0 0 0 0 0 0 0 0 0 0 0 0 0 0 0 127 0" result="hardAlpha"/>
<feOffset dy="4"/>
<feGaussianBlur stdDeviation="2"/>
<feComposite in2="hardAlpha" operator="out"/>
<feColorMatrix type="matrix" values="0 0 0 0 0 0 0 0 0 0 0 0 0 0 0 0 0 0 0.25 0"/>
<feBlend mode="normal" in2="BackgroundImageFix" result="effect1_dropShadow_1722_14148"/>
<feBlend mode="normal" in="SourceGraphic" in2="effect1_dropShadow_1722_14148" result="shape"/>
</filter>
<linearGradient id="paint0_linear_1722_14148" x1="30.9047" y1="5" x2="30.9047" y2="48.8095" gradientUnits="userSpaceOnUse">
<stop offset="0.38" stop-color="#B5B4F2"/>
<stop offset="1" stop-color="#A2E4FA"/>
</linearGradient>
</defs>
</svg>
